<?xml version="1.0" encoding="UTF-8"?>
<!DOCTYPE svg PUBLIC "-//W3C//DTD SVG 1.1//EN" "http://www.w3.org/Graphics/SVG/1.1/DTD/svg11.dtd">
<!-- Creator: CorelDRAW -->
<svg xmlns="http://www.w3.org/2000/svg" xml:space="preserve" width="63.9mm" height="63.9mm" shape-rendering="geometricPrecision" text-rendering="geometricPrecision" image-rendering="optimizeQuality" fill-rule="evenodd" clip-rule="evenodd"
viewBox="0 0 63.9 63.9">
 <defs>
    <linearGradient id="id0" gradientUnits="userSpaceOnUse" x1="40.5135" y1="32.545" x2="52.8054" y2="32.545">
     <stop offset="0" stop-color="#CDD7DB"/>
     <stop offset="1" stop-color="white"/>
    </linearGradient>
    <linearGradient id="id1" gradientUnits="userSpaceOnUse" x1="20.5452" y1="33.5428" x2="39.8525" y2="33.5428">
     <stop offset="0" stop-color="#466C79"/>
     <stop offset="1" stop-color="#C2CFD3"/>
    </linearGradient>
    <linearGradient id="id2" gradientUnits="userSpaceOnUse" x1="16.9606" y1="24.264" x2="19.4879" y2="24.264">
     <stop offset="0" stop-color="#CDD7DB"/>
     <stop offset="1" stop-color="white"/>
    </linearGradient>
 </defs>
 <g id="Layer_x0020_1">
  <metadata id="CorelCorpID_0Corel-Layer"/>
  <g id="_191585080">
   <path id="_191168560" fill="url(#id0)" stroke="#1F1A17" stroke-width="1.4111" d="M32.3939 13.7996l17.5808 44.9685 4.6434 -0.1361 2.4308 -2.14c4.9755,-46.9548 -15.8034,-50.17 -25.7542,-49.4326l1.0992 6.7402z"/>
   <path id="_191974464" fill="url(#id1)" stroke="#1F1A17" stroke-width="1.4111" d="M19.5724 58.9951l0.0094 -1.276 0 -2.0868c0,-1.165 0.3007,-2.4154 0.9019,-3.7503 0.6016,-1.335 2.1431,-3.543 4.6243,-6.6264l2.8767 -3.5534c1.0898,-1.353 1.8517,-2.5468 2.2837,-3.5808 0.4328,-1.0339 0.6302,-2.1151 0.5924,-3.2429 -0.4133,0.5267 -0.8554,0.9773 -1.3253,1.3536 -0.47,0.3759 -1.4759,0.9214 -3.0172,1.6358l-3.158 1.4656c-1.0907,0.5266 -2.04,1.2129 -2.8482,2.0585 -0.8081,0.8462 -1.5694,2.04 -2.284,3.582 -0.5264,1.0899 -0.959,1.7573 -1.2972,2.0017 -0.3383,0.2441 -0.7337,0.3664 -1.1844,0.3664 -0.4133,0.0379 -0.9402,-0.056 -1.5786,-0.2822 -0.6394,-0.2251 -1.1664,-0.4889 -1.5793,-0.7891l-2.0866 0c-1.3536,-0.526 -2.4342,-1.4198 -3.2427,-2.6786 -0.8089,-1.2596 -1.1946,-2.6603 -1.1562,-4.2021 0,-0.6765 0.1219,-1.4285 0.3665,-2.2555 0.2439,-0.827 0.705,-1.8801 1.3816,-3.1582 2.1432,-4.1357 3.3461,-6.5041 3.6096,-7.1061 0.2627,-0.6016 0.5074,-1.1841 0.7332,-1.7481l-0.2258 -1.6916c0.3383,-0.8271 0.8835,-1.7582 1.6352,-2.7919 0.7522,-1.0342 1.655,-2.5098 2.7076,-4.4274 -0.1886,-0.752 -0.3672,-1.4375 -0.5363,-2.0583 -0.169,-0.6202 -0.2539,-1.0055 -0.2539,-1.1566 -0.5256,-2.0675 -0.7795,-3.0638 -0.7611,-2.9883 0.0186,0.0752 0.0283,0.0939 0.0283,0.0562 0,-0.5263 0.1685,-0.9869 0.5075,-1.3814 0.3383,-0.3947 0.7144,-0.5924 1.128,-0.5924 0.5262,0 1.156,0.2446 1.8896,0.7333 0.7328,0.4888 1.5694,1.222 2.5087,2.1991 0.5269,0.602 0.9777,1.1374 1.3543,1.6076 0.3757,0.4698 0.7704,0.9679 1.1842,1.4945l0.9585 -0.2259c0.5261,-2.1053 0.7801,-3.1483 0.7617,-3.13 -0.0192,0.0189 -0.0091,0.0097 0.0275,-0.0281 0.2635,-0.9403 0.5826,-1.6168 0.9595,-2.0301 0.3753,-0.4137 0.8268,-0.6204 1.3532,-0.6204 0.7515,0 1.5692,0.6204 2.453,1.8609 0.8839,1.2409 1.5326,2.5759 1.9457,4.0044 0.3758,-0.113 0.7572,-0.2373 1.1563,-0.2819 14.8986,-1.6699 21.3573,33.7594 21.3573,45.0617l-34.7606 0.2595z"/>
   <path id="_191511768" fill="url(#id2)" stroke="#1F1A17" stroke-width="1.4111" d="M15.0652 24.686l5.1506 -2.0629c1.1677,-0.4677 0.6556,-0.9848 0.7024,0.0937 0.0468,1.0784 -0.0937,3.3288 -2.2944,3.7508 -2.2007,0.422 -3.0437,0.422 -3.2309,-0.3751 -0.1872,-0.797 -0.3277,-1.4065 -0.3277,-1.4065z"/>
   <path id="_191918400" fill="none" stroke="#1F1A17" stroke-width="1.4111" d="M8.7414 42.2475c-0.5471,-1.5728 0.2523,-3.9282 0.9361,-2.5605 0.6839,1.3676 0.9786,3.0392 0.2948,3.1076 -0.6838,0.0684 -1.2309,-0.5471 -1.2309,-0.5471z"/>
   <line id="_191526384" fill="none" stroke="#1F1A17" stroke-width="1.4111" x1="12.5886" y1="46.2707" x2="14.6221" y2= "44.2988" />
   <polygon id="_191972984" fill="none" stroke="#1F1A17" stroke-width="1.4111" points="36.1581,13.4468 39.6913,9.6792 39.6432,14.8816 "/>
   <polygon id="_190602376" fill="none" stroke="#1F1A17" stroke-width="1.4111" points="42.0948,17.8352 47.3123,15.8676 44.788,20.885 "/>
   <polygon id="_192604696" fill="none" stroke="#1F1A17" stroke-width="1.4111" points="45.9145,23.5083 51.4732,23.069 47.6534,27.1867 "/>
   <polygon id="_140785816" fill="none" stroke="#1F1A17" stroke-width="1.4111" points="48.9558,30.5293 54.523,30.8452 50.1817,34.409 "/>
   <path id="_190755728" fill="none" stroke="#1F1A17" stroke-width="1.4111" d="M19.299 37.1158c2.0224,-2.7446 2.4699,-2.9258 4.7517,-3.44 7.9947,-1.8015 6.7033,-6.8352 6.1505,-11.9102 6.9268,4.6859 7.0326,12.7369 1.8306,20.3323 -3.0086,4.393 -4.8723,8.8019 -5.7366,12.9114"/>
   <polygon id="_192881096" fill="none" stroke="#1F1A17" stroke-width="1.4111" points="51.1196,37.5618 55.826,38.2197 51.8894,40.9428 "/>
   <polygon id="_192888656" fill="none" stroke="#1F1A17" stroke-width="1.4111" points="52.5602,44.3188 56.0258,44.8032 53.1271,46.8084 "/>
   <line id="_192998752" fill="none" stroke="#1F1A17" stroke-width="1.4111" x1="51.0538" y1="54.8952" x2="25.6717" y2= "54.8952" />
  </g>
 </g>
</svg>
