<?xml version="1.0" encoding="UTF-8"?>
<!DOCTYPE svg PUBLIC "-//W3C//DTD SVG 1.1//EN" "http://www.w3.org/Graphics/SVG/1.1/DTD/svg11.dtd">
<!-- Creator: CorelDRAW -->
<svg xmlns="http://www.w3.org/2000/svg" xml:space="preserve" width="63.9mm" height="63.9mm" shape-rendering="geometricPrecision" text-rendering="geometricPrecision" image-rendering="optimizeQuality" fill-rule="evenodd" clip-rule="evenodd"
viewBox="0 0 63.9 63.9">
 <defs>
   <linearGradient id="id0" gradientUnits="userSpaceOnUse" x1="24.0485" y1="33.7457" x2="39.8512" y2="33.7457">
    <stop offset="0" stop-color="#CDD7DB"/>
    <stop offset="1" stop-color="white"/>
   </linearGradient>
   <linearGradient id="id1" gradientUnits="userSpaceOnUse" x1="26.9216" y1="53.9878" x2="36.9777" y2="53.9878">
    <stop offset="0" stop-color="#466C79"/>
    <stop offset="1" stop-color="#C2CFD3"/>
   </linearGradient>
   <linearGradient id="id2" gradientUnits="userSpaceOnUse" x1="26.9216" y1="35.5413" x2="36.9777" y2="35.5413">
    <stop offset="0" stop-color="#466C79"/>
    <stop offset="1" stop-color="#C2CFD3"/>
   </linearGradient>
 </defs>
 <g id="Layer_x0020_1">
  <metadata id="CorelCorpID_0Corel-Layer"/>
  <path fill="url(#id0)" stroke="#1F1A17" stroke-width="1.4111" d="M31.95 8.6054c6.9407,0 12.5699,5.6289 12.5699,12.57 0,4.96 -2.8754,9.2485 -7.0484,11.2934 -0.0417,0.4235 -0.0703,0.8492 -0.0835,1.2769l7.1319 0 0 3.5915 -6.8227 0c0.8598,3.9539 3.6406,7.9797 10.414,11.7523l0 3.5915 -3.5913 0 0 2.6137 7.1832 0 0 3.5914 -39.5065 0 0 -3.5914 7.1828 0 0 -2.6137 -3.5917 0 0 -3.5915c6.7739,-3.7726 9.5548,-7.7984 10.4148,-11.7523l-6.8231 0 0 -3.5915 7.1317 0c-0.0132,-0.4277 -0.0415,-0.8537 -0.0831,-1.2769 -4.1732,-2.0449 -7.0486,-6.3334 -7.0486,-11.2934 0,-6.9411 5.6289,-12.57 12.5706,-12.57z"/>
  <path fill="none" stroke="#1F1A17" stroke-width="1.4111" d="M23.4926 50.5602l-2.6204 0 0 -1.4819c4.942,-2.7523 6.9709,-5.6894 7.5983,-8.5741"/>
  <rect fill="none" stroke="#1F1A17" stroke-width="1.4111" x="12.1966" y="55.2947" width="39.5065" height="3.5913"/>
  <rect fill="url(#id1)" stroke="#1F1A17" stroke-width="1.4111" x="19.3794" y="52.681" width="25.1405" height="2.6137"/>
  <rect fill="url(#id2)" stroke="#1F1A17" stroke-width="1.4111" x="19.3794" y="33.7457" width="25.1405" height="3.5913"/>
  <path fill="none" stroke="#1F1A17" stroke-width="1.4111" d="M27.672 29.1445c-3.4024,-1.4416 -5.7468,-4.4647 -5.7468,-7.9612 0,-3.0581 1.7927,-5.7549 4.519,-7.3475"/>
 </g>
</svg>
