<?xml version="1.0" encoding="UTF-8"?>
<svg width="100px" height="100px" viewBox="0 0 100 100" version="1.1" xmlns="http://www.w3.org/2000/svg" xmlns:xlink="http://www.w3.org/1999/xlink">
    <title>画板</title>
    <g id="画板" stroke="none" stroke-width="1" fill="none" fill-rule="evenodd">
        <g id="bb" transform="translate(7.6251, 8)">
            <g id="g4081" transform="translate(0, 0.3192)">
                <path d="M42.9296,11.5644 C44.3376,11.4194 45.5405,10.7442 46.375,9.701 C47.5581,8.7547 48.2677,7.3348 48.2677,5.6788 C48.2677,4.259 47.5581,2.8391 46.375,1.6566 C45.4286,0.4735 44.0087,0 42.3528,0 C40.9329,0 39.5137,0.4735 38.3306,1.6566 C37.1475,2.8391 36.674,4.259 36.674,5.6788 C36.674,7.3348 37.1475,8.7547 38.3306,9.701 C39.3427,10.7131 40.528,11.3788 41.7383,11.5501 C35.6297,14.3128 30.6217,17.2894 26.5001,20.266 C22.4779,23.3418 20.3484,26.6544 19.8749,30.2031 C19.4014,34.6988 20.1117,38.4849 21.5309,42.0336 C22.9508,44.8733 25.0802,47.9491 27.6832,51.2617 L23.1875,60.9627 C24.6074,63.5651 26.0266,64.7482 27.9193,64.7482 L33.5981,64.7482 C34.0716,66.6409 33.8349,68.7704 32.8885,70.8998 C31.9422,73.2661 29.5759,73.5028 25.7898,71.3734 C21.7676,69.2439 17.5087,68.5343 12.5401,69.2439 C7.5716,69.7167 3.5487,71.3734 -1.77635684e-15,74.4492 L5.4421,81.3105 C8.754,79.1817 12.3034,77.9985 16.0895,77.9985 C19.8749,77.7618 23.8971,78.7081 27.6832,81.3105 C31.7054,83.6767 35.018,83.4399 38.0938,80.128 C39.8016,78.2773 41.0242,76.3192 41.8306,74.3198 C43.2162,70.8845 42.1491,70.8859 43.9872,74.3046 C45.3602,76.8583 47.2215,79.0857 49.9243,80.8376 C53.7098,83.4399 57.0224,83.4399 60.0982,81.3105 C62.7012,78.9449 66.2499,77.9985 70.5088,78.2346 C74.5317,78.7081 77.6075,79.6545 79.5002,81.3105 L83.9959,74.2124 C81.8665,72.083 78.3171,70.427 73.3486,69.4806 C68.1432,68.7704 63.8843,69.4806 60.5717,71.8462 C57.0224,74.4492 54.6561,74.2124 53.0002,71.3734 C51.5803,68.5343 50.8707,66.4041 51.3435,64.7482 L57.0224,64.7482 C58.4422,64.5114 59.8614,63.3283 61.5181,60.9627 L57.0224,51.2617 C59.6253,48.6587 61.7548,45.5829 63.6475,42.0336 C65.0674,38.0114 65.5403,33.9892 65.0674,29.967 C64.5939,26.6544 63.174,24.0514 60.3349,22.1587 C55.5017,18.4763 49.7719,15.0173 42.9296,11.5644 L42.9296,11.5644 Z" id="_56408872" fill="#203040"></path>
                <g id="g4084" transform="translate(21.7293, 2)">
                    <path d="M5.96420636,19.8712 C3.16910636,22.013 0.624806358,24.8241 0.131606358,28.441 C-0.263093642,32.2287 0.228406358,35.6825 1.62780636,39.2137 C3.18890636,42.3134 5.38840636,45.305 7.52650636,48.026 L8.28410636,48.9901 L8.15820636,49.2617 L33.0888064,49.2617 L32.8912064,48.8353 L33.8789064,47.8475 C36.4051064,45.3212 38.3972064,42.3641 40.0817064,39.2266 C41.3135064,35.6764 41.7906064,31.9674 41.3547064,28.2256 C40.9568064,25.4757 39.8398064,23.3851 37.4962064,21.8228 L37.4437064,21.7878 L37.3935064,21.7496 C32.1802064,17.7776 26.4158064,14.4495 20.5752064,11.4895 C15.4615064,13.8194 10.5239064,16.5808 5.96420636,19.8712 L5.96420636,19.8712 Z M20.6075064,7.6149 L20.9954064,7.5749 C21.8302064,7.489 22.5598064,7.1068 23.0839064,6.4517 L23.2228064,6.278 L23.3965064,6.1391 C24.1598064,5.5286 24.5384064,4.653 24.5384064,3.6788 C24.5384064,2.6929 23.9037064,1.7427 23.2318064,1.0712 L23.1533064,0.9927 L23.0839064,0.9059 C22.4916064,0.1654 21.5230064,-3.55271368e-15 20.6235064,-3.55271368e-15 C19.6059064,-3.55271368e-15 18.7371064,0.3492 18.0152064,1.0711 C17.2936064,1.7923 16.9447064,2.6616 16.9447064,3.6788 C16.9447064,4.5782 17.1101064,5.5469 17.8505064,6.1391 L17.9371064,6.2084 L18.0155064,6.2868 C18.6185064,6.8898 19.4266064,7.4477 20.2893064,7.5698 L20.6075064,7.6149 L20.6075064,7.6149 Z" id="_56989480" fill="#293848"></path>
                    <path d="M7.15810636,21.476 C4.83220636,23.2623 2.54290636,25.6572 2.11750636,28.6811 C1.76540636,32.1056 2.20290636,35.2019 3.45450636,38.394 C4.95040636,41.3405 7.06590636,44.2029 9.09910636,46.7903 L10.6143064,48.7185 L10.3626064,49.2617 L30.8845064,49.2617 L30.4892064,48.4088 L32.4646064,46.4333 C34.8122064,44.0857 36.6691064,41.3323 38.2434064,38.4219 C39.3373064,35.2064 39.7614064,31.8707 39.3714064,28.4849 C39.0527064,26.314 38.2441064,24.7251 36.3868064,23.4869 L36.2818064,23.4169 L36.1814064,23.3404 C31.3223064,19.6383 25.9677064,16.5064 20.5313064,13.7124 C15.8575064,15.8971 11.3440064,18.458 7.15810636,21.476 L7.15810636,21.476 Z M20.6457064,5.6004 L20.7905064,5.5854 C21.0911064,5.5545 21.3332064,5.4385 21.5221064,5.2023 L21.7999064,4.8551 L22.1472064,4.5773 C22.4335064,4.3483 22.5384064,4.0413 22.5384064,3.6788 C22.5384064,3.305 22.0604064,2.728 21.8180064,2.4857 L21.6609064,2.3287 L21.5221064,2.1553 C21.4218064,2.0298 20.7573064,2 20.6235064,2 C20.1366064,2 19.7754064,2.1393 19.4292064,2.4856 C19.0836064,2.831 18.9447064,3.1925 18.9447064,3.6788 C18.9447064,3.8124 18.9745064,4.4771 19.0998064,4.5773 L19.2729064,4.7158 L19.4297064,4.8726 C19.6945064,5.1373 20.1807064,5.5345 20.5696064,5.5896 L20.6457064,5.6004 L20.6457064,5.6004 Z" id="_57155728" fill="#334151"></path>
                    <path d="M8.35260636,23.0804 C6.50630636,24.502 4.45980636,26.5096 4.10290636,28.9251 C3.79410636,31.9845 4.17790636,34.7238 5.28170636,37.5746 C6.71270636,40.3682 8.74390636,43.1013 10.6716064,45.5546 L12.9445064,48.447 L12.5669064,49.2617 L28.6802064,49.2617 L28.0873064,47.9824 L31.0504064,45.0191 C33.2181064,42.8513 34.9398064,40.3027 36.4031064,37.6198 C37.3590064,34.7436 37.7317064,31.7699 37.3881064,28.7447 C37.1511064,27.1577 36.6432064,26.0615 35.2774064,25.151 L35.1199064,25.046 L34.9694064,24.9313 C30.4661064,21.5003 25.5221064,18.5687 20.4918064,15.9442 C16.2562064,17.9777 12.1645064,20.3346 8.35260636,23.0804 L8.35260636,23.0804 Z" id="_41780168" fill="#3C4959"></path>
                    <path d="M9.54790636,24.6842 C8.19670636,25.7279 6.37510636,27.3942 6.08780636,29.1764 C5.82320636,31.8672 6.15410636,34.2499 7.10960636,36.7559 C8.47620636,39.3966 10.4224064,42.0004 12.2442064,44.3188 L15.2746064,48.1754 L14.7712064,49.2617 L26.4758064,49.2617 L25.6853064,47.5559 L29.6361064,43.605 C31.6229064,41.6182 33.2089064,39.2758 34.5603064,36.821 C35.3806064,34.2834 35.7023064,31.6691 35.4045064,29.0029 C35.2550064,28.0116 35.0277064,27.3882 34.1681064,26.8151 L33.9580064,26.6751 L33.7573064,26.5222 C29.6117064,23.3637 25.0788064,20.6368 20.4570064,18.1856 C16.6577064,20.0616 12.9856064,22.2106 9.54790636,24.6842 Z" id="_56982376" fill="#455262"></path>
                    <path d="M10.7471064,26.2853 C9.90400636,26.9413 8.28790636,28.3405 8.07130636,29.4434 C7.85330636,31.7583 8.13240636,33.7832 8.93860636,35.9381 C10.2412064,38.4262 12.1016064,40.9003 13.8168064,43.0831 L17.6048064,47.9038 L16.9755064,49.2617 L24.2715064,49.2617 L23.2834064,47.1295 L28.2219064,42.1908 C30.0261064,40.3865 31.4761064,38.2521 32.7146064,36.0258 C33.4016064,33.8292 33.6726064,31.5816 33.4224064,29.2752 C33.3902064,29.0764 33.3311064,28.7735 33.2567064,28.6306 C33.2057064,28.5784 33.1139064,28.516 33.0587064,28.4792 L32.7962064,28.3042 L32.5452064,28.113 C28.7593064,25.2286 24.6380064,22.7113 20.4269064,20.4376 C17.0630064,22.1485 13.8091064,24.0846 10.7471064,26.2853 L10.7471064,26.2853 Z" id="_57017592" fill="#4F5A6A"></path>
                    <path d="M11.9526064,27.8819 C11.4235064,28.2988 10.3190064,29.2454 10.0458064,29.8211 C9.89180636,31.7121 10.1235064,33.3542 10.7691064,35.1218 C12.0082064,37.4575 13.7815064,39.8012 15.3894064,41.8474 L19.9350064,47.6322 L19.1799064,49.2617 L22.0671064,49.2617 L20.8814064,46.7031 L26.8077064,40.7766 C28.4275064,39.1567 29.7406064,37.2327 30.8650064,35.2356 C31.3965064,33.4633 31.6227064,31.6583 31.4644064,29.8039 L31.3331064,29.7039 C27.9089064,27.095 24.1996064,24.7926 20.4018064,22.7017 C17.4731064,24.2386 14.6368064,25.9558 11.9526064,27.8819 L11.9526064,27.8819 Z" id="_40867176" fill="#586373"></path>
                    <path d="M13.1433064,29.4892 C12.8118064,29.7493 12.3186064,30.16 12.0075064,30.5139 C11.9579064,31.8473 12.1495064,33.0297 12.6017064,34.3079 C13.7779064,36.4913 15.4624064,38.7034 16.9620064,40.6117 L20.1224064,44.6336 L25.3934064,39.3624 C26.8268064,37.929 28.0018064,36.2184 29.0107064,34.4512 C29.3481064,33.2645 29.5275064,32.0651 29.5135064,30.8374 C26.6263064,28.6899 23.5411064,26.7563 20.3818064,24.9791 C17.8800064,26.3364 15.4534064,27.8332 13.1433064,29.4892 L13.1433064,29.4892 Z" id="_57681800" fill="#616B7B"></path>
                    <path d="M14.3337064,31.0966 C14.2331064,31.1754 14.1220064,31.2646 14.0116064,31.3581 C14.0511064,32.0843 14.1907064,32.7677 14.4377064,33.498 C15.5515064,35.529 17.1448064,37.6073 18.5345064,39.376 L20.3021064,41.6254 L23.9792064,37.9482 C25.2233064,36.7041 26.2580064,35.2114 27.1499064,33.6753 C27.3113064,33.0637 27.4231064,32.4485 27.4771064,31.8256 C25.2028064,30.1885 22.8117064,28.6799 20.3672064,27.2717 C18.2890064,28.44 16.2690064,29.7108 14.3337064,31.0966 Z" id="_56988448" fill="#6B7484"></path>
                    <path d="M16.1571064,32.2577 C16.1918064,32.4017 16.2324064,32.547 16.2790064,32.6952 C17.3310064,34.5729 18.8292064,36.514 20.1071064,38.1403 L20.4819064,38.6172 L22.5649064,36.534 C23.6166064,35.4824 24.5079064,34.2133 25.2804064,32.9101 C25.2931064,32.8562 25.3054064,32.8023 25.3172064,32.7484 C23.7106064,31.6346 22.0498064,30.5824 20.3582064,29.5818 C18.9232064,30.42 17.5196064,31.3104 16.1571064,32.2577 L16.1571064,32.2577 Z" id="_56890192" fill="#747C8C"></path>
                    <path d="M18.7526064,32.9213 C19.3442064,33.8347 20.0136064,34.7476 20.6676064,35.6029 L21.1507064,35.1198 C21.6839064,34.5867 22.1733064,33.9826 22.6238064,33.3447 C21.8768064,32.8551 21.1197064,32.3779 20.3551064,31.9121 C19.8157064,32.2404 19.2813064,32.5768 18.7526064,32.9213 Z" id="_58601392" fill="#747C8C"></path>
                </g>
                <g id="g4096" transform="translate(23.1875, 48.7772)">
                    <path d="M38.3306,12.18545 L33.8349,2.48445 C23.8971,-0.82815 13.96,-0.82815 4.4957,2.48445 L0,12.18545 C1.4199,14.78785 2.8391,15.97095 4.7318,15.97095 L10.4106,15.97095 C13.4865,15.97095 16.3262,16.68055 19.402,17.62685 L28.156,15.97095 L33.8349,15.97095 C35.2547,15.73415 36.6739,14.55105 38.3306,12.18545 Z" id="_57017616" fill="#203040"></path>
                    <g id="g4099" transform="translate(2, 0.0004)">
                        <path d="M34.3306,14.5767965 L34.3306,12.6259965 L29.8349,2.92499653 L29.8349,1.86289653 C21.2634,-0.61150347 12.716,-0.62020347 4.4957,1.83629653 L4.4957,2.92499653 L0,12.6259965 L0,14.8936965 C0.8221,15.6240965 1.7075,15.9705965 2.7318,15.9705965 L8.4106,15.9705965 C11.4865,15.9705965 14.3262,16.6801965 17.402,17.6264965 L26.156,15.9705965 L31.8349,15.9705965 C32.652,15.8342965 33.4686,15.3848965 34.3306,14.5767965 Z" id="_58011632" fill="#293848"></path>
                        <path d="M32.3306,15.8490965 L32.3306,13.0668965 L27.8349,3.36589653 L27.8349,1.33019653 C20.6279,-0.42880347 13.4546,-0.44290347 6.4957,1.28829653 L6.4957,3.36589653 L2,13.0668965 L2,15.9070965 C2.2363,15.9495965 2.4798,15.9705965 2.7318,15.9705965 L8.4106,15.9705965 C11.4865,15.9705965 14.3262,16.6801965 17.402,17.6264965 L26.156,15.9705965 L31.8349,15.9705965 C32.0001,15.9429965 32.1651,15.9026965 32.3306,15.8490965 Z" id="_56176856" fill="#334151"></path>
                        <path d="M30.3306,15.9705965 L30.3306,13.5077965 L25.8349,3.80679653 L25.8349,0.88639653 C19.9898,-0.27960347 14.1777,-0.29460347 8.4957,0.84029653 L8.4957,3.80679653 L4,13.5077965 L4,15.9705965 L8.4106,15.9705965 C11.4865,15.9705965 14.3262,16.6801965 17.402,17.6264965 L26.156,15.9705965 L30.3306,15.9705965 L30.3306,15.9705965 Z" id="_56884560" fill="#3C4959"></path>
                        <path d="M28.3306,15.9705965 L28.3306,13.9486965 L23.8349,4.24769653 L23.8349,0.53229653 C19.3477,-0.16220347 14.8866,-0.17640347 10.4957,0.48899653 L10.4957,4.24769653 L6,13.9486965 L6,15.9705965 L8.4106,15.9705965 C11.4865,15.9705965 14.3262,16.6801965 17.402,17.6264965 L26.156,15.9705965 L28.3306,15.9705965 Z" id="_55542608" fill="#455262"></path>
                        <path d="M26.3306,15.9705965 L26.3306,14.3895965 L21.8349,4.68859653 L21.8349,0.26779653 C18.7008,-0.0767034696 15.5827,-0.0881034696 12.4957,0.23329653 L12.4957,4.68859653 L8,14.3895965 L8,15.9705965 L8.4106,15.9705965 C11.4865,15.9705965 14.3262,16.6801965 17.402,17.6264965 L26.156,15.9705965 L26.3306,15.9705965 Z" id="_57156792" fill="#4F5A6A"></path>
                        <path d="M24.3306,16.3158965 L24.3306,14.8304965 L19.8349,5.12949653 L19.8349,0.0926965304 C18.048,-0.0231034696 16.2672,-0.0299034696 14.4957,0.0718965304 L14.4957,5.12949653 L10,14.8304965 L10,16.0329965 C12.4837,16.2252965 14.8623,16.8450965 17.402,17.6264965 L24.3306,16.3158965 L24.3306,16.3158965 Z" id="_55578176" fill="#586373"></path>
                        <path d="M22.3306,16.6941965 L22.3306,15.2713965 L17.8349,5.57039653 L17.8349,0.00829653042 C17.388,-0.000403469577 16.9416,-0.00230346958 16.4957,0.00279653042 L16.4957,5.57039653 L12,15.2713965 L12,16.2781965 C13.7838,16.5730965 15.5501,17.0566965 17.402,17.6264965 L22.3306,16.6941965 L22.3306,16.6941965 Z" id="_41773856" fill="#616B7B"></path>
                        <path d="M20.3306,17.0724965 L20.3306,15.7122965 L17.1653,8.88209653 L14,15.7122965 L14,16.6829965 C15.1173,16.9470965 16.2429,17.2698965 17.402,17.6264965 L20.3306,17.0724965 L20.3306,17.0724965 Z" id="_56888720" fill="#6B7484"></path>
                        <path d="M18.3306,17.4507965 L18.3306,16.1531965 L17.1653,13.6386965 L16,16.1531965 L16,17.2091965 C16.463,17.3415965 16.9296,17.4811965 17.402,17.6264965 L18.3306,17.4507965 L18.3306,17.4507965 Z" id="_42589672" fill="#747C8C"></path>
                    </g>
                </g>
                <g id="g4110" transform="translate(2.3525, 64.8106)">
                    <path d="M32.835,-1.42108547e-14 C33.2944,2.3405 32.8785,4.7582 31.9193,6.9312 C31.5224,7.9063 30.9017,8.7523 30.009,9.3292 C27.5248,10.9349 24.3388,9.6813 22.0213,8.3814 C18.2054,6.3671 14.277,5.8664 10.0116,6.4756 L9.965,6.4823 L9.9183,6.4867 C6.1809,6.8424 2.9451,7.9204 -1.77635684e-15,10.027 L3.1118,13.9503 C6.2282,12.2433 9.6048,11.2616 13.2157,11.2504 C17.8006,10.978 22.1613,12.2904 25.9437,14.8723 C28.9993,16.6536 31.3225,16.7048 33.8138,14.0223 C35.2256,12.4923 36.3843,10.7579 37.1645,8.8235 C37.3947,8.2528 37.5888,7.6821 37.7588,7.0913 C38.0568,6.0559 38.4741,5.0812 39.8007,4.9978 C41.1447,4.9132 41.6769,5.8495 42.0992,6.8517 C42.3529,7.4536 42.6279,8.0335 42.9374,8.6093 C44.2233,11.001 45.909,12.9256 48.2008,14.4111 L48.2236,14.4259 L48.246,14.4413 C50.8692,16.2445 53.3488,16.8008 56.0493,14.9856 C59.3094,12.088 63.5398,11.2528 67.8082,11.4895 L67.8699,11.4929 L67.9313,11.5001 C70.5842,11.8124 73.6369,12.3989 76.1048,13.7466 L78.5641,9.8637 C76.1906,8.1649 72.9063,7.2236 70.2149,6.707 C66.3609,6.188 62.2034,6.3882 58.9323,8.7188 C56.9397,10.178 54.3796,11.4848 51.8645,10.6489 C50.342,10.1429 49.252,8.9885 48.4613,7.6329 L48.4289,7.5773 L48.4001,7.5198 C47.3056,5.3313 46.0343,2.5298 46.4829,-1.42108547e-14 L32.835,-1.42108547e-14 L32.835,-1.42108547e-14 Z" id="_40916040" fill="#334151"></path>
                    <path d="M34.8665,4.26325641e-14 C35.2896,2.6126 34.8253,5.2891 33.7603,7.7131 C33.2072,9.0581 32.3258,10.2132 31.0947,11.009 C28.9478,12.3965 26.5078,12.2848 24.219,11.5459 C25.1772,12.0221 26.1092,12.5677 27.0107,13.1792 C29.2042,14.4494 30.5458,14.5997 32.3473,12.6623 C33.5925,11.3119 34.6211,9.7826 35.3097,8.0754 C36.2001,5.8677 36.271,3.2159 39.6751,3.0017 C43.1152,2.7853 43.5551,5.5347 44.699,7.6622 C45.8252,9.7569 47.2801,11.4309 49.2887,12.7328 L49.3342,12.7624 L49.379,12.7931 C51.2734,14.0954 52.8899,14.6417 54.8331,13.3917 C55.2079,13.0652 55.5935,12.7618 55.9888,12.4806 C52.4899,13.5563 49.064,12.6358 46.7337,8.6405 L46.6689,8.5294 L46.6114,8.4144 C45.3326,5.8575 44.0729,2.9099 44.4583,4.26325641e-14 L34.8665,4.26325641e-14 Z M21.6774,10.4682 C21.4705,10.3609 21.2666,10.2509 21.0663,10.1389 C17.6316,8.3316 14.1329,7.9073 10.2943,8.4555 L10.2013,8.4688 L10.1077,8.4777 C7.4678,8.7289 5.1214,9.364 2.9548,10.5339 L3.665,11.4294 C6.6316,10.0474 9.804,9.2695 13.1533,9.2507 C16.1024,9.0829 18.9721,9.5112 21.6774,10.4682 L21.6774,10.4682 Z M59.9211,10.4716 C62.4366,9.6049 65.1632,9.3398 67.9189,9.4925 L68.0423,9.4994 L68.1651,9.5138 C70.5197,9.791 73.0574,10.2635 75.357,11.1896 L75.7746,10.5302 C73.8946,9.6066 71.681,9.0281 69.8927,8.6817 C66.5848,8.2425 62.9207,8.3386 60.1024,10.3408 C60.0421,10.3849 59.9817,10.4285 59.9211,10.4716 L59.9211,10.4716 Z" id="_57646320" fill="#4F5A6A"></path>
                    <path d="M36.8886,2.84217094e-14 C36.9667,0.5652 37.0099,1.1327 37.0196,1.6997 C37.7346,1.3118 38.5729,1.0671 39.5496,1.0056 C40.7235,0.9318 41.6445,1.0641 42.3885,1.348 C42.3779,0.9007 42.3944,0.451 42.4425,2.84217094e-14 L36.8886,2.84217094e-14 L36.8886,2.84217094e-14 Z" id="_56883808" fill="#747C8C"></path>
                </g>
            </g>
            <polygon id="_58601416" fill="#9A9EA6" points="44.116 33.9421 44.116 42.2233 40.116 42.2233 40.116 33.9421 33.4908 33.9421 33.4908 29.9421 40.116 29.9421 40.116 21.8977 44.116 21.8977 44.116 29.9421 50.2677 29.9421 50.2677 33.9421"></polygon>
            <g id="g4116" stroke="#1F1A17" stroke-width="1.4111">
                <polygon id="_41789240" points="42.116 31.9421 42.116 40.2233 42.116 31.9421 35.4908 31.9421 42.116 31.9421 42.116 23.8977 42.116 31.9421 48.2677 31.9421"></polygon>
                <path d="M42.3528,11.5937 C44.0087,11.5937 45.4286,10.8841 46.375,9.701 C47.5581,8.7547 48.2677,7.3348 48.2677,5.6788 C48.2677,4.259 47.5581,2.8391 46.375,1.6566 C45.4286,0.4735 44.0087,0 42.3528,0 C40.9329,0 39.5137,0.4735 38.3306,1.6566 C37.1475,2.8391 36.674,4.259 36.674,5.6788 C36.674,7.3348 37.1475,8.7547 38.3306,9.701 C39.5137,10.8841 40.9329,11.5937 42.3528,11.5937 Z" id="_42307400"></path>
                <path d="M65.0674,30.2862 C64.5939,26.9736 63.174,24.3706 60.3349,22.4779 C55.3664,18.6924 49.4508,15.1431 42.3528,11.5937 C35.9644,14.4335 30.7591,17.5093 26.5001,20.5852 C22.4779,23.661 20.3484,26.9736 19.8749,30.5223 C19.4014,35.018 20.1117,38.8041 21.5309,42.3528 C22.9508,45.1925 25.0802,48.2683 27.6832,51.5809 C37.1475,48.2683 47.0846,48.2683 57.0224,51.5809 C59.6253,48.9779 61.7548,45.9021 63.6475,42.3528 C65.0674,38.3306 65.5403,34.3084 65.0674,30.2862 Z" id="_41733272"></path>
                <path d="M27.6832,51.5809 L23.1875,61.2819 C24.6074,63.8843 26.0266,65.0674 27.9193,65.0674 L33.5981,65.0674 C36.674,65.0674 39.5137,65.777 42.5895,66.7233 L51.3435,65.0674 L57.0224,65.0674 C58.4422,64.8306 59.8614,63.6475 61.5181,61.2819 L57.0224,51.5809 C47.0846,48.2683 37.1475,48.2683 27.6832,51.5809 L27.6832,51.5809 Z" id="_41789424"></path>
                <path d="M-1.77635684e-15,74.7684 L5.4421,81.6297 C8.754,79.5009 12.3034,78.3177 16.0895,78.3177 C19.8749,78.081 23.8971,79.0273 27.6832,81.6297 C31.7054,83.9959 35.018,83.7591 38.0938,80.4472 C40.9329,77.3707 42.5895,74.0588 42.5895,70.5094 L42.5895,66.7233 C39.5137,65.777 36.674,65.0674 33.5981,65.0674 C34.0716,66.9601 33.8349,69.0896 32.8885,71.219 C31.9422,73.5853 29.5759,73.822 25.7898,71.6926 C21.7676,69.5631 17.5087,68.8535 12.5401,69.5631 C7.5716,70.0359 3.5487,71.6926 -1.77635684e-15,74.7684 L-1.77635684e-15,74.7684 Z" id="_41553328"></path>
                <path d="M42.5895,66.7233 L42.5895,70.5094 C43.5359,75.0051 45.9021,78.5538 49.9243,81.1568 C53.7098,83.7591 57.0224,83.7591 60.0982,81.6297 C62.7012,79.2641 66.2499,78.3177 70.5088,78.5538 C74.5317,79.0273 77.6075,79.9737 79.5002,81.6297 L83.9959,74.5316 C81.8665,72.4022 78.3171,70.7462 73.3486,69.7998 C68.1432,69.0896 63.8843,69.7998 60.5717,72.1654 C57.0224,74.7684 54.6561,74.5316 53.0002,71.6926 C51.5803,68.8535 50.8707,66.7233 51.3435,65.0674 L42.5895,66.7233 Z" id="_56981792"></path>
            </g>
        </g>
    </g>
</svg>