<?xml version="1.0" encoding="UTF-8"?>
<svg width="100px" height="100px" viewBox="0 0 100 100" version="1.1" xmlns="http://www.w3.org/2000/svg" xmlns:xlink="http://www.w3.org/1999/xlink">
    <title>画板</title>
    <g id="画板" stroke="none" stroke-width="1" fill="none" fill-rule="evenodd">
        <g id="wb" transform="translate(7.6252, 8)">
            <path d="M42.9296,11.8836 C44.3376,11.7386 45.5405,11.0634 46.375,10.0202 C47.5581,9.0739 48.2677,7.654 48.2677,5.998 C48.2677,4.5782 47.5581,3.1583 46.375,1.9758 C45.4286,0.7927 44.0087,0.3192 42.3528,0.3192 C40.9329,0.3192 39.5137,0.7927 38.3306,1.9758 C37.1475,3.1583 36.674,4.5782 36.674,5.998 C36.674,7.654 37.1475,9.0739 38.3306,10.0202 C39.3427,11.0323 40.528,11.698 41.7383,11.8693 C35.6297,14.632 30.6217,17.6086 26.5001,20.5852 C22.4779,23.661 20.3484,26.9736 19.8749,30.5223 C19.4014,35.018 20.1117,38.8041 21.5309,42.3528 C22.9508,45.1925 25.0802,48.2683 27.6832,51.5809 L23.1875,61.2819 C24.6074,63.8843 26.0266,65.0674 27.9193,65.0674 L33.5981,65.0674 C34.0716,66.9601 33.8349,69.0896 32.8885,71.219 C31.9422,73.5853 29.5759,73.822 25.7898,71.6926 C21.7676,69.5631 17.5087,68.8535 12.5401,69.5631 C7.5716,70.0359 3.5487,71.6926 0,74.7684 L5.4421,81.6297 C8.754,79.5009 12.3034,78.3177 16.0895,78.3177 C19.8749,78.081 23.8971,79.0273 27.6832,81.6297 C31.7054,83.9959 35.018,83.7591 38.0938,80.4472 C39.8016,78.5965 41.0242,76.6384 41.8306,74.639 C43.2162,71.2037 42.1491,71.2051 43.9872,74.6238 C45.3602,77.1775 47.2215,79.4049 49.9243,81.1568 C53.7098,83.7591 57.0224,83.7591 60.0982,81.6297 C62.7012,79.2641 66.2499,78.3177 70.5088,78.5538 C74.5317,79.0273 77.6075,79.9737 79.5002,81.6297 L83.9959,74.5316 C81.8665,72.4022 78.3171,70.7462 73.3486,69.7998 C68.1432,69.0896 63.8843,69.7998 60.5717,72.1654 C57.0224,74.7684 54.6561,74.5316 53.0002,71.6926 C51.5803,68.8535 50.8707,66.7233 51.3435,65.0674 L57.0224,65.0674 C58.4422,64.8306 59.8614,63.6475 61.5181,61.2819 L57.0224,51.5809 C59.6253,48.9779 61.7548,45.9021 63.6475,42.3528 C65.0674,38.3306 65.5403,34.3084 65.0674,30.2862 C64.5939,26.9736 63.174,24.3706 60.3349,22.4779 C55.5017,18.7955 49.7719,15.3365 42.9296,11.8836 Z" id="_57017640" fill="#C0C8D8"></path>
            <g id="g4367" transform="translate(2.8113, 2.3192)">
                <path d="M24.8822,19.8712 C22.0871,22.013 19.5428,24.8241 19.0496,28.441 C18.6549,32.2287 19.1464,35.6825 20.5458,39.2137 C22.1069,42.3134 24.3064,45.305 26.4445,48.026 L27.2021,48.9901 L22.6268,58.8629 C23.2127,59.7978 24.0196,60.7482 25.108,60.7482 L32.3481,60.7482 L32.727,62.2628 C33.3498,64.7525 32.945,67.3558 31.9193,69.6794 C31.5224,70.6545 30.9017,71.5005 30.009,72.0774 C27.5248,73.6831 24.3388,72.4295 22.0213,71.1296 C18.2054,69.1153 14.277,68.6146 10.0116,69.2238 L9.965,69.2305 L9.9183,69.2349 C6.1809,69.5906 2.9451,70.6686 -1.77635684e-15,72.7752 L3.1118,76.6985 C6.2282,74.9915 9.6048,74.0098 13.2157,73.9986 C17.8006,73.7262 22.1613,75.0386 25.9437,77.6205 C28.9993,79.4018 31.3225,79.453 33.8138,76.7705 C35.2256,75.2405 36.3843,73.5061 37.1645,71.5717 C37.3947,71.001 37.5888,70.4303 37.7588,69.8395 C38.0568,68.8041 38.4741,67.8294 39.8007,67.746 C41.1447,67.6614 41.6769,68.5977 42.0992,69.5999 C42.3529,70.2018 42.6279,70.7817 42.9374,71.3575 C44.2233,73.7492 45.909,75.6738 48.2008,77.1593 L48.2236,77.1741 L48.246,77.1895 C50.8692,78.9927 53.3488,79.549 56.0493,77.7338 C59.3094,74.8362 63.5398,74.001 67.8082,74.2377 L67.8699,74.2411 L67.9313,74.2483 C70.5842,74.5606 73.6369,75.1471 76.1048,76.4948 L78.5641,72.6119 C76.1906,70.9131 72.9063,69.9718 70.2149,69.4552 C66.3609,68.9362 62.2034,69.1364 58.9323,71.467 C56.9397,72.9262 54.3796,74.233 51.8645,73.3971 C50.342,72.8911 49.252,71.7367 48.4613,70.3811 L48.4289,70.3255 L48.4001,70.268 C47.2257,67.9198 45.8476,64.866 46.6091,62.1991 L47.0233,60.7482 L54.0082,60.7482 C54.8201,60.5341 55.7242,59.5707 56.3929,58.7263 L51.8092,48.8353 L52.7969,47.8475 C55.3231,45.3212 57.3152,42.3641 58.9997,39.2266 C60.2315,35.6764 60.7086,31.9674 60.2727,28.2256 C59.8748,25.4757 58.7578,23.3851 56.4142,21.8228 L56.3617,21.7878 L56.3115,21.7496 C51.0982,17.7776 45.3338,14.4495 39.4932,11.4895 C34.3795,13.8194 29.4419,16.5808 24.8822,19.8712 L24.8822,19.8712 Z M39.5255,7.6149 L39.9134,7.5749 C40.7482,7.489 41.4778,7.1068 42.0019,6.4517 L42.1408,6.278 L42.3145,6.1391 C43.0778,5.5286 43.4564,4.653 43.4564,3.6788 C43.4564,2.6929 42.8217,1.7427 42.1498,1.0712 L42.0713,0.9927 L42.0019,0.9059 C41.4096,0.1654 40.441,-1.77635684e-15 39.5415,-1.77635684e-15 C38.5239,-1.77635684e-15 37.6551,0.3492 36.9332,1.0711 C36.2116,1.7923 35.8627,2.6616 35.8627,3.6788 C35.8627,4.5782 36.0281,5.5469 36.7685,6.1391 L36.8551,6.2084 L36.9335,6.2868 C37.5365,6.8898 38.3446,7.4477 39.2073,7.5698 L39.5255,7.6149 L39.5255,7.6149 Z" id="_55510616" fill="#C4CCDB"></path>
                <path d="M26.0761,21.476 C23.7502,23.2623 21.4609,25.6572 21.0355,28.6811 C20.6834,32.1056 21.1209,35.2019 22.3725,38.394 C23.8684,41.3405 25.9839,44.2029 28.0171,46.7903 L29.5323,48.7185 L24.9482,58.6102 C25.0061,58.6683 25.0613,58.7155 25.1121,58.7482 L33.9094,58.7482 L34.6672,61.7774 C35.3962,64.6914 34.9577,67.7359 33.7603,70.4613 C33.2072,71.8063 32.3258,72.9614 31.0947,73.7572 C28.9478,75.1447 26.5078,75.033 24.219,74.2941 C25.1772,74.7703 26.1092,75.3159 27.0107,75.9274 C29.2042,77.1976 30.5458,77.3479 32.3473,75.4105 C33.5925,74.0601 34.6211,72.5308 35.3097,70.8236 C36.2001,68.6159 36.271,65.9641 39.6751,65.7499 C43.1152,65.5335 43.5551,68.2829 44.699,70.4104 C45.8252,72.5051 47.2801,74.1791 49.2887,75.481 L49.3342,75.5106 L49.379,75.5413 C51.2734,76.8436 52.8899,77.3899 54.8331,76.1399 C55.2079,75.8134 55.5935,75.51 55.9888,75.2288 C52.4899,76.3045 49.064,75.384 46.7337,71.3887 L46.6689,71.2776 L46.6114,71.1626 C45.1713,68.2832 43.7555,64.9085 44.6859,61.65 L45.5144,58.7482 L53.6044,58.7482 C53.7328,58.6644 53.8785,58.5376 54.0309,58.3861 L49.4072,48.4088 L51.3826,46.4333 C53.7302,44.0857 55.5871,41.3323 57.1614,38.4219 C58.2553,35.2064 58.6794,31.8707 58.2894,28.4849 C57.9707,26.314 57.1621,24.7251 55.3048,23.4869 L55.1998,23.4169 L55.0994,23.3404 C50.2403,19.6383 44.8857,16.5064 39.4493,13.7124 C34.7755,15.8971 30.262,18.458 26.0761,21.476 L26.0761,21.476 Z M21.6774,73.2164 C21.4705,73.1091 21.2666,72.9991 21.0663,72.8871 C17.6316,71.0798 14.1329,70.6555 10.2943,71.2037 L10.2013,71.217 L10.1077,71.2259 C7.4678,71.4771 5.1214,72.1122 2.9548,73.2821 L3.665,74.1776 C6.6316,72.7956 9.804,72.0177 13.1533,71.9989 C16.1024,71.8311 18.9721,72.2594 21.6774,73.2164 L21.6774,73.2164 Z M59.9211,73.2198 C62.4366,72.3531 65.1632,72.088 67.9189,72.2407 L68.0423,72.2476 L68.1651,72.262 C70.5197,72.5392 73.0574,73.0117 75.357,73.9378 L75.7746,73.2784 C73.8946,72.3548 71.681,71.7763 69.8927,71.4299 C66.5848,70.9907 62.9207,71.0868 60.1024,73.089 C60.0421,73.1331 59.9817,73.1767 59.9211,73.2198 L59.9211,73.2198 Z M39.5637,5.6004 L39.7085,5.5854 C40.0091,5.5545 40.2512,5.4385 40.4401,5.2023 L40.7179,4.8551 L41.0652,4.5773 C41.3515,4.3483 41.4564,4.0413 41.4564,3.6788 C41.4564,3.305 40.9784,2.728 40.736,2.4857 L40.5789,2.3287 L40.4401,2.1553 C40.3398,2.0298 39.6753,2 39.5415,2 C39.0546,2 38.6934,2.1393 38.3472,2.4856 C38.0016,2.831 37.8627,3.1925 37.8627,3.6788 C37.8627,3.8124 37.8925,4.4771 38.0178,4.5773 L38.1909,4.7158 L38.3477,4.8726 C38.6125,5.1373 39.0987,5.5345 39.4876,5.5896 L39.5637,5.6004 L39.5637,5.6004 Z" id="_56889256" fill="#C9D0DF"></path>
                <path d="M27.2706,23.0804 C25.4243,24.502 23.3778,26.5096 23.0209,28.9251 C22.7121,31.9845 23.0959,34.7238 24.1997,37.5746 C25.6307,40.3682 27.6619,43.1013 29.5896,45.5546 L31.8625,48.447 L28.0154,56.7482 L35.4707,56.7482 L36.6074,61.292 C36.8682,62.3346 37.0015,63.3917 37.0196,64.4479 C37.7346,64.06 38.5729,63.8153 39.5496,63.7538 C40.7235,63.68 41.6445,63.8123 42.3885,64.0962 C42.365,63.1065 42.4757,62.1063 42.7628,61.1009 L44.0056,56.7482 L51.0676,56.7482 L47.0053,47.9824 L49.9684,45.0191 C52.1361,42.8513 53.8578,40.3027 55.3211,37.6198 C56.277,34.7436 56.6497,31.7699 56.3061,28.7447 C56.0691,27.1577 55.5612,26.0615 54.1954,25.151 L54.0379,25.046 L53.8874,24.9313 C49.3841,21.5003 44.4401,18.5687 39.4098,15.9442 C35.1742,17.9777 31.0825,20.3346 27.2706,23.0804 L27.2706,23.0804 Z" id="_57122384" fill="#CDD4E2"></path>
                <path d="M28.4659,24.6842 C27.1147,25.7279 25.2931,27.3942 25.0058,29.1764 C24.7412,31.8672 25.0721,34.2499 26.0276,36.7559 C27.3942,39.3966 29.3404,42.0004 31.1622,44.3188 L34.1926,48.1754 L31.1466,54.7482 L37.032,54.7482 L38.5476,60.8067 C38.632,61.144 38.7048,61.4828 38.7662,61.8225 C38.9804,61.7936 39.1997,61.7719 39.424,61.7578 C39.816,61.7331 40.1955,61.7332 40.5626,61.7564 C40.6327,61.3568 40.7244,60.9552 40.8396,60.5518 L42.4967,54.7482 L47.9364,54.7482 L44.6033,47.5559 L48.5541,43.605 C50.5409,41.6182 52.1269,39.2758 53.4783,36.821 C54.2986,34.2834 54.6203,31.6691 54.3225,29.0029 C54.173,28.0116 53.9457,27.3882 53.0861,26.8151 L52.876,26.6751 L52.6753,26.5222 C48.5297,23.3637 43.9968,20.6368 39.375,18.1856 C35.5757,20.0616 31.9036,22.2106 28.4659,24.6842 L28.4659,24.6842 Z" id="_56408944" fill="#D1D8E5"></path>
                <path d="M29.6651,26.2853 C28.822,26.9413 27.2059,28.3405 26.9893,29.4434 C26.7713,31.7583 27.0504,33.7832 27.8566,35.9381 C29.1592,38.4262 31.0196,40.9003 32.7348,43.0831 L36.5228,47.9038 L34.2778,52.7482 L38.5933,52.7482 L39.7115,57.2182 L40.9878,52.7482 L44.8052,52.7482 L42.2014,47.1295 L47.1399,42.1908 C48.9441,40.3865 50.3941,38.2521 51.6326,36.0258 C52.3196,33.8292 52.5906,31.5816 52.3404,29.2752 C52.3082,29.0764 52.2491,28.7735 52.1747,28.6306 C52.1237,28.5784 52.0319,28.516 51.9767,28.4792 L51.7142,28.3042 L51.4632,28.113 C47.6773,25.2286 43.556,22.7113 39.3449,20.4376 C35.981,22.1485 32.7271,24.0846 29.6651,26.2853 L29.6651,26.2853 Z" id="_56407984" fill="#DAE0EC"></path>
                <path d="M30.8706,27.8819 C30.3415,28.2988 29.237,29.2454 28.9638,29.8211 C28.8098,31.7121 29.0415,33.3542 29.6871,35.1218 C30.9262,37.4575 32.6995,39.8012 34.3074,41.8474 L38.853,47.6322 L37.409,50.7482 L41.674,50.7482 L39.7994,46.7031 L45.7257,40.7766 C47.3455,39.1567 48.6586,37.2327 49.783,35.2356 C50.3145,33.4633 50.5407,31.6583 50.3824,29.8039 L50.2511,29.7039 C46.8269,27.095 43.1176,24.7926 39.3198,22.7017 C36.3911,24.2386 33.5548,25.9558 30.8706,27.8819 L30.8706,27.8819 Z" id="_57120752" fill="#DEE4EF"></path>
                <path d="M32.0613,29.4892 C31.7298,29.7493 31.2366,30.16 30.9255,30.5139 C30.8759,31.8473 31.0675,33.0297 31.5197,34.3079 C32.6959,36.4913 34.3804,38.7034 35.88,40.6117 L39.0404,44.6336 L44.3114,39.3624 C45.7448,37.929 46.9198,36.2184 47.9287,34.4512 C48.2661,33.2645 48.4455,32.0651 48.4315,30.8374 C45.5443,28.6899 42.4591,26.7563 39.2998,24.9791 C36.798,26.3364 34.3714,27.8332 32.0613,29.4892 L32.0613,29.4892 Z" id="_57121568" fill="#E7ECF5"></path>
                <path d="M33.2517,31.0966 C33.1511,31.1754 33.04,31.2646 32.9296,31.3581 C32.9691,32.0843 33.1087,32.7677 33.3557,33.498 C34.4695,35.529 36.0628,37.6073 37.4525,39.376 L39.2201,41.6254 L42.8972,37.9482 C44.1413,36.7041 45.176,35.2114 46.0679,33.6753 C46.2293,33.0637 46.3411,32.4485 46.3951,31.8256 C44.1208,30.1885 41.7297,28.6799 39.2852,27.2717 C37.207,28.44 35.187,29.7108 33.2517,31.0966 Z" id="_57655280" fill="#EBF0F9"></path>
                <path d="M35.0751,32.2577 C35.1098,32.4017 35.1504,32.547 35.197,32.6952 C36.249,34.5729 37.7472,36.514 39.0251,38.1403 L39.3999,38.6172 L41.4829,36.534 C42.5346,35.4824 43.4259,34.2133 44.1984,32.9101 C44.2111,32.8562 44.2234,32.8023 44.2352,32.7484 C42.6286,31.6346 40.9678,30.5824 39.2762,29.5818 C37.8412,30.42 36.4376,31.3104 35.0751,32.2577 L35.0751,32.2577 Z" id="_56913904" fill="#F0F4FC"></path>
                <path d="M37.6706,32.9213 C38.2622,33.8347 38.9316,34.7476 39.5856,35.6029 L40.0687,35.1198 C40.6019,34.5867 41.0913,33.9826 41.5418,33.3447 C40.7948,32.8551 40.0377,32.3779 39.2731,31.9121 C38.7337,32.2404 38.1993,32.5768 37.6706,32.9213 Z" id="_41779872" fill="#F4F8FF"></path>
            </g>
            <g id="g4379" transform="translate(26.1611, 47.0991)">
                <path d="M34.3306,14.5767965 L34.3306,12.6259965 L29.8349,2.92499653 L29.8349,1.86289653 C21.2634,-0.61150347 12.716,-0.62020347 4.4957,1.83629653 L4.4957,2.92499653 L0,12.6259965 L0,14.8936965 C0.8221,15.6240965 1.7075,15.9705965 2.7318,15.9705965 L8.4106,15.9705965 C11.4865,15.9705965 14.3262,16.6801965 17.402,17.6264965 L26.156,15.9705965 L31.8349,15.9705965 C32.652,15.8342965 33.4686,15.3848965 34.3306,14.5767965 Z" id="_58281968" fill="#C4CCDB"></path>
                <path d="M32.3306,15.8490965 L32.3306,13.0668965 L27.8349,3.36589653 L27.8349,1.33019653 C20.6279,-0.42880347 13.4546,-0.44290347 6.4957,1.28829653 L6.4957,3.36589653 L2,13.0668965 L2,15.9070965 C2.2363,15.9495965 2.4798,15.9705965 2.7318,15.9705965 L8.4106,15.9705965 C11.4865,15.9705965 14.3262,16.6801965 17.402,17.6264965 L26.156,15.9705965 L31.8349,15.9705965 C32.0001,15.9429965 32.1651,15.9026965 32.3306,15.8490965 Z" id="_57120944" fill="#C9D0DF"></path>
                <path d="M30.3306,15.9705965 L30.3306,13.5077965 L25.8349,3.80679653 L25.8349,0.88639653 C19.9898,-0.27960347 14.1777,-0.29460347 8.4957,0.84029653 L8.4957,3.80679653 L4,13.5077965 L4,15.9705965 L8.4106,15.9705965 C11.4865,15.9705965 14.3262,16.6801965 17.402,17.6264965 L26.156,15.9705965 L30.3306,15.9705965 Z" id="_56411936" fill="#CDD4E2"></path>
                <path d="M28.3306,15.9705965 L28.3306,13.9486965 L23.8349,4.24769653 L23.8349,0.53229653 C19.3477,-0.16220347 14.8866,-0.17640347 10.4957,0.48899653 L10.4957,4.24769653 L6,13.9486965 L6,15.9705965 L8.4106,15.9705965 C11.4865,15.9705965 14.3262,16.6801965 17.402,17.6264965 L26.156,15.9705965 L28.3306,15.9705965 Z" id="_41439168" fill="#D6DCE8"></path>
                <path d="M26.3306,15.9705965 L26.3306,14.3895965 L21.8349,4.68859653 L21.8349,0.26779653 C18.7008,-0.0767034696 15.5827,-0.0881034696 12.4957,0.23329653 L12.4957,4.68859653 L8,14.3895965 L8,15.9705965 L8.4106,15.9705965 C11.4865,15.9705965 14.3262,16.6801965 17.402,17.6264965 L26.156,15.9705965 L26.3306,15.9705965 Z" id="_39428496" fill="#DEE4EF"></path>
                <path d="M24.3306,16.3158965 L24.3306,14.8304965 L19.8349,5.12949653 L19.8349,0.0926965304 C18.048,-0.0231034696 16.2672,-0.0299034696 14.4957,0.0718965304 L14.4957,5.12949653 L10,14.8304965 L10,16.0329965 C12.4837,16.2252965 14.8623,16.8450965 17.402,17.6264965 L24.3306,16.3158965 L24.3306,16.3158965 Z" id="_56467440" fill="#E3E8F2"></path>
                <path d="M22.3306,16.6941965 L22.3306,15.2713965 L17.8349,5.57039653 L17.8349,0.00829653042 C17.388,-0.000403469577 16.9416,-0.00230346958 16.4957,0.00279653042 L16.4957,5.57039653 L12,15.2713965 L12,16.2781965 C13.7838,16.5730965 15.5501,17.0566965 17.402,17.6264965 L22.3306,16.6941965 L22.3306,16.6941965 Z" id="_56981672" fill="#EBF0F9"></path>
                <path d="M20.3306,17.0724965 L20.3306,15.7122965 L17.1653,8.88209653 L14,15.7122965 L14,16.6829965 C15.1173,16.9470965 16.2429,17.2698965 17.402,17.6264965 L20.3306,17.0724965 L20.3306,17.0724965 Z" id="_56888144" fill="#F0F4FC"></path>
                <path d="M18.3306,17.4507965 L18.3306,16.1531965 L17.1653,13.6386965 L16,16.1531965 L16,17.2091965 C16.463,17.3415965 16.9296,17.4811965 17.402,17.6264965 L18.3306,17.4507965 L18.3306,17.4507965 Z" id="_42589648" fill="#F4F8FF"></path>
            </g>
            <g id="g4390" stroke="#1F1A17" stroke-width="1.4111">
                <polygon id="_57954960" points="42.116 31.9421 42.116 40.2233 42.116 31.9421 35.4908 31.9421 42.116 31.9421 42.116 23.8977 42.116 31.9421 48.2677 31.9421"></polygon>
                <path d="M42.3528,11.5937 C44.0087,11.5937 45.4286,10.8841 46.375,9.701 C47.5581,8.7547 48.2677,7.3348 48.2677,5.6788 C48.2677,4.259 47.5581,2.8391 46.375,1.6566 C45.4286,0.4735 44.0087,0 42.3528,0 C40.9329,0 39.5137,0.4735 38.3306,1.6566 C37.1475,2.8391 36.674,4.259 36.674,5.6788 C36.674,7.3348 37.1475,8.7547 38.3306,9.701 C39.5137,10.8841 40.9329,11.5937 42.3528,11.5937 Z" id="_57955160"></path>
                <path d="M65.0674,30.2862 C64.5939,26.9736 63.174,24.3706 60.3349,22.4779 C55.3664,18.6924 49.4508,15.1431 42.3528,11.5937 C35.9644,14.4335 30.7591,17.5093 26.5001,20.5852 C22.4779,23.661 20.3484,26.9736 19.8749,30.5223 C19.4014,35.018 20.1117,38.8041 21.5309,42.3528 C22.9508,45.1925 25.0802,48.2683 27.6832,51.5809 C37.1475,48.2683 47.0846,48.2683 57.0224,51.5809 C59.6253,48.9779 61.7548,45.9021 63.6475,42.3528 C65.0674,38.3306 65.5403,34.3084 65.0674,30.2862 Z" id="_40482368"></path>
                <path d="M27.6832,51.5809 L23.1875,61.2819 C24.6074,63.8843 26.0266,65.0674 27.9193,65.0674 L33.5981,65.0674 C36.674,65.0674 39.5137,65.777 42.5895,66.7233 L51.3435,65.0674 L57.0224,65.0674 C58.4422,64.8306 59.8614,63.6475 61.5181,61.2819 L57.0224,51.5809 C47.0846,48.2683 37.1475,48.2683 27.6832,51.5809 L27.6832,51.5809 Z" id="_41733248"></path>
                <path d="M-1.77635684e-15,74.7684 L5.4421,81.6297 C8.754,79.5009 12.3034,78.3177 16.0895,78.3177 C19.8749,78.081 23.8971,79.0273 27.6832,81.6297 C31.7054,83.9959 35.018,83.7591 38.0938,80.4472 C40.9329,77.3707 42.5895,74.0588 42.5895,70.5094 L42.5895,66.7233 C39.5137,65.777 36.674,65.0674 33.5981,65.0674 C34.0716,66.9601 33.8349,69.0896 32.8885,71.219 C31.9422,73.5853 29.5759,73.822 25.7898,71.6926 C21.7676,69.5631 17.5087,68.8535 12.5401,69.5631 C7.5716,70.0359 3.5487,71.6926 -1.77635684e-15,74.7684 L-1.77635684e-15,74.7684 Z" id="_57120920"></path>
                <path d="M42.5895,66.7233 L42.5895,70.5094 C43.5359,75.0051 45.9021,78.5538 49.9243,81.1568 C53.7098,83.7591 57.0224,83.7591 60.0982,81.6297 C62.7012,79.2641 66.2499,78.3177 70.5088,78.5538 C74.5317,79.0273 77.6075,79.9737 79.5002,81.6297 L83.9959,74.5316 C81.8665,72.4022 78.3171,70.7462 73.3486,69.7998 C68.1432,69.0896 63.8843,69.7998 60.5717,72.1654 C57.0224,74.7684 54.6561,74.5316 53.0002,71.6926 C51.5803,68.8535 50.8707,66.7233 51.3435,65.0674 L42.5895,66.7233 Z" id="_41777024"></path>
            </g>
        </g>
    </g>
</svg>