<?xml version="1.0" encoding="UTF-8"?>
<svg width="100px" height="100px" viewBox="0 0 100 100" version="1.1" xmlns="http://www.w3.org/2000/svg" xmlns:xlink="http://www.w3.org/1999/xlink">
    <title>画板</title>
    <g id="画板" stroke="none" stroke-width="1" fill="none" fill-rule="evenodd">
        <g id="wp" transform="translate(24.204, 15.4591)">
            <path d="M50.2864,70.7459 L50.2864,71.7386 L50.2864,72.0597 C49.1489,72.445 47.6295,72.6937 45.7277,72.7886 C44.3085,73.0247 37.2105,73.0247 25.1432,73.0247 C12.8392,73.0247 5.9779,73.0247 4.3213,72.7886 C2.5423,72.6948 1.0974,72.4526 0,72.0771 L0,70.7459 C0,61.9914 0.0624,54.4198 5.5044,48.0315 C9.0538,44.0089 13.076,41.4062 17.5717,39.987 L16.1518,39.2767 L15.4422,39.04 L13.5495,37.6208 C10.2369,35.0177 8.817,32.1786 8.817,28.6294 L9.0538,26.2631 C9.5266,23.8976 10.9465,21.7682 13.5495,19.8747 C15.9157,17.9819 18.7548,16.799 22.0674,16.326 L24.9065,16.089 L28.9287,16.5627 C31.5316,17.0355 34.134,18.2188 36.2634,19.8747 C39.3393,22.241 40.9959,25.3168 40.9959,28.6294 C40.9959,32.1786 39.3393,35.0177 36.2634,37.6208 C35.5538,38.0935 34.3707,38.804 32.9508,39.5134 C32.7597,39.6089 32.5644,39.6999 32.3647,39.7871 C32.4833,39.8519 32.6005,39.918 32.7148,39.987 C37.2105,41.4062 40.9959,44.0089 44.5452,48.0315 C49.9866,54.4198 50.2864,61.9914 50.2864,70.7459 L50.2864,70.7459 Z M31.3845,2.3011 C29.6241,0.7667 27.6121,0 25.0967,0 C22.8329,0 20.5692,0.7667 18.8082,2.3011 C17.2995,3.8355 16.2935,5.6249 16.2935,7.9262 C16.2935,9.9714 17.2995,12.0177 18.8082,13.5513 C20.6869,14.9835 22.6961,15.8525 25.0967,15.8525 C26.606,15.8525 27.863,15.5966 29.1207,15.0855 C29.8758,14.5739 30.6301,14.0631 31.3845,13.5513 C33.1455,12.0177 33.8999,9.9714 33.8999,7.9262 C33.8999,5.6249 33.1455,3.8355 31.3845,2.3011 L31.3845,2.3011 Z" id="path4503" fill="#C0C8D8"></path>
            <g id="_41780144" transform="translate(1.9994, 2)">
                <path d="M33.0594667,34.0197 C35.3725667,32.0404 36.9964667,29.7708 36.9964667,26.6294 C36.9964667,23.6568 35.3352667,21.2222 33.0444667,19.4599 L33.0362667,19.4535 C31.1967667,18.0231 28.9240667,16.9688 26.6310667,16.5414 L22.8729667,16.0988 L20.2940667,16.3141 C17.5353667,16.7162 14.9864667,17.687 12.7993667,19.4365 L12.7636667,19.4651 L12.7265667,19.4921 C10.9656667,20.773 9.49926675,22.391 9.03406675,24.5657 L8.81796675,26.725 C8.84606675,29.9155 10.2803667,32.0747 12.7684667,34.0346 L14.3831667,35.2454 L14.9200667,35.4244 L20.8834667,38.4076 L16.1743667,39.8942 C11.7370667,41.295 8.08746675,43.8649 5.01626675,47.3416 C-0.161933253,53.4316 0.000566747345,61.187 0.000566747345,68.7459 L0.000566747345,70.5536 C0.696966747,70.6647 1.47116675,70.7437 2.32186675,70.7886 C3.97846675,71.0247 10.8397667,71.0247 23.1437667,71.0247 C35.2110667,71.0247 42.3090667,71.0247 43.7282667,70.7886 C44.6761667,70.7413 45.5289667,70.6557 46.2869667,70.5341 L46.2869667,68.7459 C46.2869667,61.1243 46.2305667,53.4528 41.0343667,47.3415 C37.9813667,43.8847 34.5331667,41.2895 30.1132667,39.8942 L29.8858667,39.8224 L29.6817667,39.6992 C29.5912667,39.6446 29.4990667,39.5929 29.4063667,39.5422 L25.8268667,37.5865 L29.5649667,35.9542 C29.7309667,35.8817 29.8952667,35.8053 30.0574667,35.7243 C31.0731667,35.2168 32.1078667,34.6461 33.0594667,34.0197 L33.0594667,34.0197 Z M18.1797667,1.7597 C17.0355667,2.94 16.2940667,4.2356 16.2940667,5.9262 C16.2940667,7.4507 17.1040667,8.9582 18.1380667,10.0488 C19.6317667,11.1628 21.1979667,11.8525 23.0972667,11.8525 C24.1948667,11.8525 25.1726667,11.6905 26.1822667,11.3059 C26.8398667,10.8604 27.4975667,10.4149 28.1549667,9.969 C29.3218667,8.9119 29.9004667,7.5008 29.9004667,5.9262 C29.9004667,4.1924 29.3858667,2.9545 28.0710667,1.8089 C26.6070667,0.5328 25.0314667,0 23.0972667,0 C21.3094667,0 19.5452667,0.5957 18.1797667,1.7597 L18.1797667,1.7597 Z" id="_57170288" fill="#C4CCDB"></path>
                <path d="M31.8548667,32.4177 C33.6545667,30.8588 34.9964667,29.1081 34.9964667,26.6294 C34.9964667,24.2973 33.6097667,22.4181 31.8249667,21.0451 L31.8084667,21.0323 C30.2380667,19.8111 28.2855667,18.896 26.3278667,18.5195 L22.8388667,18.1086 L20.5233667,18.3019 C18.1416667,18.6572 15.9405667,19.4849 14.0487667,20.9983 L13.9771667,21.0555 L13.9030667,21.1094 C12.5918667,22.0632 11.3948667,23.2703 11.0120667,24.8856 L10.8194667,26.8101 C10.8722667,29.3091 12.0257667,30.8996 13.9877667,32.4491 L15.3235667,33.4507 L15.6877667,33.5722 L22.3684667,36.9142 L28.7645667,34.1213 C28.8989667,34.0626 29.0321667,34.0008 29.1635667,33.9352 C30.0708667,33.4819 30.9985667,32.9735 31.8548667,32.4177 L31.8548667,32.4177 Z M44.2869698,70.7552 C44.1044667,70.7678 43.9183667,70.7791 43.7282667,70.7886 C42.3090667,71.0247 35.2110667,71.0247 23.1437667,71.0247 C10.8397667,71.0247 3.97846675,71.0247 2.32186675,70.7886 C2.21346675,70.7829 2.10656675,70.7764 2.00056675,70.7696 L2.00056675,68.7459 C2.00056675,61.7948 1.76246675,54.2693 6.52786675,48.6513 C9.35496675,45.4552 12.6929667,43.0905 16.7763667,41.8015 L24.7583667,39.2817 L28.4473667,41.2973 C28.5148667,41.3342 28.5822667,41.3717 28.6481667,41.4114 L29.0564667,41.6579 L29.5112667,41.8015 C33.5734667,43.0838 36.7169667,45.4778 39.5226667,48.6511 C44.3199667,54.3059 44.2869698,61.7143 44.2869698,68.7459 L44.2869698,70.7552 L44.2869698,70.7552 Z M19.5469667,3.2235 C18.8118667,3.9967 18.2940667,4.8151 18.2940667,5.9262 C18.2940667,6.8625 18.8506667,7.8476 19.4784667,8.5519 C20.5733667,9.3428 21.7038667,9.8525 23.0972667,9.8525 C23.8764667,9.8525 24.5581667,9.7545 25.2656667,9.5111 C25.8116667,9.1412 26.3575667,8.7714 26.9032667,8.4013 C27.5875667,7.7364 27.9004667,6.8929 27.9004667,5.9262 C27.9004667,4.7736 27.6316667,4.0787 26.7570667,3.3167 C25.6586667,2.3592 24.5473667,2 23.0972667,2 C21.8162667,2 20.5402667,2.4074 19.5469667,3.2235 Z" id="_57171768" fill="#C9D0DF"></path>
                <path d="M30.6518667,30.8136 C31.9351667,29.6883 32.9964667,28.4234 32.9964667,26.6294 C32.9964667,24.9518 31.8730667,23.6054 30.6054667,22.6303 L30.5807667,22.6111 C29.2777667,21.5979 27.6434667,20.822 26.0181667,20.4969 L22.8046667,20.1184 L20.7562667,20.2894 C18.7509667,20.5968 16.8947667,21.2828 15.2980667,22.5601 L15.1907667,22.6459 L15.0795667,22.7268 C14.2295667,23.3451 13.2870667,24.182 12.9868667,25.2373 L12.8225667,26.8789 C12.8958667,28.6784 13.7717667,29.7277 15.2076667,30.864 L16.2640667,31.6561 L16.4553667,31.7199 L22.4260667,34.7067 L27.9642667,32.2885 C28.0670667,32.2436 28.1689667,32.1963 28.2695667,32.1461 C29.0693667,31.7465 29.8904667,31.2999 30.6518667,30.8136 L30.6518667,30.8136 Z M42.287253,70.8999 C39.3994667,71.0247 32.8943667,71.0247 23.1437667,71.0247 C13.3630667,71.0247 7.02236675,71.0247 4.00056675,70.9059 L4.00056675,68.7459 C4.00056675,62.392 3.68696675,55.1082 8.03996675,49.9605 C10.6223667,47.0455 13.6495667,44.8858 17.3784667,43.7087 L24.5474667,41.4456 L27.4884667,43.0524 C27.5305667,43.0755 27.5733667,43.0988 27.6145667,43.1236 L28.2269667,43.4933 L28.9091667,43.7087 C32.6125667,44.8778 35.4530667,47.0713 38.0104667,49.9602 C42.4021667,55.1518 42.287253,62.3193 42.287253,68.7459 L42.287253,70.8999 Z M20.8999667,4.7027 C20.5795667,5.0483 20.2940667,5.4392 20.2940667,5.9262 C20.2940667,6.2619 20.5803667,6.7321 20.8479667,7.0707 C21.5272667,7.534 22.2331667,7.8525 23.0972667,7.8525 C23.5679667,7.8525 23.9710667,7.8088 24.3851667,7.6919 C24.7909667,7.4169 25.1968667,7.1419 25.6026667,6.8668 C25.8244667,6.6031 25.9004667,6.2998 25.9004667,5.9262 C25.9004667,5.3551 25.8672667,5.194 25.4430667,4.8245 C24.7130667,4.1882 24.0613667,4 23.0972667,4 C22.3173667,4 21.5229667,4.2265 20.8999667,4.7027 L20.8999667,4.7027 Z" id="_58485552" fill="#CDD4E2"></path>
                <path d="M29.4568667,29.2031 C30.2279667,28.5209 30.9964667,27.6893 30.9964667,26.6294 C30.9964667,25.6427 30.1053667,24.7689 29.3859667,24.2155 L29.3529667,24.1899 C28.3152667,23.383 26.9966667,22.7462 25.6998667,22.4732 L22.7705667,22.1282 L20.9934667,22.2766 C19.3641667,22.5344 17.8487667,23.0808 16.5473667,24.1219 L16.4042667,24.2363 L16.2560667,24.3441 C15.9101667,24.5958 15.1766667,25.1684 14.9540667,25.6651 L14.8288667,26.916 C14.9173667,28.0008 15.5204667,28.5625 16.4253667,29.2773 L17.2044667,29.8614 L17.2230667,29.8677 L22.4836667,32.4992 L27.1639667,30.4556 C27.2350667,30.4245 27.3058667,30.3919 27.3756667,30.357 C28.0710667,30.0096 28.7882667,29.6226 29.4568667,29.2031 L29.4568667,29.2031 Z M40.2869667,70.9576 C36.8493667,71.0247 31.0681667,71.0247 23.1437667,71.0247 C15.1578667,71.0247 9.46596675,71.0244 6.00056675,70.9598 L6.00056675,68.7459 C6.00056675,63.0322 5.63396675,55.9227 9.55276675,51.269 C11.8899667,48.6358 14.6067667,46.6809 17.9805667,45.6159 L24.3365667,43.6094 L26.5294667,44.8075 C26.5486667,44.8181 26.5681667,44.8286 26.5871667,44.8396 L27.3974667,45.3288 L28.3070667,45.6159 C31.6498667,46.6712 34.1898667,48.6654 36.4976667,51.2686 C40.4818667,55.996 40.2869667,62.9128 40.2869667,68.7459 L40.2869667,70.9576 L40.2869667,70.9576 Z" id="_58484216" fill="#D1D8E5"></path>
                <path d="M28.2116667,27.6217 C28.5254667,27.3261 28.8875667,26.9505 28.9935667,26.7128 C28.9950667,26.6986 28.9958667,26.6831 28.9961667,26.668 C28.8767667,26.3948 28.3710667,25.958 28.1664667,25.8007 L28.1252667,25.7688 C27.3496667,25.1656 26.3433667,24.6682 25.3696667,24.4481 L22.7364667,24.138 L21.2357667,24.2633 C19.9819667,24.4694 18.8018667,24.8796 17.7966667,25.6836 L17.6178667,25.8267 L17.4325667,25.9615 C17.2943667,26.062 17.0632667,26.237 16.8901667,26.4028 L16.8395667,26.9087 C16.9980667,27.15 17.4202667,27.5104 17.6587667,27.7023 L18.2477667,28.144 L22.5411667,30.2917 L26.3635667,28.6227 C26.4030667,28.6054 26.4427667,28.5874 26.4817667,28.5679 C27.0560667,28.2809 27.6506667,27.9636 28.2116667,27.6217 L28.2116667,27.6217 Z M38.2869667,70.9867 C34.7785667,71.0247 29.6936667,71.0247 23.1437667,71.0247 C16.5401667,71.0247 11.5054667,71.0244 8.00056675,70.9879 L8.00056675,68.7459 C8.00056675,63.7001 7.59786675,56.72 11.0665667,52.5763 C13.1576667,50.2258 15.5651667,48.4757 18.5826667,47.5231 L24.1257667,45.7733 L25.5705667,46.5627 C25.5741667,46.5646 25.5777667,46.5666 25.5814667,46.5686 L26.5680667,47.1642 L27.7049667,47.5231 C30.6849667,48.4638 32.9272667,50.2601 34.9837667,52.5758 C38.5389667,56.8158 38.2869667,63.5532 38.2869667,68.7459 L38.2869667,70.9867 L38.2869667,70.9867 Z" id="_57471424" fill="#D6DCE8"></path>
                <path d="M25.7755667,26.6842 C25.5263667,26.5742 25.2708667,26.4838 25.0211667,26.4209 L22.7023667,26.1478 L21.4842667,26.2495 C20.9310667,26.3449 20.3880667,26.491 19.8855667,26.727 L22.5987667,28.0843 L25.5632667,26.7898 C25.5719667,26.786 25.5810667,26.782 25.5878667,26.7787 C25.6501667,26.7476 25.7127667,26.7161 25.7755667,26.6842 L25.7755667,26.6842 Z M36.2869667,71.0034 C32.9415667,71.0247 28.5401667,71.0247 23.1437667,71.0247 C17.7062667,71.0247 13.3326667,71.0247 10.0005667,71.0041 L10.0005667,68.7459 C10.0005667,64.4019 9.58326675,57.4957 12.5819667,53.882 C14.4257667,51.8154 16.5250667,50.27 19.1846667,49.4304 L23.9148667,47.9371 L24.5845667,48.303 L25.7385667,48.9996 L27.1029667,49.4304 C29.7165667,50.2554 31.6657667,51.8556 33.4683667,53.8814 C36.5777667,57.6168 36.2869667,64.2231 36.2869667,68.7459 L36.2869667,71.0034 L36.2869667,71.0034 Z" id="_57363408" fill="#DAE0EC"></path>
                <path d="M23.6967667,50.1033 L19.7867667,51.3376 C17.4872667,52.0635 15.6945667,53.4044 14.0998667,55.1849 C11.5968667,58.2434 12.0005667,65.143 12.0005667,68.7459 L12.0005667,71.0135 C15.0231667,71.0244 18.7335667,71.0247 23.1437667,71.0247 C27.5247667,71.0247 31.2498667,71.0244 34.2869667,71.0131 L34.2869667,68.7459 C34.2869667,64.9289 34.5929667,58.3936 31.9506667,55.1844 C30.4053667,53.4519 28.7434667,52.0455 26.5008667,51.3376 L24.9090667,50.8351 L23.6967667,50.1033 L23.6967667,50.1033 Z" id="_57174624" fill="#DEE4EF"></path>
                <path d="M23.4369667,52.2826 L20.3888667,53.2448 C18.4529667,53.8559 16.9645667,54.9921 15.6214667,56.4838 C13.6488667,58.9534 14.0005667,65.9245 14.0005667,68.7459 L14.0005667,71.0192 C16.6161667,71.0247 19.6617667,71.0247 23.1437667,71.0247 C26.6066667,71.0247 29.6592667,71.0245 32.2869667,71.0189 L32.2869667,68.7459 C32.2869667,65.6748 32.5760667,59.1374 30.4294667,56.4836 C29.1463667,55.0492 27.7626667,53.8332 25.8987667,53.2448 L24.0795667,52.6705 L23.4369667,52.2826 L23.4369667,52.2826 Z" id="_57173208" fill="#E3E8F2"></path>
                <path d="M23.1771667,54.4619 L20.9908667,55.152 C19.4247667,55.6464 18.2365667,56.5776 17.1494667,57.7758 C15.7548667,59.6112 16.0005667,66.7368 16.0005667,68.7459 L16.0005667,71.0222 C18.1350667,71.0245 20.5145667,71.0247 23.1437667,71.0247 C25.7612667,71.0247 28.1442667,71.0245 30.2869667,71.0221 L30.2869667,68.7459 C30.2869667,66.4576 30.5138667,59.8343 28.9028667,57.7767 C27.8888667,56.647 26.7696667,55.617 25.2967667,55.152 L23.2501667,54.506 L23.1771667,54.4619 Z" id="_57401288" fill="#E7ECF5"></path>
                <path d="M23.1438667,56.5697 L21.5929667,57.0593 C20.4070667,57.4336 19.5127667,58.1581 18.6885667,59.0562 C17.9306667,60.2048 18.0005667,67.5617 18.0005667,68.7459 L18.0005667,71.0237 C19.5947667,71.0245 21.3080667,71.0247 23.1437667,71.0247 C24.9735667,71.0247 26.6880667,71.0245 28.2869667,71.0237 L28.2869667,68.7459 C28.2869667,67.2489 28.3957667,60.472 27.3675667,59.0603 C26.6308667,58.2424 25.7548667,57.3939 24.6946667,57.0593 L23.1438667,56.5697 L23.1438667,56.5697 Z" id="_56887200" fill="#EBF0F9"></path>
                <path d="M23.1438667,58.667 L22.1950667,58.9665 C21.4847667,59.1907 20.9176667,59.6311 20.4076667,60.1489 C19.8937667,62.0156 20.0005667,67.0548 20.0005667,68.7459 L20.0005667,71.0243 L23.1437667,71.0247 L26.2869667,71.0243 L26.2869667,68.7459 C26.2869667,67.1474 26.3445667,61.8876 25.7529667,60.2566 C25.2927667,59.7559 24.6693667,59.1486 24.0925667,58.9665 L23.1438667,58.667 Z" id="_57884584" fill="#F0F4FC"></path>
                <path d="M23.1438667,60.7643 L22.7971667,60.8737 C22.6033667,60.9349 22.4151667,61.0476 22.2381667,61.1846 C21.8915667,63.23 22.0005667,67.0924 22.0005667,68.7459 L22.0005667,71.0247 L23.1437667,71.0247 L24.2869667,71.0247 L24.2869667,68.7459 C24.2869667,67.1529 24.3628667,63.1502 23.9509667,61.2715 C23.7853667,61.1092 23.6176667,60.9606 23.4780667,60.8698 L23.1438667,60.7643 L23.1438667,60.7643 Z" id="_56407960" fill="#F4F8FF"></path>
            </g>
            <path d="M50.2864,70.746 L50.2864,72.0597 C49.1489,72.4451 47.6295,72.6935 45.7277,72.7886 C44.3085,73.0247 37.2105,73.0247 25.1432,73.0247 C12.8392,73.0247 5.9779,73.0247 4.3213,72.7886 C2.5423,72.6949 1.0974,72.4526 0,72.0771 L0,70.746 C0,61.9914 0.0624,54.4198 5.5044,48.0314 C9.0538,44.0092 13.076,41.4062 17.5717,39.987 L16.1518,39.2767 L15.4422,39.04 L13.5495,37.6208 C10.2369,35.0178 8.817,32.1787 8.817,28.6294 L9.0538,26.2631 C9.5266,23.8976 10.9465,21.7681 13.5495,19.8747 C15.9157,17.982 18.7548,16.7989 22.0674,16.326 L24.9065,16.0893 L28.9287,16.5628 C31.5316,17.0356 34.134,18.2187 36.2634,19.8747 C39.3393,22.2409 40.9959,25.3168 40.9959,28.6294 C40.9959,32.1787 39.3393,35.0178 36.2634,37.6208 C35.5538,38.0936 34.3707,38.8039 32.9508,39.5135 C32.7597,39.609 32.5644,39.7001 32.3647,39.7871 C32.4833,39.8518 32.6005,39.918 32.7148,39.987 C37.2105,41.4062 40.9959,44.0092 44.5452,48.0314 C49.9866,54.4198 50.2864,61.9914 50.2864,70.746 L50.2864,70.746 Z M31.3845,2.3012 C29.6241,0.7668 27.6121,0 25.0967,0 C22.8329,0 20.5692,0.7668 18.8082,2.3012 C17.2995,3.8355 16.2935,5.625 16.2935,7.9262 C16.2935,9.9716 17.2995,12.0177 18.8082,13.5513 C20.6869,14.9835 22.6961,15.8525 25.0967,15.8525 C26.606,15.8525 27.863,15.5967 29.1207,15.0857 C29.8758,14.574 30.6301,14.063 31.3845,13.5513 C33.1455,12.0177 33.8999,9.9716 33.8999,7.9262 C33.8999,5.625 33.1455,3.8355 31.3845,2.3012 L31.3845,2.3012 Z" id="path4518" stroke="#1F1A17" stroke-width="1.4"></path>
        </g>
    </g>
</svg>