<?xml version="1.0" encoding="UTF-8"?>
<svg width="100px" height="100px" viewBox="0 0 100 100" version="1.1" xmlns="http://www.w3.org/2000/svg" xmlns:xlink="http://www.w3.org/1999/xlink">
    <title>画板</title>
    <g id="画板" stroke="none" stroke-width="1" fill="none" fill-rule="evenodd">
        <g id="wq" transform="translate(8, 11)">
            <path d="M68.1812,70.2343 L68.1834,70.2364 L68.1835,70.2364 L68.1858,70.2388 L68.1859,70.2388 L68.1882,70.2409 L68.1883,70.2409 L68.1906,70.2433 L68.1907,70.2433 L68.193,70.2454 L68.1931,70.2454 L68.1954,70.2478 L68.1955,70.2478 L68.1978,70.2499 L68.1979,70.2499 L68.2002,70.2523 L68.2003,70.2523 L68.2024,70.2544 L68.2025,70.2544 L68.2048,70.2568 L68.2049,70.2568 L68.2072,70.2589 L68.2073,70.2589 L68.2096,70.2613 L68.2097,70.2613 L68.212,70.2634 L68.2144,70.2658 L68.2168,70.2679 L68.2192,70.2703 L68.2213,70.2724 L68.2237,70.2748 L68.226,70.2769 L68.2284,70.2793 L68.2305,70.2814 L68.2329,70.2838 L68.2353,70.2859 L68.2377,70.2883 L68.2398,70.2904 L68.2422,70.2928 L68.2444,70.2949 L68.2468,70.2973 L68.2489,70.2994 L68.2513,70.3018 L68.2537,70.3039 L68.2561,70.3063 L68.2582,70.3084 L68.2605,70.3108 L68.2626,70.3129 L68.265,70.3153 L68.2671,70.3174 L68.2695,70.3198 L68.2716,70.3219 L68.274,70.3243 L68.2761,70.3264 L68.2783,70.3288 L68.2804,70.3309 L68.2828,70.3333 L68.2849,70.3354 L68.2873,70.3378 L68.2894,70.3399 L68.2918,70.3423 L68.2939,70.3444 L68.296,70.3468 L68.2981,70.3489 L68.3004,70.3513 L68.3025,70.3534 L68.3046,70.3558 L68.3067,70.3579 L68.3091,70.3603 L68.3112,70.3624 L68.3133,70.3648 L68.3154,70.3669 L68.3176,70.3693 L68.3197,70.3714 L68.3218,70.3738 L68.3239,70.3761 L68.3263,70.3785 L68.3338,70.3866 L68.3415,70.3947 L68.3488,70.4028 L68.3563,70.4109 L68.3831,70.441 C68.5488,70.7601 68.4579,70.62 68.1098,70.3182 L68.1117,70.32 L68.1143,70.3221 L68.1166,70.3245 L68.1167,70.3245 L68.119,70.3266 L68.1191,70.3266 L68.1214,70.329 L68.1215,70.329 L68.1238,70.3311 L68.1239,70.3311 L68.1262,70.3335 L68.1263,70.3335 L68.1286,70.3356 L68.1287,70.3356 L68.131,70.338 L68.1311,70.338 L68.1334,70.3401 L68.1335,70.3401 L68.1358,70.3425 L68.1359,70.3425 L68.1382,70.3446 L68.1383,70.3446 L68.1405,70.347 L68.1406,70.347 L68.1429,70.3491 L68.143,70.3491 L68.1453,70.3515 L68.1454,70.3515 L68.1477,70.3536 L68.1478,70.3536 L68.1498,70.356 L68.1499,70.356 L68.1522,70.3581 L68.1523,70.3581 L68.1546,70.3605 L68.1547,70.3605 L68.157,70.3626 L68.1571,70.3626 L68.1592,70.365 L68.1593,70.365 L68.1616,70.3671 L68.1617,70.3671 L68.164,70.3695 L68.1641,70.3695 L68.1664,70.3716 L68.1665,70.3716 L68.1685,70.374 L68.1686,70.374 L68.1709,70.3761 L68.171,70.3761 L68.1731,70.3785 L68.1732,70.3785 L68.1755,70.3806 L68.1756,70.3806 L68.1776,70.383 L68.1777,70.383 L68.1799,70.3851 L68.18,70.3851 L68.1821,70.3875 L68.1822,70.3875 L68.1842,70.3896 L68.1843,70.3896 L68.1866,70.392 L68.1867,70.392 L68.1887,70.3941 L68.1888,70.3941 L68.191,70.3965 L68.1931,70.3986 L68.1955,70.401 L68.1976,70.4031 L68.2,70.4055 L68.2021,70.4076 L68.2045,70.41 L68.2066,70.4121 L68.2088,70.4145 L68.2109,70.4166 L68.2133,70.419 L68.2154,70.4211 L68.2178,70.4235 L68.2199,70.4256 L68.2223,70.428 L68.2244,70.4301 L68.2265,70.4325 L68.2286,70.4346 L68.2309,70.437 L68.233,70.4391 L68.2351,70.4415 L68.2372,70.4436 L68.2396,70.446 L68.2417,70.4481 L68.2438,70.4505 L68.2459,70.4526 L68.2481,70.455 L68.2502,70.4571 L68.2523,70.4595 L68.2544,70.4618 L68.2568,70.4642 L68.2643,70.4723 L68.272,70.4804 L68.2793,70.4885 L68.2868,70.4966 L68.316,70.5293 L68.3231,70.5374 L68.3303,70.5455 L68.3318,70.5473 L68.3511,70.5698 L68.3581,70.5782 L68.3647,70.5863 L68.3714,70.5944 L68.378,70.6025 L68.3847,70.6106 L68.397,70.626 L68.3977,70.6268 L68.404,70.6349 L68.4161,70.6507 L68.4167,70.6514 L68.423,70.6595 L68.4234,70.6601 L68.4349,70.6751 L68.4651,70.7165 L68.4709,70.7246 L68.4732,70.7278 L68.4765,70.7327 L68.4765,70.7328 L68.5083,70.7799 L68.5094,70.7816 L68.5106,70.7833 L68.5117,70.785 C68.5232,70.8028 68.5345,70.8206 68.5451,70.8384 L68.5454,70.8388 C68.5454,71.0756 68.5454,71.3117 68.5454,71.5484 L68.6112,71.5484 C68.508,72.9303 65.9065,74.0896 60.8066,75.2488 C55.6013,76.1952 49.4497,68.9048 42.1149,68.9048 C34.7801,68.9048 28.3917,76.1952 23.1864,75.2488 C18.3912,74.1589 15.8048,73.0687 15.4269,71.7937 L15.4269,71.5484 L15.3818,71.5484 C15.3796,71.5199 15.3781,71.4914 15.3781,71.4627 C15.3781,70.7899 16.1665,69.751 17.2487,67.7228 C17.6402,66.9892 18.3679,65.274 18.6907,64.6014 C19.637,63.1816 19.637,61.7617 18.6907,60.5786 L15.1413,55.8468 C13.5174,54.5835 12.4443,53.3209 11.9213,52.0578 L9.6594,40.7486 L5.6802,19.899 L5.6857,19.8974 L21.7665,47.3289 L22.9496,42.8332 L22.9496,13.0205 L23.8538,12.8866 C23.6088,12.9725 23.3441,13.0188 23.0466,13.0188 L32.6506,41.4133 L35.0168,44.4898 L36.4361,40.7037 L42.1149,10.1814 L42.2966,10.1777 C42.2361,10.1802 42.1754,10.1814 42.1149,10.1814 L47.5569,41.1772 L49.2129,44.253 L51.8159,40.7037 L60.8066,12.5477 L60.8066,12.5477 L61.9898,42.5964 L63.1729,45.909 L64.8295,43.5428 L77.6064,19.1722 L77.5451,19.5157 L71.1078,52.485 L71.1077,52.485 C70.8279,53.123 70.4688,53.73 70.0081,54.3059 C69.5629,54.8473 69.0261,55.3607 68.3782,55.8468 L68.3111,55.9307 L68.3087,55.9325 L65.4696,59.4812 C64.76,61.1378 64.76,62.7938 65.4696,64.4504 L67.7654,69.2184 C68.0496,69.809 68.2468,70.1804 68.3575,70.3919 C68.3083,70.3468 68.2491,70.293 68.1793,70.2325 L68.1812,70.2343 L68.1834,70.2364 L68.1858,70.2388 L68.3263,70.3785 L68.3239,70.3761 L68.3218,70.3738 L68.3197,70.3714 L68.3176,70.3693 L68.3154,70.3669 L68.3133,70.3648 L68.3112,70.3624 L68.3091,70.3603 L68.3067,70.3579 L68.3046,70.3558 L68.3025,70.3534 L68.3004,70.3513 L68.2981,70.3489 L68.296,70.3468 L68.2939,70.3444 L68.2918,70.3423 L68.2894,70.3399 L68.2873,70.3378 L68.2849,70.3354 L68.2828,70.3333 L68.2804,70.3309 L68.2783,70.3288 L68.2761,70.3264 L68.274,70.3243 L68.2716,70.3219 L68.2695,70.3198 L68.2671,70.3174 L68.265,70.3153 L68.2626,70.3129 L68.2605,70.3108 L68.2582,70.3084 L68.2561,70.3063 L68.2537,70.3039 L68.2513,70.3018 L68.2489,70.2994 L68.2468,70.2973 L68.2444,70.2949 L68.2422,70.2928 L68.2398,70.2904 L68.2377,70.2883 L68.2353,70.2859 L68.2329,70.2838 L68.2305,70.2814 L68.2284,70.2793 L68.226,70.2769 L68.2237,70.2748 L68.2213,70.2724 L68.2192,70.2703 L68.2168,70.2679 L68.2144,70.2658 L68.212,70.2634 L68.2097,70.2613 L68.2096,70.2613 L68.2073,70.2589 L68.2072,70.2589 L68.2049,70.2568 L68.2048,70.2568 L68.2025,70.2544 L68.2024,70.2544 L68.2003,70.2523 L68.2002,70.2523 L68.1979,70.2499 L68.1978,70.2499 L68.1955,70.2478 L68.1954,70.2478 L68.1931,70.2454 L68.193,70.2454 L68.1907,70.2433 L68.1906,70.2433 L68.1883,70.2409 L68.1882,70.2409 L68.1859,70.2388 L68.1858,70.2388 L68.1835,70.2364 L68.1834,70.2364 L68.1812,70.2343 L68.1812,70.2343 Z M22.9496,13.0205 C22.8605,13.1096 22.7382,13.1652 22.6075,13.1999 L22.9496,13.0205 Z M68.1117,70.32 L68.2568,70.4642 L68.2544,70.4618 L68.2523,70.4595 L68.2502,70.4571 L68.2481,70.455 L68.2459,70.4526 L68.2438,70.4505 L68.2417,70.4481 L68.2396,70.446 L68.2372,70.4436 L68.2351,70.4415 L68.233,70.4391 L68.2309,70.437 L68.2286,70.4346 L68.2265,70.4325 L68.2244,70.4301 L68.2223,70.428 L68.2199,70.4256 L68.2178,70.4235 L68.2154,70.4211 L68.2133,70.419 L68.2109,70.4166 L68.2088,70.4145 L68.2066,70.4121 L68.2045,70.41 L68.2021,70.4076 L68.2,70.4055 L68.1976,70.4031 L68.1955,70.401 L68.1931,70.3986 L68.191,70.3965 L68.1888,70.3941 L68.1887,70.3941 L68.1867,70.392 L68.1866,70.392 L68.1843,70.3896 L68.1842,70.3896 L68.1822,70.3875 L68.1821,70.3875 L68.18,70.3851 L68.1799,70.3851 L68.1777,70.383 L68.1776,70.383 L68.1756,70.3806 L68.1755,70.3806 L68.1732,70.3785 L68.1731,70.3785 L68.171,70.3761 L68.1709,70.3761 L68.1686,70.374 L68.1685,70.374 L68.1665,70.3716 L68.1664,70.3716 L68.1641,70.3695 L68.164,70.3695 L68.1617,70.3671 L68.1616,70.3671 L68.1593,70.365 L68.1592,70.365 L68.1571,70.3626 L68.157,70.3626 L68.1547,70.3605 L68.1546,70.3605 L68.1523,70.3581 L68.1522,70.3581 L68.1499,70.356 L68.1498,70.356 L68.1478,70.3536 L68.1477,70.3536 L68.1454,70.3515 L68.1453,70.3515 L68.143,70.3491 L68.1429,70.3491 L68.1406,70.347 L68.1405,70.347 L68.1383,70.3446 L68.1382,70.3446 L68.1359,70.3425 L68.1358,70.3425 L68.1335,70.3401 L68.1334,70.3401 L68.1311,70.338 L68.131,70.338 L68.1287,70.3356 L68.1286,70.3356 L68.1263,70.3335 L68.1262,70.3335 L68.1239,70.3311 L68.1238,70.3311 L68.1215,70.329 L68.1214,70.329 L68.1191,70.3266 L68.119,70.3266 L68.1167,70.3245 L68.1166,70.3245 L68.1143,70.3221 L68.1117,70.32 L68.1117,70.32 Z" id="_57646176" fill="#C0C8D8"></path>
            <g id="g4536" transform="translate(11.715, 10.1777)">
                <path d="M28.5855,9.7559 L29.8316,16.2853 L31.2662,8.9379 C30.8395,6.7864 30.3966,4.6377 29.9368,2.4929 L28.5855,9.7559 Z" id="_56889152" fill="#F4F8FF"></path>
                <g id="g4539" transform="translate(27.5804, 0)">
                    <path d="M-7.10542736e-15,15.1579 L1.7702,24.4333 L2.2397,26.7808 L5.0204,12.5392 L2.8195,0.0037 C2.88,0.0037 2.9407,0.0025 3.0012,3.55271368e-15 L2.8195,0.0037 L-7.10542736e-15,15.1579 L-7.10542736e-15,15.1579 Z" id="_56889920" fill="#F1F5FD"></path>
                    <path d="M1.0051,9.7558 L2.2512,16.2852 L3.6859,8.9376 C3.2592,6.786 2.8165,4.6367 2.3567,2.4909 L1.0051,9.7558 Z" id="_57152128" fill="#F4F8FF"></path>
                </g>
                <g id="g4543" transform="translate(26.5753, 0)">
                    <path d="M3.3756,31.0347 L4.7995,29.2549 L6.9903,18.0344 L3.8246,0.0037 C3.8851,0.0037 3.9458,0.0025 4.0063,0 L3.8246,0.0037 L0,20.5601 L0.8124,24.8169 L1.5763,28.6359 L3.3756,31.0347 L3.3756,31.0347 Z" id="_58412816" fill="#EEF2FA"></path>
                    <path d="M3.2448,26.7808 L6.0255,12.5391 L3.8246,0.0037 C3.8851,0.0037 3.9458,0.0025 4.0063,7.10542736e-15 L3.8246,0.0037 L1.0051,15.1579 L2.7753,24.4333 L3.2448,26.7808 L3.2448,26.7808 Z" id="_57026776" fill="#F1F5FD"></path>
                    <path d="M3.2563,16.2852 L4.691,8.9373 C4.2645,6.7856 3.822,4.6358 3.3623,2.4885 L2.0102,9.7559 L3.2563,16.2852 Z" id="_58601416" fill="#F4F8FF"></path>
                </g>
                <g id="g4548" transform="translate(25.5736, 0)">
                    <path d="M0,25.9442 L0.7058,29.4731 L3.6294,33.3707 L5.0697,33.3707 L7.67,30.1206 L8.9568,23.5299 L4.8263,0.0037 C4.8868,0.0037 4.9475,0.0025 5.008,0 L4.8263,0.0037 L0,25.9442 L0,25.9442 Z" id="_42307400" fill="#EAEFF8"></path>
                    <path d="M1.0017,20.5601 L1.8141,24.8169 L2.5779,28.636 L4.3773,31.0347 L5.8012,29.2549 L7.992,18.0345 L4.8263,0.0037 C4.8868,0.0037 4.9475,0.0025 5.008,3.55271368e-15 L4.8263,0.0037 L1.0017,20.5601 L1.0017,20.5601 Z" id="_41733272" fill="#EEF2FA"></path>
                    <path d="M2.0068,15.1579 L3.777,24.4333 L4.2465,26.7808 L7.0272,12.5392 L4.8263,0.0037 C4.8868,0.0037 4.9475,0.0025 5.008,3.55271368e-15 L4.8263,0.0037 L2.0068,15.1579 L2.0068,15.1579 Z" id="_41789424" fill="#F1F5FD"></path>
                    <path d="M3.0119,9.7557 L4.258,16.2853 L5.6928,8.937 C5.2666,6.786 4.8241,4.6349 4.3645,2.4858 L3.0119,9.7557 Z" id="_41553328" fill="#F4F8FF"></path>
                </g>
                <g id="g4554" transform="translate(24.6704, 0)">
                    <path d="M5.4577,38.4283 L6.5754,35.8191 L10.4419,30.9862 L10.8248,29.025 L5.7295,0.0037 C5.79,0.0037 5.8507,0.0025 5.9112,0 L5.7295,0.0037 L0.0507,30.526 L0,30.6612 L2.9726,34.624 C3.1616,34.87 3.3468,35.1189 3.5281,35.3707 L5.0415,35.3707 L5.0415,37.6943 C5.1838,37.937 5.3225,38.1817 5.4577,38.4283 L5.4577,38.4283 Z" id="_57122408" fill="#E7ECF5"></path>
                    <path d="M5.9729,33.3707 L8.5731,30.1205 L9.86,23.5296 L5.7295,0.0037 C5.79,0.0037 5.8507,0.0025 5.9112,1.0658141e-14 L5.7295,0.0037 L0.9032,25.944 L1.609,29.4731 L4.5326,33.3707 L5.9729,33.3707 L5.9729,33.3707 Z" id="_22908480" fill="#EAEFF8"></path>
                    <path d="M5.2805,31.0347 L6.7044,29.2549 L8.8952,18.0345 L5.7295,0.0037 C5.79,0.0037 5.8507,0.0025 5.9112,3.55271368e-15 L5.7295,0.0037 L1.9049,20.56 L2.7174,24.8169 L3.4811,28.636 L5.2805,31.0347 L5.2805,31.0347 Z" id="_57019832" fill="#EEF2FA"></path>
                    <path d="M5.1497,26.7806 L7.9304,12.5393 L5.7295,0.0037 C5.79,0.0037 5.8507,0.0025 5.9112,3.55271368e-15 L5.7295,0.0037 L2.91,15.158 L4.6803,24.4333 L5.1497,26.7806 L5.1497,26.7806 Z" id="_56981744" fill="#F1F5FD"></path>
                    <path d="M5.1612,16.2852 L6.5961,8.9366 C6.17,6.7851 5.7276,4.6339 5.268,2.4839 L3.9151,9.7559 L5.1612,16.2852 Z" id="_57122432" fill="#F4F8FF"></path>
                </g>
                <g id="g4561" transform="translate(23.8373, 0)">
                    <path d="M6.4687,43.8127 C6.8389,42.4689 7.3022,41.1466 7.8561,39.8536 L9.1398,36.8564 L12.7372,32.3601 L12.0046,30.9995 L6.5626,0.0037 C6.6231,0.0037 6.6838,0.0025 6.7443,1.42108547e-14 L6.5626,0.0037 L0.8838,30.526 L0,32.8835 L2.213,35.8337 C4.0922,38.2775 5.5204,40.9728 6.4687,43.8127 L6.4687,43.8127 Z" id="_57021152" fill="#E4E9F3"></path>
                    <path d="M6.2904,38.4294 L7.4084,35.8192 L11.275,30.9862 L11.6579,29.025 L6.5626,0.0037 C6.6231,0.0037 6.6838,0.0025 6.7443,7.10542736e-15 L6.5626,0.0037 L0.8838,30.526 L0.8331,30.6612 L3.8059,34.6242 C4.7387,35.8383 5.5679,37.1105 6.2904,38.4294 L6.2904,38.4294 Z" id="_56879560" fill="#E7ECF5"></path>
                    <path d="M6.0582,34.3053 L9.4063,30.1206 L10.6931,23.5298 L6.5626,0.0037 C6.6231,0.0037 6.6838,0.0025 6.7443,3.55271368e-15 L6.5626,0.0037 L1.7363,25.944 L2.4421,29.4731 L5.399,33.415 C5.6244,33.7086 5.8442,34.0054 6.0582,34.3053 Z" id="_57626608" fill="#EAEFF8"></path>
                    <path d="M6.1136,31.0347 L7.5375,29.2549 L9.7283,18.0345 L6.5626,0.0037 C6.6231,0.0037 6.6838,0.0025 6.7443,3.55271368e-15 L6.5626,0.0037 L2.738,20.5599 L3.5505,24.8169 L4.3143,28.6359 L6.1136,31.0347 L6.1136,31.0347 Z" id="_56408872" fill="#EEF2FA"></path>
                    <path d="M5.9828,26.7807 L8.7635,12.5391 L6.5626,0.0037 C6.6231,0.0037 6.6838,0.0025 6.7443,7.10542736e-15 L6.5626,0.0037 L3.7431,15.1579 L5.5133,24.4333 L5.9828,26.7807 L5.9828,26.7807 Z" id="_56881224" fill="#F1F5FD"></path>
                    <path d="M5.9943,16.2851 L7.4292,8.9361 C7.0033,6.7845 6.561,4.6327 6.1015,2.4821 L4.7482,9.7559 L5.9943,16.2851 Z" id="_41546016" fill="#F4F8FF"></path>
                </g>
                <g id="g4569" transform="translate(19.9018, 0)">
                    <path d="M11.4466,54.429 C11.0002,49.7274 11.7672,44.9898 13.63,40.6411 L14.8068,37.8936 L18.948,32.7175 L19.0772,32.0557 L17.5961,34.0753 L15.9401,30.9995 L10.4981,0.0037 C10.5586,0.0037 10.6193,0.0025 10.6798,0 L10.4981,0.0037 L4.8193,30.526 L3.4,34.3121 L1.0338,31.2356 L7.10542736e-15,28.1791 L0.7611,31.9845 L4.556,37.0437 C8.9265,42.7225 10.5554,49.775 9.4076,56.5475 L11.4466,54.429 L11.4466,54.429 Z" id="_57155728" fill="#E1E6F0"></path>
                    <path d="M10.399,43.8395 C10.7699,42.4849 11.235,41.153 11.7915,39.8536 L13.0754,36.8564 L16.6726,32.36 L15.9401,30.9995 L10.4981,0.0037 C10.5586,0.0037 10.6193,0.0025 10.6798,0 L10.4981,0.0037 L4.8193,30.526 L3.9355,32.8835 L6.1487,35.8339 C8.0448,38.3 9.4626,41.0076 10.399,43.8395 Z" id="_41780168" fill="#E4E9F3"></path>
                    <path d="M10.2239,38.4339 L11.3439,35.8191 L15.2105,30.9862 L15.5934,29.025 L10.4981,0.0037 C10.5586,0.0037 10.6193,0.0025 10.6798,0 L10.4981,0.0037 L4.8193,30.526 L4.7686,30.6611 L7.7416,34.6244 C8.6778,35.8431 9.5054,37.1171 10.2239,38.4339 L10.2239,38.4339 Z" id="_56982376" fill="#E7ECF5"></path>
                    <path d="M9.9936,34.3055 L13.3417,30.1205 L14.6286,23.5297 L10.4981,0.0037 C10.5586,0.0037 10.6193,0.0025 10.6798,0 L10.4981,0.0037 L5.6718,25.944 L6.3776,29.4731 L9.3347,33.4153 C9.5602,33.709 9.7799,34.0059 9.9936,34.3055 Z" id="_57017592" fill="#FAFCFF"></path>
                    <path d="M10.0491,31.0346 L11.473,29.2549 L13.6638,18.0345 L10.4981,0.0037 C10.5586,0.0037 10.6193,0.0025 10.6798,1.0658141e-14 L10.4981,0.0037 L6.6735,20.5602 L7.4859,24.8169 L8.2498,28.6359 L10.0491,31.0346 L10.0491,31.0346 Z" id="_40867176" fill="#EEF2FA"></path>
                    <path d="M9.9183,26.7806 L12.699,12.5393 L10.4981,0.0037 C10.5586,0.0037 10.6193,0.0025 10.6798,3.55271368e-15 L10.4981,0.0037 L7.6786,15.158 L9.4488,24.4333 L9.9183,26.7806 L9.9183,26.7806 Z" id="_57681800" fill="#F1F5FD"></path>
                    <path d="M9.9298,16.2852 L11.3649,8.9355 C10.939,6.7834 10.497,4.6312 10.0375,2.4796 L8.6837,9.756 L9.9298,16.2852 Z" id="_56988448" fill="#F4F8FF"></path>
                </g>
                <g id="g4578" transform="translate(15.1905, 0)">
                    <path d="M18.2504,55.139 C17.64,50.4702 18.3188,45.773 20.1797,41.4286 L21.2496,38.9309 L25.5281,33.5831 L28.0363,20.7366 L24.9104,30.526 L22.3074,34.0753 L20.6514,30.9995 L15.2094,0.0037 C15.2699,0.0037 15.3306,0.0025 15.3911,1.42108547e-14 L15.2094,0.0037 L9.5306,30.526 L8.1113,34.3121 L5.7451,31.2356 L0,14.2502 L2.3828,26.7349 L3.6002,32.8217 L7.6751,38.2541 C12.3854,44.3684 13.6373,52.1954 11.3977,59.329 C12.5036,58.9971 13.6343,58.7792 14.7887,58.7358 L18.2504,55.139 L18.2504,55.139 Z" id="_58601392" fill="#DDE3EE"></path>
                    <path d="M16.1578,54.4292 C15.7093,49.7256 16.4677,45.0151 18.3412,40.6411 L19.5181,37.8937 L23.6593,32.7175 L23.7885,32.0558 L22.3074,34.0753 L20.6514,30.9995 L15.2094,0.0037 C15.2699,0.0037 15.3306,0.0025 15.3911,7.10542736e-15 L15.2094,0.0037 L9.5306,30.526 L8.1113,34.3121 L5.7451,31.2356 L4.7112,28.1788 L5.4723,31.9846 L9.2675,37.0439 C13.6389,42.7244 15.2663,49.7766 14.1186,56.5479 L16.1578,54.4292 L16.1578,54.4292 Z" id="_40857824" fill="#E1E6F0"></path>
                    <path d="M15.1091,43.8358 C15.4799,42.4856 15.9451,41.1555 16.5028,39.8536 L17.7867,36.8564 L21.3839,32.3601 L20.6514,30.9995 L15.2094,0.0037 C15.2699,0.0037 15.3306,0.0025 15.3911,1.42108547e-14 L15.2094,0.0037 L9.5306,30.526 L8.6468,32.8835 L10.8601,35.8341 C12.7555,38.2994 14.1728,41.0056 15.1091,43.8358 L15.1091,43.8358 Z" id="_57017616" fill="#E4E9F3"></path>
                    <path d="M14.9352,38.4339 L16.0552,35.8191 L19.9218,30.9862 L20.3047,29.025 L15.2094,0.0037 C15.2699,0.0037 15.3306,0.0025 15.3911,0 L15.2094,0.0037 L9.5306,30.526 L9.4799,30.6611 L12.4531,34.6246 C13.3893,35.8434 14.2167,37.1173 14.9352,38.4339 L14.9352,38.4339 Z" id="_55504136" fill="#E7ECF5"></path>
                    <path d="M14.7048,34.3055 L18.0531,30.1205 L19.3399,23.5298 L15.2094,0.0037 C15.2699,0.0037 15.3306,0.0025 15.3911,3.55271368e-15 L15.2094,0.0037 L10.3831,25.9442 L11.0889,29.4731 L14.0462,33.4155 C14.2717,33.7092 14.4912,34.006 14.7048,34.3055 L14.7048,34.3055 Z" id="_41783744" fill="#FAFCFF"></path>
                    <path d="M14.7604,31.0347 L16.1843,29.2549 L18.3751,18.0344 L15.2094,0.0037 C15.2699,0.0037 15.3306,0.0025 15.3911,0 L15.2094,0.0037 L11.3848,20.5601 L12.1972,24.8169 L12.961,28.6359 L14.7604,31.0347 L14.7604,31.0347 Z" id="_58011632" fill="#EEF2FA"></path>
                    <path d="M14.6296,26.7808 L17.4103,12.5391 L15.2094,0.0037 C15.2699,0.0037 15.3306,0.0025 15.3911,7.10542736e-15 L15.2094,0.0037 L12.3899,15.158 L14.1601,24.4333 L14.6296,26.7808 L14.6296,26.7808 Z" id="_56176856" fill="#F1F5FD"></path>
                    <path d="M14.6411,16.2851 L16.0763,8.9348 C15.6506,6.7826 15.2085,4.6297 14.7492,2.4773 L13.395,9.7558 L14.6411,16.2851 Z" id="_56884560" fill="#F4F8FF"></path>
                </g>
                <g id="g4588" transform="translate(12.099, 0)">
                    <path d="M23.4665,55.8155 C22.6831,51.2208 23.2681,46.5152 25.1097,42.2161 L26.0725,39.9682 L30.4883,34.4488 L35.4687,8.9413 C35.3972,8.5673 35.325,8.1932 35.2526,7.8191 L28.0019,30.526 L25.3989,34.0753 L23.7429,30.9995 L18.3009,0.0037 C18.3614,0.0037 18.4221,0.0025 18.4826,1.42108547e-14 L18.3009,0.0037 L12.6221,30.526 L11.2028,34.3121 L8.8366,31.2356 L0.2299,5.7896 C0.1521,6.7664 0.0753,7.7429 0,8.7197 L3.5114,27.1185 L4.8195,33.6589 L9.1747,39.4649 C13.8264,45.4962 14.7869,53.3301 12.0449,60.2396 C14.0434,59.3653 16.1306,58.7271 18.3009,58.7271 C19.035,58.7271 19.7572,58.8009 20.4677,58.9314 L23.4665,55.8155 L23.4665,55.8155 Z" id="_57156792" fill="#DAE0EC"></path>
                    <path d="M21.3428,55.138 C20.7391,50.489 21.4134,45.7656 23.2712,41.4286 L24.3411,38.9309 L28.6195,33.5831 L31.1279,20.7363 L28.0019,30.526 L25.3989,34.0753 L23.7429,30.9995 L18.3009,0.0037 C18.3614,0.0037 18.4221,0.0025 18.4826,1.42108547e-14 L18.3009,0.0037 L12.6221,30.526 L11.2028,34.3121 L8.8366,31.2356 L3.0916,14.2505 L5.4743,26.7349 L6.6917,32.8218 L10.7667,38.2543 C15.4784,44.3707 16.7279,52.1972 14.489,59.3291 C15.595,58.9973 16.7256,58.7793 17.8801,58.7359 L21.3428,55.138 L21.3428,55.138 Z" id="_55578176" fill="#DDE3EE"></path>
                    <path d="M19.251,54.4273 C18.8087,49.7391 19.5628,45.0065 21.4328,40.6412 L22.6096,37.8937 L26.7508,32.7175 L26.88,32.0557 L25.3989,34.0753 L23.7429,30.9995 L18.3009,0.0037 C18.3614,0.0037 18.4221,0.0025 18.4826,1.42108547e-14 L18.3009,0.0037 L12.6221,30.526 L11.2028,34.3121 L8.8366,31.2356 L7.8027,28.1788 L8.5638,31.9846 L12.3591,37.0441 C16.7317,42.7264 18.3574,49.7782 17.2098,56.5482 L19.251,54.4273 L19.251,54.4273 Z" id="_41773856" fill="#E1E6F0"></path>
                    <path d="M18.202,43.8403 C18.5722,42.4871 19.0369,41.155 19.5943,39.8537 L20.8782,36.8564 L24.4754,32.36 L23.7429,30.9995 L18.3009,0.0037 C18.3614,0.0037 18.4221,0.0025 18.4826,7.10542736e-15 L18.3009,0.0037 L12.6221,30.526 L11.7383,32.8836 L13.9518,35.8344 C15.8483,38.3013 17.2658,41.0089 18.202,43.8403 Z" id="_56888720" fill="#E4E9F3"></path>
                    <path d="M18.0266,38.4341 L19.1467,35.8192 L23.0133,30.9862 L23.3962,29.025 L18.3009,0.0037 C18.3614,0.0037 18.4221,0.0025 18.4826,2.13162821e-14 L18.3009,0.0037 L12.6221,30.526 L12.5714,30.6612 L15.5447,34.6249 C16.4809,35.8437 17.3083,37.1175 18.0266,38.4341 L18.0266,38.4341 Z" id="_42589672" fill="#E7ECF5"></path>
                    <path d="M17.7963,34.3056 L21.1445,30.1205 L22.4314,23.5296 L18.3009,0.0037 C18.3614,0.0037 18.4221,0.0025 18.4826,2.48689958e-14 L18.3009,0.0037 L13.4746,25.9443 L14.1804,29.4731 L17.1379,33.4158 C17.3632,33.7095 17.5827,34.0061 17.7963,34.3056 L17.7963,34.3056 Z" id="_40916040" fill="#EAEFF8"></path>
                    <path d="M17.8519,31.0347 L19.2758,29.2549 L21.4666,18.0345 L18.3009,0.0037 C18.3614,0.0037 18.4221,0.0025 18.4826,1.77635684e-14 L18.3009,0.0037 L14.4763,20.5602 L15.2887,24.817 L16.0525,28.636 L17.8519,31.0347 L17.8519,31.0347 Z" id="_57646320" fill="#EEF2FA"></path>
                    <path d="M17.7211,26.7808 L20.5018,12.5393 L18.3009,0.0037 C18.3614,0.0037 18.4221,0.0025 18.4826,1.77635684e-14 L18.3009,0.0037 L15.4814,15.1579 L17.2516,24.4334 L17.7211,26.7808 L17.7211,26.7808 Z" id="_56883808" fill="#F1F5FD"></path>
                    <path d="M17.7326,16.2852 L19.168,8.9341 C18.7424,6.7814 18.3006,4.6276 17.8413,2.474 L16.4865,9.7558 L17.7326,16.2852 Z" id="_57646784" fill="#F4F8FF"></path>
                </g>
                <g id="g4599" transform="translate(10.8925, 0)">
                    <path d="M0.3421,14.8594 L2.755,27.5021 L4.1538,34.4961 L8.7896,40.6762 C13.5057,46.7831 14.032,54.9015 10.3943,61.6392 C13.2354,60.1387 16.2796,58.7271 19.5074,58.7271 C21.0164,58.7271 22.4749,59.0358 23.8858,59.5177 L26.8338,56.4547 C25.8486,51.9299 26.3191,47.2886 28.1546,43.0036 L29.0104,41.0055 L33.5636,35.3144 L38.5007,10.0286 L38.3925,7.2821 C38.1723,6.1459 37.9479,5.0094 37.7193,3.8725 L29.2084,30.526 L26.6054,34.0753 L24.9494,30.9995 L19.5074,0.0037 C19.5679,0.0037 19.6286,0.0025 19.6891,1.42108547e-14 L19.5074,0.0037 L13.8286,30.526 L12.4093,34.3121 L10.0431,31.2356 L0.4391,2.8411 C0.7366,2.8411 1.0013,2.7948 1.2463,2.7089 L0.3421,2.8428 L0.3421,14.8594 L0.3421,14.8594 Z M0.3421,2.8428 C0.253,2.9319 0.1307,2.9875 -3.55271368e-15,3.0222 L0.3421,2.8428 Z" id="_41230232" fill="#D7DDE9"></path>
                    <path d="M1.4354,5.7867 C1.3579,6.7654 1.2815,7.7432 1.2064,8.7194 L4.7179,27.1185 L6.026,33.6589 L10.3813,39.4651 C15.0346,45.4991 15.9917,53.3323 13.2508,60.2397 C15.2494,59.3653 17.337,58.7271 19.5074,58.7271 C20.2416,58.7271 20.9635,58.801 21.6743,58.9315 L24.6728,55.8159 C23.887,51.2241 24.4601,46.549 26.3161,42.2161 L27.279,39.9682 L31.6948,34.4487 L36.6752,8.9412 C36.6038,8.5672 36.5316,8.1929 36.4592,7.8188 L29.2084,30.526 L26.6054,34.0753 L24.9494,30.9995 L19.5074,0.0037 C19.5679,0.0037 19.6286,0.0025 19.6891,0 L19.5074,0.0037 L13.8286,30.526 L12.4093,34.3121 L10.0431,31.2356 L1.4354,5.7867 Z" id="_58556400" fill="#DAE0EC"></path>
                    <path d="M4.2981,14.2503 L6.6808,26.7349 L7.8982,32.8218 L11.9734,38.2546 C16.6866,44.3736 17.9326,52.1993 15.6943,59.3293 C16.8007,58.9973 17.9317,58.7792 19.0867,58.7358 L22.5484,55.1391 C21.9414,50.4963 22.6058,45.7985 24.4777,41.4287 L25.5475,38.931 L29.8261,33.5831 L32.3345,20.7361 L29.2084,30.526 L26.6054,34.0753 L24.9494,30.9995 L19.5074,0.0037 C19.5679,0.0037 19.6286,0.0025 19.6891,0 L19.5074,0.0037 L13.8286,30.526 L12.4093,34.3121 L10.0431,31.2356 L4.2981,14.2503 Z" id="_41534224" fill="#DDE3EE"></path>
                    <path d="M9.0093,28.179 L9.7704,31.9846 L13.5658,37.0444 C17.9397,42.7288 19.5634,49.7803 18.4158,56.5488 L20.4557,54.4292 C20.0096,49.7494 20.7556,45.0384 22.6392,40.6412 L23.8161,37.8937 L27.9573,32.7174 L28.0865,32.0558 L26.6054,34.0753 L24.9494,30.9995 L19.5074,0.0037 C19.5679,0.0037 19.6286,0.0025 19.6891,0 L19.5074,0.0037 L13.8286,30.526 L12.4093,34.3121 L10.0431,31.2356 L9.0093,28.179 L9.0093,28.179 Z" id="_41544672" fill="#E1E6F0"></path>
                    <path d="M12.9448,32.8836 L15.1585,35.8347 C17.0541,38.3007 18.471,41.0066 19.4069,43.8359 C19.7772,42.4877 20.2422,41.1576 20.8008,39.8537 L22.0846,36.8565 L25.6819,32.3601 L24.9494,30.9995 L19.5074,0.0037 C19.5679,0.0037 19.6286,0.0025 19.6891,0 L19.5074,0.0037 L13.8286,30.526 L12.9448,32.8836 L12.9448,32.8836 Z" id="_40915920" fill="#E4E9F3"></path>
                    <path d="M13.7779,30.6612 L16.7514,34.6253 C17.6876,35.8441 18.5149,37.1178 19.2331,38.4341 L20.3531,35.8192 L24.2198,30.9861 L24.6027,29.0249 L19.5074,0.0037 C19.5679,0.0037 19.6286,0.0025 19.6891,3.55271368e-15 L19.5074,0.0037 L13.8286,30.526 L13.7779,30.6612 L13.7779,30.6612 Z" id="_40868064" fill="#E7ECF5"></path>
                    <path d="M14.6811,25.9442 L15.3869,29.4732 L18.3446,33.4162 C18.5699,33.7098 18.7893,34.0063 19.0028,34.3056 L22.3511,30.1205 L23.6379,23.5298 L19.5074,0.0037 C19.5679,0.0037 19.6286,0.0025 19.6891,1.0658141e-14 L19.5074,0.0037 L14.6811,25.9442 L14.6811,25.9442 Z" id="_55541664" fill="#EAEFF8"></path>
                    <path d="M15.6828,20.5601 L16.4952,24.8169 L17.2591,28.636 L19.0583,31.0347 L20.4823,29.2548 L22.6731,18.0344 L19.5074,0.0037 C19.5679,0.0037 19.6286,0.0025 19.6891,7.10542736e-15 L19.5074,0.0037 L15.6828,20.5601 L15.6828,20.5601 Z" id="_41733200" fill="#EEF2FA"></path>
                    <path d="M16.6879,15.158 L18.4581,24.4333 L18.9276,26.7808 L21.7083,12.5393 L19.5074,0.0037 C19.5679,0.0037 19.6286,0.0025 19.6891,-3.55271368e-15 L19.5074,0.0037 L16.6879,15.158 L16.6879,15.158 Z" id="_41159272" fill="#F1F5FD"></path>
                    <path d="M17.693,9.7559 L18.9391,16.2852 L20.3746,8.9331 C19.9493,6.7804 19.5076,4.6251 19.0485,2.4703 L17.693,9.7559 L17.693,9.7559 Z" id="_55533816" fill="#F4F8FF"></path>
                </g>
                <g id="g4611" transform="translate(10.8925, 0)">
                    <path d="M0.3421,25.5278 L0.7921,27.8857 L2.3247,35.5483 L2.6089,35.7695 L7.1985,41.8879 C11.5213,47.4772 11.9213,54.8663 8.472,60.9846 C8.3592,61.238 8.258,61.4884 8.1569,61.7477 C7.9664,62.2362 7.7366,62.7149 7.4944,63.1864 C11.1323,61.2964 15.1529,58.7271 19.5074,58.7271 C21.7458,58.7271 23.8736,59.4064 25.8983,60.323 L25.9327,60.2873 L25.9266,60.2814 L29.0383,57.0483 C27.8425,52.6444 28.1831,48.0164 29.9931,43.7911 L30.7419,42.0428 L35.4322,36.1802 L38.8426,18.7134 L38.1991,2.37 L38.1991,2.37 L29.2084,30.526 L26.6054,34.0753 L24.9494,30.9995 L19.5074,0.0037 C19.5679,0.0037 19.6286,0.0025 19.6891,2.13162821e-14 L19.5074,0.0037 L13.8286,30.526 L12.4093,34.3121 L10.0431,31.2356 L0.4391,2.8411 C0.7366,2.8411 1.0013,2.7948 1.2463,2.7089 L0.3421,2.8428 L0.3421,25.5278 L0.3421,25.5278 Z M0.3421,2.8428 C0.253,2.9319 0.1307,2.9875 -3.55271368e-15,3.0222 L0.3421,2.8428 Z" id="_41221008" fill="#D4DAE7"></path>
                    <path d="M0.3421,14.8592 L2.755,27.5021 L4.1538,34.496 L8.7898,40.6763 C13.5186,46.8003 14.0388,54.8908 10.3943,61.6392 C13.2354,60.1387 16.2796,58.7271 19.5074,58.7271 C21.0164,58.7271 22.475,59.0358 23.8858,59.5177 L26.8353,56.4531 C25.8617,51.9554 26.3199,47.2867 28.1546,43.0036 L29.0105,41.0055 L33.5635,35.3145 L38.5007,10.0284 L38.3925,7.2815 C38.1724,6.1452 37.9483,5.0084 37.7198,3.8711 L29.2084,30.526 L26.6054,34.0753 L24.9494,30.9995 L19.5074,0.0037 C19.5679,0.0037 19.6286,0.0025 19.6891,2.13162821e-14 L19.5074,0.0037 L13.8286,30.526 L12.4093,34.3121 L10.0431,31.2356 L0.4391,2.8411 C0.7366,2.8411 1.0013,2.7948 1.2463,2.7089 L0.3421,2.8428 L0.3421,14.8592 Z M0.3421,2.8428 C0.253,2.9319 0.1307,2.9875 -3.55271368e-15,3.0222 L0.3421,2.8428 Z" id="_41734208" fill="#D7DDE9"></path>
                    <path d="M1.435,5.7854 C1.3577,6.7647 1.2814,7.7428 1.2064,8.7191 L4.7179,27.1185 L6.026,33.6588 L10.3815,39.4653 C15.0475,45.516 16.0002,53.3278 13.2522,60.2392 C15.2503,59.3651 17.3375,58.7271 19.5074,58.7271 C20.2416,58.7271 20.9634,58.8008 21.6742,58.9314 L24.6754,55.8131 C23.8995,51.2424 24.4618,46.5451 26.3162,42.2162 L27.279,39.9683 L31.6947,34.4489 L36.6752,8.9409 C36.6038,8.5669 36.5316,8.1926 36.4593,7.8185 L29.2084,30.526 L26.6054,34.0753 L24.9494,30.9995 L19.5074,0.0037 C19.5679,0.0037 19.6286,0.0025 19.6891,1.42108547e-14 L19.5074,0.0037 L13.8286,30.526 L12.4093,34.3121 L10.0431,31.2356 L1.435,5.7854 Z" id="_41782616" fill="#DAE0EC"></path>
                    <path d="M4.2981,14.2502 L6.6808,26.7349 L7.8981,32.8217 L11.9736,38.2548 C16.6993,44.3902 17.9422,52.1977 15.6973,59.3284 C16.8027,58.9969 17.9328,58.7792 19.0867,58.7358 L22.5523,55.1349 C21.9534,50.5089 22.6082,45.793 24.4777,41.4287 L25.5476,38.931 L29.826,33.5833 L32.3343,20.7366 L29.2084,30.526 L26.6054,34.0753 L24.9494,30.9995 L19.5074,0.0037 C19.5679,0.0037 19.6286,0.0025 19.6891,7.10542736e-15 L19.5074,0.0037 L13.8286,30.526 L12.4093,34.3121 L10.0431,31.2356 L4.2981,14.2502 L4.2981,14.2502 Z" id="_56878000" fill="#DDE3EE"></path>
                    <path d="M9.009,28.1783 L9.7703,31.9845 L13.5661,37.0448 C17.9352,42.7237 19.5559,49.7851 18.4101,56.5547 L20.4609,54.4238 C20.0213,49.7575 20.7585,45.0318 22.6393,40.6412 L23.8161,37.8938 L27.9572,32.7176 L28.0864,32.0559 L26.6054,34.0753 L24.9494,30.9995 L19.5074,0.0037 C19.5679,0.0037 19.6286,0.0025 19.6891,0 L19.5074,0.0037 L13.8286,30.526 L12.4093,34.3121 L10.0431,31.2356 L9.009,28.1783 L9.009,28.1783 Z" id="_41533400" fill="#E1E6F0"></path>
                    <path d="M12.9448,32.8835 L15.1589,35.8351 C17.0554,38.3025 18.4718,41.0132 19.4065,43.8484 C19.7761,42.4949 20.2411,41.1603 20.8008,39.8537 L22.0846,36.8565 L25.682,32.3601 L24.9494,30.9995 L19.5074,0.0037 C19.5679,0.0037 19.6286,0.0025 19.6891,7.10542736e-15 L19.5074,0.0037 L13.8286,30.526 L12.9448,32.8835 L12.9448,32.8835 Z" id="_57019880" fill="#E4E9F3"></path>
                    <path d="M13.7779,30.6611 L16.7518,34.6257 C17.6877,35.8444 18.5147,37.1186 19.2324,38.4358 L20.3532,35.8193 L24.2197,30.9863 L24.6027,29.0248 L19.5074,0.0037 C19.5679,0.0037 19.6286,0.0025 19.6891,7.10542736e-15 L19.5074,0.0037 L13.8286,30.526 L13.7779,30.6611 L13.7779,30.6611 Z" id="_56988112" fill="#E7ECF5"></path>
                    <path d="M14.681,25.9443 L15.3868,29.473 L18.3451,33.4167 C18.5702,33.7101 18.7894,34.0065 19.0028,34.3058 L22.351,30.1207 L23.6379,23.5297 L19.5074,0.0037 C19.5679,0.0037 19.6286,0.0025 19.6891,1.42108547e-14 L19.5074,0.0037 L14.681,25.9443 L14.681,25.9443 Z" id="_56879776" fill="#EAEFF8"></path>
                    <path d="M15.6828,20.5601 L16.4952,24.817 L17.259,28.6359 L19.0584,31.0347 L20.4822,29.255 L22.6731,18.0344 L19.5074,0.0037 C19.5679,0.0037 19.6286,0.0025 19.6891,2.13162821e-14 L19.5074,0.0037 L15.6828,20.5601 L15.6828,20.5601 Z" id="_55532960" fill="#EEF2FA"></path>
                    <path d="M16.6879,15.158 L18.4581,24.4334 L18.9276,26.7808 L21.7083,12.5393 L19.5074,0.0037 C19.5679,0.0037 19.6286,0.0025 19.6891,3.55271368e-15 L19.5074,0.0037 L16.6879,15.158 L16.6879,15.158 Z" id="_55539464" fill="#F1F5FD"></path>
                    <path d="M17.693,9.7558 L18.9391,16.2852 L20.3749,8.9319 C19.9498,6.7788 19.5083,4.6224 19.0493,2.4658 L17.693,9.7558 L17.693,9.7558 Z" id="_58601368" fill="#F4F8FF"></path>
                </g>
                <g id="g4624" transform="translate(10.8734, 0)">
                    <path d="M31.3119,57.5899 C29.8673,53.3139 30.0498,48.7823 31.8506,44.5785 L32.4924,43.0799 L37.3202,37.0457 L39.2037,27.3988 L38.2182,2.37 L38.2182,2.37 L29.2275,30.526 L26.6245,34.0753 L24.9685,30.9995 L19.5265,0.0037 C19.587,0.0037 19.6477,0.0025 19.7082,1.42108547e-14 L19.5265,0.0037 L13.8477,30.526 L12.4284,34.3121 L10.0622,31.2356 L0.4582,2.8411 C0.7557,2.8411 1.0204,2.7948 1.2654,2.7089 L0.3612,2.8428 L0.3612,32.6555 L-7.10542736e-15,34.0279 L0.5285,36.6701 L1.1887,37.1837 L5.6268,43.1003 C9.4889,48.0849 9.8076,54.6504 6.7007,60.0873 C6.5917,60.33 6.4949,60.5686 6.399,60.8184 C6.0855,61.6357 5.6588,62.4235 5.2474,63.1945 C5.0359,63.5906 4.8126,63.98 4.588,64.3686 L4.5678,64.5355 C8.9403,62.9242 13.9607,58.7271 19.5265,58.7271 C23.788,58.7271 27.6502,61.1876 31.1593,63.0643 L28.7468,60.7787 L28.8225,60.6952 L28.8178,60.6908 L28.9285,60.5688 L28.6882,60.3301 L28.7687,60.2464 L28.7619,60.2395 L31.3119,57.5899 L31.3119,57.5899 Z M0.3612,2.8428 C0.2721,2.9319 0.1498,2.9875 0.0191,3.0222 L0.3612,2.8428 Z" id="_56953264" fill="#D0D7E4"></path>
                    <path d="M29.0569,57.0488 C27.861,52.6585 28.1818,48.064 30.0121,43.791 L30.761,42.0427 L35.4515,36.18 L38.8617,18.7136 L38.2182,2.37 L38.2182,2.37 L29.2275,30.526 L26.6245,34.0753 L24.9685,30.9995 L19.5265,0.0037 C19.587,0.0037 19.6477,0.0025 19.7082,0 L19.5265,0.0037 L13.8477,30.526 L12.4284,34.3121 L10.0622,31.2356 L0.4582,2.8411 C0.7557,2.8411 1.0204,2.7948 1.2654,2.7089 L0.3612,2.8428 L0.3612,25.5279 L0.8112,27.8857 L2.3438,35.5483 L2.628,35.7694 L7.2176,41.888 C11.544,47.4823 11.9381,54.8732 8.4888,60.9887 C8.4097,61.1694 8.3381,61.3477 8.2663,61.5347 C8.0495,62.0999 7.7884,62.6476 7.5117,63.1873 C11.15,61.2972 15.1713,58.7271 19.5265,58.7271 C21.7654,58.7271 23.894,59.4067 25.9191,60.3236 L25.9674,60.2734 L25.9603,60.2663 L29.0569,57.0488 L29.0569,57.0488 Z M0.3612,2.8428 C0.2721,2.9319 0.1498,2.9875 0.0191,3.0222 L0.3612,2.8428 Z" id="_41433248" fill="#D4DAE7"></path>
                    <path d="M26.853,56.4546 C25.8774,51.9732 26.3196,47.332 28.1737,43.0036 L29.0295,41.0054 L33.5827,35.3143 L38.5197,10.0282 L38.4115,7.2796 C38.1917,6.1438 37.9677,5.007 37.7394,3.8695 L29.2275,30.526 L26.6245,34.0753 L24.9685,30.9995 L19.5265,0.0037 C19.587,0.0037 19.6477,0.0025 19.7082,0 L19.5265,0.0037 L13.8477,30.526 L12.4284,34.3121 L10.0622,31.2356 L0.4582,2.8411 C0.7557,2.8411 1.0204,2.7948 1.2654,2.7089 L0.3612,2.8428 L0.3612,14.8596 L2.7741,27.5021 L4.1729,34.496 L8.809,40.6765 C13.5405,46.8042 14.0554,54.8945 10.4136,61.6391 C13.2546,60.1387 16.2988,58.7271 19.5265,58.7271 C21.0353,58.7271 22.4943,59.0358 23.9051,59.5176 L26.853,56.4546 L26.853,56.4546 Z M0.3612,2.8428 C0.2721,2.9319 0.1498,2.9875 0.0191,3.0222 L0.3612,2.8428 Z" id="_56980256" fill="#D7DDE9"></path>
                    <path d="M24.692,55.8158 C23.913,51.263 24.4624,46.5882 26.3352,42.2161 L27.2981,39.9682 L31.714,34.4487 L36.6944,8.9405 C36.623,8.5664 36.5509,8.1923 36.4786,7.818 L29.2275,30.526 L26.6245,34.0753 L24.9685,30.9995 L19.5265,0.0037 C19.587,0.0037 19.6477,0.0025 19.7082,1.42108547e-14 L19.5265,0.0037 L13.8477,30.526 L12.4284,34.3121 L10.0622,31.2356 L1.4589,5.7998 C1.3797,6.7743 1.3021,7.7485 1.2262,8.7232 L4.7369,27.1185 L6.0451,33.6588 L10.4007,39.4654 C15.069,45.5195 16.0175,53.331 13.2712,60.2393 C15.2695,59.3652 17.3564,58.7271 19.5265,58.7271 C20.2606,58.7271 20.9828,58.8009 21.6934,58.9314 L24.692,55.8158 L24.692,55.8158 Z" id="_56980472" fill="#DAE0EC"></path>
                    <path d="M22.5676,55.139 C21.9652,50.5315 22.6096,45.8341 24.4968,41.4286 L25.5666,38.9309 L29.8452,33.583 L32.3535,20.7364 L29.2275,30.526 L26.6245,34.0753 L24.9685,30.9995 L19.5265,0.0037 C19.587,0.0037 19.6477,0.0025 19.7082,7.10542736e-15 L19.5265,0.0037 L13.8477,30.526 L12.4284,34.3121 L10.0622,31.2356 L4.3169,14.2496 L6.6998,26.7349 L7.9173,32.8217 L11.9928,38.2549 C16.7207,44.3934 17.9604,52.2006 15.7166,59.3284 C16.8219,58.9969 17.952,58.7792 19.1058,58.7358 L22.5676,55.139 L22.5676,55.139 Z" id="_41776664" fill="#DDE3EE"></path>
                    <path d="M20.475,54.4291 C20.0318,49.7814 20.7608,45.071 22.6583,40.6411 L23.8351,37.8937 L27.9765,32.7174 L28.1057,32.0556 L26.6245,34.0753 L24.9685,30.9995 L19.5265,0.0037 C19.587,0.0037 19.6477,0.0025 19.7082,1.42108547e-14 L19.5265,0.0037 L13.8477,30.526 L12.4284,34.3121 L10.0622,31.2356 L9.0281,28.1783 L9.7894,31.9845 L13.5852,37.0448 C17.9706,42.7446 19.5916,49.7809 18.4418,56.5416 L20.475,54.4291 L20.475,54.4291 Z" id="_41780192" fill="#E1E6F0"></path>
                    <path d="M19.4238,43.8433 C19.7937,42.4953 20.2591,41.1628 20.8199,39.8537 L22.1037,36.8564 L25.701,32.36 L24.9685,30.9995 L19.5265,0.0037 C19.587,0.0037 19.6477,0.0025 19.7082,-7.10542736e-15 L19.5265,0.0037 L13.8477,30.526 L12.9639,32.8835 L15.1782,35.8354 C17.0737,38.3018 18.4894,41.0106 19.4238,43.8433 L19.4238,43.8433 Z" id="_56013688" fill="#E4E9F3"></path>
                    <path d="M19.2514,38.4358 L20.3722,35.8192 L24.239,30.9861 L24.6219,29.0252 L19.5265,0.0037 C19.587,0.0037 19.6477,0.0025 19.7082,0 L19.5265,0.0037 L13.8477,30.526 L13.797,30.6611 L16.7712,34.6261 C17.707,35.8448 18.5338,37.1188 19.2514,38.4358 L19.2514,38.4358 Z" id="_57343984" fill="#E7ECF5"></path>
                    <path d="M19.0218,34.3057 L22.3702,30.1204 L23.657,23.5298 L19.5265,0.0037 C19.587,0.0037 19.6477,0.0025 19.7082,3.55271368e-15 L19.5265,0.0037 L14.7002,25.9443 L15.4059,29.473 L18.3645,33.4171 C18.5895,33.7104 18.8086,34.0066 19.0218,34.3057 L19.0218,34.3057 Z" id="_41237080" fill="#EAEFF8"></path>
                    <path d="M19.0775,31.0347 L20.5015,29.2548 L22.6922,18.0345 L19.5265,0.0037 C19.587,0.0037 19.6477,0.0025 19.7082,3.55271368e-15 L19.5265,0.0037 L15.7019,20.5602 L16.5143,24.8169 L17.2781,28.6359 L19.0775,31.0347 L19.0775,31.0347 Z" id="_41240864" fill="#EEF2FA"></path>
                    <path d="M18.9467,26.7809 L21.7274,12.5391 L19.5265,0.0037 C19.587,0.0037 19.6477,0.0025 19.7082,7.10542736e-15 L19.5265,0.0037 L16.707,15.158 L18.4772,24.4333 L18.9467,26.7809 L18.9467,26.7809 Z" id="_56410696" fill="#F1F5FD"></path>
                    <path d="M18.9582,16.2853 L20.3943,8.9302 C19.9696,6.7767 19.5283,4.6192 19.0695,2.4599 L17.712,9.756 L18.9582,16.2853 Z" id="_58562696" fill="#F4F8FF"></path>
                </g>
                <g id="g4638" transform="translate(9.1515, 0)">
                    <path d="M4.3757,63.7114 C4.3188,64.1696 4.2634,64.6278 4.2089,65.0867 C9.0439,64.3995 14.7778,58.7271 21.2484,58.7271 C27.5481,58.7271 32.9748,64.1049 37.6789,65.0231 L37.6789,64.8545 L33.2652,60.6732 L33.341,60.5896 L33.3376,60.5863 L33.4175,60.498 L33.2166,60.2982 L33.2965,60.2151 L33.2897,60.2082 L35.3503,58.0671 C33.6248,53.9369 33.645,49.4888 35.4109,45.3659 L35.9459,44.1172 L40.4156,38.5303 L40.4177,38.5287 L40.4954,38.4317 L40.8631,38.1558 L41.6793,33.9755 L41.1233,32.4187 L39.9401,2.37 L39.9401,2.37 L30.9494,30.526 L28.3464,34.0753 L26.6904,30.9995 L21.2484,0.0037 C21.3089,0.0037 21.3696,0.0025 21.4301,0 L21.2484,0.0037 L15.5696,30.526 L14.1503,34.3121 L11.7841,31.2356 L2.1801,2.8411 C2.4776,2.8411 2.7423,2.7948 2.9873,2.7089 L2.0831,2.8428 L2.0831,32.6555 L0.9,37.1512 L0,35.6159 L0.4352,37.7919 L1.4713,38.598 L5.7586,44.3134 C9.1592,48.693 9.3981,54.416 6.6414,59.1726 C6.5229,59.4334 6.4184,59.6874 6.316,59.9569 C6.0162,60.7462 5.6015,61.5094 5.2047,62.2528 C4.9412,62.7466 4.6566,63.2278 4.3757,63.7114 L4.3757,63.7114 Z M2.0831,2.8428 C1.994,2.9319 1.8717,2.9875 1.741,3.0222 L2.0831,2.8428 Z" id="_57006456" fill="#CDD4E2"></path>
                    <path d="M6.3106,64.3623 L6.2896,64.5355 C10.6621,62.9242 15.6826,58.7271 21.2484,58.7271 C25.5108,58.7271 29.3732,61.189 32.8829,63.0659 L30.4701,60.7801 L30.5476,60.6945 L30.5449,60.6919 L30.6543,60.5709 L30.4114,60.3293 L30.4952,60.2421 L30.4881,60.2351 L33.0338,57.5899 C31.5907,53.3177 31.7702,48.7862 33.5725,44.5783 L34.2145,43.0799 L39.0013,37.0966 L39.0038,37.0946 L39.0417,37.0473 L40.9256,27.3986 L39.9401,2.37 L39.9401,2.37 L30.9494,30.526 L28.3464,34.0753 L26.6904,30.9995 L21.2484,0.0037 C21.3089,0.0037 21.3696,0.0025 21.4301,1.42108547e-14 L21.2484,0.0037 L15.5696,30.526 L14.1503,34.3121 L11.7841,31.2356 L2.1801,2.8411 C2.4776,2.8411 2.7423,2.7948 2.9873,2.7089 L2.0831,2.8428 L2.0831,32.6555 L1.722,34.0278 L2.2504,36.6701 L2.9106,37.1838 L7.3489,43.1004 C11.217,48.0932 11.5297,54.6465 8.4248,60.0834 C8.3391,60.2765 8.2622,60.4658 8.1857,60.6672 C7.854,61.5403 7.4082,62.3717 6.9692,63.1943 C6.7585,63.5893 6.5352,63.976 6.3106,64.3623 Z M2.0831,2.8428 C1.994,2.9319 1.8717,2.9875 1.741,3.0222 L2.0831,2.8428 Z" id="_41712488" fill="#D0D7E4"></path>
                    <path d="M27.641,60.3241 L27.6938,60.2692 L27.6865,60.2619 L30.7789,57.0487 C29.584,52.6618 29.9023,48.0673 31.7341,43.7908 L32.4831,42.0426 L37.1733,36.1801 L40.5836,18.7135 L39.9401,2.37 L39.9401,2.37 L30.9494,30.526 L28.3464,34.0753 L26.6904,30.9995 L21.2484,0.0037 C21.3089,0.0037 21.3696,0.0025 21.4301,2.84217094e-14 L21.2484,0.0037 L15.5696,30.526 L14.1503,34.3121 L11.7841,31.2356 L2.1801,2.8411 C2.4776,2.8411 2.7423,2.7948 2.9873,2.7089 L2.0831,2.8428 L2.0831,25.5274 L2.5332,27.8857 L4.0657,35.5484 L4.3499,35.7696 L8.9397,41.8882 C13.2775,47.4976 13.6611,54.8859 10.2013,61.0053 C9.8557,61.7627 9.5571,62.467 9.2049,63.2024 C12.8506,61.3109 16.8819,58.7271 21.2484,58.7271 C23.4874,58.7271 25.6157,59.4071 27.641,60.3241 Z M2.0831,2.8428 C1.994,2.9319 1.8717,2.9875 1.741,3.0222 L2.0831,2.8428 Z" id="_56283320" fill="#D4DAE7"></path>
                    <path d="M25.6264,59.5182 L28.575,56.4545 C27.6002,51.9761 28.0403,47.3348 29.8957,43.0032 L30.7517,41.0053 L35.3045,35.3144 L40.2417,10.0285 L40.1333,7.2754 C39.9139,6.1406 39.6904,5.0039 39.4625,3.8657 L30.9494,30.526 L28.3464,34.0753 L26.6904,30.9995 L21.2484,0.0037 C21.3089,0.0037 21.3696,0.0025 21.4301,2.84217094e-14 L21.2484,0.0037 L15.5696,30.526 L14.1503,34.3121 L11.7841,31.2356 L2.1801,2.8411 C2.4776,2.8411 2.7423,2.7948 2.9873,2.7089 L2.0831,2.8428 L2.0831,14.8592 L4.4961,27.5021 L5.8948,34.4961 L10.531,40.6767 C15.2706,46.8151 15.7779,54.8945 12.1353,61.6394 C14.9763,60.139 18.0207,58.7271 21.2484,58.7271 C22.7573,58.7271 24.2156,59.0363 25.6264,59.5182 L25.6264,59.5182 Z M2.0831,2.8428 C1.994,2.9319 1.8717,2.9875 1.741,3.0222 L2.0831,2.8428 Z" id="_57143256" fill="#D7DDE9"></path>
                    <path d="M23.415,58.9318 L26.414,55.8157 C25.6357,51.2655 26.1834,46.5906 28.0573,42.2156 L29.0203,39.968 L33.4358,34.4488 L38.4165,8.9397 C38.3452,8.5655 38.2731,8.1912 38.2009,7.8166 L30.9494,30.526 L28.3464,34.0753 L26.6904,30.9995 L21.2484,0.0037 C21.3089,0.0037 21.3696,0.0025 21.4301,2.84217094e-14 L21.2484,0.0037 L15.5696,30.526 L14.1503,34.3121 L11.7841,31.2356 L3.1804,5.7986 C3.1014,6.7733 3.0238,7.7479 2.948,8.7228 L6.4589,27.1185 L7.767,33.6589 L12.1228,39.4657 C16.7986,45.5298 17.7417,53.3329 14.9938,60.2393 C16.9917,59.3654 19.0787,58.7271 21.2484,58.7271 C21.9825,58.7271 22.7043,58.8013 23.415,58.9318 L23.415,58.9318 Z" id="_55299472" fill="#DAE0EC"></path>
                    <path d="M20.8277,58.736 L24.2897,55.1388 C23.6877,50.5337 24.3307,45.8362 26.2189,41.428 L27.2888,38.9306 L31.567,33.5831 L34.0753,20.7367 L30.9494,30.526 L28.3464,34.0753 L26.6904,30.9995 L21.2484,0.0037 C21.3089,0.0037 21.3696,0.0025 21.4301,1.42108547e-14 L21.2484,0.0037 L15.5696,30.526 L14.1503,34.3121 L11.7841,31.2356 L6.0391,14.2502 L8.4218,26.7349 L9.6392,32.8218 L13.7149,38.2551 C18.4502,44.4035 19.6845,52.2037 17.4389,59.3287 C18.5441,58.9973 19.674,58.7793 20.8277,58.736 Z" id="_57143928" fill="#DDE3EE"></path>
                    <path d="M10.7503,28.179 L11.7841,31.2356 L14.1503,34.3121 L15.5696,30.526 L21.2484,0.0037 L21.4301,2.48689958e-14 C21.3696,0.0025 21.3089,0.0037 21.2484,0.0037 L26.6904,30.9995 L28.3464,34.0753 L29.8275,32.0557 L29.6983,32.7175 L25.5574,37.8933 L24.3805,40.6405 C22.482,45.0728 21.7543,49.7834 22.1971,54.4289 L20.1667,56.5386 C21.3172,49.7825 19.6985,42.7526 15.3073,37.0451 L11.5114,31.9846 L10.7503,28.179 L10.7503,28.179 Z" id="_58699752" fill="#E1E6F0"></path>
                    <path d="M14.6858,32.8836 L15.5696,30.526 L21.2484,0.0037 L21.4301,1.77635684e-14 C21.3696,0.0025 21.3089,0.0037 21.2484,0.0037 L26.6904,30.9995 L27.4229,32.3601 L23.826,36.856 L22.5421,39.8529 C21.9843,41.1551 21.521,42.4802 21.1521,43.8205 C20.2147,41.0025 18.7972,38.3035 16.9,35.8353 L14.6858,32.8836 L14.6858,32.8836 Z" id="_57309184" fill="#E4E9F3"></path>
                    <path d="M15.5189,30.6612 L15.5696,30.526 L21.2484,0.0037 L21.4301,1.77635684e-14 C21.3696,0.0025 21.3089,0.0037 21.2484,0.0037 L26.3437,29.025 L25.9608,30.9862 L22.0946,35.8187 L20.9756,38.4307 C20.257,37.1175 19.4295,35.8453 18.493,34.626 L15.5189,30.6612 L15.5189,30.6612 Z" id="_41113392" fill="#E7ECF5"></path>
                    <path d="M20.7438,34.3057 L24.092,30.1206 L25.3789,23.5297 L21.2484,0.0037 C21.3089,0.0037 21.3696,0.0025 21.4301,2.13162821e-14 L21.2484,0.0037 L16.4221,25.9441 L17.1279,29.4732 L20.0866,33.4174 C20.3116,33.7106 20.5306,34.0067 20.7438,34.3057 L20.7438,34.3057 Z" id="_41215264" fill="#EAEFF8"></path>
                    <path d="M20.7994,31.0347 L22.2233,29.2549 L24.4141,18.0344 L21.2484,0.0037 C21.3089,0.0037 21.3696,0.0025 21.4301,1.42108547e-14 L21.2484,0.0037 L17.4238,20.5599 L18.2363,24.817 L19.0001,28.636 L20.7994,31.0347 L20.7994,31.0347 Z" id="_56882696" fill="#EEF2FA"></path>
                    <path d="M20.6686,26.7807 L23.4493,12.5392 L21.2484,0.0037 C21.3089,0.0037 21.3696,0.0025 21.4301,1.77635684e-14 L21.2484,0.0037 L18.4289,15.1578 L20.1992,24.4334 L20.6686,26.7807 L20.6686,26.7807 Z" id="_56990472" fill="#F1F5FD"></path>
                    <path d="M20.6801,16.2851 L22.1168,8.927 C21.693,6.7736 21.2525,4.6126 20.7938,2.4471 L19.434,9.7559 L20.6801,16.2851 Z" id="_41210032" fill="#F4F8FF"></path>
                </g>
                <g id="g4653" transform="translate(6.0557, 0)">
                    <path d="M5.5391,63.0461 C5.4555,63.7112 5.3744,64.377 5.2957,65.0435 L5.4157,65.0711 C10.621,66.0175 17.0094,58.7271 24.3442,58.7271 C31.5568,58.7271 37.625,65.7761 42.7747,65.1111 L42.7747,63.9943 L39.1567,60.5668 L39.2333,60.4822 L39.2285,60.4777 L39.2765,60.4247 L39.1171,60.2663 L39.1871,60.1936 L39.181,60.1877 L40.8386,58.4654 L40.4145,57.5846 L40.3452,57.4227 C38.7741,53.7551 38.7741,49.8211 40.3451,46.1536 L40.773,45.1545 L44.9256,39.9641 L44.927,39.9631 L44.9936,39.8797 L45.7744,39.2939 L46.883,33.6162 L45.4022,35.7313 L44.2191,32.4187 L43.0359,2.37 L43.0359,2.37 L34.0452,30.526 L31.4422,34.0753 L29.7862,30.9995 L24.3442,0.0037 C24.4047,0.0037 24.4654,0.0025 24.5259,7.10542736e-14 L24.3442,0.0037 L18.6654,30.526 L17.2461,34.3121 L14.8799,31.2356 L5.2759,2.8411 C5.5734,2.8411 5.8381,2.7948 6.0831,2.7089 L5.1789,2.8428 L5.1789,32.6555 L3.9958,37.1512 L0,30.3349 L1.7075,38.8726 C1.8988,39.0499 2.1169,39.2257 2.2827,39.3548 L3.1278,40.0121 L7.2649,45.5275 C10.197,49.2934 10.3583,54.1782 7.9614,58.2477 C7.8293,58.5348 7.7131,58.8119 7.601,59.1098 C7.3165,59.8657 6.9155,60.6002 6.536,61.3112 C6.2217,61.9003 5.8712,62.4677 5.5391,63.0461 L5.5391,63.0461 Z M5.1789,2.8428 C5.0898,2.9319 4.9675,2.9875 4.8368,3.0222 L5.1789,2.8428 Z" id="_42680672" fill="#CAD1DF"></path>
                    <path d="M7.4734,63.6965 C7.4159,64.1596 7.3598,64.6229 7.3046,65.0867 C12.1397,64.3995 17.8736,58.7271 24.3442,58.7271 C30.6439,58.7271 36.0706,64.1049 40.7747,65.0231 L40.7747,64.8545 L36.3616,60.6737 L36.4408,60.5863 L36.4353,60.581 L36.5118,60.4966 L36.3107,60.2967 L36.3745,60.2305 L36.3691,60.2251 L38.4462,58.067 C36.7205,53.9368 36.7407,49.4889 38.5066,45.3662 L39.0415,44.1173 L43.5225,38.5164 L43.5233,38.5159 L43.5898,38.4326 L43.9589,38.1557 L44.7751,33.9755 L44.2191,32.4187 L43.0359,2.37 L43.0359,2.37 L34.0452,30.526 L31.4422,34.0753 L29.7862,30.9995 L24.3442,0.0037 C24.4047,0.0037 24.4654,0.0025 24.5259,0 L24.3442,0.0037 L18.6654,30.526 L17.2461,34.3121 L14.8799,31.2356 L5.2759,2.8411 C5.5734,2.8411 5.8381,2.7948 6.0831,2.7089 L5.1789,2.8428 L5.1789,32.6555 L3.9958,37.1512 L3.0958,35.6159 L3.531,37.792 L4.567,38.5978 L8.8545,44.3136 C12.2573,48.6962 12.4911,54.4176 9.7394,59.169 C9.6431,59.3826 9.5571,59.5902 9.4728,59.8142 C9.1558,60.6566 8.7235,61.4601 8.3006,62.2527 C8.0389,62.7431 7.7533,63.2181 7.4734,63.6965 L7.4734,63.6965 Z M5.1789,2.8428 C5.0898,2.9319 4.9675,2.9875 4.8368,3.0222 L5.1789,2.8428 Z" id="_56981384" fill="#CDD4E2"></path>
                    <path d="M9.4079,64.3497 L9.3854,64.5355 C13.7579,62.9241 18.7784,58.7271 24.3442,58.7271 C28.6065,58.7271 32.4688,61.189 35.9785,63.0658 L33.5664,60.7807 L33.6483,60.6903 L33.6421,60.6844 L33.7472,60.5684 L33.5044,60.3271 L33.562,60.2673 L33.5572,60.2626 L36.1296,57.5899 C34.6863,53.3176 34.8658,48.7864 36.6682,44.5788 L37.31,43.0801 L42.1378,37.0458 L44.0214,27.3987 L43.0359,2.37 L43.0359,2.37 L34.0452,30.526 L31.4422,34.0753 L29.7862,30.9995 L24.3442,0.0037 C24.4047,0.0037 24.4654,0.0025 24.5259,1.42108547e-14 L24.3442,0.0037 L18.6654,30.526 L17.2461,34.3121 L14.8799,31.2356 L5.2759,2.8411 C5.5734,2.8411 5.8381,2.7948 6.0831,2.7089 L5.1789,2.8428 L5.1789,32.6555 L4.8178,34.0278 L5.3462,36.6701 L6.0063,37.1836 L10.4448,43.1006 C14.319,48.1017 14.6231,54.6612 11.5137,60.0956 C11.0299,61.1495 10.6432,62.1109 10.0651,63.1941 C9.8559,63.5863 9.6321,63.9682 9.4079,64.3497 L9.4079,64.3497 Z M5.1789,2.8428 C5.0898,2.9319 4.9675,2.9875 4.8368,3.0222 L5.1789,2.8428 Z" id="_41882384" fill="#D0D7E4"></path>
                    <path d="M30.7321,60.322 L30.7494,60.3041 L30.7453,60.3001 L33.8746,57.0487 C32.6795,52.6618 32.9979,48.0677 34.8297,43.7914 L35.5785,42.0428 L40.2691,36.1801 L43.6794,18.7136 L43.0359,2.37 L43.0359,2.37 L34.0452,30.526 L31.4422,34.0753 L29.7862,30.9995 L24.3442,0.0037 C24.4047,0.0037 24.4654,0.0025 24.5259,1.42108547e-14 L24.3442,0.0037 L18.6654,30.526 L17.2461,34.3121 L14.8799,31.2356 L5.2759,2.8411 C5.5734,2.8411 5.8381,2.7948 6.0831,2.7089 L5.1789,2.8428 L5.1789,25.5274 L5.629,27.8857 L7.1615,35.5483 L7.4456,35.7693 L12.0356,41.8885 C16.378,47.5041 16.754,54.8948 13.2946,61.0099 C12.9516,61.7592 12.6515,62.4676 12.2999,63.2028 C15.9459,61.3113 19.9774,58.7271 24.3442,58.7271 C26.5815,58.7271 28.7083,59.4061 30.7321,60.322 L30.7321,60.322 Z M5.1789,2.8428 C5.0898,2.9319 4.9675,2.9875 4.8368,3.0222 L5.1789,2.8428 Z" id="_56888192" fill="#D4DAE7"></path>
                    <path d="M28.722,59.5181 L31.6706,56.4545 C30.6956,51.9762 31.1358,47.3353 32.9912,43.004 L33.847,41.0056 L38.4004,35.3144 L43.3375,10.0286 L43.2299,7.2959 C43.0083,6.1584 42.7823,5.0216 42.5519,3.8857 L34.0452,30.526 L31.4422,34.0753 L29.7862,30.9995 L24.3442,0.0037 C24.4047,0.0037 24.4654,0.0025 24.5259,2.84217094e-14 L24.3442,0.0037 L18.6654,30.526 L17.2461,34.3121 L14.8799,31.2356 L5.2759,2.8411 C5.5734,2.8411 5.8381,2.7948 6.0831,2.7089 L5.1789,2.8428 L5.1789,14.8594 L7.5918,27.5021 L8.9906,34.4961 L13.627,40.6769 C18.3703,46.8205 18.8703,54.9 15.2307,61.6396 C18.0718,60.1392 21.1164,58.7271 24.3442,58.7271 C25.853,58.7271 27.3113,59.0363 28.722,59.5181 Z M5.1789,2.8428 C5.0898,2.9319 4.9675,2.9875 4.8368,3.0222 L5.1789,2.8428 Z" id="_41906136" fill="#D7DDE9"></path>
                    <path d="M26.5105,58.9318 L29.5096,55.8158 C28.7311,51.2657 29.2788,46.5913 31.1527,42.2166 L32.1156,39.9684 L36.5316,34.4487 L41.5115,8.9438 C41.4398,8.5699 41.3675,8.1962 41.2948,7.8225 L34.0452,30.526 L31.4422,34.0753 L29.7862,30.9995 L24.3442,0.0037 C24.4047,0.0037 24.4654,0.0025 24.5259,2.84217094e-14 L24.3442,0.0037 L18.6654,30.526 L17.2461,34.3121 L14.8799,31.2356 L6.2762,5.7986 C6.1971,6.7733 6.1196,7.7479 6.0438,8.7228 L9.5547,27.1185 L10.8628,33.6589 L15.2187,39.4659 C19.8978,45.5344 20.8351,53.3375 18.0892,60.2395 C20.0873,59.3655 22.1744,58.7271 24.3442,58.7271 C25.0782,58.7271 25.7999,58.8013 26.5105,58.9318 L26.5105,58.9318 Z" id="_57611728" fill="#DAE0EC"></path>
                    <path d="M23.9231,58.7361 L27.3852,55.1389 C26.7831,50.534 27.4261,45.837 29.3143,41.4292 L30.3841,38.9312 L34.6629,33.5831 L37.1713,20.7362 L34.0452,30.526 L31.4422,34.0753 L29.7862,30.9995 L24.3442,0.0037 C24.4047,0.0037 24.4654,0.0025 24.5259,2.84217094e-14 L24.3442,0.0037 L18.6654,30.526 L17.2461,34.3121 L14.8799,31.2356 L9.1349,14.2502 L11.5176,26.7349 L12.735,32.8218 L16.8108,38.2554 C21.5491,44.4078 22.7786,52.2078 20.5343,59.3289 C21.6395,58.9975 22.7694,58.7794 23.9231,58.7361 Z" id="_58997928" fill="#DDE3EE"></path>
                    <path d="M13.8461,28.179 L14.8799,31.2356 L17.2461,34.3121 L18.6654,30.526 L24.3442,0.0037 L24.5259,2.48689958e-14 C24.4654,0.0025 24.4047,0.0037 24.3442,0.0037 L29.7862,30.9995 L31.4422,34.0753 L32.9233,32.0558 L32.7941,32.7174 L28.6526,37.894 L27.4758,40.6418 C25.5773,45.0737 24.8496,49.7838 25.2926,54.4291 L23.2624,56.5384 C24.4123,49.7855 22.7967,42.756 18.4033,37.0454 L14.6072,31.9846 L13.8461,28.179 L13.8461,28.179 Z" id="_56980544" fill="#E1E6F0"></path>
                    <path d="M17.7816,32.8836 L18.6654,30.526 L24.3442,0.0037 L24.5259,1.77635684e-14 C24.4654,0.0025 24.4047,0.0037 24.3442,0.0037 L29.7862,30.9995 L30.5187,32.3601 L26.9211,36.8568 L25.6373,39.8544 C25.0797,41.156 24.6166,42.4804 24.2478,43.82 C23.3106,41.0029 21.8934,38.3042 19.996,35.8357 L17.7816,32.8836 L17.7816,32.8836 Z" id="_57613304" fill="#E4E9F3"></path>
                    <path d="M18.6147,30.6612 L18.6654,30.526 L24.3442,0.0037 L24.5259,1.77635684e-14 C24.4654,0.0025 24.4047,0.0037 24.3442,0.0037 L29.4395,29.025 L29.0566,30.9861 L25.1896,35.8196 L24.0713,38.4307 C23.3529,37.1177 22.5255,35.8457 21.589,34.6263 L18.6147,30.6612 L18.6147,30.6612 Z" id="_56988352" fill="#E7ECF5"></path>
                    <path d="M23.8397,34.3054 L27.1879,30.1205 L28.4747,23.5298 L24.3442,0.0037 C24.4047,0.0037 24.4654,0.0025 24.5259,2.48689958e-14 L24.3442,0.0037 L19.5179,25.9441 L20.2237,29.4732 L23.1822,33.4172 C23.4072,33.7105 23.6264,34.0066 23.8397,34.3054 Z" id="_57561856" fill="#EAEFF8"></path>
                    <path d="M23.8951,31.0347 L25.3191,29.2548 L27.5099,18.0344 L24.3442,0.0037 C24.4047,0.0037 24.4654,0.0025 24.5259,2.13162821e-14 L24.3442,0.0037 L20.5196,20.5599 L21.3321,24.817 L22.0959,28.636 L23.8951,31.0347 L23.8951,31.0347 Z" id="_57607448" fill="#EEF2FA"></path>
                    <path d="M23.7644,26.7808 L26.5451,12.5392 L24.3442,0.0037 C24.4047,0.0037 24.4654,0.0025 24.5259,2.48689958e-14 L24.3442,0.0037 L21.5247,15.1578 L23.295,24.4334 L23.7644,26.7808 L23.7644,26.7808 Z" id="_57568288" fill="#F1F5FD"></path>
                    <path d="M23.7759,16.2852 L25.2092,8.9447 C24.7819,6.7989 24.3379,4.6565 23.8765,2.5176 L22.5298,9.7559 L23.7759,16.2852 Z" id="_57018248" fill="#F4F8FF"></path>
                </g>
                <g id="g4669" transform="translate(3.0191, 0)">
                    <path d="M46.2804,58.8505 L45.2722,56.7567 L45.2202,56.6352 C43.8646,53.4705 43.8646,50.1057 45.2202,46.9409 L45.5412,46.1917 L49.3605,41.4178 L49.3622,41.4165 L49.4338,41.327 L50.0433,40.8697 C50.2476,40.7164 50.447,40.544 50.6132,40.349 C50.6268,40.3312 50.6402,40.3133 50.6533,40.2951 L53.1404,27.557 L50.0954,33.3651 L48.4388,35.7313 L47.2557,32.4187 L46.0725,2.37 L46.0725,2.37 L37.0818,30.526 L34.4788,34.0753 L32.8228,30.9995 L27.3808,0.0037 C27.4413,0.0037 27.502,0.0025 27.5625,1.42108547e-14 L27.3808,0.0037 L21.702,30.526 L20.2827,34.3121 L17.9165,31.2356 L8.3125,2.8411 C8.61,2.8411 8.8747,2.7948 9.1197,2.7089 L8.2155,2.8428 L8.2155,32.6555 L7.0324,37.1512 L3.55271368e-15,25.1549 L0.814,29.4201 L2.8945,39.8228 C3.2111,40.2183 3.7655,40.6799 4.0914,40.9333 L4.7251,41.4264 L8.713,46.7428 C11.1774,49.8971 11.2606,53.9278 9.2271,57.3127 C9.0796,57.6295 8.949,57.9336 8.8262,58.2635 C8.5574,58.9856 8.1701,59.6915 7.8081,60.3697 C7.445,61.0504 7.0173,61.6994 6.6447,62.374 C6.552,63.1025 6.4622,63.8316 6.3752,64.5616 C7.0143,64.7319 7.7064,64.9016 8.4523,65.0711 C13.6576,66.0175 20.046,58.7271 27.3808,58.7271 C34.7156,58.7271 40.8672,66.0175 46.0725,65.0711 C46.6888,64.931 47.268,64.7907 47.8113,64.6503 L47.8113,63.134 L44.9872,60.4585 L45.0813,60.3548 L44.9612,60.2353 L45.0406,60.1527 L45.0338,60.1458 L46.2804,58.8505 Z M8.2155,2.8428 C8.1264,2.9319 8.0041,2.9875 7.8734,3.0222 L8.2155,2.8428 Z" id="_58567048" fill="#C7CEDD"></path>
                    <path d="M43.8752,58.4655 L43.4511,57.5847 L43.3817,57.4227 C41.8108,53.7551 41.8108,49.8211 43.3818,46.1533 L43.8098,45.1544 L47.9526,39.9762 L47.9539,39.9751 L48.0302,39.8797 L48.811,39.2939 L49.9196,33.6162 L48.4388,35.7313 L47.2557,32.4187 L46.0725,2.37 L46.0725,2.37 L37.0818,30.526 L34.4788,34.0753 L32.8228,30.9995 L27.3808,0.0037 C27.4413,0.0037 27.502,0.0025 27.5625,0 L27.3808,0.0037 L21.702,30.526 L20.2827,34.3121 L17.9165,31.2356 L8.3125,2.8411 C8.61,2.8411 8.8747,2.7948 9.1197,2.7089 L8.2155,2.8428 L8.2155,32.6555 L7.0324,37.1512 L3.0366,30.3349 L4.7443,38.8734 C4.9393,39.0545 5.1642,39.234 5.3194,39.3548 L6.1645,40.0122 L10.3016,45.5277 C13.2412,49.3034 13.3951,54.177 10.9991,58.2457 C10.8906,58.4826 10.7934,58.7119 10.7006,58.9612 C10.3984,59.7729 9.9796,60.5486 9.5727,61.3112 C9.2644,61.8891 8.9075,62.4455 8.5799,63.0125 C8.4947,63.6889 8.4123,64.3657 8.3321,65.0434 L8.4523,65.0711 C13.6576,66.0175 20.046,58.7271 27.3808,58.7271 C34.5934,58.7271 40.6616,65.776 45.8113,65.1111 L45.8113,63.9942 L42.1902,60.5637 L42.3162,60.4249 L42.1564,60.2659 L42.2393,60.1797 L42.2322,60.1726 L43.8752,58.4655 L43.8752,58.4655 Z M8.2155,2.8428 C8.1264,2.9319 8.0041,2.9875 7.8734,3.0222 L8.2155,2.8428 Z" id="_58569224" fill="#CAD1DF"></path>
                    <path d="M41.4828,58.0672 C39.7572,53.9369 39.7774,49.4888 41.5434,45.3658 L42.0784,44.1171 L46.5447,38.5345 L46.5456,38.5338 L46.6266,38.4325 L46.9955,38.1557 L47.8117,33.9755 L47.2557,32.4187 L46.0725,2.37 L46.0725,2.37 L37.0818,30.526 L34.4788,34.0753 L32.8228,30.9995 L27.3808,0.0037 C27.4413,0.0037 27.502,0.0025 27.5625,0 L27.3808,0.0037 L21.702,30.526 L20.2827,34.3121 L17.9165,31.2356 L8.3125,2.8411 C8.61,2.8411 8.8747,2.7948 9.1197,2.7089 L8.2155,2.8428 L8.2155,32.6555 L7.0324,37.1512 L6.1323,35.6158 L6.5675,37.7918 L7.6038,38.598 L11.8912,44.3137 C15.3046,48.7102 15.5282,54.4245 12.7714,59.1769 C12.2917,60.2166 11.91,61.1794 11.3372,62.2527 C11.082,62.731 10.7919,63.1958 10.514,63.6633 C10.455,64.1375 10.3975,64.6119 10.341,65.0868 C15.1761,64.3999 20.91,58.7271 27.3808,58.7271 C33.6805,58.7271 39.1072,64.1049 43.8113,65.0231 L43.8113,64.8545 L39.3931,60.6689 L39.5511,60.4949 L39.3517,60.2965 L39.4379,60.2068 L39.4306,60.1995 L41.4828,58.0672 L41.4828,58.0672 Z M8.2155,2.8428 C8.1264,2.9319 8.0041,2.9875 7.8734,3.0222 L8.2155,2.8428 Z" id="_58520752" fill="#CDD4E2"></path>
                    <path d="M39.1662,57.59 C37.723,53.3177 37.9026,48.7862 39.705,44.5782 L40.347,43.0797 L45.1744,37.0461 L47.058,27.3989 L46.0725,2.37 L46.0725,2.37 L37.0818,30.526 L34.4788,34.0753 L32.8228,30.9995 L27.3808,0.0037 C27.4413,0.0037 27.502,0.0025 27.5625,3.55271368e-14 L27.3808,0.0037 L21.702,30.526 L20.2827,34.3121 L17.9165,31.2356 L8.3125,2.8411 C8.61,2.8411 8.8747,2.7948 9.1197,2.7089 L8.2155,2.8428 L8.2155,32.6555 L7.8544,34.0278 L8.3828,36.6701 L9.0431,37.1838 L13.4814,43.1008 C17.3658,48.1149 17.6602,54.6638 14.5489,60.0981 C14.0696,61.1406 13.6748,62.1205 13.1017,63.1942 C12.8986,63.5749 12.6723,63.948 12.448,64.3204 L12.4218,64.5356 C16.7943,62.9243 21.8149,58.7271 27.3808,58.7271 C31.6422,58.7271 35.5043,61.1875 39.0134,63.0642 L36.5961,60.7741 L36.786,60.565 L36.5469,60.3271 L36.6366,60.2339 L36.629,60.2263 L39.1662,57.59 L39.1662,57.59 Z M8.2155,2.8428 C8.1264,2.9319 8.0041,2.9875 7.8734,3.0222 L8.2155,2.8428 Z" id="_58522656" fill="#D0D7E4"></path>
                    <path d="M36.9113,57.0488 C35.7163,52.6618 36.0347,48.0674 37.8666,43.7906 L38.6156,42.0424 L43.3057,36.1801 L46.716,18.7136 L46.0725,2.37 L46.0725,2.37 L37.0818,30.526 L34.4788,34.0753 L32.8228,30.9995 L27.3808,0.0037 C27.4413,0.0037 27.502,0.0025 27.5625,1.42108547e-14 L27.3808,0.0037 L21.702,30.526 L20.2827,34.3121 L17.9165,31.2356 L8.3125,2.8411 C8.61,2.8411 8.8747,2.7948 9.1197,2.7089 L8.2155,2.8428 L8.2155,25.5278 L8.6655,27.8857 L10.1981,35.5484 L10.4824,35.7696 L15.0723,41.8886 C19.4147,47.5041 19.7894,54.8606 16.3557,60.9665 C16.0546,61.7549 15.7251,62.4684 15.3594,63.1908 C18.9995,61.3003 23.023,58.7271 27.3808,58.7271 C29.6201,58.7271 31.7491,59.4069 33.7745,60.3241 L33.8352,60.261 L33.8274,60.2531 L36.9113,57.0488 L36.9113,57.0488 Z M8.2155,2.8428 C8.1264,2.9319 8.0041,2.9875 7.8734,3.0222 L8.2155,2.8428 Z" id="_58523512" fill="#D4DAE7"></path>
                    <path d="M34.7073,56.4546 C33.7324,51.9762 34.1727,47.3349 36.0282,43.003 L36.8842,41.0051 L41.4369,35.3145 L46.3741,10.0285 L46.2665,7.2958 C46.0449,6.1584 45.8189,5.0216 45.5885,3.8857 L37.0818,30.526 L34.4788,34.0753 L32.8228,30.9995 L27.3808,0.0037 C27.4413,0.0037 27.502,0.0025 27.5625,1.42108547e-14 L27.3808,0.0037 L21.702,30.526 L20.2827,34.3121 L17.9165,31.2356 L8.3125,2.8411 C8.61,2.8411 8.8747,2.7948 9.1197,2.7089 L8.2155,2.8428 L8.2155,14.8594 L10.6284,27.5021 L12.0272,34.496 L16.6636,40.677 C21.4177,46.8345 21.9079,54.9009 18.2675,61.6394 C21.1086,60.1389 24.1529,58.7271 27.3808,58.7271 C28.8897,58.7271 30.3486,59.0357 31.7594,59.5176 L34.7073,56.4546 L34.7073,56.4546 Z M8.2155,2.8428 C8.1264,2.9319 8.0041,2.9875 7.8734,3.0222 L8.2155,2.8428 Z" id="_58524368" fill="#D7DDE9"></path>
                    <path d="M32.5463,55.8158 C31.7679,51.2656 32.3157,46.5908 34.1898,42.2155 L35.1527,39.9678 L39.5682,34.4488 L44.5481,8.9438 C44.4764,8.5699 44.404,8.1962 44.3314,7.8225 L37.0818,30.526 L34.4788,34.0753 L32.8228,30.9995 L27.3808,0.0037 C27.4413,0.0037 27.502,0.0025 27.5625,2.13162821e-14 L27.3808,0.0037 L21.702,30.526 L20.2827,34.3121 L17.9165,31.2356 L9.3128,5.7986 C9.2337,6.7733 9.1562,7.7479 9.0804,8.7228 L12.5913,27.1186 L13.8994,33.6588 L18.2554,39.466 C22.9445,45.5474 23.8748,53.3399 21.1272,60.2386 C23.125,59.3648 25.2113,58.7271 27.3808,58.7271 C28.1149,58.7271 28.8372,58.8009 29.5479,58.9314 L32.5463,55.8158 Z" id="_58525104" fill="#DAE0EC"></path>
                    <path d="M30.422,55.1389 C29.82,50.5338 30.4631,45.8364 32.3514,41.4279 L33.4213,38.9305 L37.6994,33.5832 L40.2078,20.7365 L37.0818,30.526 L34.4788,34.0753 L32.8228,30.9995 L27.3808,0.0037 C27.4413,0.0037 27.502,0.0025 27.5625,2.84217094e-14 L27.3808,0.0037 L21.702,30.526 L20.2827,34.3121 L17.9165,31.2356 L12.1715,14.2502 L14.5542,26.735 L15.7716,32.8217 L19.8475,38.2555 C24.5955,44.4203 25.8197,52.2109 23.5736,59.3276 C24.6782,58.9966 25.8074,58.7792 26.9603,58.7358 L30.422,55.1389 L30.422,55.1389 Z" id="_58482056" fill="#DDE3EE"></path>
                    <path d="M28.3294,54.4291 C27.8865,49.7835 28.6143,45.073 30.513,40.6403 L31.6899,37.8932 L35.8307,32.7175 L35.9599,32.0557 L34.4788,34.0753 L32.8228,30.9995 L27.3808,0.0037 C27.4413,0.0037 27.502,0.0025 27.5625,1.42108547e-14 L27.3808,0.0037 L21.702,30.526 L20.2827,34.3121 L17.9165,31.2356 L16.8826,28.1787 L17.6437,31.9845 L21.4399,37.0454 C25.841,42.7657 27.4537,49.7878 26.3032,56.5344 L28.3294,54.4291 L28.3294,54.4291 Z" id="_58483328" fill="#E1E6F0"></path>
                    <path d="M27.2862,43.8144 C27.6548,42.4762 28.1176,41.1531 28.6746,39.8527 L29.9585,36.8558 L33.5553,32.3601 L32.8228,30.9995 L27.3808,0.0037 C27.4413,0.0037 27.502,0.0025 27.5625,2.13162821e-14 L27.3808,0.0037 L21.702,30.526 L20.8182,32.8836 L23.0326,35.8356 C24.9309,38.3052 26.3484,41.0015 27.2862,43.8144 L27.2862,43.8144 Z" id="_58485032" fill="#E4E9F3"></path>
                    <path d="M27.1086,38.4293 L28.2271,35.8185 L32.0932,30.9862 L32.4761,29.025 L27.3808,0.0037 C27.4413,0.0037 27.502,0.0025 27.5625,2.84217094e-14 L27.3808,0.0037 L21.702,30.526 L21.6513,30.6611 L24.6255,34.6262 C25.5623,35.8459 26.39,37.1175 27.1086,38.4293 L27.1086,38.4293 Z" id="_57169768" fill="#E7ECF5"></path>
                    <path d="M26.8764,34.3054 L30.2244,30.1206 L31.5113,23.5297 L27.3808,0.0037 C27.4413,0.0037 27.502,0.0025 27.5625,2.13162821e-14 L27.3808,0.0037 L22.5545,25.9441 L23.2603,29.4731 L26.2187,33.4171 C26.4438,33.7104 26.663,34.0066 26.8764,34.3054 Z" id="_57170968" fill="#EAEFF8"></path>
                    <path d="M26.9318,31.0347 L28.3557,29.2549 L30.5465,18.0346 L27.3808,0.0037 C27.4413,0.0037 27.502,0.0025 27.5625,1.42108547e-14 L27.3808,0.0037 L23.5562,20.5599 L24.3687,24.817 L25.1324,28.6359 L26.9318,31.0347 L26.9318,31.0347 Z" id="_57172432" fill="#EEF2FA"></path>
                    <path d="M26.801,26.7808 L29.5817,12.5392 L27.3808,0.0037 C27.4413,0.0037 27.502,0.0025 27.5625,2.48689958e-14 L27.3808,0.0037 L24.5613,15.1579 L26.3315,24.4334 L26.801,26.7808 L26.801,26.7808 Z" id="_57173864" fill="#F1F5FD"></path>
                    <path d="M26.8125,16.2852 L28.2458,8.9446 C27.8185,6.7988 27.3745,4.6564 26.9131,2.5175 L25.5664,9.7559 L26.8125,16.2852 Z" id="_57175240" fill="#F4F8FF"></path>
                </g>
                <g id="g4686">
                    <path d="M10.4838,56.3617 C10.0059,57.3841 9.5958,58.4293 9.0627,59.4282 C8.6713,60.1617 8.2525,60.8792 7.8394,61.6005 C7.7989,61.6712 7.7552,61.7437 7.7119,61.817 L7.7119,61.8695 L7.6799,62.1211 C7.6008,62.7423 7.5241,63.3638 7.4491,63.986 C8.5499,64.3521 9.8904,64.7117 11.4714,65.0711 C16.6767,66.0175 23.0651,58.7271 30.3999,58.7271 C37.7347,58.7271 43.8863,66.0175 49.0916,65.0711 C50.5394,64.742 51.7853,64.4126 52.8304,64.0784 L52.8304,62.2737 L50.8031,60.3531 L50.8644,60.2855 L50.7833,60.2051 L50.8545,60.1312 L50.8483,60.1252 L51.7047,59.2355 L50.112,55.9278 L50.0776,55.8472 C48.9374,53.1855 48.9375,50.3904 50.0776,47.729 L50.2914,47.2292 L53.7919,42.8539 L53.7939,42.8525 L53.8562,42.7745 L54.2627,42.4694 C54.5994,42.2169 54.9165,41.9323 55.1862,41.6084 C55.3291,41.4274 55.4556,41.2358 55.5658,41.0343 L59.4066,21.3636 L53.1145,33.3651 L51.4579,35.7313 L50.2748,32.4187 L49.0916,2.37 L49.0916,2.37 L40.1009,30.526 L37.4979,34.0753 L35.8419,30.9995 L30.3999,0.0037 C30.4604,0.0037 30.5211,0.0025 30.5816,4.26325641e-14 L30.3999,0.0037 L24.7211,30.526 L23.3018,34.3121 L20.9356,31.2356 L11.3316,2.8411 C11.6291,2.8411 11.8938,2.7948 12.1388,2.7089 L11.2346,2.8428 L11.2346,32.6555 L10.0515,37.1512 L-3.55271368e-15,20.0048 L1.8702,29.8037 L4.0309,40.6068 C4.4398,41.3133 5.2828,42.0455 5.8824,42.512 L6.3049,42.8407 L10.1447,47.9595 C12.1352,50.4952 12.1406,53.6681 10.4838,56.3617 L10.4838,56.3617 Z M11.2346,2.8428 C11.1455,2.9319 11.0232,2.9875 10.8925,3.0222 L11.2346,2.8428 Z" id="_57350848" fill="#C3CBDA"></path>
                    <path d="M12.2502,57.306 C11.7752,58.3304 11.3621,59.3675 10.8272,60.3697 C10.451,61.0748 10.0506,61.7652 9.6532,62.458 C9.5642,63.1586 9.4782,63.8597 9.3945,64.5616 C10.0335,64.7318 10.7255,64.9016 11.4714,65.0711 C16.6767,66.0175 23.0651,58.7271 30.3999,58.7271 C37.7347,58.7271 43.8863,66.0175 49.0916,65.0711 C49.7079,64.931 50.2871,64.7907 50.8304,64.6503 L50.8304,63.1339 L48.0071,60.4592 L48.0985,60.3584 L47.9758,60.2367 L48.0419,60.1681 L48.0364,60.1626 L49.2995,58.8504 L48.2904,56.7548 L48.2389,56.6343 C46.8833,53.4696 46.8836,50.106 48.2389,46.942 L48.5598,46.1922 L52.3933,41.4006 L52.3948,41.3995 L52.4525,41.3273 L53.0625,40.8696 C53.2661,40.7169 53.4664,40.5437 53.6323,40.3489 C53.6459,40.3311 53.6593,40.3132 53.6724,40.295 L56.1595,27.5571 L53.1145,33.3651 L51.4579,35.7313 L50.2748,32.4187 L49.0916,2.37 L49.0916,2.37 L40.1009,30.526 L37.4979,34.0753 L35.8419,30.9995 L30.3999,0.0037 C30.4604,0.0037 30.5211,0.0025 30.5816,0 L30.3999,0.0037 L24.7211,30.526 L23.3018,34.3121 L20.9356,31.2356 L11.3316,2.8411 C11.6291,2.8411 11.8938,2.7948 12.1388,2.7089 L11.2346,2.8428 L11.2346,32.6555 L10.0515,37.1512 L3.019,25.1549 L3.8331,29.4201 L5.9144,39.8264 C6.2313,40.218 6.8236,40.7103 7.1106,40.9335 L7.7443,41.4265 L11.7321,46.7427 C14.2022,49.9043 14.2773,53.9271 12.2502,57.306 L12.2502,57.306 Z M11.2346,2.8428 C11.1455,2.9319 11.0232,2.9875 10.8925,3.0222 L11.2346,2.8428 Z" id="_57353048" fill="#C7CEDD"></path>
                    <path d="M14.0217,58.2399 C13.5473,59.2686 13.13,60.3027 12.5917,61.3113 C12.2686,61.9167 11.9285,62.5116 11.5872,63.1061 C11.5062,63.7514 11.4277,64.3971 11.3512,65.0435 L11.4714,65.0711 C16.6767,66.0175 23.0651,58.7271 30.3999,58.7271 C37.6125,58.7271 43.6807,65.7761 48.8304,65.1111 L48.8304,63.9942 L45.2112,60.5654 L45.3327,60.4313 L45.1684,60.2682 L45.2294,60.2049 L45.2244,60.2 L46.8942,58.4652 L46.4689,57.5819 L46.4003,57.4213 C44.8293,53.7537 44.8297,49.8216 46.4003,46.1549 L46.8281,45.1552 L50.9946,39.9474 L50.9958,39.9466 L51.0489,39.8801 L51.8301,39.2939 L52.9387,33.6162 L51.4579,35.7313 L50.2748,32.4187 L49.0916,2.37 L49.0916,2.37 L40.1009,30.526 L37.4979,34.0753 L35.8419,30.9995 L30.3999,0.0037 C30.4604,0.0037 30.5211,0.0025 30.5816,2.84217094e-14 L30.3999,0.0037 L24.7211,30.526 L23.3018,34.3121 L20.9356,31.2356 L11.3316,2.8411 C11.6291,2.8411 11.8938,2.7948 12.1388,2.7089 L11.2346,2.8428 L11.2346,32.6555 L10.0515,37.1512 L6.0557,30.3349 L7.7636,38.8743 C7.9585,39.0557 8.1836,39.2343 8.3387,39.355 L9.1836,40.0123 L13.3208,45.5276 C16.2669,49.3117 16.4116,54.1774 14.0217,58.2399 L14.0217,58.2399 Z M11.2346,2.8428 C11.1455,2.9319 11.0232,2.9875 10.8925,3.0222 L11.2346,2.8428 Z" id="_57355192" fill="#CAD1DF"></path>
                    <path d="M15.7968,59.1661 C15.3215,60.2009 14.8991,61.2357 14.3562,62.2529 C14.0867,62.758 13.8058,63.2557 13.5221,63.7521 C13.4669,64.1968 13.413,64.6416 13.36,65.0868 C18.1951,64.3998 23.9291,58.7271 30.3999,58.7271 C36.6996,58.7271 42.1263,64.1049 46.8304,65.0231 L46.8304,64.8544 L42.4152,60.6716 L42.5669,60.5043 L42.3609,60.2998 L42.4168,60.2417 L42.4125,60.2374 L44.5018,58.0668 C42.7755,53.9362 42.7959,49.49 44.5616,45.3679 L45.0964,44.1182 L49.596,38.4942 L49.5967,38.4936 L49.6453,38.4329 L50.0145,38.1558 L50.8307,33.9753 L50.2748,32.4187 L49.0916,2.37 L49.0916,2.37 L40.1009,30.526 L37.4979,34.0753 L35.8419,30.9995 L30.3999,0.0037 C30.4604,0.0037 30.5211,0.0025 30.5816,5.68434189e-14 L30.3999,0.0037 L24.7211,30.526 L23.3018,34.3121 L20.9356,31.2356 L11.3316,2.8411 C11.6291,2.8411 11.8938,2.7948 12.1388,2.7089 L11.2346,2.8428 L11.2346,32.6555 L10.0515,37.1512 L9.1515,35.6159 L9.5867,37.7919 L10.6229,38.5981 L14.9103,44.3136 C18.3297,48.7177 18.5444,54.4212 15.7968,59.1661 L15.7968,59.1661 Z M11.2346,2.8428 C11.1455,2.9319 11.0232,2.9875 10.8925,3.0222 L11.2346,2.8428 Z" id="_57356984" fill="#CDD4E2"></path>
                    <path d="M17.5748,60.0862 C17.0972,61.1289 16.669,62.1672 16.1207,63.1944 C15.9054,63.5979 15.6832,63.9967 15.4581,64.3938 L15.4409,64.5356 C19.8135,62.9243 24.834,58.7271 30.3999,58.7271 C34.6618,58.7271 38.5239,61.188 42.0333,63.0648 L39.6192,60.7778 L39.8011,60.5772 L39.5534,60.3314 L39.6043,60.2786 L39.6005,60.2749 L42.1852,57.5896 C40.742,53.3176 40.9213,48.7871 42.723,44.5809 L43.3648,43.0812 L48.1935,37.0457 L50.0771,27.3985 L49.0916,2.37 L49.0916,2.37 L40.1009,30.526 L37.4979,34.0753 L35.8419,30.9995 L30.3999,0.0037 C30.4604,0.0037 30.5211,0.0025 30.5816,4.26325641e-14 L30.3999,0.0037 L24.7211,30.526 L23.3018,34.3121 L20.9356,31.2356 L11.3316,2.8411 C11.6291,2.8411 11.8938,2.7948 12.1388,2.7089 L11.2346,2.8428 L11.2346,32.6555 L10.8735,34.0278 L11.402,36.6702 L12.0622,37.1839 L16.5005,43.1006 C20.3914,48.1228 20.6762,54.6601 17.5748,60.0862 Z M11.2346,2.8428 C11.1455,2.9319 11.0232,2.9875 10.8925,3.0222 L11.2346,2.8428 Z" id="_57702440" fill="#D0D7E4"></path>
                    <path d="M19.355,61.0016 C19.0178,61.739 18.7037,62.4723 18.3549,63.2029 C22.0011,61.3113 26.0326,58.7271 30.3999,58.7271 C32.6366,58.7271 34.7629,59.4056 36.7862,60.3212 L36.7917,60.3154 L36.7886,60.3123 L39.9302,57.0483 C38.7352,52.6618 39.0533,48.0686 40.8844,43.7939 L41.6331,42.0442 L46.3248,36.1801 L49.7351,18.7136 L49.0916,2.37 L49.0916,2.37 L40.1009,30.526 L37.4979,34.0753 L35.8419,30.9995 L30.3999,0.0037 C30.4604,0.0037 30.5211,0.0025 30.5816,5.68434189e-14 L30.3999,0.0037 L24.7211,30.526 L23.3018,34.3121 L20.9356,31.2356 L11.3316,2.8411 C11.6291,2.8411 11.8938,2.7948 12.1388,2.7089 L11.2346,2.8428 L11.2346,25.5279 L11.6846,27.8857 L13.2173,35.5485 L13.5016,35.7698 L18.0913,41.8883 C22.4518,47.5269 22.8069,54.8955 19.355,61.0016 L19.355,61.0016 Z M11.2346,2.8428 C11.1455,2.9319 11.0232,2.9875 10.8925,3.0222 L11.2346,2.8428 Z" id="_57703296" fill="#D4DAE7"></path>
                    <path d="M34.7772,59.5179 L37.7262,56.4541 C36.7512,51.9763 37.1911,47.3365 39.0457,43.0069 L39.9014,41.0072 L44.456,35.3144 L49.3932,10.0286 L49.2856,7.2958 C49.064,6.1583 48.838,5.0216 48.6076,3.8857 L40.1009,30.526 L37.4979,34.0753 L35.8419,30.9995 L30.3999,0.0037 C30.4604,0.0037 30.5211,0.0025 30.5816,5.68434189e-14 L30.3999,0.0037 L24.7211,30.526 L23.3018,34.3121 L20.9356,31.2356 L11.3316,2.8411 C11.6291,2.8411 11.8938,2.7948 12.1388,2.7089 L11.2346,2.8428 L11.2346,14.8593 L13.6475,27.5021 L15.0464,34.4962 L19.6826,40.6767 C24.4469,46.8468 24.9245,54.9081 21.287,61.6394 C24.1279,60.1391 27.1723,58.7271 30.3999,58.7271 C31.9085,58.7271 33.3666,59.0362 34.7772,59.5179 L34.7772,59.5179 Z M11.2346,2.8428 C11.1455,2.9319 11.0232,2.9875 10.8925,3.0222 L11.2346,2.8428 Z" id="_57704968" fill="#D7DDE9"></path>
                    <path d="M32.5655,58.9317 L35.5651,55.8153 C34.7866,51.2659 35.3339,46.5927 37.2071,42.2198 L38.1698,39.9702 L42.5873,34.4488 L47.5672,8.9438 C47.4955,8.5699 47.4231,8.1962 47.3505,7.8225 L40.1009,30.526 L37.4979,34.0753 L35.8419,30.9995 L30.3999,0.0037 C30.4604,0.0037 30.5211,0.0025 30.5816,4.97379915e-14 L30.3999,0.0037 L24.7211,30.526 L23.3018,34.3121 L20.9356,31.2356 L12.3319,5.7985 C12.2528,6.7732 12.1753,7.7479 12.0995,8.7227 L15.6104,27.1185 L16.9186,33.659 L21.2743,39.4656 C25.9728,45.5586 26.8928,53.3471 24.1463,60.2389 C26.1439,59.3652 28.2306,58.7271 30.3999,58.7271 C31.1337,58.7271 31.8551,58.8013 32.5655,58.9317 L32.5655,58.9317 Z" id="_57707136" fill="#DAE0EC"></path>
                    <path d="M29.9778,58.7361 L33.4407,55.1384 C32.8386,50.5344 33.4811,45.8388 35.3684,41.4328 L36.4381,38.9333 L40.7185,33.5831 L43.2268,20.7366 L40.1009,30.526 L37.4979,34.0753 L35.8419,30.9995 L30.3999,0.0037 C30.4604,0.0037 30.5211,0.0025 30.5816,4.97379915e-14 L30.3999,0.0037 L24.7211,30.526 L23.3018,34.3121 L20.9356,31.2356 L15.1904,14.2499 L17.5733,26.7349 L18.7907,32.8218 L22.8663,38.2549 C27.6232,44.4306 28.839,52.2179 26.5934,59.3278 C27.6972,58.9971 28.8256,58.7794 29.9778,58.7361 L29.9778,58.7361 Z" id="_57464912" fill="#DDE3EE"></path>
                    <path d="M19.9017,28.179 L20.9356,31.2356 L23.3018,34.3121 L24.7211,30.526 L30.3999,0.0037 L30.5816,5.32907052e-14 C30.5211,0.0025 30.4604,0.0037 30.3999,0.0037 L35.8419,30.9995 L37.4979,34.0753 L38.979,32.0558 L38.8498,32.7174 L34.7064,37.8963 L33.5298,40.6458 C31.6322,45.0757 30.9049,49.7843 31.348,54.4286 L29.3248,56.5305 C30.4745,49.7911 28.8666,42.7731 24.4586,37.0447 L20.6629,31.9847 L19.9017,28.179 Z" id="_57466184" fill="#E1E6F0"></path>
                    <path d="M23.8373,32.8835 L24.7211,30.526 L30.3999,0.0037 L30.5816,4.61852778e-14 C30.5211,0.0025 30.4604,0.0037 30.3999,0.0037 L35.8419,30.9995 L36.5744,32.36 L32.9748,36.8593 L31.6912,39.8588 C31.1357,41.1556 30.6739,42.4751 30.3059,43.8097 C29.368,41 27.9505,38.3053 26.0512,35.8348 L23.8373,32.8835 Z" id="_57467880" fill="#E4E9F3"></path>
                    <path d="M24.6704,30.6612 L24.7211,30.526 L30.3999,0.0037 L30.5816,4.61852778e-14 C30.5211,0.0025 30.4604,0.0037 30.3999,0.0037 L35.4952,29.0249 L35.1123,30.9861 L31.2431,35.8223 L30.128,38.4281 C29.4092,37.1168 28.5813,35.8454 27.644,34.6253 L24.6704,30.6612 L24.6704,30.6612 Z" id="_57468736" fill="#E7ECF5"></path>
                    <path d="M25.5736,25.9442 L30.3999,0.0037 L30.5816,4.61852778e-14 C30.5211,0.0025 30.4604,0.0037 30.3999,0.0037 L34.5304,23.5296 L33.2435,30.1205 L29.8955,34.3052 C29.682,34.0061 29.4625,33.7096 29.2371,33.416 L26.2794,29.4732 L25.5736,25.9442 L25.5736,25.9442 Z" id="_57469936" fill="#EAEFF8"></path>
                    <path d="M29.9509,31.0346 L31.3748,29.2548 L33.5656,18.0344 L30.3999,0.0037 C30.4604,0.0037 30.5211,0.0025 30.5816,4.97379915e-14 L30.3999,0.0037 L26.5753,20.5601 L27.3877,24.8169 L28.1516,28.636 L29.9509,31.0346 L29.9509,31.0346 Z" id="_57471400" fill="#EEF2FA"></path>
                    <path d="M29.8201,26.7807 L32.6008,12.5392 L30.3999,0.0037 C30.4604,0.0037 30.5211,0.0025 30.5816,4.61852778e-14 L30.3999,0.0037 L27.5804,15.158 L29.3506,24.4333 L29.8201,26.7807 L29.8201,26.7807 Z" id="_57360448" fill="#F1F5FD"></path>
                    <path d="M29.8316,16.2852 L31.2649,8.9446 C30.8377,6.7988 30.3936,4.6566 29.9322,2.5177 L28.5854,9.756 L29.8316,16.2852 Z" id="_57361824" fill="#F4F8FF"></path>
                </g>
            </g>
            <path d="M42.1149,0.0644 C44.9082,0.0644 47.1734,2.3296 47.1734,5.1229 C47.1734,7.9162 44.9082,10.1814 42.1149,10.1814 C39.3216,10.1814 37.0564,7.9162 37.0564,5.1229 C37.0564,2.3296 39.3216,0.0644 42.1149,0.0644 L42.1149,0.0644 Z M5.0585,10.629 C2.2652,10.629 0,12.8942 0,15.6875 C0,18.4808 2.2652,20.746 5.0585,20.746 C7.8518,20.746 10.117,18.4808 10.117,15.6875 C10.117,12.8942 7.8518,10.629 5.0585,10.629 L5.0585,10.629 Z M22.5426,3.4169 C19.7493,3.4169 17.4841,5.6821 17.4841,8.4754 C17.4841,11.2687 19.7493,13.5339 22.5426,13.5339 C25.3359,13.5339 27.6011,11.2687 27.6011,8.4754 C27.6011,5.6821 25.3359,3.4169 22.5426,3.4169 L22.5426,3.4169 Z M79.1475,9.5705 C81.9408,9.5705 84.206,11.8357 84.206,14.629 C84.206,17.4223 81.9408,19.6875 79.1475,19.6875 C76.3542,19.6875 74.089,17.4223 74.089,14.629 C74.089,11.8357 76.3542,9.5705 79.1475,9.5705 L79.1475,9.5705 Z M61.6634,2.3584 C64.4567,2.3584 66.7219,4.6236 66.7219,7.4169 C66.7219,10.2102 64.4567,12.4754 61.6634,12.4754 C58.8701,12.4754 56.6049,10.2102 56.6049,7.4169 C56.6049,4.6236 58.8701,2.3584 61.6634,2.3584 Z" id="_57021200" fill="#C0C8D8"></path>
            <g id="g4705" transform="translate(2, 2.0644)">
                <path d="M40.1149,1.77635684e-15 C38.4255,1.77635684e-15 37.0564,1.3691 37.0564,3.0585 C37.0564,4.7479 38.4255,6.117 40.1149,6.117 C41.8043,6.117 43.1734,4.7479 43.1734,3.0585 C43.1734,1.3691 41.8043,1.77635684e-15 40.1149,1.77635684e-15 Z M3.0585,10.5646 C1.3691,10.5646 1.77635684e-15,11.9337 1.77635684e-15,13.6231 C1.77635684e-15,15.3125 1.3691,16.6816 3.0585,16.6816 C4.7479,16.6816 6.117,15.3125 6.117,13.6231 C6.117,11.9337 4.7479,10.5646 3.0585,10.5646 Z M20.5426,3.3525 C18.8532,3.3525 17.4841,4.7216 17.4841,6.411 C17.4841,8.1004 18.8532,9.4695 20.5426,9.4695 C22.232,9.4695 23.6011,8.1004 23.6011,6.411 C23.6011,4.7216 22.232,3.3525 20.5426,3.3525 Z M77.1475,9.5061 C75.4581,9.5061 74.089,10.8752 74.089,12.5646 C74.089,14.254 75.4581,15.6231 77.1475,15.6231 C78.8369,15.6231 80.206,14.254 80.206,12.5646 C80.206,10.8752 78.8369,9.5061 77.1475,9.5061 Z M59.6634,2.294 C57.974,2.294 56.6049,3.6631 56.6049,5.3525 C56.6049,7.0419 57.974,8.411 59.6634,8.411 C61.3528,8.411 62.7219,7.0419 62.7219,5.3525 C62.7219,3.6631 61.3528,2.294 59.6634,2.294 Z" id="_57364264" fill="#DAE0EC"></path>
                <path d="M40.1149,2 C39.5295,2 39.0564,2.4731 39.0564,3.0585 C39.0564,3.6439 39.5295,4.117 40.1149,4.117 C40.7003,4.117 41.1734,3.6439 41.1734,3.0585 C41.1734,2.4731 40.7003,2 40.1149,2 Z M3.0585,12.5646 C2.4731,12.5646 2,13.0377 2,13.6231 C2,14.2085 2.4731,14.6816 3.0585,14.6816 C3.6439,14.6816 4.117,14.2085 4.117,13.6231 C4.117,13.0377 3.6439,12.5646 3.0585,12.5646 Z M20.5426,5.3525 C19.9572,5.3525 19.4841,5.8256 19.4841,6.411 C19.4841,6.9964 19.9572,7.4695 20.5426,7.4695 C21.128,7.4695 21.6011,6.9964 21.6011,6.411 C21.6011,5.8256 21.128,5.3525 20.5426,5.3525 Z M77.1475,11.5061 C76.5621,11.5061 76.089,11.9792 76.089,12.5646 C76.089,13.15 76.5621,13.6231 77.1475,13.6231 C77.7329,13.6231 78.206,13.15 78.206,12.5646 C78.206,11.9792 77.7329,11.5061 77.1475,11.5061 Z M59.6634,4.294 C59.078,4.294 58.6049,4.7671 58.6049,5.3525 C58.6049,5.9379 59.078,6.411 59.6634,6.411 C60.2488,6.411 60.7219,5.9379 60.7219,5.3525 C60.7219,4.7671 60.2488,4.294 59.6634,4.294 Z" id="_57364624" fill="#F4F8FF"></path>
            </g>
            <path d="M16.2628,69.6073 C16.026,69.8441 15.7893,70.0809 15.7893,70.5537 C15.7893,71.9736 18.3922,73.1567 23.5976,74.3398 C28.8029,75.2862 35.1913,75.9958 42.5261,75.9958 C49.8609,75.9958 56.0125,75.2862 61.2178,74.3398 C66.4231,73.1567 69.0261,71.9736 69.0261,70.5537 C69.0261,70.317 69.0261,70.0809 69.0261,69.8441 C68.3165,68.661 65.7135,67.4779 61.2178,66.5315 C56.0125,65.5852 49.8609,65.1116 42.5261,65.1116 C35.1913,65.1116 28.8029,65.5852 23.5976,66.5315 C19.5754,67.4779 16.9724,68.4242 16.2628,69.6073 Z" id="_57364120" stroke="#1F1A17" stroke-width="1.4111" fill="#BABCC0"></path>
            <path d="M18.9685,59.8614 C19.9148,61.0445 19.9148,62.4644 18.9685,63.8842 L16.2467,69.555 C16.1334,69.7911 16.067,69.8528 16.2628,69.6073 C17.1274,68.5121 19.662,67.6174 23.4642,66.7233 C28.6695,65.777 35.0579,65.3034 42.3927,65.3034 C49.7275,65.3034 55.8791,65.777 61.0844,66.7233 C64.0342,67.3437 66.1697,68.0674 67.4903,68.826 C69.0114,69.6999 69.218,70.712 68.1127,68.4155 L65.8169,63.6475 C65.1073,61.9909 65.1073,60.3349 65.8169,58.6783 L68.656,55.1296 C50.9106,50.3971 33.1652,50.3971 15.4191,55.1296 L18.9685,59.8614 Z" id="_57367296" stroke="#1F1A17" stroke-width="1.4111"></path>
            <path d="M9.2674,14.6696 C9.2674,13.2497 8.7946,12.3033 7.8476,11.357 C7.138,10.4106 5.9548,9.9371 4.7717,9.9371 C3.3525,9.9371 2.4055,10.4106 1.223,11.357 C0.5128,12.3033 0.0399,13.2497 0.0399,14.6696 C0.0399,15.8527 0.5128,17.0358 1.223,17.7454 C2.4055,18.6917 3.3525,19.1653 4.7717,19.1653 C5.2452,19.1653 5.7181,19.1653 5.9548,19.1653 L11.8704,50.1604 C12.1065,51.817 13.2896,53.473 15.4191,55.1296 C33.1652,50.3971 50.9106,50.3971 68.656,55.1296 C70.5487,53.7097 71.4957,52.0537 71.9686,50.1604 C73.8613,39.513 75.9908,29.1024 77.8842,18.455 C78.5938,18.6917 79.0666,18.9285 79.7769,18.9285 C81.1961,18.9285 82.3792,18.455 83.3255,17.5086 C84.2726,16.5623 84.7454,15.3792 84.7454,13.9593 C84.7454,12.7768 84.2726,11.5937 83.3255,10.6474 C82.3792,9.7003 81.1961,9.2275 79.7769,9.2275 C78.5938,9.2275 77.4106,9.7003 76.4643,10.6474 C75.5179,11.5937 75.0444,12.7768 75.0444,13.9593 C75.0444,15.3792 75.5179,16.5623 76.4643,17.5086 C76.9371,17.9821 77.4106,18.2182 77.8842,18.455 L65.1073,42.8256 L63.4507,45.1918 L62.2676,41.8792 L61.0844,11.8305 C61.3212,12.0666 61.558,12.0666 62.0308,12.0666 C63.2139,12.0666 64.397,11.5937 65.1073,10.6474 C66.0537,9.7003 66.5265,8.754 66.5265,7.3348 C66.5265,6.1517 66.0537,4.9685 65.1073,4.0222 C64.397,3.3119 63.2139,2.8391 62.0308,2.8391 C60.6116,2.8391 59.6652,3.3119 58.7189,4.0222 C57.7718,4.9685 57.299,6.1517 57.299,7.3348 C57.299,8.754 57.7718,9.7003 58.7189,10.6474 C59.4285,11.357 60.1381,11.8305 61.0844,11.8305 L52.0937,39.9865 L49.4907,43.5358 L47.8347,40.46 L42.3927,9.4642 C43.5758,9.4642 44.7589,8.9907 45.7053,8.0444 C46.6516,7.098 47.1245,5.9149 47.1245,4.7318 C47.1245,3.3119 46.6516,2.1295 45.7053,1.1831 C44.7589,0.4728 43.5758,-3.55271368e-15 42.3927,-3.55271368e-15 C40.9728,-3.55271368e-15 39.7897,0.4728 38.8433,1.1831 C37.897,2.1295 37.6602,3.3119 37.6602,4.7318 C37.6602,5.9149 37.897,7.098 38.8433,8.0444 C39.7897,8.9907 40.9728,9.4642 42.3927,9.4642 L36.7139,39.9865 L35.2946,43.7726 L32.9284,40.6961 L23.2274,12.3033 C24.1738,12.3033 24.8834,11.8305 25.5936,11.1202 C26.54,10.1738 27.0128,8.9907 27.0128,7.8076 C27.0128,6.3884 26.54,5.2053 25.5936,4.2589 C24.6473,3.5487 23.4642,3.0758 22.281,3.0758 C20.8612,3.0758 19.6781,3.5487 18.7317,4.2589 C17.7853,5.2053 17.5486,6.3884 17.5486,7.8076 C17.5486,8.9907 17.7853,10.1738 18.7317,11.1202 C19.6781,12.0666 20.8612,12.5401 22.281,12.5401 C22.5178,12.5401 22.9906,12.5401 23.2274,12.3033 L23.2274,42.116 L22.0443,46.6117 L5.9548,19.1653 C6.6644,18.9285 7.138,18.455 7.8476,17.7454 C8.7946,17.0358 9.2674,15.8527 9.2674,14.6696 Z" id="_57231464" stroke="#1F1A17" stroke-width="1.4111"></path>
        </g>
    </g>
</svg>