<?xml version="1.0" encoding="utf-8"?>
<!-- Generator: Adobe Illustrator 15.0.2, SVG Export Plug-In . SVG Version: 6.00 Build 0)  -->
<!DOCTYPE svg PUBLIC "-//W3C//DTD SVG 1.1 Basic//EN" "http://www.w3.org/Graphics/SVG/1.1/DTD/svg11-basic.dtd">
<svg version="1.1" baseProfile="basic"
	 id="Layer_1" image-rendering="optimizeQuality" shape-rendering="geometricPrecision" text-rendering="geometricPrecision"
	 xmlns="http://www.w3.org/2000/svg" xmlns:xlink="http://www.w3.org/1999/xlink" x="0px" y="0px" width="141.732px"
	 height="141.732px" viewBox="0 0 141.732 141.732" xml:space="preserve">
<g id="Layer_x0020_1">
	<path fill="#1F1A17" d="M70.866,131.663H32.898c-1.872-4.68-2.808-9.576-2.808-14.688c0-8.664,2.448-16.439,7.368-23.352
		c4.92-6.889,11.256-11.809,18.984-14.76c-3.312-1.537-6.024-3.865-8.112-6.984c-2.088-3.121-3.12-6.648-3.12-10.584
		c0-4.92,1.632-9.192,4.92-12.792c3.264-3.624,7.296-5.712,12.096-6.264c-3.816-2.856-5.712-6.648-5.712-11.328
		c0-3.937,1.392-7.32,4.2-10.128c2.784-2.808,6.167-4.2,10.152-4.2c3.936,0,7.32,1.392,10.128,4.2s4.224,6.192,4.224,10.128
		c0,4.68-1.896,8.472-5.711,11.328c4.799,0.552,8.831,2.64,12.096,6.264c3.287,3.6,4.92,7.872,4.92,12.792
		c0,3.936-1.057,7.464-3.192,10.584c-2.136,3.119-4.849,5.447-8.112,6.984c7.729,2.951,14.064,7.871,18.984,14.76
		c4.92,6.912,7.368,14.688,7.368,23.352c0,5.064-0.912,9.96-2.735,14.688H70.866z"/>
</g>
</svg>
