<?xml version="1.0" encoding="utf-8"?>
<!-- Generator: Adobe Illustrator 15.0.2, SVG Export Plug-In . SVG Version: 6.00 Build 0)  -->
<!DOCTYPE svg PUBLIC "-//W3C//DTD SVG 1.1 Basic//EN" "http://www.w3.org/Graphics/SVG/1.1/DTD/svg11-basic.dtd">
<svg version="1.1" baseProfile="basic"
	 id="svg2" image-rendering="optimizeQuality" shape-rendering="geometricPrecision" text-rendering="geometricPrecision" xmlns:cc="http://web.resource.org/cc/" xmlns:rdf="http://www.w3.org/1999/02/22-rdf-syntax-ns#" xmlns:svg="http://www.w3.org/2000/svg" xmlns:sodipodi="http://sodipodi.sourceforge.net/DTD/sodipodi-0.dtd" xmlns:dc="http://purl.org/dc/elements/1.1/" xmlns:inkscape="http://www.inkscape.org/namespaces/inkscape" sodipodi:modified="true" sodipodi:docbase="/home/fkling/2/v0.1.2reduced/PieceThemes/Merida" sodipodi:docname="wb.svg" inkscape:version="0.45" sodipodi:version="0.32" inkscape:output_extension="org.inkscape.output.svg.inkscape"
	 xmlns="http://www.w3.org/2000/svg" xmlns:xlink="http://www.w3.org/1999/xlink" x="0px" y="0px" width="141.732px"
	 height="141.732px" viewBox="0 0 141.732 141.732" xml:space="preserve">
<g id="Layer_x0020_1">
	<path id="path6" fill="#1F1A17" d="M72.134,119.078c-0.647,2.664-1.463,4.512-2.399,5.544c-0.936,1.031-2.16,2.111-3.72,3.24
		c-1.68,1.176-3.672,2.16-5.976,2.976c-2.304,0.815-4.848,1.032-7.656,0.601l-19.752-2.736c-0.816-0.096-1.512-0.096-2.16,0
		c-0.624,0.096-1.224,0.145-1.8,0.145c-0.984,0-2.232,0.215-3.744,0.672c-1.536,0.432-2.712,1.08-3.552,1.92l-6.816-11.185
		c0.84-0.937,1.584-1.584,2.232-1.968c0.672-0.359,1.44-0.768,2.328-1.176c2.712-1.272,5.616-2.041,8.712-2.328
		c1.32-0.096,2.616-0.12,3.864-0.072c1.272,0.049,2.592,0,3.96-0.145c2.52,0.433,5.064,0.816,7.608,1.152
		c2.568,0.359,5.136,0.721,7.704,1.104c2.808,0,4.704-0.287,5.688-0.84c0.528-0.287,1.344-0.815,2.472-1.56
		c1.128-0.743,2.256-1.849,3.384-3.312c-2.496-0.264-5.016-0.744-7.608-1.44c-2.568-0.672-4.848-1.392-6.816-2.136l7.32-18.145
		c-3.672-2.111-6.216-3.791-7.68-5.088c-1.44-1.295-2.592-2.783-3.432-4.464c-1.224-2.159-2.016-4.247-2.352-6.264
		c-0.36-2.017-0.504-3.816-0.456-5.424c0.048-2.808,0.696-5.904,1.992-9.312c1.296-3.384,3.72-6.432,7.272-9.096
		c2.952-2.256,5.856-4.584,8.664-6.96c2.808-2.399,5.592-5.184,8.352-8.375c-3.456-1.776-5.184-4.608-5.184-8.496
		c0-2.64,0.912-4.872,2.76-6.768c1.848-1.872,4.128-2.808,6.792-2.808c2.617,0,4.873,0.936,6.744,2.808
		c1.873,1.896,2.809,4.128,2.809,6.768c0,3.84-1.729,6.672-5.184,8.496c2.711,3.192,5.471,5.976,8.256,8.375
		c2.783,2.376,5.711,4.704,8.76,6.96c3.504,2.664,5.904,5.711,7.152,9.096c1.271,3.408,1.967,6.504,2.039,9.312
		c0,1.608-0.144,3.408-0.479,5.424s-1.08,4.104-2.257,6.264c-0.936,1.681-2.111,3.169-3.551,4.464
		c-1.416,1.297-3.937,2.977-7.561,5.088l7.32,18.145c-2.064,0.744-4.393,1.464-6.96,2.136c-2.593,0.696-5.064,1.177-7.464,1.44
		c1.08,1.463,2.184,2.568,3.312,3.312c1.128,0.744,1.968,1.272,2.544,1.56c0.984,0.553,2.88,0.84,5.688,0.84
		c2.521-0.383,5.064-0.744,7.633-1.104c2.544-0.336,5.111-0.72,7.703-1.152c1.248,0.145,2.521,0.193,3.816,0.145
		c1.297-0.048,2.616-0.023,3.984,0.072c3,0.287,5.904,1.056,8.712,2.328c0.84,0.408,1.608,0.816,2.28,1.176
		c0.695,0.384,1.439,1.031,2.279,1.968l-6.888,11.185c-0.84-0.84-2.017-1.488-3.552-1.92c-1.512-0.457-2.736-0.672-3.672-0.672
		c-0.625,0-1.248-0.049-1.873-0.145c-0.623-0.096-1.344-0.096-2.135,0l-19.705,2.736c-2.807,0.432-5.424,0.24-7.824-0.553
		c-2.424-0.791-4.415-1.848-5.951-3.168c-1.536-1.271-2.783-2.352-3.696-3.264C73.503,123.542,72.734,121.742,72.134,119.078
		L72.134,119.078z"/>
	
		<linearGradient id="path8_1_" gradientUnits="userSpaceOnUse" x1="-133.7603" y1="317.8818" x2="-77.2492" y2="318.0047" gradientTransform="matrix(2.8346 0 0 -2.8346 438.9902 975.1642)">
		<stop  offset="0" style="stop-color:#FFFFFF"/>
		<stop  offset="1" style="stop-color:#FFFFFF;stop-opacity:0"/>
	</linearGradient>
	<path id="path8" fill="url(#path8_1_)" d="M74.606,111.11c0,3.096,0.695,5.736,2.136,7.92c1.416,2.184,2.952,3.888,4.608,5.088
		c2.568,1.896,6.336,2.832,11.304,2.832c1.224,0,3.624-0.264,7.176-0.793c2.904-0.455,5.257-0.791,7.032-1.008
		c1.775-0.215,2.977-0.383,3.6-0.527c1.776-0.24,3.648-0.191,5.617,0.145c0.743,0.191,1.584,0.359,2.495,0.527
		c0.912,0.168,1.681,0.527,2.28,1.08l3.384-5.473c-1.92-0.983-3.96-1.68-6.12-2.039c-3.552-0.625-6.672-0.744-9.359-0.432
		c-0.793,0.096-1.824,0.336-3.12,0.695c-1.296,0.385-3.024,0.744-5.232,1.057c-4.752,0.768-7.248,1.127-7.536,1.127
		c-1.824,0-3.408-0.215-4.775-0.695c-1.369-0.48-2.568-0.984-3.648-1.536c-2.496-1.128-5.016-3.792-7.607-7.968H74.606
		L74.606,111.11z M69.614,111.11h-2.256c-2.64,4.224-5.136,6.888-7.536,7.968c-1.128,0.552-2.352,1.056-3.72,1.536
		c-1.368,0.48-2.928,0.695-4.704,0.695c-0.336,0-2.832-0.359-7.536-1.127c-2.232-0.313-4.032-0.672-5.328-1.057
		c-1.32-0.359-2.353-0.6-3.096-0.695c-2.688-0.313-5.784-0.193-9.36,0.432c-2.16,0.359-4.176,1.056-6.048,2.039l3.384,5.473
		c0.552-0.553,1.296-0.912,2.208-1.08c0.912-0.168,1.752-0.336,2.496-0.527c1.968-0.336,3.84-0.385,5.616-0.145
		c0.624,0.145,1.824,0.313,3.6,0.527c1.776,0.217,4.152,0.553,7.104,1.008c3.504,0.529,5.904,0.793,7.176,0.793
		c4.92,0,8.688-0.936,11.304-2.832c1.608-1.2,3.12-2.904,4.536-5.088C68.895,116.847,69.614,114.206,69.614,111.11z M72.134,84.614
		c4.537,0,8.904,0.359,13.08,1.056c4.584-1.632,7.92-4.2,9.984-7.655c1.775-3,2.664-6.313,2.664-9.913
		c0-2.16-0.527-4.536-1.607-7.152c-1.08-2.592-2.832-4.944-5.281-7.056c-2.76-2.304-5.783-4.824-9.071-7.56
		c-3.264-2.736-6.528-5.952-9.769-9.6c-3.287,3.648-6.551,6.864-9.839,9.6s-6.288,5.256-9,7.56
		c-2.496,2.112-4.248,4.464-5.304,7.056c-1.056,2.616-1.584,4.992-1.584,7.152c0,3.6,0.864,6.913,2.592,9.913
		c2.016,3.455,5.376,6.023,10.057,7.655C63.182,84.974,67.55,84.614,72.134,84.614z M72.134,97.406
		c5.496,0,10.752,0.552,15.816,1.632l-3.359-8.664c-4.129-0.648-8.28-0.984-12.457-0.984c-4.271,0-8.448,0.336-12.503,0.984
		l-3.384,8.664C61.262,97.958,66.566,97.406,72.134,97.406z M72.134,30.686c3.193,0,4.777-1.584,4.777-4.776s-1.584-4.8-4.777-4.8
		c-3.191,0-4.775,1.608-4.775,4.8S68.942,30.686,72.134,30.686z M72.134,107.246c3.193,0,6.289-0.265,9.313-0.792
		c3.023-0.553,5.952-1.2,8.76-1.943c-5.496-1.441-11.52-2.186-18.072-2.186c-6.647,0-12.671,0.744-18.071,2.186
		c2.712,0.743,5.592,1.391,8.64,1.943C65.75,106.981,68.895,107.246,72.134,107.246z M69.614,66.614l-5.856-0.072
		c-1.584,0-2.376-0.792-2.376-2.4l0,0c0-1.584,0.792-2.376,2.376-2.376h5.856v-6.048c0-1.632,0.84-2.472,2.52-2.472l0,0
		c1.633,0,2.473,0.84,2.473,2.472v6.048h6.048c1.536,0,2.304,0.792,2.304,2.376l0,0c0,1.608-0.768,2.4-2.304,2.4h-6.048v5.76
		c0,1.705-0.84,2.545-2.473,2.545l0,0c-1.68,0-2.52-0.84-2.52-2.545V66.614z"/>
</g>
</svg>
