<?xml version="1.0" encoding="utf-8"?>
<!-- Generator: Adobe Illustrator 15.0.2, SVG Export Plug-In . SVG Version: 6.00 Build 0)  -->
<!DOCTYPE svg PUBLIC "-//W3C//DTD SVG 1.1//EN" "http://www.w3.org/Graphics/SVG/1.1/DTD/svg11.dtd">
<svg version="1.1"
	 id="svg2" image-rendering="optimizeQuality" shape-rendering="geometricPrecision" text-rendering="geometricPrecision" xmlns:cc="http://web.resource.org/cc/" xmlns:rdf="http://www.w3.org/1999/02/22-rdf-syntax-ns#" xmlns:svg="http://www.w3.org/2000/svg" xmlns:sodipodi="http://sodipodi.sourceforge.net/DTD/sodipodi-0.dtd" xmlns:dc="http://purl.org/dc/elements/1.1/" xmlns:inkscape="http://www.inkscape.org/namespaces/inkscape" sodipodi:modified="true" sodipodi:docbase="/home/fkling/2/v0.1.2reduced/PieceThemes/Merida" sodipodi:docname="wn.svg" inkscape:version="0.45" sodipodi:version="0.32" inkscape:output_extension="org.inkscape.output.svg.inkscape"
	 xmlns="http://www.w3.org/2000/svg" xmlns:xlink="http://www.w3.org/1999/xlink" x="0px" y="0px" width="141.732px"
	 height="141.732px" viewBox="0 0 141.732 141.732" enable-background="new 0 0 141.732 141.732" xml:space="preserve">
<g id="Layer_x0020_1">
	<g id="_20193568">
		<path id="_141333800" fill="#1F1A17" d="M74.206,26.632c7.367,0.48,14.184,2.376,20.471,5.712
			c6.265,3.312,11.617,7.584,16.033,12.792c3.096,3.648,6,8.064,8.735,13.224c2.761,5.136,4.944,10.608,6.576,16.367
			c1.872,6.721,3.071,13.752,3.552,21.145c0.504,7.368,0.744,14.208,0.744,20.496v15.313c0,0-3.648,0-10.943,0
			c-7.272,0-16.729,0-28.369,0h-47.16c-0.432,0-0.624-1.152-0.6-3.433c0.024-2.304,0.168-4.151,0.456-5.567
			c0.168-1.129,0.624-2.713,1.32-4.776c0.72-2.063,1.872-4.56,3.528-7.513c0.744-1.512,2.52-3.695,5.328-6.576
			c2.832-2.879,6.048-6.239,9.72-10.031c2.112-2.16,3.744-4.872,4.944-8.16c1.2-3.264,1.704-6.24,1.512-8.928
			c-1.728,1.416-3.624,2.568-5.688,3.456c-9.936,3.552-17.136,8.712-21.576,15.456c-0.336,0.432-1.392,2.328-3.168,5.712
			c-0.936,1.776-1.752,2.999-2.4,3.647c-0.888,0.889-2.184,1.393-3.864,1.488c-2.616,0.12-4.656-1.128-6.12-3.816
			c-1.968,0.576-3.72,0.816-5.28,0.721c-2.616-0.984-4.512-2.04-5.688-3.168c-2.4-2.4-3.936-4.776-4.68-7.176
			c-0.72-2.4-1.08-4.969-1.08-7.729c0-3.936,2.424-9.145,7.32-15.624c5.712-7.44,8.76-13.128,9.12-17.016
			c0-1.68,0.167-3.576,0.504-5.688c0.288-1.464,0.864-2.856,1.752-4.224c0.624-0.936,1.032-1.584,1.224-1.92
			c0.216-0.36,0.6-0.888,1.176-1.584c0.408-0.576,0.768-1.008,1.056-1.296c0.265-0.312,0.625-0.72,1.057-1.248
			c0.504-0.6,1.152-1.296,1.968-2.112c-2.496-6.84-3.504-13.896-3.024-21.144c9.313,3.312,17.16,8.544,23.472,15.672
			c1.56-5.304,4.608-9.6,9.144-12.864C69.021,18.856,71.997,22.336,74.206,26.632L74.206,26.632z"/>
		
			<linearGradient id="_141343840_1_" gradientUnits="userSpaceOnUse" x1="-133.4604" y1="318.001" x2="-77.2243" y2="318.001" gradientTransform="matrix(2.8346 0 0 -2.8346 438.9902 975.1642)">
			<stop  offset="0" style="stop-color:#FFFFFF"/>
			<stop  offset="1" style="stop-color:#FFFFFF;stop-opacity:0"/>
		</linearGradient>
		<path id="_141343840" fill="url(#_141343840_1_)" d="M121.821,126.688c-0.048,0,0-1.272,0.12-3.816
			c0.144-2.568,0.216-5.328,0.216-8.279c0.049-5.856,0.049-11.904,0-18.168c-0.048-6.265-0.888-12.504-2.52-18.744
			c-1.607-6-3.36-11.112-5.28-15.36s-4.009-7.896-6.264-10.992c-3.36-5.064-7.968-9.36-13.776-12.864
			c-5.808-3.528-11.88-5.832-18.216-6.912c0.432,2.304,0.624,4.56,0.575,6.768c-0.096,1.68-0.887,2.52-2.399,2.52
			c-1.728,0-2.496-0.84-2.327-2.52c0.144-6.192-2.065-11.496-6.601-15.888c-3.552,3.744-5.496,8.088-5.76,13.056
			c-0.096,1.656-0.936,2.376-2.544,2.185c-1.488-0.048-2.232-0.912-2.232-2.592c0,0,0.048-0.192,0.12-0.576
			c-1.92,0.624-3.936,1.488-6.048,2.616c-1.344,0.936-2.448,0.696-3.288-0.696c-0.84-1.416-0.48-2.521,1.128-3.313
			c2.016-1.032,3.528-1.8,4.56-2.328c-4.032-4.128-8.616-7.44-13.776-9.984c0.552,6.528,2.352,12.672,5.352,18.504
			c0.792,1.2,0.6,2.28-0.576,3.216c-1.32,1.032-2.424,0.888-3.312-0.48c-0.312-0.48-0.792-1.32-1.392-2.544
			c-0.984,0.984-1.656,1.728-1.968,2.184c-0.336,0.432-0.912,1.368-1.728,2.808c-0.816,1.464-1.416,2.664-1.8,3.6
			c-0.408,1.176-0.6,2.112-0.528,2.856c0.072,0.72,0.144,1.512,0.192,2.424c-0.432,2.76-1.392,5.352-2.856,7.8
			c-1.488,2.424-3.36,5.4-5.664,8.928c-2.208,3.36-3.888,5.905-5.064,7.584c-1.176,1.703-2.064,3.84-2.664,6.479
			c-0.432,1.584-0.432,3.528,0,5.784c0.408,2.279,1.344,4.057,2.736,5.328c2.16,2.184,4.248,3.191,6.264,3.023
			c0.648,0,1.536-0.264,2.64-0.791c1.104-0.505,1.944-1.488,2.568-2.953c1.2-2.664,2.208-4.008,3.024-4.008
			c1.152,0,1.8,0.672,1.896,1.969c0,0.287-0.384,1.463-1.128,3.527c-0.432,0.936-0.984,1.92-1.68,2.952
			c-0.912,1.224-1.296,1.728-1.2,1.536c0.744,2.688,1.992,3.144,3.72,1.416c0.504-0.504,1.104-1.488,1.752-2.881
			c0.671-1.416,1.704-3.312,3.096-5.688c1.656-2.783,3.408-5.016,5.28-6.768c1.872-1.729,3.528-3.145,4.992-4.2
			c0.84-0.624,1.872-1.319,3.096-2.112c1.224-0.816,2.856-1.632,4.92-2.472c1.632-0.647,3.456-1.464,5.448-2.425
			c1.992-0.959,3.768-2.184,5.304-3.695c2.16-2.112,3.816-4.704,4.992-7.8c0.623-1.728,0.84-3.864,0.695-6.408
			c-0.408-1.584,0.385-2.376,2.4-2.376c1.512,0,2.352,0.768,2.544,2.328c0,5.28-1.512,10.104-4.513,14.472
			c0.984,3.001,1.249,6.288,0.77,9.841c-0.408,2.855-1.417,5.928-2.977,9.191c-1.584,3.24-4.752,6.864-9.528,10.848
			c-9.72,8.064-14.304,16.368-13.776,24.889c0,0,3.984,0,11.976,0c7.992,0,15.504,0,22.535,0H121.821z M26.469,83.944
			c-1.368,0.84-2.184,1.968-2.472,3.384c0.048,1.536-0.672,2.376-2.16,2.521c-1.656,0.191-2.496-0.504-2.544-2.112
			c0.192-3.097,1.56-5.544,4.152-7.368c1.224-0.984,2.352-0.912,3.384,0.264C27.861,81.904,27.742,83.009,26.469,83.944z
			 M47.349,50.416c0.6,0.936,0.84,1.92,0.696,2.952c-0.456,3-2.136,4.248-4.992,3.792c-0.84-0.144-1.512-0.432-2.04-0.84
			c-0.167,0.216-0.456,0.744-0.84,1.536c-0.504,1.512-1.488,2.016-2.952,1.56c-1.44-0.576-2.016-1.632-1.68-3.168
			c2.112-5.4,5.928-9.096,11.448-11.112c1.608-0.48,2.664,0,3.168,1.392c0.576,1.512,0.144,2.544-1.272,3.096
			c-0.264,0.144-0.528,0.288-0.768,0.384C47.877,50.128,47.637,50.272,47.349,50.416z"/>
	</g>
</g>
</svg>
