<?xml version="1.0" encoding="utf-8"?>
<!-- Generator: Adobe Illustrator 15.0.2, SVG Export Plug-In . SVG Version: 6.00 Build 0)  -->
<!DOCTYPE svg PUBLIC "-//W3C//DTD SVG 1.1 Basic//EN" "http://www.w3.org/Graphics/SVG/1.1/DTD/svg11-basic.dtd">
<svg version="1.1" baseProfile="basic"
	 id="svg2" image-rendering="optimizeQuality" shape-rendering="geometricPrecision" text-rendering="geometricPrecision" xmlns:cc="http://web.resource.org/cc/" xmlns:rdf="http://www.w3.org/1999/02/22-rdf-syntax-ns#" xmlns:svg="http://www.w3.org/2000/svg" xmlns:sodipodi="http://sodipodi.sourceforge.net/DTD/sodipodi-0.dtd" xmlns:dc="http://purl.org/dc/elements/1.1/" xmlns:inkscape="http://www.inkscape.org/namespaces/inkscape" sodipodi:modified="true" sodipodi:docbase="/home/fkling/2/v0.1.2reduced/PieceThemes/Merida" sodipodi:docname="wp.svg" inkscape:version="0.45" sodipodi:version="0.32" inkscape:output_extension="org.inkscape.output.svg.inkscape"
	 xmlns="http://www.w3.org/2000/svg" xmlns:xlink="http://www.w3.org/1999/xlink" x="0px" y="0px" width="141.732px"
	 height="141.732px" viewBox="0 0 141.732 141.732" xml:space="preserve">
<g id="Layer_x0020_1">
	<path id="path6" fill="#1F1A17" d="M70.866,131.663H32.898c-1.872-4.68-2.808-9.576-2.808-14.688
		c0-8.664,2.448-16.439,7.368-23.352c4.92-6.889,11.256-11.809,18.984-14.76c-3.312-1.537-6.024-3.865-8.112-6.984
		c-2.088-3.121-3.12-6.648-3.12-10.584c0-4.92,1.632-9.192,4.92-12.792c3.264-3.624,7.296-5.712,12.096-6.264
		c-3.816-2.856-5.712-6.648-5.712-11.328c0-3.937,1.392-7.32,4.2-10.128c2.784-2.808,6.167-4.2,10.152-4.2
		c3.936,0,7.32,1.392,10.128,4.2s4.224,6.192,4.224,10.128c0,4.68-1.896,8.472-5.711,11.328c4.799,0.552,8.831,2.64,12.096,6.264
		c3.287,3.6,4.92,7.872,4.92,12.792c0,3.936-1.057,7.464-3.192,10.584c-2.136,3.119-4.849,5.447-8.112,6.984
		c7.729,2.951,14.064,7.871,18.984,14.76c4.92,6.912,7.368,14.688,7.368,23.352c0,5.064-0.912,9.96-2.735,14.688H70.866z"/>
	
		<linearGradient id="path8_1_" gradientUnits="userSpaceOnUse" x1="-133.7104" y1="317.8623" x2="-77.0765" y2="317.7394" gradientTransform="matrix(2.8346 0 0 -2.8346 438.9902 975.1642)">
		<stop  offset="0" style="stop-color:#FFFFFF"/>
		<stop  offset="1" style="stop-color:#FFFFFF;stop-opacity:0"/>
	</linearGradient>
	<path id="path8" fill="url(#path8_1_)" d="M70.866,126.888h34.512c0.984-3.36,1.488-6.672,1.488-9.912
		c0-7.32-2.016-13.944-6.072-19.896c-4.056-5.951-9.288-10.344-15.648-13.152c-3.096-0.239-4.655-1.92-4.655-5.063
		c0-2.473,1.584-4.297,4.728-5.473c4.344-3.048,6.528-7.08,6.528-12.096c0-3.624-1.224-6.768-3.647-9.504
		c-2.448-2.712-5.4-4.272-8.856-4.704c-2.832-0.24-4.224-1.824-4.224-4.776c0-1.32,0.504-2.544,1.535-3.672
		c2.545-1.968,3.816-4.536,3.816-7.728c0-2.616-0.96-4.872-2.832-6.744s-4.104-2.808-6.672-2.808c-2.664,0-4.944,0.936-6.792,2.808
		s-2.76,4.128-2.76,6.744c0,3.144,1.248,5.712,3.792,7.728c1.032,1.032,1.536,2.256,1.536,3.672c0,2.952-1.368,4.536-4.152,4.776
		c-3.504,0.432-6.48,1.992-8.88,4.704c-2.424,2.736-3.624,5.88-3.624,9.504c0,5.016,2.184,9.048,6.528,12.096
		c3.144,1.199,4.728,3.048,4.728,5.473c0,3.143-1.584,4.823-4.728,5.063c-6.36,2.809-11.568,7.201-15.6,13.152
		c-4.032,5.952-6.048,12.576-6.048,19.896c0,3.48,0.504,6.768,1.488,9.912H70.866z"/>
</g>
</svg>
