<?xml version="1.0" encoding="utf-8"?>
<!-- Generator: Adobe Illustrator 15.0.2, SVG Export Plug-In . SVG Version: 6.00 Build 0)  -->
<!DOCTYPE svg PUBLIC "-//W3C//DTD SVG 1.1 Basic//EN" "http://www.w3.org/Graphics/SVG/1.1/DTD/svg11-basic.dtd">
<svg version="1.1" baseProfile="basic"
	 id="svg2" image-rendering="optimizeQuality" shape-rendering="geometricPrecision" text-rendering="geometricPrecision" xmlns:cc="http://web.resource.org/cc/" xmlns:rdf="http://www.w3.org/1999/02/22-rdf-syntax-ns#" xmlns:svg="http://www.w3.org/2000/svg" xmlns:sodipodi="http://sodipodi.sourceforge.net/DTD/sodipodi-0.dtd" xmlns:dc="http://purl.org/dc/elements/1.1/" xmlns:inkscape="http://www.inkscape.org/namespaces/inkscape" sodipodi:modified="true" sodipodi:docbase="/home/fkling/2/v0.1.2reduced/PieceThemes/Merida" sodipodi:docname="wq.svg" inkscape:version="0.45" sodipodi:version="0.32" inkscape:output_extension="org.inkscape.output.svg.inkscape"
	 xmlns="http://www.w3.org/2000/svg" xmlns:xlink="http://www.w3.org/1999/xlink" x="0px" y="0px" width="141.732px"
	 height="141.732px" viewBox="0 0 141.732 141.732" xml:space="preserve">
<g id="Layer_x0020_1">
	<path id="path6" fill="#1F1A17" stroke="#1F1A17" stroke-width="0.0762" d="M126.259,41.735c-2.664,0-4.945-0.936-6.816-2.784
		c-1.873-1.848-2.809-4.104-2.809-6.792c0-2.616,0.936-4.872,2.809-6.768c1.871-1.92,4.152-2.856,6.816-2.856
		c2.639,0,4.896,0.936,6.768,2.856c1.872,1.896,2.809,4.152,2.809,6.768c0,2.688-0.937,4.944-2.809,6.792
		S128.897,41.735,126.259,41.735z M114.042,124.56c-2.304,2.016-7.464,3.695-15.48,5.063c-8.016,1.345-17.256,2.04-27.695,2.04
		c-10.632,0-19.992-0.72-28.056-2.111c-8.064-1.416-13.152-3.168-15.264-5.281l4.44-16.871l-1.968-11.04l-6.192-10.753L17.85,41.879
		l3.432-1.344l19.272,32.472l0.432-38.664l4.776-0.84l14.688,38.88l7.872-41.833h4.872l7.871,41.688L95.61,33.503l4.848,0.84
		l0.432,38.664l19.344-32.543L123.522,42l-5.832,43.536l-6.264,10.752l-1.969,11.185L114.042,124.56z M41.202,33.983
		c-2.688,0-4.968-0.912-6.84-2.76s-2.808-4.128-2.808-6.792c0-2.616,0.936-4.872,2.808-6.744c1.872-1.872,4.152-2.808,6.84-2.808
		c2.616,0,4.872,0.936,6.744,2.808c1.872,1.872,2.808,4.127,2.808,6.744c0,2.664-0.936,4.944-2.808,6.792
		C46.074,33.071,43.818,33.983,41.202,33.983z M15.306,41.735c-2.664,0-4.92-0.936-6.768-2.784s-2.784-4.104-2.784-6.792
		c0-2.616,0.936-4.872,2.784-6.768c1.848-1.92,4.104-2.856,6.768-2.856c2.688,0,4.944,0.936,6.84,2.856
		c1.872,1.896,2.808,4.152,2.808,6.768c0,2.688-0.936,4.944-2.808,6.792C20.25,40.799,17.994,41.735,15.306,41.735z M70.722,30.479
		c-2.664,0-4.944-0.936-6.792-2.808s-2.76-4.152-2.76-6.816c0-2.64,0.912-4.896,2.76-6.768s4.128-2.808,6.792-2.808
		c2.617,0,4.896,0.936,6.792,2.808c1.896,1.872,2.832,4.128,2.832,6.768c0,2.664-0.937,4.944-2.832,6.816
		C75.618,29.543,73.339,30.479,70.722,30.479z M100.242,33.983c-2.664,0-4.92-0.912-6.769-2.76
		c-1.848-1.848-2.783-4.128-2.783-6.792c0-2.616,0.936-4.872,2.783-6.744c1.849-1.872,4.104-2.808,6.769-2.808
		c2.688,0,4.968,0.936,6.84,2.808c1.872,1.872,2.808,4.127,2.808,6.744c0,2.664-0.936,4.944-2.808,6.792
		S102.931,33.983,100.242,33.983z"/>
	
		<linearGradient id="path8_1_" gradientUnits="userSpaceOnUse" x1="-133.5869" y1="318.7637" x2="-77.1987" y2="318.6408" gradientTransform="matrix(2.8346 0 0 -2.8346 438.9902 975.1642)">
		<stop  offset="0" style="stop-color:#FFFFFF"/>
		<stop  offset="1" style="stop-color:#FFFFFF;stop-opacity:0"/>
	</linearGradient>
	<path id="path8" fill="url(#path8_1_)" stroke="#1F1A17" stroke-width="0.0762" d="M108.33,122.015
		c-8.567-3.551-21.024-5.327-37.32-5.327c-16.656,0-29.232,1.823-37.776,5.472c8.208,3.24,20.736,4.848,37.56,4.848
		c8.064,0,15.432-0.432,22.104-1.319C99.595,124.8,104.73,123.575,108.33,122.015L108.33,122.015z M70.722,25.559
		c3.144,0,4.705-1.584,4.705-4.704c0-3.096-1.561-4.656-4.705-4.656c-3.096,0-4.632,1.56-4.632,4.656
		C66.09,23.975,67.626,25.559,70.722,25.559z M106.507,96.359c-9.049-2.304-20.881-3.433-35.497-3.433
		c-15,0-26.976,1.152-35.928,3.504l1.056,6.744c9.12-2.16,20.76-3.24,34.872-3.24c14.016,0,25.44,1.057,34.295,3.168L106.507,96.359
		z M108.259,92.136l4.584-8.088c-2.257,0.911-4.561,1.344-6.889,1.344c-6.288,0-11.304-2.545-15.048-7.656
		c-2.808,2.328-5.952,3.504-9.433,3.504c-4.487,0-8.088-1.752-10.751-5.28c-3,3.288-6.576,4.944-10.752,4.944
		c-3.384,0-6.48-1.152-9.288-3.456c-3.936,5.017-9.024,7.512-15.264,7.512c-2.376,0-4.752-0.432-7.104-1.319l4.92,8.424
		c9.096-2.616,21.6-3.937,37.488-3.937C86.897,88.127,99.402,89.472,108.259,92.136L108.259,92.136z M76.771,75.335l-5.977-34.392
		l-5.976,33.983c0.144-0.096,0.456-0.336,0.984-0.719c1.08-2.113,2.712-3.168,4.92-3.168c2.4,0,3.936,1.055,4.632,3.168
		C75.642,74.495,76.122,74.88,76.771,75.335z M96.234,76.679V44.111l-11.593,31.92c0.889-0.312,1.633-0.743,2.256-1.248
		c0.937-1.176,2.209-1.776,3.793-1.776c1.871,0,3.384,0.84,4.512,2.473c0.12,0.191,0.288,0.384,0.48,0.6
		C95.874,76.296,96.065,76.487,96.234,76.679z M56.73,75.695L45.21,44.111v32.136c0.12-0.191,0.336-0.408,0.625-0.695
		c0.936-1.969,2.472-2.953,4.631-2.953c1.776,0,3.24,0.744,4.369,2.257C56.106,75.407,56.73,75.695,56.73,75.695z M38.874,79.632
		l-15.12-26.088l3.864,23.76c2.664,1.871,5.28,2.808,7.8,2.808C36.402,80.111,37.554,79.943,38.874,79.632z M102.354,79.968
		c1.08,0.336,2.279,0.504,3.6,0.504c2.855,0,5.52-0.889,8.016-2.664l3.865-24.336L102.354,79.968z M106.578,115.56l-2.112-7.944
		c-9.191-2.017-20.424-3.024-33.744-3.024c-13.176,0-24.408,1.008-33.672,3.024l-2.184,8.017c8.712-2.641,20.688-3.937,35.928-3.937
		C85.65,111.695,97.578,112.968,106.578,115.56z M41.202,29.063c3.072,0,4.632-1.536,4.632-4.632c0-3.096-1.561-4.632-4.632-4.632
		c-3.144,0-4.728,1.536-4.728,4.632C36.474,27.527,38.058,29.063,41.202,29.063z M100.242,29.063c3.144,0,4.728-1.536,4.728-4.632
		c0-3.096-1.584-4.632-4.728-4.632c-3.071,0-4.632,1.536-4.632,4.632C95.61,27.527,97.171,29.063,100.242,29.063z M15.306,36.815
		c3.144,0,4.728-1.56,4.728-4.656c0-3.144-1.584-4.704-4.728-4.704c-3.072,0-4.632,1.56-4.632,4.704
		C10.674,35.255,12.234,36.815,15.306,36.815z M126.259,36.815c3.096,0,4.655-1.56,4.655-4.656c0-3.144-1.56-4.704-4.655-4.704
		c-3.121,0-4.705,1.56-4.705,4.704C121.554,35.255,123.138,36.815,126.259,36.815z"/>
</g>
</svg>
