<?xml version="1.0" encoding="UTF-8"?>
<svg width="100px" height="100px" viewBox="0 0 100 100" version="1.1" xmlns="http://www.w3.org/2000/svg" xmlns:xlink="http://www.w3.org/1999/xlink">
    <title>画板</title>
    <g id="画板" stroke="none" stroke-width="1" fill="none" fill-rule="evenodd">
        <g id="bk" transform="translate(10.6033, 10.5318)">
            <path d="M76.0482293,31.7061 C74.1555293,28.6303 71.0796293,26.5001 66.8207293,25.5538 C63.9809293,24.844 60.9051293,24.844 58.0660293,25.5538 C53.3335293,26.264 49.3114293,28.6303 45.9988293,32.6524 L41.9766293,37.8578 L39.1375293,41.8799 L31.5660293,32.6524 C29.6732293,29.8127 25.8871293,27.4471 20.4451293,25.5538 C17.1325293,24.6074 13.3470293,24.6074 9.08812931,25.5538 C5.30202931,26.5001 2.69972931,28.6303 1.27982931,31.7061 C0.0967293109,34.7819 -0.376170689,38.0945 0.333429311,41.8799 C1.04302931,44.9558 2.69972931,48.0316 5.06592931,51.1075 C6.48512931,52.5273 9.08812931,54.42 13.3470293,57.023 C20.6818293,53.4737 29.1997293,51.8177 39.1375293,51.8177 C46.4723293,52.0538 54.9902293,53.7104 64.4544293,57.023 C67.2935293,55.1303 70.1333293,53.2369 72.7356293,50.8714 C75.1018293,48.7419 76.7578293,45.6654 77.7041293,41.6432 C78.1776293,38.3306 77.7041293,35.018 76.0482293,31.7061 L76.0482293,31.7061 Z" id="_57019280" fill="#302000"></path>
            <path d="M6.57022931,49.7825 C7.39372931,50.5895 8.37622931,51.3285 9.30742931,51.9965 C10.9476293,53.1731 12.6681293,54.2641 14.3900293,55.3165 L14.4609293,55.3598 L14.5280293,55.4089 C14.8176293,55.6208 15.1063293,55.8505 15.3936293,56.0946 C22.2549293,53.184 30.1105293,51.8177 39.1375293,51.8177 C45.9075293,52.0356 53.6851293,53.4635 62.2848293,56.2869 C62.5643293,56.0284 62.8470293,55.7734 63.1327293,55.5219 L63.2334293,55.4333 L63.3450293,55.3589 C66.1274293,53.504 68.9112293,51.645 71.3959293,49.3865 C73.7351293,47.2812 75.0178293,44.281 75.7365293,41.2729 C76.1505293,38.2563 75.6492293,35.416 74.2991293,32.6805 C72.4997293,29.8076 69.6535293,28.232 66.3869293,27.5062 L66.3613293,27.5005 L66.3358293,27.4941 C63.8132293,26.8637 61.0736293,26.8635 58.5510293,27.4941 L58.4578293,27.5174 L58.3628293,27.5317 C53.9237293,28.1978 50.4050293,30.4575 47.5620293,33.9004 L43.5856293,39.0465 L39.2571293,45.1786 L29.9569293,33.8443 L29.9018293,33.7617 C27.8466293,30.6783 23.2212293,28.6418 19.8424293,27.4617 C16.4937293,26.5183 12.9108293,26.756 9.54812931,27.5004 C6.67812931,28.2233 4.39942931,29.7681 3.12262931,32.4865 C1.99772931,35.4413 1.71462931,38.3542 2.29152931,41.4704 C2.99802931,44.4931 4.70032931,47.3343 6.57022931,49.7825 L6.57022931,49.7825 Z" id="_40867656" fill="#3D2508"></path>
            <path d="M8.07192931,48.4532 C10.0109293,50.3178 13.1960293,52.2428 15.4330293,53.61 L15.5748293,53.6967 L15.7090293,53.7949 C16.3062293,54.2319 16.8951293,54.7325 17.4720293,55.2715 C23.8302293,52.9257 31.0089293,51.8177 39.1375293,51.8177 C45.3308293,52.0171 52.3674293,53.229 60.1051293,55.5956 C60.6619293,55.058 61.2302293,54.5323 61.8111293,54.0209 L62.0124293,53.8436 L62.2356293,53.6948 C64.9300293,51.8986 67.6430293,50.095 70.0451293,47.9115 L70.0598293,47.8982 C72.0548293,46.1028 73.1445293,43.4676 73.7678293,40.905 C74.0995293,38.3547 73.6759293,35.977 72.5511293,33.6585 C71.0383293,31.3028 68.6534293,30.0586 65.9531293,29.4586 L65.9018293,29.4472 L65.8509293,29.4345 C63.6466293,28.8836 61.2403293,28.8834 59.0360293,29.4344 L58.8496293,29.481 L58.6596293,29.5095 C54.7218293,30.1004 51.6476293,32.1029 49.1243293,35.1494 L45.1946293,40.2351 L39.3767293,48.4773 L28.3478293,35.0362 L28.2376293,34.8709 C26.4914293,32.2512 22.1259293,30.3825 19.2423293,29.3707 C16.2493293,28.5422 13.0097293,28.7855 10.0091293,29.4467 C7.76372931,30.0178 5.98382931,31.1543 4.96422931,33.2709 C3.99822931,35.8427 3.75542931,38.3481 4.24962931,41.0601 C4.88362931,43.7275 6.42482931,46.2788 8.07192931,48.4532 L8.07192931,48.4532 Z" id="_55542328" fill="#4B2B10"></path>
            <path d="M9.57002931,47.118 C11.3926293,48.8288 14.4339293,50.6554 16.4760293,51.9035 L16.6888293,52.0335 L16.8900293,52.1808 C17.8214293,52.8623 18.7242293,53.6747 19.5932293,54.5443 C25.4158293,52.6961 31.9002293,51.8177 39.1375293,51.8177 C44.7400293,51.998 51.0327293,53.007 57.9102293,54.9499 C58.7443293,54.1132 59.6027293,53.3005 60.4894293,52.5198 L60.7914293,52.2539 L61.1262293,52.0307 C63.7322293,50.2934 66.3770293,48.543 68.6998293,46.4316 L68.7219293,46.4116 C70.3659293,44.932 71.2718293,42.6563 71.7979293,40.5405 C72.0490293,38.4591 71.7041293,36.5409 70.8050293,34.6427 C69.5808293,32.8078 67.6497293,31.8843 65.5193293,31.411 L65.4424293,31.3939 L65.3660293,31.3748 C63.4800293,30.9035 61.4070293,30.9033 59.5211293,31.3747 L59.2415293,31.4446 L58.9564293,31.4874 C55.5204293,32.003 52.8883293,33.7494 50.6858293,36.3997 L46.8037293,41.4238 L39.4963293,51.776 L26.7387293,36.2281 L26.5734293,35.9802 C25.1507293,33.8457 21.0339293,32.1247 18.6450293,31.2808 C16.0088293,30.5677 13.1083293,30.8149 10.4715293,31.3929 C8.85222931,31.8095 7.56192931,32.5526 6.80352931,34.0629 C5.99842931,36.2471 5.79672931,38.345 6.20772931,40.6487 C6.76852931,42.9572 8.14442931,45.2174 9.57002931,47.118 L9.57002931,47.118 Z" id="_57679832" fill="#583018"></path>
            <path d="M11.0646293,45.7767 C12.7750293,47.3382 15.6721293,49.0682 17.5190293,50.197 L17.8027293,50.3704 L18.0710293,50.5667 C19.3090293,51.4726 20.5439293,52.6179 21.7813293,53.9034 C26.4239293,52.655 31.4712293,51.9832 36.9656293,51.8448 L25.1295293,37.42 L24.9092293,37.0895 C23.8298293,35.47 19.9609293,33.8751 18.0499293,33.192 C15.7715293,32.5955 13.2053293,32.8443 10.9342293,33.339 C9.94662931,33.5959 9.12762931,33.9774 8.63732931,34.8723 C7.99782931,36.6597 7.83882931,38.3486 8.16582931,40.2358 C8.65292931,42.1821 9.85772931,44.1485 11.0646293,45.7767 L11.0646293,45.7767 Z M55.6967293,54.3517 C56.8099293,53.1962 57.9634293,52.0791 59.1677293,51.0188 L59.5704293,50.6642 L60.0169293,50.3666 C62.5340293,48.6885 65.1113293,46.9907 67.3545293,44.9516 L67.3840293,44.9249 C68.6669293,43.7704 69.3988293,41.8516 69.8260293,40.1807 C69.9990293,38.5733 69.7347293,37.1112 69.0628293,35.6392 C68.1287293,34.3296 66.6389293,33.7085 65.0855293,33.3633 L64.9829293,33.3406 L64.8811293,33.3151 C63.3134293,32.9233 61.5737293,32.9231 60.0061293,33.315 L59.6333293,33.4082 L59.2533293,33.4652 C56.3199293,33.9054 54.1265293,35.3973 52.2461293,37.6513 L48.4127293,42.6125 L41.8121293,51.9633 C46.0897293,52.2883 50.7319293,53.0705 55.6967293,54.3517 L55.6967293,54.3517 Z" id="_57023440" fill="#653520"></path>
            <path d="M12.5559293,44.4289 C14.1588293,45.846 16.9108293,47.4813 18.5620293,48.4905 L18.9166293,48.7072 L19.2520293,48.9527 C20.7819293,50.0721 22.3582293,51.6185 23.9628293,53.366 C27.2611293,52.625 30.7562293,52.1567 34.4621293,51.9467 L23.5204293,38.6119 L23.2490293,38.2046 C22.4217293,37.0731 19.0028293,35.6673 17.4570293,35.1047 C15.5286293,34.6243 13.2795293,34.8759 11.3709293,35.2907 C11.0358293,35.3751 10.6593293,35.4853 10.4495293,35.7505 C9.99382931,37.1104 9.88462931,38.3774 10.1239293,39.8207 C10.5369293,41.4021 11.5628293,43.0693 12.5559293,44.4289 Z M53.4608293,53.803 C54.8565293,52.309 56.3113293,50.869 57.8460293,49.5177 L58.3494293,49.0745 L58.9075293,48.7025 C61.3354293,47.0838 63.8460293,45.4381 66.0092293,43.4717 L66.0461293,43.4383 C66.9519293,42.6231 67.5218293,41.0658 67.8511293,39.8273 C67.9499293,38.7053 67.7702293,37.6974 67.3298293,36.6653 C66.6836293,35.8829 65.6115293,35.529 64.6517293,35.3157 L64.5235293,35.2873 L64.3961293,35.2554 C63.1468293,34.9432 61.7404293,34.943 60.4911293,35.2553 L60.0251293,35.3718 L59.5501293,35.4431 C57.1218293,35.8075 55.3611293,37.0477 53.8054293,38.9044 L50.0217293,43.8011 L44.1088293,52.1778 C47.0690293,52.5054 50.1906293,53.0431 53.4608293,53.803 L53.4608293,53.803 Z" id="_56410072" fill="#733B28"></path>
            <path d="M14.0443293,43.074 C15.5450293,44.3526 18.1508293,45.8952 19.6050293,46.784 L20.0305293,47.0441 L20.4330293,47.3386 C22.2252293,48.6499 24.1746293,50.66 26.1856293,52.9132 C28.0683293,52.5681 30.0129293,52.3063 32.0216293,52.1253 L21.9113293,39.8037 L21.6653293,39.4347 C20.7943293,38.5614 18.2443293,37.5208 16.8829293,37.0235 C15.4091293,36.6813 13.6169293,36.8762 12.1283293,37.1755 C11.9750293,37.9003 11.9598293,38.6071 12.0823293,39.4023 C12.4211293,40.6188 13.2573293,41.9765 14.0443293,43.074 L14.0443293,43.074 Z M51.1985293,53.3078 C51.4032293,53.082 51.6096293,52.8573 51.8174293,52.6334 C53.3129293,51.0218 54.8739293,49.4698 56.5244293,48.0166 L57.1284293,47.4848 L57.7981293,47.0383 C60.1364293,45.4795 62.5810293,43.8851 64.6640293,41.9917 L64.7082293,41.9517 C65.2151293,41.4955 65.6296293,40.3309 65.8710293,39.4792 C65.9024293,38.8804 65.8176293,38.3402 65.6227293,37.7883 C65.2383293,37.5119 64.5323293,37.338 64.2179293,37.2681 L64.0641293,37.2339 L63.9112293,37.1958 C62.9802293,36.9631 61.9071293,36.9629 60.9761293,37.1956 L60.4169293,37.3354 L59.8469293,37.4209 C57.9276293,37.7089 56.5909293,38.7012 55.3635293,40.159 L51.6307293,44.9898 L46.3558293,52.4626 C47.9282293,52.6866 49.5433293,52.968 51.1985293,53.3078 L51.1985293,53.3078 Z" id="_56981816" fill="#804030"></path>
            <path d="M39.1375293,78.5545 C45.9988293,78.5545 51.6776293,78.081 56.1733293,76.8979 C60.9051293,75.9515 63.5081293,74.7684 63.9809293,73.3486 C63.9809293,73.1125 63.9809293,73.1125 63.9809293,72.8757 C63.9809293,71.4558 61.3786293,70.0366 56.1733293,68.8535 C51.2041293,67.6704 45.5259293,67.1969 39.1375293,67.1969 C31.8027293,67.1969 25.4143293,67.6704 20.2083293,68.8535 C16.4229293,69.7999 14.0566293,70.7462 13.3470293,71.9294 L12.8735293,72.8757 C13.1103293,74.5317 15.7133293,75.9515 20.2083293,76.8979 C24.9408293,78.081 31.3292293,78.5545 39.1375293,78.5545 Z" id="_56013640" stroke="#1F1A17" stroke-width="1.4111" fill="#605040"></path>
            <path d="M39.1375293,78.5545 C45.9988293,78.5545 51.6776293,78.081 56.1733293,76.8979 C60.9051293,75.9515 63.5081293,74.7684 63.9809293,73.3486 C63.9809293,73.1125 63.9809293,73.1125 63.9809293,72.8757 C63.9809293,71.4558 61.3786293,70.0366 56.1733293,68.8535 C51.2041293,67.6704 45.5259293,67.1969 39.1375293,67.1969 C31.8027293,67.1969 25.4143293,67.6704 20.2083293,68.8535 C16.4229293,69.7999 14.0566293,70.7462 13.3470293,71.9294 L12.8735293,72.8757 C13.1103293,74.5317 15.7133293,75.9515 20.2083293,76.8979 C24.9408293,78.081 31.3292293,78.5545 39.1375293,78.5545 Z" id="_57019808" stroke="#0A0B0C" stroke-width="1.4111"></path>
            <g id="g4834" transform="translate(11.9611, 51.8177)">
                <path d="M52.0198242,21.5309 L53.4397242,20.3484 L53.4397242,17.7454 L49.8903242,14.1961 L52.4933242,5.2053 C43.0291242,1.8927 34.5112242,0.2361 27.1764242,0 C17.2386242,0 8.7207242,1.656 1.3859242,5.2053 L2.1485242,7.7013 L2.1599242,7.7372 L3.9883242,13.7232 L1.6227242,16.0895 C-0.270675802,17.9822 -0.506775802,19.6381 0.912424198,20.8213 L1.3859242,20.1117 C2.0955242,18.9285 4.4618242,17.9822 8.2472242,17.0358 C13.4532242,15.8527 19.8416242,15.3792 27.1764242,15.3792 C33.5648242,15.3792 39.2430242,15.8527 44.2122242,17.0358 C49.4175242,18.2189 52.0198242,19.6381 52.0198242,21.058 C52.0198242,21.2948 52.0198242,21.2948 52.0198242,21.5309 L52.0198242,21.5309 Z" id="_57646272" fill="#302000"></path>
                <g id="g4837" transform="translate(2.3639, -0)">
                    <path d="M48.7901,19.6492 L49.0758,19.4113 L49.0758,18.5738 L45.2712,14.7694 L48.2853,4.5771 C39.5564,1.6826 31.6677,0.2207 24.8125,0 C15.6792,0 7.7456,1.3992 0.8271,4.3809 L1.7088,7.153 L3.888,14.2877 L0.6729,17.5039 C0.5579,17.6188 0.2509,17.9546 -7.10542736e-15,18.2971 C0.2473,18.424 0.4535,18.5996 0.6192,18.8088 C1.818,18.1828 3.59,17.6092 5.8833,17.0358 C11.0893,15.8527 17.4777,15.3792 24.8125,15.3792 C31.2009,15.3792 36.8791,15.8527 41.8483,17.0358 C45.3208,17.8251 47.6342,18.7197 48.7901,19.6492 L48.7901,19.6492 Z" id="_55509760" fill="#372304"></path>
                    <path d="M45.8328,18.1593 L43.0161,15.3427 L46.3809,3.9643 C38.4064,1.4753 31.1657,0.2045 24.8125,7.10542736e-15 C16.4867,7.10542736e-15 9.158,1.1629 2.6861,3.6272 L3.6148,6.5467 L6.1517,14.8523 L3.2282,17.7767 C4.0151,17.5271 4.9012,17.2813 5.8833,17.0358 C11.0893,15.8527 17.4777,15.3792 24.8125,15.3792 C31.2009,15.3792 36.8791,15.8527 41.8483,17.0358 C43.4114,17.3911 44.7391,17.7678 45.8328,18.1593 L45.8328,18.1593 Z" id="_56884824" fill="#3D2508"></path>
                    <path d="M41.8905,17.0455 L40.7609,15.916 L44.4664,3.3856 C37.2445,1.277 30.6534,0.188 24.8125,1.42108547e-14 C17.2847,1.42108547e-14 10.5721,0.9508 4.5709,2.9543 L5.5242,5.9514 L8.4153,15.4168 L7.0446,16.7879 C12.029,15.7864 18.0141,15.3792 24.8125,15.3792 C31.2009,15.3792 36.8791,15.8527 41.8483,17.0358 L41.8905,17.0455 L41.8905,17.0455 Z" id="_56981648" fill="#44280C"></path>
                    <path d="M38.5415,16.3686 L42.5411,2.8438 C36.0699,1.0896 30.1302,0.1712 24.8125,1.42108547e-14 C18.0732,1.42108547e-14 11.9875,0.7622 6.4803,2.3593 L7.4336,5.3562 L10.679,15.9813 L10.4445,16.2159 C14.6768,15.6284 19.4959,15.3792 24.8125,15.3792 C29.826,15.3792 34.4022,15.6712 38.5415,16.3686 L38.5415,16.3686 Z" id="_56889944" fill="#4B2B10"></path>
                    <path d="M36.5448,16.0677 L40.6045,2.3396 C34.8813,0.9124 29.5953,0.154 24.8125,7.10542736e-15 C18.8523,7.10542736e-15 13.4033,0.5963 8.4135,1.8388 L9.343,4.7609 L12.7558,15.9342 C16.4053,15.5477 20.4406,15.3792 24.8125,15.3792 C29.033,15.3792 32.9439,15.5863 36.5448,16.0677 L36.5448,16.0677 Z" id="_40482368" fill="#512D14"></path>
                    <path d="M34.5296,15.8298 L38.6561,1.8756 C33.6774,0.7467 29.0478,0.1363 24.8125,7.10542736e-15 C19.6219,7.10542736e-15 14.819,0.4524 10.3694,1.3897 L11.2524,4.1656 L14.789,15.7443 C17.8872,15.492 21.2373,15.3792 24.8125,15.3792 C28.258,15.3792 31.4971,15.5173 34.5296,15.8298 L34.5296,15.8298 Z" id="_41733248" fill="#583018"></path>
                    <path d="M32.4975,15.6485 L36.6952,1.4537 C32.4573,0.593 28.4865,0.1183 24.8125,1.42108547e-14 C20.3819,1.42108547e-14 16.2341,0.3297 12.347,1.009 L13.1618,3.5704 L16.8361,15.5999 C19.3482,15.4486 22.0111,15.3792 24.8125,15.3792 C27.4997,15.3792 30.0615,15.4634 32.4975,15.6485 L32.4975,15.6485 Z" id="_57120920" fill="#5F331C"></path>
                    <path d="M30.4506,15.5179 L34.7209,1.0774 C31.2189,0.4532 27.9103,0.0997 24.8125,1.42108547e-14 C21.1327,1.42108547e-14 17.648,0.2276 14.3455,0.6937 L15.0712,2.9751 L18.8954,15.4953 C20.7907,15.4163 22.7646,15.3792 24.8125,15.3792 C26.7576,15.3792 28.6371,15.4234 30.4506,15.5179 Z" id="_41777024" fill="#653520"></path>
                    <path d="M28.3901,15.4327 L32.7324,0.7489 C29.9607,0.3275 27.3177,0.0806 24.8125,1.42108547e-14 C21.874,1.42108547e-14 19.0602,0.1451 16.3638,0.4408 L16.9806,2.3798 L20.9656,15.4264 C22.2168,15.3947 23.4993,15.3792 24.8125,15.3792 C26.0308,15.3792 27.2234,15.3966 28.3901,15.4327 L28.3901,15.4327 Z" id="_57122648" fill="#6C3824"></path>
                    <path d="M26.3177,15.3885 L30.7288,0.4718 C28.6805,0.2172 26.707,0.061 24.8125,7.10542736e-15 C22.6061,7.10542736e-15 20.4702,0.082 18.4012,0.2479 L18.89,1.7846 L23.0454,15.3889 C23.6283,15.3825 24.2171,15.3792 24.8125,15.3792 C25.3186,15.3792 25.8205,15.3825 26.3177,15.3885 Z" id="_58281968" fill="#733B28"></path>
                    <path d="M28.7087,0.2501 C27.3756,0.1239 26.0766,0.0407 24.8125,7.10542736e-15 C23.329,7.10542736e-15 21.8777,0.0374 20.4567,0.112 L20.7994,1.1893 L24.6769,13.884 L28.7087,0.2501 L28.7087,0.2501 Z" id="_57120944" fill="#793D2C"></path>
                    <path d="M24.6459,6.9361 L26.6706,0.0892 C26.043,0.0496 25.4237,0.0197 24.8125,1.42108547e-14 C24.0429,1.42108547e-14 23.2821,0.0102 22.5294,0.0302 L22.7088,0.5941 L24.6459,6.9361 L24.6459,6.9361 Z" id="_56411936" fill="#804030"></path>
                </g>
            </g>
            <path d="M63.9809293,72.8757 C63.9809293,73.1125 63.9809293,73.1125 63.9809293,73.3486 L65.4008293,72.1661 L65.4008293,69.5631 L61.8514293,66.0138 L64.4544293,57.023 C54.9902293,53.7104 46.4723293,52.0538 39.1375293,51.8177 C29.1997293,51.8177 20.6818293,53.4737 13.3470293,57.023 L15.9494293,65.5409 L13.5838293,67.9072 C11.6904293,69.7999 11.4543293,71.4558 12.8735293,72.639 L13.3470293,71.9294 C14.0566293,70.7462 16.4229293,69.7999 20.2083293,68.8535 C25.4143293,67.6704 31.8027293,67.1969 39.1375293,67.1969 C45.5259293,67.1969 51.2041293,67.6704 56.1733293,68.8535 C61.3786293,70.0366 63.9809293,71.4558 63.9809293,72.8757 L63.9809293,72.8757 Z" id="_41439168" stroke="#0A0B0C" stroke-width="1.4111"></path>
            <path d="M39.1375293,51.8177 L39.1375293,41.8799 L31.5660293,32.6524 C29.6732293,29.8127 25.8871293,27.4471 20.4451293,25.5538 C17.1325293,24.6074 13.3470293,24.6074 9.08812931,25.5538 C5.30202931,26.5001 2.69972931,28.6303 1.27982931,31.7061 C0.0967293109,34.7819 -0.376170689,38.0945 0.333429311,41.8799 C1.04302931,44.9558 2.69972931,48.0316 5.06592931,51.1075 C6.48512931,52.5273 9.08812931,54.42 13.3470293,57.023 C20.6818293,53.4737 29.1997293,51.8177 39.1375293,51.8177 Z" id="_39428496" stroke="#0A0B0C" stroke-width="1.4111"></path>
            <path d="M15.5137293,41.6874 C16.9670293,42.876 19.2477293,44.2216 20.6480293,45.0775 L21.1445293,45.3809 L21.6141293,45.7245 C24.1006293,47.5439 26.4075293,49.9684 28.6338293,52.5161 C28.9688293,52.4686 29.3055293,52.4236 29.6443293,52.381 L20.3022293,40.9956 L20.1592293,40.7812 C19.3106293,40.1134 17.4780293,39.3708 16.3262293,38.9486 C15.6414293,38.8075 14.8251293,38.82 14.0323293,38.9025 C14.0353293,38.9279 14.0386293,38.9535 14.0420293,38.9793 C14.3046293,39.829 14.9277293,40.8481 15.5137293,41.6874 L15.5137293,41.6874 Z M48.9068293,52.8699 C49.3810293,52.3327 49.8621293,51.8002 50.3514293,51.2729 C51.8927293,49.6121 53.5018293,48.0132 55.2027293,46.5156 L55.9074293,45.8951 L56.6887293,45.3742 C58.9363293,43.8759 61.3153293,42.3325 63.3173293,40.5131 C63.5159293,40.2482 63.7105293,39.7206 63.8585293,39.2375 C63.8319293,39.2312 63.8069293,39.2256 63.7840293,39.2205 L63.6046293,39.1806 L63.4263293,39.1361 C62.8136293,38.983 62.0738293,38.9827 61.4612293,39.1359 L60.8087293,39.299 L60.1437293,39.3988 C58.7419293,39.6091 57.8136293,40.3592 56.9210293,41.4143 L53.2397293,46.1785 L48.5592293,52.8093 L48.9068293,52.8699 L48.9068293,52.8699 Z" id="_56467440" fill="#884838"></path>
            <path d="M41.9766293,37.8578 C44.3428293,34.3084 46.2355293,30.523 46.7090293,26.7369 C47.4186293,22.7147 46.7090293,20.3484 44.5796293,19.1653 C42.6862293,17.7461 40.7935293,17.2726 38.9007293,17.2726" id="_56981672"></path>
            <path d="M41.9766293,37.8578 C44.3428293,34.3084 46.2355293,30.523 46.7090293,26.7369 C47.4186293,22.7147 46.7090293,20.3484 44.5796293,19.1653 C42.6862293,17.7461 40.7935293,17.2726 38.9007293,17.2726 C36.2977293,17.2726 34.4050293,17.9829 32.9852293,19.6388 C31.0924293,21.5316 30.3828293,23.4243 30.6196293,25.3177 C30.6196293,27.92 33.4587293,33.5988 39.1375293,41.8799 L41.9766293,37.8578 L41.9766293,37.8578 Z" id="_56888144" fill="#302000"></path>
            <g id="g4856" transform="translate(32.5766, 19.2726)">
                <path d="M7.75053024,17.4538 C9.75253024,14.4474 11.6940302,10.8454 12.1479302,7.2161 L12.1541302,7.1663 L12.1628302,7.1168 C12.4048302,5.7453 12.7110302,3.2895 11.6697302,2.1365 C11.4870302,1.9342 11.2693302,1.773 11.0317302,1.641 L10.9125302,1.5748 L10.8035302,1.493 C9.44043024,0.4713 8.02393024,0 6.32413024,0 C4.60273024,0 3.08163024,0.3213 1.92693024,1.668 L1.87703024,1.7262 L1.82283024,1.7804 C0.742030244,2.8612 -0.171969756,4.2016 0.0275302438,5.7969 L0.0430302438,5.9205 L0.0430302438,6.0451 C0.0430302438,7.4139 1.34153024,10.0884 1.95363024,11.2871 C3.31113024,13.9456 4.92643024,16.5628 6.59783024,19.087 L7.75053024,17.4538 L7.75053024,17.4538 Z" id="_57017640" fill="#4B2B10"></path>
                <path d="M6.65073024,15.4766 C8.26873024,12.9237 9.79463024,9.9159 10.1633302,6.9679 L10.1758302,6.8683 L10.1932302,6.7693 C10.2805302,6.2745 10.6895302,3.7389 10.0603302,3.3893 L9.82203024,3.2569 L9.60393024,3.0934 C8.58713024,2.3312 7.59123024,2 6.32413024,2 C5.23653024,2 4.18563024,2.1063 3.44523024,2.9698 L3.34543024,3.0862 L3.23703024,3.1946 C2.65633024,3.7753 1.90023024,4.6539 2.01213024,5.5487 L2.04303024,5.7959 L2.04303024,6.0415 C2.07633024,7.0442 3.33913024,9.6089 3.79703024,10.4988 C4.66193024,12.1796 5.63093024,13.8434 6.65073024,15.4766 L6.65073024,15.4766 Z" id="_56980280" fill="#5F331C"></path>
                <path d="M6.60733024,11.5055 C7.37613024,9.9475 7.98043024,8.3056 8.17883024,6.7197 L8.19753024,6.5702 L8.22363024,6.4219 C8.28943024,6.0494 8.40903024,5.2614 8.40473024,4.694 L8.40443024,4.6937 C7.73403024,4.1912 7.15823024,4 6.32413024,4 C6.00133024,4 5.21463024,3.9788 4.96353024,4.2717 L4.81383024,4.4462 L4.65123024,4.6088 C4.49253024,4.7676 4.13223024,5.1555 4.00993024,5.407 L4.04303024,5.6714 L4.04303024,5.9175 C4.23743024,7.1227 5.31063024,9.2604 6.60733024,11.5055 Z" id="_55510616" fill="#733B28"></path>
                <path d="M6.22003024,6.2676 L6.25413024,6.0744 C6.25823024,6.0508 6.26263024,6.026 6.26713024,6.0001 C6.22513024,6.0003 6.17943024,6.0008 6.13213024,6.002 C6.15883024,6.0879 6.18813024,6.1765 6.22003024,6.2676 Z" id="_56889256" fill="#804030"></path>
            </g>
            <path d="M41.9766293,37.8578 C44.3428293,34.3084 46.2355293,30.523 46.7090293,26.7369 C47.4186293,22.7147 46.7090293,20.3484 44.5796293,19.1653 C42.6862293,17.7461 40.7935293,17.2726 38.9007293,17.2726" id="_57122384" stroke="#0A0B0C" stroke-width="1.4111" stroke-linecap="round" stroke-linejoin="round"></path>
            <path d="M41.9766293,37.8578 C44.3428293,34.3084 46.2355293,30.523 46.7090293,26.7369 C47.4186293,22.7147 46.7090293,20.3484 44.5796293,19.1653 C42.6862293,17.7461 40.7935293,17.2726 38.9007293,17.2726 C36.2977293,17.2726 34.4050293,17.9829 32.9852293,19.6388 C31.0924293,21.5316 30.3828293,23.4243 30.6196293,25.3177 C30.6196293,27.92 33.4587293,33.5988 39.1375293,41.8799 L41.9766293,37.8578 L41.9766293,37.8578 Z" id="_56408944" stroke="#0A0B0C" stroke-width="1.4111"></path>
            <line x1="38.9007293" y1="7.3355" x2="38.9007293" y2="-3.55271368e-15" id="_56407984" stroke="#0A0B0C" stroke-width="1.4111" stroke-linecap="round" stroke-linejoin="round"></line>
            <line x1="30.8557293" y1="7.3355" x2="38.9007293" y2="7.3355" id="_57120752" stroke="#0A0B0C" stroke-width="1.4111" stroke-linecap="round" stroke-linejoin="round"></line>
            <line x1="38.9007293" y1="7.3355" x2="38.9007293" y2="17.2726" id="_57121568" stroke="#0A0B0C" stroke-width="1.4111" stroke-linecap="round" stroke-linejoin="round"></line>
            <line x1="46.2355293" y1="7.3355" x2="38.9007293" y2="7.3355" id="_57655280" stroke="#0A0B0C" stroke-width="1.4111" stroke-linecap="round" stroke-linejoin="round"></line>
        </g>
    </g>
</svg>