<?xml version="1.0" encoding="UTF-8"?>
<svg width="100px" height="100px" viewBox="0 0 100 100" version="1.1" xmlns="http://www.w3.org/2000/svg" xmlns:xlink="http://www.w3.org/1999/xlink">
    <title>画板</title>
    <g id="画板" stroke="none" stroke-width="1" fill="none" fill-rule="evenodd">
        <g id="br" transform="translate(16.3791, 12.9106)">
            <path d="M7.8076,68.3793 L0,68.3793 L0,75.0038 L66.7233,75.0038 L66.7233,68.3793 L59.1518,68.3793 L57.1576,68.3793 L59.1518,67.669 L59.1531,67.6224 L59.1532,67.6178 L59.1532,67.6148 L59.1534,67.6099 L59.1535,67.6088 L59.1535,67.6058 L59.1535,67.6028 L59.1537,67.5976 L59.1538,67.5968 L59.1538,67.5938 L59.154,67.5853 L59.1541,67.5848 L59.1541,67.5818 L59.1542,67.5788 L59.1543,67.5742 L59.1545,67.5695 L59.1545,67.5665 L59.1547,67.5617 L59.1548,67.5605 L59.1548,67.5575 L59.1548,67.5545 L59.155,67.5493 L59.1551,67.5485 L59.1551,67.5455 L59.1551,67.5425 L59.1553,67.537 L59.1554,67.5365 L59.1554,67.5335 L59.1557,67.5245 L59.1557,67.5243 L59.1557,67.5213 L59.156,67.5123 L59.156,67.5093 L59.157,67.4762 L59.157,67.476 L59.157,67.4741 C59.1798,66.6017 59.1592,65.758 59.0958,64.9432 L59.0951,64.9335 C59.0873,64.8336 59.0787,64.7342 59.0696,64.6351 L59.0694,64.6324 C59.0603,64.5346 59.0507,64.4375 59.0405,64.3406 L59.0385,64.3219 C59.0177,64.1273 58.9945,63.934 58.9687,63.7427 L58.9665,63.7266 C58.9406,63.5364 58.9123,63.348 58.8815,63.1612 L58.8774,63.1365 C58.8465,62.951 58.8133,62.7671 58.7776,62.5851 L58.7724,62.5593 C58.7559,62.4756 58.7388,62.3923 58.7212,62.3093 L58.7125,62.269 C58.6953,62.1888 58.6777,62.1089 58.6595,62.0293 L58.6502,61.9888 C58.6098,61.8134 58.567,61.6398 58.5219,61.4677 L58.5153,61.4431 C58.4935,61.361 58.4713,61.2792 58.4486,61.1977 L58.441,61.1706 C58.4179,61.0885 58.3942,61.0068 58.3701,60.9255 L58.3635,60.9032 C58.3386,60.8201 58.3134,60.7376 58.2874,60.6553 L58.2829,60.6412 C58.2575,60.5606 58.2315,60.4804 58.2049,60.4006 L58.1912,60.3601 C58.1652,60.2826 58.1387,60.2056 58.1116,60.1288 L58.1077,60.1179 C58.0782,60.0345 58.0482,59.9513 58.0174,59.8687 L58.0143,59.8605 C57.9838,59.7785 57.9526,59.697 57.9209,59.6159 L57.9139,59.5981 C57.8841,59.522 57.8538,59.4462 57.8229,59.3708 L57.8047,59.327 C57.7749,59.255 57.7447,59.1833 57.7139,59.112 L57.706,59.0939 C57.6736,59.0189 57.6408,58.9443 57.6073,58.8701 L57.59,58.8321 C57.5578,58.7612 57.5252,58.6906 57.492,58.6204 L57.4809,58.5972 C57.447,58.5256 57.4126,58.4543 57.3776,58.3835 L57.3552,58.3387 C57.322,58.272 57.2883,58.2055 57.2542,58.1394 L57.2389,58.1101 C57.2033,58.0415 57.1672,57.9731 57.1306,57.9052 L57.1092,57.8659 C57.0731,57.7992 57.0365,57.7328 56.9994,57.6668 L56.9854,57.6421 C56.9474,57.5749 56.9091,57.5079 56.8702,57.4413 L56.8404,57.391 C56.804,57.3294 56.7673,57.2681 56.7301,57.2071 L56.7122,57.1781 C56.6728,57.1137 56.633,57.0496 56.5926,56.9858 L56.5626,56.9391 C56.5229,56.877 56.483,56.8151 56.4425,56.7537 L56.4345,56.7417 C56.3896,56.6738 56.3443,56.606 56.2982,56.5388 L56.2675,56.4946 C56.2272,56.4363 56.1865,56.3782 56.1454,56.3204 L56.1179,56.2822 C56.0759,56.2237 56.0338,56.1653 55.991,56.1073 L55.953,56.0565 C55.9122,56.0017 55.8711,55.947 55.8295,55.8927 L55.7973,55.8512 C55.7546,55.7958 55.7117,55.7406 55.6682,55.6858 L55.6198,55.6258 C55.5796,55.5758 55.5392,55.5258 55.4984,55.4762 L55.4555,55.4249 C55.4141,55.375 55.3725,55.3252 55.3304,55.2759 L55.2651,55.2005 C55.2281,55.1578 55.1912,55.1152 55.1538,55.0728 L55.0926,55.0044 C55.0542,54.9615 55.0159,54.9185 54.977,54.876 C54.9466,54.8428 54.9156,54.8099 54.8848,54.777 L54.7957,54.6816 C54.7647,54.6489 54.7332,54.6166 54.7019,54.5842 C54.67,54.5512 54.6383,54.518 54.6061,54.4852 L54.5178,54.3966 C54.4834,54.3621 54.4492,54.3276 54.4145,54.2934 L54.3306,54.212 C54.2938,54.1762 54.257,54.1402 54.2197,54.1047 L54.1374,54.0278 C54.0971,53.99 54.0568,53.9522 54.016,53.9147 L53.969,53.8721 C53.9179,53.8255 53.8668,53.7789 53.8149,53.7329 L53.7476,53.674 C53.7017,53.6336 53.6559,53.5933 53.6094,53.5534 C53.5781,53.5265 53.5463,53.5 53.5148,53.4733 C53.4776,53.4418 53.4406,53.41 53.403,53.3788 C53.3645,53.3468 53.3254,53.3153 53.2865,53.2836 C53.2528,53.2561 53.2194,53.2285 53.1855,53.2013 L53.1072,53.1393 C53.0603,53.102 53.0134,53.0647 52.9659,53.0278 L52.8985,52.9762 C52.8476,52.9371 52.7967,52.8979 52.7452,52.8592 L52.7419,52.8567 C52.6704,52.803 52.5982,52.7495 52.5255,52.6966 L52.5249,52.6962 C52.4611,52.6497 52.3966,52.6039 52.3319,52.5582 L52.2948,52.5317 L52.2883,52.5271 C52.2129,52.4741 52.137,52.4215 52.0604,52.3694 L52.056,52.3664 C51.9786,52.3138 51.9007,52.2616 51.8221,52.2099 L51.8199,52.2084 C51.7406,52.1562 51.6607,52.1044 51.5802,52.0531 L51.5802,21.7669 L51.5802,21.5308 L61.0445,15.1424 L61.0445,0.2361 L49.9243,0.2361 L49.9243,6.8606 L38.8034,6.8606 L38.8034,0.2361 L27.6831,0.2361 L27.6831,6.8606 L17.2719,6.8606 L17.2719,0.2361 L5.9149,0.2361 L5.9149,14.9057 L15.6159,21.7669 L15.6159,51.9531 L15.6159,52.0531 C10.1738,55.3657 7.5715,60.8077 7.8076,68.3793 L7.8076,68.3793 Z" id="_41865824" fill="#302000"></path>
            <g id="g5011" transform="translate(2, 0.2361)">
                <path d="M0,70.1432 L0,74.7677 L62.7233,74.7677 L62.7233,70.1432 L55.1518,70.1432 L55.1518,67.3989 L55.153,67.3648 C55.155,67.3056 55.1561,67.2464 55.1577,67.1874 C55.308,61.448 53.4367,56.6419 48.5064,53.5043 L47.5802,52.9149 L47.5802,20.2317 L57.0445,13.8433 L57.0445,3.19744231e-14 L47.9243,3.19744231e-14 L47.9243,6.6245 L36.8034,6.6245 L36.8034,3.19744231e-14 L25.6831,3.19744231e-14 L25.6831,6.6245 L15.2719,6.6245 L15.2719,3.19744231e-14 L5.9149,3.19744231e-14 L5.9149,13.6345 L15.6159,20.4957 L15.6159,52.941 L14.6558,53.5254 C9.3309,56.7666 7.6184,62.0452 7.8066,68.0809 L7.8709,70.1432 L0,70.1432 Z" id="_41826168" fill="#362204"></path>
                <path d="M2,72.1432 L2,74.7677 L60.7233,74.7677 L60.7233,72.1432 L53.1518,72.1432 L53.1518,67.3648 L53.1541,67.2968 C53.156,67.2426 53.157,67.1886 53.1584,67.1349 C53.2904,62.0941 51.7711,57.9526 47.4327,55.1916 L45.5802,54.0127 L45.5802,19.1687 L55.0445,12.7803 L55.0445,2.13162821e-14 L47.9243,2.13162821e-14 L47.9243,6.6245 L36.8034,6.6245 L36.8034,2.13162821e-14 L25.6831,2.13162821e-14 L25.6831,6.6245 L15.2719,6.6245 L15.2719,2.13162821e-14 L7.9149,2.13162821e-14 L7.9149,12.5993 L17.6159,19.4605 L17.6159,54.065 L15.6957,55.2338 C11.0043,58.0895 9.6405,62.7208 9.8057,68.0185 L9.9343,72.1432 L2,72.1432 Z" id="_41858640" fill="#3C2507"></path>
                <path d="M4,74.1432 L4,74.7677 L58.7233,74.7677 L58.7233,74.1432 L51.1518,74.1432 L51.1518,67.3308 L51.1553,67.2287 C51.156,67.207 51.1565,67.1927 51.1568,67.1836 C51.1564,67.1919 51.1564,67.1851 51.1591,67.0824 C51.2724,62.7539 50.0934,59.2555 46.3589,56.8789 L43.5802,55.1106 L43.5802,18.1057 L53.0445,11.7173 L53.0445,1.77635684e-14 L47.9243,1.77635684e-14 L47.9243,6.6245 L36.8034,6.6245 L36.8034,1.77635684e-14 L25.6831,1.77635684e-14 L25.6831,6.6245 L15.2719,6.6245 L15.2719,1.77635684e-14 L9.9149,1.77635684e-14 L9.9149,11.5642 L19.6159,18.4254 L19.6159,55.1889 L16.7356,56.9422 C12.6757,59.4134 11.6624,63.3925 11.8047,67.9562 L11.9976,74.1432 L4,74.1432 Z" id="_41857848" fill="#42270B"></path>
                <path d="M49.1518,74.7677 L49.1518,67.2967 L49.1564,67.1611 C49.1578,67.1168 49.1586,67.0733 49.1598,67.03 C49.2545,63.413 48.4138,60.5573 45.2851,58.5662 L41.5802,56.2085 L41.5802,17.0428 L51.0445,10.6544 L51.0445,1.0658141e-14 L47.9243,1.0658141e-14 L47.9243,6.6245 L36.8034,6.6245 L36.8034,1.0658141e-14 L25.6831,1.0658141e-14 L25.6831,6.6245 L15.2719,6.6245 L15.2719,1.0658141e-14 L11.9149,1.0658141e-14 L11.9149,10.529 L21.6159,17.3902 L21.6159,56.3129 L17.7755,58.6506 C14.3666,60.7256 13.6849,64.0851 13.8037,67.8939 L14.018,74.7677 L49.1518,74.7677 Z" id="_41856400" fill="#492A0F"></path>
                <path d="M47.1518,74.7677 L47.1518,67.2627 L47.1575,67.0966 C47.1587,67.0549 47.1594,67.0179 47.1604,66.9775 C47.2361,64.0874 46.7187,61.8492 44.2113,60.2535 L39.5802,57.3064 L39.5802,15.9798 L49.0445,9.5914 L49.0445,1.0658141e-14 L47.9243,1.0658141e-14 L47.9243,6.6245 L36.8034,6.6245 L36.8034,1.0658141e-14 L25.6831,1.0658141e-14 L25.6831,6.6245 L15.2719,6.6245 L15.2719,1.0658141e-14 L13.9149,1.0658141e-14 L13.9149,9.4939 L23.6159,16.3551 L23.6159,57.4369 L18.8154,60.359 C16.0745,62.0273 15.7081,64.7954 15.8027,67.8315 L16.019,74.7677 L47.1518,74.7677 L47.1518,74.7677 Z" id="_41852432" fill="#4F2C12"></path>
                <path d="M45.1518,74.7677 L45.1518,67.2286 L45.1583,67.0365 C45.1612,66.9344 45.1568,67.0884 45.1611,66.925 C45.2174,64.7779 45.0043,63.1288 43.1376,61.9408 L37.5802,58.4042 L37.5802,14.9168 L47.0445,8.5284 L47.0445,6.6245 L36.8034,6.6245 L36.8034,0 L25.6831,0 L25.6831,6.6245 L15.9149,6.6245 L15.9149,8.4588 L25.6159,15.32 L25.6159,58.5609 L19.8553,62.0674 C17.8246,63.3035 17.7329,65.5606 17.8018,67.7692 L18.02,74.7677 L45.1518,74.7677 Z" id="_41867928" fill="#552F16"></path>
                <path d="M43.1518,74.7677 L43.1518,67.1946 L43.1592,66.9765 C43.1614,66.894 43.1581,67.0151 43.1618,66.8725 C43.1968,65.536 43.2351,64.3735 42.0638,63.6282 L35.5802,59.5021 L35.5802,13.8538 L45.0445,7.4654 L45.0445,6.6245 L36.8034,6.6245 L36.8034,2.48689958e-14 L25.6831,2.48689958e-14 L25.6831,6.6245 L17.9149,6.6245 L17.9149,7.4236 L27.6159,14.2848 L27.6159,59.6849 L20.8952,63.7758 C19.63,64.5459 19.7592,66.3722 19.8008,67.7069 L20.021,74.7677 L43.1518,74.7677 L43.1518,74.7677 Z" id="_41851480" fill="#5B311A"></path>
                <path d="M41.1518,74.7677 L41.1518,67.1605 L41.1601,66.9172 C41.1617,66.854 41.1592,66.945 41.1625,66.82 C41.1713,66.486 41.1675,65.7846 41.0686,65.3666 C41.0411,65.348 41.0139,65.3307 40.99,65.3155 L33.5802,60.6 L33.5802,12.7908 L42.7155,6.6245 L36.8034,6.6245 L36.8034,-3.55271368e-15 L25.6831,-3.55271368e-15 L25.6831,6.6245 L20.2486,6.6245 L29.6159,13.2497 L29.6159,60.8089 L21.9527,65.4734 C21.7897,66.0696 21.7848,67.1627 21.7998,67.6445 L22.0219,74.7677 L41.1518,74.7677 L41.1518,74.7677 Z" id="_41867072" fill="#61341E"></path>
                <path d="M39.1518,74.7677 L39.1518,67.1265 L39.1609,66.8593 C39.1617,66.828 39.1624,66.7974 39.1632,66.7675 C39.165,66.6969 39.1667,66.6143 39.167,66.526 L31.6159,61.7206 L31.6159,61.9328 L23.8025,66.6889 C23.7864,67.016 23.7917,67.3536 23.7989,67.5822 L24.0229,74.7677 L39.1518,74.7677 L39.1518,74.7677 Z M31.5802,12.1893 L31.5802,11.7278 L39.1406,6.6245 L36.8034,6.6245 L36.8034,1.42108547e-14 L25.6831,1.42108547e-14 L25.6831,6.6245 L23.7122,6.6245 L31.5802,12.1893 Z" id="_41850592" fill="#673621"></path>
                <path d="M37.1518,74.7677 L37.1518,67.6142 L31.7629,64.1848 L25.8069,67.8101 L26.0239,74.7677 L37.1518,74.7677 L37.1518,74.7677 Z M31.2729,9.5223 L36.8034,5.7892 L36.8034,1.42108547e-14 L25.6831,1.42108547e-14 L25.6831,5.5688 L31.2729,9.5223 L31.2729,9.5223 Z" id="_41849624" fill="#6E3925"></path>
                <path d="M35.1518,74.7677 L35.1518,68.712 L31.7394,66.5404 L27.8423,68.9126 L28.0249,74.7677 L35.1518,74.7677 Z M31.2994,7.0914 L36.8034,3.3762 L36.8034,2.13162821e-14 L25.9149,2.13162821e-14 L25.9149,3.2831 L31.2994,7.0914 Z" id="_57868384" fill="#743B29"></path>
                <path d="M33.1518,74.7677 L33.1518,69.8099 L31.7159,68.8961 L29.8776,70.0151 L30.0258,74.7677 L33.1518,74.7677 L33.1518,74.7677 Z M31.326,4.6605 L35.0445,2.1505 L35.0445,1.42108547e-14 L27.9149,1.42108547e-14 L27.9149,2.2479 L31.326,4.6605 Z" id="_58285016" fill="#7A3E2C"></path>
                <polygon id="_41780088" fill="#804030" points="31.3525 2.2296 33.0445 1.0875 33.0445 1.95399252e-14 29.9149 1.95399252e-14 29.9149 1.2128"></polygon>
            </g>
            <g id="g5026" stroke="#1F1A17" stroke-width="1.4111">
                <polygon id="_58015376" stroke-linecap="round" stroke-linejoin="round" points="7.8076 68.1432 0 68.1432 0 74.7677 66.7233 74.7677 66.7233 68.1432 59.1518 68.1432"></polygon>
                <path d="M59.1518,67.4329 C59.3885,60.3349 56.7855,55.1296 51.5802,51.817" id="_57868792" stroke-linecap="round" stroke-linejoin="round"></path>
                <polyline id="_57876512" stroke-linecap="round" stroke-linejoin="round" points="51.5802 51.817 51.5802 21.5308 51.5802 21.2947"></polyline>
                <polyline id="_59394792" stroke-linecap="round" stroke-linejoin="round" points="51.5802 21.2947 61.0445 14.9063 61.0445 -1.77635684e-15 49.9243 -1.77635684e-15 49.9243 6.6245 38.8034 6.6245 38.8034 -1.77635684e-15 27.6831 -1.77635684e-15 27.6831 6.6245 17.2719 6.6245 17.2719 -1.77635684e-15 5.9149 -1.77635684e-15 5.9149 14.6696 15.6159 21.5308"></polyline>
                <polygon id="_58285256" points="51.5802 21.2947 51.1074 21.5308 51.5802 21.5308"></polygon>
                <polyline id="_41779712" stroke-linecap="round" stroke-linejoin="round" points="15.6159 21.5308 51.1074 21.5308 51.5802 21.2947"></polyline>
                <path d="M15.6159,51.817 C10.1738,55.1296 7.5715,60.5716 7.8076,68.1432" id="_58285160" stroke-linecap="round" stroke-linejoin="round"></path>
                <line x1="15.6159" y1="51.817" x2="51.5802" y2="51.817" id="_57868408" stroke-linecap="round" stroke-linejoin="round"></line>
                <line x1="15.6159" y1="21.5308" x2="15.6159" y2="51.817" id="_58015424" stroke-linecap="round" stroke-linejoin="round"></line>
            </g>
        </g>
    </g>
</svg>