<?xml version="1.0" encoding="UTF-8"?>
<svg width="100px" height="100px" viewBox="0 0 100 100" version="1.1" xmlns="http://www.w3.org/2000/svg" xmlns:xlink="http://www.w3.org/1999/xlink">
    <title>画板</title>
    <g id="画板" stroke="none" stroke-width="1" fill="none" fill-rule="evenodd">
        <g id="wk" transform="translate(10.6033, 10.5318)">
            <path d="M41.9766293,37.8578 C44.3428293,34.3084 46.2355293,30.523 46.7090293,26.7369 C47.4186293,22.7147 46.7090293,20.3484 44.5796293,19.1653 C42.6862293,17.7461 40.7935293,17.2726 38.9007293,17.2726 C36.2977293,17.2726 34.4050293,17.9829 32.9852293,19.6388 C31.0924293,21.5316 30.3828293,23.4243 30.6196293,25.3177 C30.6196293,27.92 33.4587293,33.5988 39.1375293,41.8799 L41.9766293,37.8578 L41.9766293,37.8578 Z" id="_56913904" fill="#ECD8B0"></path>
            <g id="g5100" transform="translate(32.6767, 19.3726)">
                <path d="M7.56802582,17.2973 C9.56032582,14.3051 11.4968258,10.7157 11.9485258,7.1037 L11.9551258,7.0514 L11.9642258,6.9995 C12.1991258,5.668 12.5087258,3.2254 11.4954258,2.1035 C11.3201258,1.9095 11.1110258,1.7551 10.8830258,1.6284 L10.7579258,1.5589 L10.6434258,1.4731 C9.29762582,0.4643 7.90222582,-3.55271368e-15 6.22402582,-3.55271368e-15 C4.53332582,-3.55271368e-15 3.03732582,0.3099 1.90272582,1.6331 L1.85032582,1.6942 L1.79342582,1.7511 C0.736425817,2.8082 -0.168674183,4.1227 0.0267258173,5.6845 L0.0429258173,5.8143 L0.0429258173,5.9451 C0.0429258173,7.291 1.34062582,9.9627 1.94262582,11.1416 C3.27652582,13.7539 4.85982582,16.3264 6.50032582,18.8098 L7.56802582,17.2973 L7.56802582,17.2973 Z" id="_41546464" fill="#F1E8C4"></path>
                <path d="M6.56872582,14.9717 C8.10002582,12.5097 9.51442582,9.6447 9.86482582,6.8431 L9.87792582,6.7385 L9.89622582,6.6346 C9.99252582,6.0887 10.2715258,4.0318 9.93502582,3.5099 C9.91532582,3.4934 9.88332582,3.4753 9.86312582,3.4641 L9.61292582,3.3251 L9.38392582,3.1534 C8.40172582,2.4172 7.44782582,2.1 6.22402582,2.1 C5.20452582,2.1 4.19332582,2.1879 3.49692582,3 L3.39222582,3.1222 L3.27832582,3.236 C2.75252582,3.7619 2.00812582,4.6054 2.11042582,5.4239 L2.14292582,5.6835 L2.14292582,5.9349 C2.22502582,7.5869 4.46012582,11.5664 6.56872582,14.9717 L6.56872582,14.9717 Z" id="_57149544" fill="#F3EFCC"></path>
                <path d="M6.48202582,10.7636 C7.11932582,9.3884 7.60862582,7.9613 7.78102582,6.5825 L7.80062582,6.4255 L7.82812582,6.2698 C7.88772582,5.9321 7.99052582,5.2686 8.00352582,4.7461 C7.43732582,4.3486 6.94252582,4.2 6.22402582,4.2 C5.99372582,4.2 5.36332582,4.2189 5.13122582,4.3233 C5.11712582,4.3367 5.10262582,4.3536 5.09122582,4.3669 L4.93402582,4.5502 L4.76332582,4.721 C4.62672582,4.8575 4.35262582,5.149 4.21982582,5.3679 L4.24292582,5.5527 L4.24292582,5.7883 C4.43862582,6.8974 5.34712582,8.7595 6.48202582,10.7636 L6.48202582,10.7636 Z" id="_41546688" fill="#F8FFE0"></path>
            </g>
            <path d="M76.0482293,31.7061 C74.1555293,28.6303 71.0796293,26.5001 66.8207293,25.5538 C63.9809293,24.844 60.9051293,24.844 58.0660293,25.5538 C53.3335293,26.264 49.3114293,28.6303 45.9988293,32.6524 L41.9766293,37.8578 L39.1375293,41.8799 L31.5660293,32.6524 C29.6732293,29.8127 25.8871293,27.4471 20.4451293,25.5538 C17.1325293,24.6074 13.3470293,24.6074 9.08812931,25.5538 C5.30202931,26.5001 2.69972931,28.6303 1.27982931,31.7061 C0.0967293109,34.7819 -0.376170689,38.0945 0.333429311,41.8799 C1.04302931,44.9558 2.69972931,48.0316 5.06592931,51.1075 C6.48512931,52.5273 9.08812931,54.42 13.3470293,57.023 C20.6818293,53.4737 29.1997293,51.8177 39.1375293,51.8177 C46.4723293,52.0538 54.9902293,53.7104 64.4544293,57.023 C67.2935293,55.1303 70.1333293,53.2369 72.7356293,50.8714 C75.1018293,48.7419 76.7578293,45.6654 77.7041293,41.6432 C78.1776293,38.3306 77.7041293,35.018 76.0482293,31.7061 L76.0482293,31.7061 Z" id="_56987992" fill="#ECD8B0"></path>
            <g id="g5106" transform="translate(2.0006, 26.8439)">
                <path d="M4.56963484,22.9385733 C5.39313484,23.7455733 6.37563484,24.4845733 7.30683484,25.1525733 C8.94703484,26.3291733 10.6675348,27.4201733 12.3894348,28.4725733 L12.4603348,28.5158733 L12.5274348,28.5649733 C12.8170348,28.7768733 13.1057348,29.0065733 13.3930348,29.2506733 C20.2543348,26.3400733 28.1099348,24.9737733 37.1369348,24.9737733 C43.9069348,25.1916733 51.6845348,26.6195733 60.2842348,29.4429733 C60.5637348,29.1844733 60.8464348,28.9294733 61.1321348,28.6779733 L61.2328348,28.5893733 L61.3444348,28.5149733 C64.1268348,26.6600733 66.9106348,24.8010733 69.3953348,22.5425733 C71.7345348,20.4372733 73.0172348,17.4370733 73.7359348,14.4289733 C74.1499348,11.4123733 73.6486348,8.57207334 72.2985348,5.83657334 C70.4991348,2.96367334 67.6529348,1.38807334 64.3863348,0.662273341 L64.3607348,0.656573341 L64.3352348,0.650173341 C61.8126348,0.0197733415 59.0730348,0.0195733415 56.5504348,0.650173341 L56.4572348,0.673473341 L56.3622348,0.687773341 C51.9231348,1.35387334 48.4044348,3.61357334 45.5614348,7.05647334 L41.5850348,12.2025733 L37.2565348,18.3346733 L27.9563348,7.00037334 L27.9012348,6.91777334 C25.8460348,3.83437334 21.2206348,1.79787334 17.8418348,0.617773341 C14.4931348,-0.325626659 10.9102348,-0.0879266585 7.54753484,0.656473341 C4.67753484,1.37937334 2.39883484,2.92417334 1.12203484,5.64257334 C-0.00286515801,8.59737334 -0.285965158,11.5102733 0.290934842,14.6264733 C0.997434842,17.6491733 2.69973484,20.4903733 4.56963484,22.9385733 L4.56963484,22.9385733 Z" id="_55533456" fill="#EEDFB8"></path>
                <path d="M6.07133484,21.6092733 C8.01033484,23.4738733 11.1954348,25.3988733 13.4324348,26.7660733 L13.5742348,26.8527733 L13.7084348,26.9509733 C14.3056348,27.3879733 14.8945348,27.8885733 15.4714348,28.4275733 C21.8296348,26.0817733 29.0083348,24.9737733 37.1369348,24.9737733 C43.3302348,25.1731733 50.3668348,26.3850733 58.1045348,28.7516733 C58.6613348,28.2140733 59.2296348,27.6883733 59.8105348,27.1769733 L60.0118348,26.9996733 L60.2350348,26.8508733 C62.9294348,25.0546733 65.6424348,23.2510733 68.0445348,21.0675733 L68.0592348,21.0542733 C70.0542348,19.2588733 71.1439348,16.6236733 71.7672348,14.0610733 C72.0989348,11.5107733 71.6753348,9.13307334 70.5505348,6.81457334 C69.0377348,4.45887334 66.6528348,3.21467334 63.9525348,2.61467334 L63.9012348,2.60327334 L63.8503348,2.59057334 C61.6460348,2.03967334 59.2397348,2.03947334 57.0354348,2.59047334 L56.8490348,2.63707334 L56.6590348,2.66557334 C52.7212348,3.25647334 49.6470348,5.25897334 47.1237348,8.30547334 L43.1940348,13.3911733 L37.3761348,21.6333733 L26.3472348,8.19227334 L26.2370348,8.02697334 C24.4908348,5.40727334 20.1253348,3.53857334 17.2417348,2.52677334 C14.2487348,1.69827334 11.0091348,1.94157334 8.00853484,2.60277334 C5.76313484,3.17387334 3.98323484,4.31037334 2.96363484,6.42697334 C1.99763484,8.99877334 1.75483484,11.5041733 2.24903484,14.2161733 C2.88303484,16.8835733 4.42423484,19.4348733 6.07133484,21.6092733 L6.07133484,21.6092733 Z" id="_56601232" fill="#F0E5C0"></path>
                <path d="M7.56943484,20.2740733 C9.39203484,21.9848733 12.4333348,23.8114733 14.4754348,25.0595733 L14.6882348,25.1895733 L14.8894348,25.3368733 C15.8208348,26.0183733 16.7236348,26.8307733 17.5926348,27.7003733 C23.4152348,25.8521733 29.8996348,24.9737733 37.1369348,24.9737733 C42.7394348,25.1540733 49.0321348,26.1630733 55.9096348,28.1059733 C56.7437348,27.2692733 57.6021348,26.4565733 58.4888348,25.6758733 L58.7908348,25.4099733 L59.1256348,25.1867733 C61.7316348,23.4494733 64.3764348,21.6990733 66.6992348,19.5876733 L66.7213348,19.5676733 C68.3653348,18.0880733 69.2712348,15.8123733 69.7973348,13.6965733 C70.0484348,11.6151733 69.7035348,9.69697334 68.8044348,7.79877334 C67.5802348,5.96387334 65.6491348,5.04037334 63.5187348,4.56707334 L63.4418348,4.54997334 L63.3654348,4.53087334 C61.4794348,4.05957334 59.4064348,4.05937334 57.5205348,4.53077334 L57.2409348,4.60067334 L56.9558348,4.64347334 C53.5198348,5.15907334 50.8877348,6.90547334 48.6852348,9.55577334 L44.8031348,14.5798733 L37.4957348,24.9320733 L24.7381348,9.38417334 L24.5728348,9.13627334 C23.1501348,7.00177334 19.0333348,5.28077334 16.6444348,4.43687334 C14.0082348,3.72377334 11.1077348,3.97097334 8.47093484,4.54897334 C6.85163484,4.96557334 5.56133484,5.70867334 4.80293484,7.21897334 C3.99783484,9.40317334 3.79613484,11.5010733 4.20713484,13.8047733 C4.76793484,16.1132733 6.14383484,18.3734733 7.56943484,20.2740733 L7.56943484,20.2740733 Z" id="_56990032" fill="#F2ECC8"></path>
                <path d="M9.06403484,18.9327733 C10.7744348,20.4942733 13.6715348,22.2242733 15.5184348,23.3530733 L15.8021348,23.5264733 L16.0704348,23.7227733 C17.3084348,24.6286733 18.5433348,25.7739733 19.7807348,27.0594733 C24.4233348,25.8110733 29.4706348,25.1392733 34.9650348,25.0008733 L23.1289348,10.5760733 L22.9086348,10.2455733 C21.8292348,8.62607334 17.9603348,7.03117334 16.0493348,6.34807334 C13.7709348,5.75157334 11.2047348,6.00037334 8.93363484,6.49507334 C7.94603484,6.75197334 7.12703484,7.13347334 6.63673484,8.02837334 C5.99723484,9.81577334 5.83823484,11.5046733 6.16523484,13.3918733 C6.65233484,15.3381733 7.85713484,17.3045733 9.06403484,18.9327733 L9.06403484,18.9327733 Z M53.6961348,27.5077733 C54.8093348,26.3522733 55.9628348,25.2351733 57.1671348,24.1748733 L57.5698348,23.8202733 L58.0163348,23.5226733 C60.5334348,21.8445733 63.1107348,20.1467733 65.3539348,18.1076733 L65.3834348,18.0809733 C66.6663348,16.9264733 67.3982348,15.0076733 67.8254348,13.3367733 C67.9984348,11.7293733 67.7341348,10.2672733 67.0622348,8.79527334 C66.1281348,7.48567334 64.6383348,6.86457334 63.0849348,6.51937334 L62.9823348,6.49667334 L62.8805348,6.47117334 C61.3128348,6.07937334 59.5731348,6.07917334 58.0055348,6.47107334 L57.6327348,6.56427334 L57.2527348,6.62127334 C54.3193348,7.06147334 52.1259348,8.55337334 50.2455348,10.8073733 L46.4121348,15.7685733 L39.8115348,25.1193733 C44.0891348,25.4443733 48.7313348,26.2265733 53.6961348,27.5077733 L53.6961348,27.5077733 Z" id="_41732600" fill="#F4F2D0"></path>
                <path d="M10.5553348,17.5849733 C12.1582348,19.0020733 14.9102348,20.6373733 16.5614348,21.6465733 L16.9160348,21.8632733 L17.2514348,22.1087733 C18.7813348,23.2281733 20.3576348,24.7745733 21.9622348,26.5220733 C25.2605348,25.7810733 28.7556348,25.3127733 32.4615348,25.1027733 L21.5198348,11.7679733 L21.2484348,11.3606733 C20.4211348,10.2291733 17.0022348,8.82337334 15.4564348,8.26077334 C13.5280348,7.78037334 11.2789348,8.03197334 9.37033484,8.44677334 C9.03523484,8.53117334 8.65873484,8.64137334 8.44893484,8.90657334 C7.99323484,10.2664733 7.88403484,11.5334733 8.12333484,12.9767733 C8.53633484,14.5581733 9.56223484,16.2253733 10.5553348,17.5849733 Z M51.4602348,26.9590733 C52.8559348,25.4650733 54.3107348,24.0250733 55.8454348,22.6737733 L56.3488348,22.2305733 L56.9069348,21.8585733 C59.3348348,20.2398733 61.8454348,18.5941733 64.0086348,16.6277733 L64.0455348,16.5943733 C64.9513348,15.7791733 65.5212348,14.2218733 65.8505348,12.9833733 C65.9493348,11.8613733 65.7696348,10.8534733 65.3292348,9.82137334 C64.6830348,9.03897334 63.6109348,8.68507334 62.6511348,8.47177334 L62.5229348,8.44337334 L62.3955348,8.41147334 C61.1462348,8.09927334 59.7398348,8.09907334 58.4905348,8.41137334 L58.0245348,8.52787334 L57.5495348,8.59917334 C55.1212348,8.96357334 53.3605348,10.2037733 51.8048348,12.0604733 L48.0211348,16.9571733 L42.1082348,25.3338733 C45.0684348,25.6614733 48.1900348,26.1991733 51.4602348,26.9590733 L51.4602348,26.9590733 Z" id="_57429800" fill="#F6F9D8"></path>
                <path d="M12.0437348,16.2300733 C13.5444348,17.5086733 16.1502348,19.0512733 17.6044348,19.9400733 L18.0299348,20.2001733 L18.4324348,20.4946733 C20.2246348,21.8059733 22.1740348,23.8160733 24.1850348,26.0692733 C26.0677348,25.7241733 28.0123348,25.4623733 30.0210348,25.2813733 L19.9107348,12.9597733 L19.6647348,12.5907733 C18.7937348,11.7174733 16.2437348,10.6768733 14.8823348,10.1795733 C13.4085348,9.83737334 11.6163348,10.0322733 10.1277348,10.3315733 C9.97443484,11.0563733 9.95923484,11.7631733 10.0817348,12.5583733 C10.4205348,13.7748733 11.2567348,15.1325733 12.0437348,16.2300733 L12.0437348,16.2300733 Z M49.1979348,26.4638733 C49.4026348,26.2380733 49.6090348,26.0133733 49.8168348,25.7894733 C51.3123348,24.1778733 52.8733348,22.6258733 54.5238348,21.1726733 L55.1278348,20.6408733 L55.7975348,20.1943733 C58.1358348,18.6355733 60.5804348,17.0411733 62.6634348,15.1477733 L62.7076348,15.1077733 C63.2145348,14.6515733 63.6290348,13.4869733 63.8704348,12.6352733 C63.9018348,12.0364733 63.8170348,11.4962733 63.6221348,10.9443733 C63.2377348,10.6679733 62.5317348,10.4940733 62.2173348,10.4241733 L62.0635348,10.3899733 L61.9106348,10.3518733 C60.9796348,10.1191733 59.9065348,10.1189733 58.9755348,10.3516733 L58.4163348,10.4914733 L57.8463348,10.5769733 C55.9270348,10.8649733 54.5903348,11.8572733 53.3629348,13.3150733 L49.6301348,18.1458733 L44.3552348,25.6186733 C45.9276348,25.8426733 47.5427348,26.1240733 49.1979348,26.4638733 L49.1979348,26.4638733 Z" id="_56989456" fill="#F8FFE0"></path>
                <path d="M13.5131348,14.8434733 C14.9664348,16.0320733 17.2471348,17.3776733 18.6474348,18.2335733 L19.1439348,18.5369733 L19.6135348,18.8805733 C22.1000348,20.6999733 24.4069348,23.1244733 26.6332348,25.6721733 C26.9682348,25.6246733 27.3049348,25.5796733 27.6437348,25.5370733 L18.3016348,14.1516733 L18.1586348,13.9372733 C17.3100348,13.2694733 15.4774348,12.5268733 14.3256348,12.1046733 C13.6408348,11.9635733 12.8245348,11.9760733 12.0317348,12.0585733 C12.0347348,12.0839733 12.0380348,12.1095733 12.0414348,12.1353733 C12.3040348,12.9850733 12.9271348,14.0041733 13.5131348,14.8434733 L13.5131348,14.8434733 Z M46.9062348,26.0259733 C47.3804348,25.4887733 47.8615348,24.9562733 48.3508348,24.4289733 C49.8921348,22.7681733 51.5012348,21.1692733 53.2021348,19.6716733 L53.9068348,19.0511733 L54.6881348,18.5302733 C56.9357348,17.0319733 59.3147348,15.4885733 61.3167348,13.6691733 C61.5153348,13.4042733 61.7099348,12.8766733 61.8579348,12.3935733 C61.8313348,12.3872733 61.8063348,12.3816733 61.7834348,12.3765733 L61.6040348,12.3366733 L61.4257348,12.2921733 C60.8130348,12.1390733 60.0732348,12.1387733 59.4606348,12.2919733 L58.8081348,12.4550733 L58.1431348,12.5548733 C56.7413348,12.7651733 55.8130348,13.5152733 54.9204348,14.5703733 L51.2391348,19.3345733 L46.5586348,25.9653733 L46.9062348,26.0259733 L46.9062348,26.0259733 Z" id="_40867696" fill="#F8FFE0"></path>
            </g>
            <g id="g5115" transform="translate(11.9611, 51.8177)">
                <path d="M52.0198242,21.5309 L53.4397242,20.3484 L53.4397242,17.7454 L49.8903242,14.1961 L52.4933242,5.2053 C43.0291242,1.8927 34.5112242,0.2361 27.1764242,0 C17.2386242,0 8.7207242,1.656 1.3859242,5.2053 L2.1485242,7.7013 L2.1599242,7.7372 L3.9883242,13.7232 L1.6227242,16.0895 C-0.270675802,17.9822 -0.506775802,19.6381 0.912424198,20.8213 L1.3859242,20.1117 C2.0955242,18.9285 4.4618242,17.9822 8.2472242,17.0358 C13.4532242,15.8527 19.8416242,15.3792 27.1764242,15.3792 C33.5648242,15.3792 39.2430242,15.8527 44.2122242,17.0358 C49.4175242,18.2189 52.0198242,19.6381 52.0198242,21.058 C52.0198242,21.2948 52.0198242,21.2948 52.0198242,21.5309 L52.0198242,21.5309 Z" id="_56348504" fill="#ECD8B0"></path>
                <g id="g5118" transform="translate(2.3639, -0)">
                    <path d="M48.7901,19.6492 L49.0758,19.4113 L49.0758,18.5738 L45.2712,14.7694 L48.2853,4.5771 C39.5564,1.6826 31.6677,0.2207 24.8125,0 C15.6792,0 7.7456,1.3992 0.8271,4.3809 L1.7088,7.153 L3.888,14.2877 L0.6729,17.5039 C0.5579,17.6188 0.2509,17.9546 -7.10542736e-15,18.2971 C0.2473,18.424 0.4535,18.5996 0.6192,18.8088 C1.818,18.1828 3.59,17.6092 5.8833,17.0358 C11.0893,15.8527 17.4777,15.3792 24.8125,15.3792 C31.2009,15.3792 36.8791,15.8527 41.8483,17.0358 C45.3208,17.8251 47.6342,18.7197 48.7901,19.6492 L48.7901,19.6492 Z" id="_41224888" fill="#EDDBB4"></path>
                    <path d="M45.8328,18.1593 L43.0161,15.3427 L46.3809,3.9643 C38.4064,1.4753 31.1657,0.2045 24.8125,7.10542736e-15 C16.4867,7.10542736e-15 9.158,1.1629 2.6861,3.6272 L3.6148,6.5467 L6.1517,14.8523 L3.2282,17.7767 C4.0151,17.5271 4.9012,17.2813 5.8833,17.0358 C11.0893,15.8527 17.4777,15.3792 24.8125,15.3792 C31.2009,15.3792 36.8791,15.8527 41.8483,17.0358 C43.4114,17.3911 44.7391,17.7678 45.8328,18.1593 L45.8328,18.1593 Z" id="_41773696" fill="#EEDFB8"></path>
                    <path d="M41.8905,17.0455 L40.7609,15.916 L44.4664,3.3856 C37.2445,1.277 30.6534,0.188 24.8125,1.42108547e-14 C17.2847,1.42108547e-14 10.5721,0.9508 4.5709,2.9543 L5.5242,5.9514 L8.4153,15.4168 L7.0446,16.7879 C12.029,15.7864 18.0141,15.3792 24.8125,15.3792 C31.2009,15.3792 36.8791,15.8527 41.8483,17.0358 L41.8905,17.0455 L41.8905,17.0455 Z" id="_58601048" fill="#EFE2BC"></path>
                    <path d="M38.5415,16.3686 L42.5411,2.8438 C36.0699,1.0896 30.1302,0.1712 24.8125,1.42108547e-14 C18.0732,1.42108547e-14 11.9875,0.7622 6.4803,2.3593 L7.4336,5.3562 L10.679,15.9813 L10.4445,16.2159 C14.6768,15.6284 19.4959,15.3792 24.8125,15.3792 C29.826,15.3792 34.4022,15.6712 38.5415,16.3686 L38.5415,16.3686 Z" id="_57122144" fill="#F0E5C0"></path>
                    <path d="M36.5448,16.0677 L40.6045,2.3396 C34.8813,0.9124 29.5953,0.154 24.8125,7.10542736e-15 C18.8523,7.10542736e-15 13.4033,0.5963 8.4135,1.8388 L9.343,4.7609 L12.7558,15.9342 C16.4053,15.5477 20.4406,15.3792 24.8125,15.3792 C29.033,15.3792 32.9439,15.5863 36.5448,16.0677 L36.5448,16.0677 Z" id="_41263928" fill="#F1E8C4"></path>
                    <path d="M34.5296,15.8298 L38.6561,1.8756 C33.6774,0.7467 29.0478,0.1363 24.8125,7.10542736e-15 C19.6219,7.10542736e-15 14.819,0.4524 10.3694,1.3897 L11.2524,4.1656 L14.789,15.7443 C17.8872,15.492 21.2373,15.3792 24.8125,15.3792 C28.258,15.3792 31.4971,15.5173 34.5296,15.8298 L34.5296,15.8298 Z" id="_57335856" fill="#F2ECC8"></path>
                    <path d="M32.4975,15.6485 L36.6952,1.4537 C32.4573,0.593 28.4865,0.1183 24.8125,1.42108547e-14 C20.3819,1.42108547e-14 16.2341,0.3297 12.347,1.009 L13.1618,3.5704 L16.8361,15.5999 C19.3482,15.4486 22.0111,15.3792 24.8125,15.3792 C27.4997,15.3792 30.0615,15.4634 32.4975,15.6485 L32.4975,15.6485 Z" id="_41237456" fill="#F3EFCC"></path>
                    <path d="M30.4506,15.5179 L34.7209,1.0774 C31.2189,0.4532 27.9103,0.0997 24.8125,1.42108547e-14 C21.1327,1.42108547e-14 17.648,0.2276 14.3455,0.6937 L15.0712,2.9751 L18.8954,15.4953 C20.7907,15.4163 22.7646,15.3792 24.8125,15.3792 C26.7576,15.3792 28.6371,15.4234 30.4506,15.5179 Z" id="_40857680" fill="#F4F2D0"></path>
                    <path d="M28.3901,15.4327 L32.7324,0.7489 C29.9607,0.3275 27.3177,0.0806 24.8125,1.42108547e-14 C21.874,1.42108547e-14 19.0602,0.1451 16.3638,0.4408 L16.9806,2.3798 L20.9656,15.4264 C22.2168,15.3947 23.4993,15.3792 24.8125,15.3792 C26.0308,15.3792 27.2234,15.3966 28.3901,15.4327 L28.3901,15.4327 Z" id="_57679856" fill="#F5F5D4"></path>
                    <path d="M26.3177,15.3885 L30.7288,0.4718 C28.6805,0.2172 26.707,0.061 24.8125,7.10542736e-15 C22.6061,7.10542736e-15 20.4702,0.082 18.4012,0.2479 L18.89,1.7846 L23.0454,15.3889 C23.6283,15.3825 24.2171,15.3792 24.8125,15.3792 C25.3186,15.3792 25.8205,15.3825 26.3177,15.3885 Z" id="_40857184" fill="#F6F9D8"></path>
                    <path d="M28.7087,0.2501 C27.3756,0.1239 26.0766,0.0407 24.8125,7.10542736e-15 C23.329,7.10542736e-15 21.8777,0.0374 20.4567,0.112 L20.7994,1.1893 L24.6769,13.884 L28.7087,0.2501 L28.7087,0.2501 Z" id="_40857752" fill="#F7FCDC"></path>
                    <path d="M24.6459,6.9361 L26.6706,0.0892 C26.043,0.0496 25.4237,0.0197 24.8125,1.42108547e-14 C24.0429,1.42108547e-14 23.2821,0.0102 22.5294,0.0302 L22.7088,0.5941 L24.6459,6.9361 L24.6459,6.9361 Z" id="_41545344" fill="#F8FFE0"></path>
                </g>
            </g>
            <path d="M41.9766293,37.8578 C44.3428293,34.3084 46.2355293,30.523 46.7090293,26.7369 C47.4186293,22.7147 46.7090293,20.3484 44.5796293,19.1653 C42.6862293,17.7461 40.7935293,17.2726 38.9007293,17.2726" id="_57488504" stroke="#1F1A17" stroke-width="1.4111" stroke-linecap="round" stroke-linejoin="round"></path>
            <path d="M41.9766293,37.8578 C44.3428293,34.3084 46.2355293,30.523 46.7090293,26.7369 C47.4186293,22.7147 46.7090293,20.3484 44.5796293,19.1653 C42.6862293,17.7461 40.7935293,17.2726 38.9007293,17.2726 C36.2977293,17.2726 34.4050293,17.9829 32.9852293,19.6388 C31.0924293,21.5316 30.3828293,23.4243 30.6196293,25.3177 C30.6196293,27.92 33.4587293,33.5988 39.1375293,41.8799 L41.9766293,37.8578 L41.9766293,37.8578 Z" id="_57488264" stroke="#1F1A17" stroke-width="1.4111"></path>
            <path d="M76.0482293,31.7061 C74.1555293,28.6303 71.0796293,26.5001 66.8207293,25.5538 C63.9809293,24.8441 60.9051293,24.8441 58.0660293,25.5538 C53.3335293,26.264 49.3114293,28.6303 45.9988293,32.6524 L41.9766293,37.8578 L39.1375293,41.8799 L39.1375293,51.8177 C46.4723293,52.0538 54.9902293,53.7104 64.4544293,57.023 C67.2935293,55.1303 70.1333293,53.2369 72.7356293,50.8714 C75.1018293,48.7419 76.7578293,45.6654 77.7041293,41.6432 C78.1776293,38.3306 77.7041293,35.018 76.0482293,31.7061 L76.0482293,31.7061 Z" id="_57488024" stroke="#1F1A17" stroke-width="1.4111"></path>
            <path d="M39.1375293,51.8177 L39.1375293,41.8799 L31.5660293,32.6524 C29.6732293,29.8127 25.8871293,27.4471 20.4451293,25.5538 C17.1325293,24.6074 13.3470293,24.6074 9.08812931,25.5538 C5.30202931,26.5001 2.69972931,28.6303 1.27982931,31.7061 C0.0967293109,34.7819 -0.376170689,38.0945 0.333429311,41.8799 C1.04302931,44.9558 2.69972931,48.0316 5.06592931,51.1075 C6.48512931,52.5273 9.08812931,54.42 13.3470293,57.023 C20.6818293,53.4737 29.1997293,51.8177 39.1375293,51.8177 Z" id="_57487784" stroke="#1F1A17" stroke-width="1.4111"></path>
            <path d="M39.1375293,78.5545 C45.9988293,78.5545 51.6776293,78.081 56.1733293,76.8979 C60.9051293,75.9515 63.5081293,74.7684 63.9809293,73.3486 C63.9809293,73.1125 63.9809293,73.1125 63.9809293,72.8757 C63.9809293,71.4558 61.3786293,70.0366 56.1733293,68.8535 C51.2041293,67.6704 45.5259293,67.1969 39.1375293,67.1969 C31.8027293,67.1969 25.4143293,67.6704 20.2083293,68.8535 C16.4229293,69.7999 14.0566293,70.7462 13.3470293,71.9294 L12.8735293,72.8757 C13.1103293,74.5317 15.7133293,75.9515 20.2083293,76.8979 C24.9408293,78.081 31.3292293,78.5545 39.1375293,78.5545 Z" id="_57487544" stroke="#1F1A17" stroke-width="1.4111" fill="#D0C098"></path>
            <path d="M63.9809293,72.8757 C63.9809293,73.1125 63.9809293,73.1125 63.9809293,73.3486 L65.4008293,72.1661 L65.4008293,69.5631 L61.8514293,66.0138 L64.4544293,57.023 C54.9902293,53.7104 46.4723293,52.0538 39.1375293,51.8177 C29.1997293,51.8177 20.6818293,53.4737 13.3470293,57.023 L15.9494293,65.5409 L13.5838293,67.9072 C11.6904293,69.7999 11.4543293,71.4558 12.8735293,72.639 L13.3470293,71.9294 C14.0566293,70.7462 16.4229293,69.7999 20.2083293,68.8535 C25.4143293,67.6704 31.8027293,67.1969 39.1375293,67.1969 C45.5259293,67.1969 51.2041293,67.6704 56.1733293,68.8535 C61.3786293,70.0366 63.9809293,71.4558 63.9809293,72.8757 L63.9809293,72.8757 Z" id="_41228632" stroke="#1F1A17" stroke-width="1.4111"></path>
            <line x1="38.9007293" y1="7.3355" x2="38.9007293" y2="-3.55271368e-15" id="_57150984" stroke="#1F1A17" stroke-width="1.4111" stroke-linecap="round" stroke-linejoin="round"></line>
            <line x1="30.8557293" y1="7.3355" x2="38.9007293" y2="7.3355" id="_56883984" stroke="#1F1A17" stroke-width="1.4111" stroke-linecap="round" stroke-linejoin="round"></line>
            <line x1="38.9007293" y1="7.3355" x2="38.9007293" y2="17.2726" id="_56990496" stroke="#1F1A17" stroke-width="1.4111" stroke-linecap="round" stroke-linejoin="round"></line>
            <line x1="46.2355293" y1="7.3355" x2="38.9007293" y2="7.3355" id="_41210056" stroke="#1F1A17" stroke-width="1.4111" stroke-linecap="round" stroke-linejoin="round"></line>
        </g>
    </g>
</svg>