<?xml version="1.0" encoding="UTF-8"?>
<svg width="100px" height="100px" viewBox="0 0 100 100" version="1.1" xmlns="http://www.w3.org/2000/svg" xmlns:xlink="http://www.w3.org/1999/xlink">
    <title>画板</title>
    <g id="画板" stroke="none" stroke-width="1" fill="none" fill-rule="evenodd">
        <g id="wr" transform="translate(15.6021, 14.0825)">
            <path d="M7.8076,68.3793 L0,68.3793 L0,75.0038 L66.7233,75.0038 L66.7233,68.3793 L59.1518,68.3793 L57.1576,68.3793 L59.1518,67.669 L59.1531,67.6224 L59.1532,67.6178 L59.1532,67.6148 L59.1534,67.6099 L59.1535,67.6088 L59.1535,67.6058 L59.1535,67.6028 L59.1537,67.5976 L59.1538,67.5968 L59.1538,67.5938 L59.154,67.5853 L59.1541,67.5848 L59.1541,67.5818 L59.1542,67.5788 L59.1543,67.5742 L59.1545,67.5695 L59.1545,67.5665 L59.1547,67.5617 L59.1548,67.5605 L59.1548,67.5575 L59.1548,67.5545 L59.155,67.5493 L59.1551,67.5485 L59.1551,67.5455 L59.1551,67.5425 L59.1553,67.537 L59.1554,67.5365 L59.1554,67.5335 L59.1557,67.5245 L59.1557,67.5243 L59.1557,67.5213 L59.156,67.5123 L59.156,67.5093 L59.157,67.4762 L59.157,67.476 L59.157,67.4741 C59.1798,66.6017 59.1592,65.758 59.0958,64.9432 L59.0951,64.9335 C59.0873,64.8336 59.0787,64.7342 59.0696,64.6351 L59.0694,64.6324 C59.0603,64.5346 59.0507,64.4375 59.0405,64.3406 L59.0385,64.3219 C59.0177,64.1273 58.9945,63.934 58.9687,63.7427 L58.9665,63.7266 C58.9406,63.5364 58.9123,63.348 58.8815,63.1612 L58.8774,63.1365 C58.8465,62.951 58.8133,62.7671 58.7776,62.5851 L58.7724,62.5593 C58.7559,62.4756 58.7388,62.3923 58.7212,62.3093 L58.7125,62.269 C58.6953,62.1888 58.6777,62.1089 58.6595,62.0293 L58.6502,61.9888 C58.6098,61.8134 58.567,61.6398 58.5219,61.4677 L58.5153,61.4431 C58.4935,61.361 58.4713,61.2792 58.4486,61.1977 L58.441,61.1706 C58.4179,61.0885 58.3942,61.0068 58.3701,60.9255 L58.3635,60.9032 C58.3386,60.8201 58.3134,60.7376 58.2874,60.6553 L58.2829,60.6412 C58.2575,60.5606 58.2315,60.4804 58.2049,60.4006 L58.1912,60.3601 C58.1652,60.2826 58.1387,60.2056 58.1116,60.1288 L58.1077,60.1179 C58.0782,60.0345 58.0482,59.9513 58.0174,59.8687 L58.0143,59.8605 C57.9838,59.7785 57.9526,59.697 57.9209,59.6159 L57.9139,59.5981 C57.8841,59.522 57.8538,59.4462 57.8229,59.3708 L57.8047,59.327 C57.7749,59.255 57.7447,59.1833 57.7139,59.112 L57.706,59.0939 C57.6736,59.0189 57.6408,58.9443 57.6073,58.8701 L57.59,58.8321 C57.5578,58.7612 57.5252,58.6906 57.492,58.6204 L57.4809,58.5972 C57.447,58.5256 57.4126,58.4543 57.3776,58.3835 L57.3552,58.3387 C57.322,58.272 57.2883,58.2055 57.2542,58.1394 L57.2389,58.1101 C57.2033,58.0415 57.1672,57.9731 57.1306,57.9052 L57.1092,57.8659 C57.0731,57.7992 57.0365,57.7328 56.9994,57.6668 L56.9854,57.6421 C56.9474,57.5749 56.9091,57.5079 56.8702,57.4413 L56.8404,57.391 C56.804,57.3294 56.7673,57.2681 56.7301,57.2071 L56.7122,57.1781 C56.6728,57.1137 56.633,57.0496 56.5926,56.9858 L56.5626,56.9391 C56.5229,56.877 56.483,56.8151 56.4425,56.7537 L56.4345,56.7417 C56.3896,56.6738 56.3443,56.606 56.2982,56.5388 L56.2675,56.4946 C56.2272,56.4363 56.1865,56.3782 56.1454,56.3204 L56.1179,56.2822 C56.0759,56.2237 56.0338,56.1653 55.991,56.1073 L55.953,56.0565 C55.9122,56.0017 55.8711,55.947 55.8295,55.8927 L55.7973,55.8512 C55.7546,55.7958 55.7117,55.7406 55.6682,55.6858 L55.6198,55.6258 C55.5796,55.5758 55.5392,55.5258 55.4984,55.4762 L55.4555,55.4249 C55.4141,55.375 55.3725,55.3252 55.3304,55.2759 L55.2651,55.2005 C55.2281,55.1578 55.1912,55.1152 55.1538,55.0728 L55.0926,55.0044 C55.0542,54.9615 55.0159,54.9185 54.977,54.876 C54.9466,54.8428 54.9156,54.8099 54.8848,54.777 L54.7957,54.6816 C54.7647,54.6489 54.7332,54.6166 54.7019,54.5842 C54.67,54.5512 54.6383,54.518 54.6061,54.4852 L54.5178,54.3966 C54.4834,54.3621 54.4492,54.3276 54.4145,54.2934 L54.3306,54.212 C54.2938,54.1762 54.257,54.1402 54.2197,54.1047 L54.1374,54.0278 C54.0971,53.99 54.0568,53.9522 54.016,53.9147 L53.969,53.8721 C53.9179,53.8255 53.8668,53.7789 53.8149,53.7329 L53.7476,53.674 C53.7017,53.6336 53.6559,53.5933 53.6094,53.5534 C53.5781,53.5265 53.5463,53.5 53.5148,53.4733 C53.4776,53.4418 53.4406,53.41 53.403,53.3788 C53.3645,53.3468 53.3254,53.3153 53.2865,53.2836 C53.2528,53.2561 53.2194,53.2285 53.1855,53.2013 L53.1072,53.1393 C53.0603,53.102 53.0134,53.0647 52.9659,53.0278 L52.8985,52.9762 C52.8476,52.9371 52.7967,52.8979 52.7452,52.8592 L52.7419,52.8567 C52.6704,52.803 52.5982,52.7495 52.5255,52.6966 L52.5249,52.6962 C52.4611,52.6497 52.3966,52.6039 52.3319,52.5582 L52.2948,52.5317 L52.2883,52.5271 C52.2129,52.4741 52.137,52.4215 52.0604,52.3694 L52.056,52.3664 C51.9786,52.3138 51.9007,52.2616 51.8221,52.2099 L51.8199,52.2084 C51.7406,52.1562 51.6607,52.1044 51.5802,52.0531 L51.5802,21.7669 L51.5802,21.5308 L61.0445,15.1424 L61.0445,0.2361 L49.9243,0.2361 L49.9243,6.8606 L38.8034,6.8606 L38.8034,0.2361 L27.6831,0.2361 L27.6831,6.8606 L17.2719,6.8606 L17.2719,0.2361 L5.9149,0.2361 L5.9149,14.9057 L15.6159,21.7669 L15.6159,51.9531 L15.6159,52.0531 C10.1738,55.3657 7.5715,60.8077 7.8076,68.3793 L7.8076,68.3793 Z" id="path5410" fill="#ECD8B0"></path>
            <g id="_59395768" transform="translate(2.1326, 0.2173)">
                <path d="M-3.55271368e-15,70.29455 L-3.55271368e-15,74.78645 L62.4581,74.78645 L62.4581,70.29455 L54.8866,70.29455 L54.8866,67.41535 L54.8879,67.37905 C54.8899,67.32015 54.891,67.26135 54.8925,67.20265 C55.0416,61.51015 53.1932,56.74715 48.3026,53.63495 L47.315,53.00645 L47.315,20.17995 L56.7793,13.79155 L56.7793,0.01875 L47.7917,0.01875 L47.7917,6.64325 L36.6708,6.64325 L36.6708,0.01875 L25.5505,0.01875 L25.5505,6.64325 L15.1393,6.64325 L15.1393,0.01875 L5.9149,0.01875 L5.9149,13.58455 L15.6159,20.44575 L15.6159,53.03425 L14.5921,53.65735 C9.3091,56.87315 7.6199,62.10855 7.8065,68.09545 L7.8751,70.29455 L-3.55271368e-15,70.29455 Z" id="_57897464" fill="#EDDBB4"></path>
                <path d="M2.1236,72.41815 L2.1236,74.78645 L60.3345,74.78645 L60.3345,72.41815 L52.763,72.41815 L52.763,67.37915 L52.7655,67.30675 C52.7673,67.25325 52.7683,67.19995 52.7697,67.14695 C52.8993,62.19725 51.4239,58.13835 47.1625,55.42645 L45.1914,54.17215 L45.1914,19.05135 L54.6557,12.66295 L54.6557,0.01875 L47.7917,0.01875 L47.7917,6.64325 L36.6708,6.64325 L36.6708,0.01875 L25.5505,0.01875 L25.5505,6.64325 L15.1393,6.64325 L15.1393,0.01875 L8.0385,0.01875 L8.0385,12.48545 L17.7395,19.34665 L17.7395,54.22765 L15.6963,55.47135 C11.0864,58.27745 9.7669,62.82645 9.9291,68.02925 L10.066,72.41815 L2.1236,72.41815 Z" id="_59394816" fill="#EEDFB8"></path>
                <path d="M4.2382,74.53275 L4.2382,74.78645 L58.2199,74.78645 L58.2199,74.53275 L50.6484,74.53275 L50.6484,67.34315 L50.6521,67.23485 C50.6537,67.18665 50.6545,67.13885 50.6558,67.09145 C50.7658,62.89065 49.6529,59.51785 46.0272,57.21055 L43.0768,55.33295 L43.0768,17.92735 L52.5411,11.53895 L52.5411,0.01875 L47.7917,0.01875 L47.7917,6.64325 L36.6708,6.64325 L36.6708,0.01875 L25.5505,0.01875 L25.5505,6.64325 L15.1393,6.64325 L15.1393,0.01875 L10.1531,0.01875 L10.1531,11.39095 L19.8541,18.25215 L19.8541,55.41605 L16.7958,57.27765 C12.8557,59.67605 11.9048,63.53875 12.0427,67.96335 L12.2476,74.53275 L4.2382,74.53275 L4.2382,74.53275 Z" id="_57955136" fill="#EFE2BC"></path>
                <path d="M48.5426,74.78645 L48.5426,67.30735 L48.5474,67.16425 C48.5488,67.12065 48.5496,67.07865 48.5507,67.03625 C48.6408,63.59505 47.8758,60.88305 44.8966,58.98705 L40.971,56.48885 L40.971,16.80815 L50.4353,10.41975 L50.4353,0.01875 L47.7917,0.01875 L47.7917,6.64325 L36.6708,6.64325 L36.6708,0.01875 L25.5505,0.01875 L25.5505,6.64325 L15.1393,6.64325 L15.1393,0.01875 L12.2589,0.01875 L12.2589,10.30105 L21.9599,17.16225 L21.9599,56.59955 L17.8907,59.07645 C14.6391,61.05575 14.0344,64.27105 14.1475,67.89775 L14.3623,74.78645 L48.5426,74.78645 L48.5426,74.78645 Z" id="_41552208" fill="#F0E5C0"></path>
                <path d="M46.4455,74.78645 L46.4455,67.27165 L46.4514,67.09895 C46.4525,67.05905 46.4534,67.01975 46.4544,66.98115 C46.5244,64.30855 46.0924,62.23375 43.7707,60.75625 L38.8739,57.64005 L38.8739,15.69365 L48.3382,9.30525 L48.3382,0.01875 L47.7917,0.01875 L47.7917,6.64325 L36.6708,6.64325 L36.6708,0.01875 L25.5505,0.01875 L25.5505,6.64325 L15.1393,6.64325 L15.1393,0.01875 L14.356,0.01875 L14.356,9.21575 L24.057,16.07695 L24.057,57.77805 L18.9811,60.86775 C16.4415,62.41355 16.1562,65.03065 16.2435,67.83235 L16.4604,74.78645 L46.4455,74.78645 L46.4455,74.78645 Z" id="_57897344" fill="#F1E8C4"></path>
                <path d="M44.3572,74.78645 L44.3572,67.23615 L44.364,67.03525 C44.3667,66.93965 44.3626,67.08255 44.3668,66.92635 C44.4161,65.04295 44.29,63.56205 42.6495,62.51805 L36.7856,58.78635 L36.7856,14.58365 L46.2499,8.19525 L46.2499,6.64325 L36.6708,6.64325 L36.6708,0.01875 L25.5505,0.01875 L25.5505,6.64325 L16.4443,6.64325 L16.4443,8.13485 L26.1453,14.99605 L26.1453,58.95165 L20.0669,62.65155 C18.2768,63.74125 18.2708,65.84055 18.3308,67.76735 L18.5497,74.78645 L44.3572,74.78645 L44.3572,74.78645 Z" id="_58082520" fill="#F2ECC8"></path>
                <path d="M42.2775,74.78645 L42.2775,67.20075 L42.2853,66.97315 C42.2873,66.89795 42.2842,67.00745 42.2878,66.87175 C42.3147,65.84485 42.4406,64.85025 41.533,64.27265 L34.7059,59.92805 L34.7059,13.47835 L44.1702,7.08995 L44.1702,6.64325 L36.6708,6.64325 L36.6708,0.01875 L25.5505,0.01875 L25.5505,6.64325 L18.524,6.64325 L18.524,7.05845 L28.225,13.91965 L28.225,60.12045 L21.1482,64.42805 C20.2178,64.99435 20.3804,66.76745 20.4095,67.70245 L20.6304,74.78645 L42.2775,74.78645 Z" id="_59394888" fill="#F3EFCC"></path>
                <path d="M40.2064,74.78645 L40.2064,67.16545 L40.215,66.91285 C40.2158,66.88035 40.2166,66.84855 40.2174,66.81745 C40.2235,66.58525 40.2255,66.19855 40.1913,65.87375 L32.6348,61.06495 L32.6348,12.37755 L41.1301,6.64325 L36.6708,6.64325 L36.6708,0.01875 L25.5505,0.01875 L25.5505,6.64325 L21.5236,6.64325 L30.2961,12.84775 L30.2961,61.28435 L22.5463,66.00175 C22.465,66.53095 22.4678,67.25675 22.4796,67.63795 L22.7025,74.78645 L40.2064,74.78645 L40.2064,74.78645 Z" id="_58082832" fill="#F4F2D0"></path>
                <path d="M38.1437,74.78645 L38.1437,67.13035 L38.1476,67.01805 L31.6435,62.87895 L24.5343,67.20635 C24.5349,67.34185 24.538,67.46835 24.5413,67.57365 L24.7662,74.78645 L38.1437,74.78645 L38.1437,74.78645 Z M31.1254,10.90785 L37.4432,6.64325 L36.6708,6.64325 L36.6708,0.01875 L25.5505,0.01875 L25.5505,6.64325 L25.0958,6.64325 L31.1254,10.90785 Z" id="_59394672" fill="#F5F5D4"></path>
                <path d="M36.0895,74.78645 L36.0895,68.14325 L31.6193,65.29855 L26.6204,68.34135 L26.8214,74.78645 L36.0895,74.78645 L36.0895,74.78645 Z M31.1526,8.41105 L36.6708,4.68625 L36.6708,0.01875 L25.5505,0.01875 L25.5505,4.44885 L31.1526,8.41105 L31.1526,8.41105 Z" id="_59394720" fill="#F5F5D4"></path>
                <path d="M34.0437,74.78645 L34.0437,69.26635 L31.5953,67.70825 L28.7025,69.46905 L28.8683,74.78645 L34.0437,74.78645 L34.0437,74.78645 Z M31.1798,5.92435 L35.9364,2.71375 L35.9364,0.01875 L26.7578,0.01875 L26.7578,2.79685 L31.1798,5.92435 Z" id="_57897888" fill="#F6F9D8"></path>
                <path d="M32.0061,74.78645 L32.0061,70.38485 L31.5714,70.10815 L30.7761,70.59225 L30.9069,74.78645 L32.0061,74.78645 L32.0061,74.78645 Z M31.2068,3.44785 L33.8988,1.63075 L33.8988,0.01875 L28.7954,0.01875 L28.7954,1.74235 L31.2068,3.44785 Z" id="_58080944" fill="#F7FCDC"></path>
                <polygon id="_57897392" fill="#F8FFE0" points="31.2338 0.98125 31.8694 0.55215 31.8694 0.01875 30.8248 0.01875 30.8248 0.69195"></polygon>
            </g>
            <g id="_55544352" transform="translate(0.4728, 0)" stroke="#1F1A17" stroke-width="1.4111">
                <polygon id="_57897912" stroke-linecap="round" stroke-linejoin="round" points="7.8076 68.1432 -3.55271368e-15 68.1432 -3.55271368e-15 74.7677 66.7233 74.7677 66.7233 68.1432 59.1518 68.1432"></polygon>
                <path d="M59.1518,67.4329 C59.3885,60.3349 56.7855,55.1296 51.5802,51.817" id="_57897320" stroke-linecap="round" stroke-linejoin="round"></path>
                <polyline id="_58080840" stroke-linecap="round" stroke-linejoin="round" points="51.5802 51.817 51.5802 21.5308 51.5802 21.2947"></polyline>
                <polyline id="_58080768" stroke-linecap="round" stroke-linejoin="round" points="51.5802 21.2947 61.0445 14.9063 61.0445 -3.55271368e-15 49.9243 -3.55271368e-15 49.9243 6.6245 38.8034 6.6245 38.8034 -3.55271368e-15 27.6831 -3.55271368e-15 27.6831 6.6245 17.2719 6.6245 17.2719 -3.55271368e-15 5.9149 -3.55271368e-15 5.9149 14.6696 15.6159 21.5308"></polyline>
                <polygon id="_59395792" points="51.5802 21.2947 51.1074 21.5308 51.5802 21.5308"></polygon>
                <polyline id="_58082472" stroke-linecap="round" stroke-linejoin="round" points="15.6159 21.5308 51.1074 21.5308 51.5802 21.2947"></polyline>
                <path d="M15.6159,51.817 C10.1738,55.1296 7.5715,60.5716 7.8076,68.1432" id="_58083032" stroke-linecap="round" stroke-linejoin="round"></path>
                <line x1="15.6159" y1="51.817" x2="51.5802" y2="51.817" id="_58081720" stroke-linecap="round" stroke-linejoin="round"></line>
                <line x1="15.6159" y1="21.5308" x2="15.6159" y2="51.817" id="_57897416" stroke-linecap="round" stroke-linejoin="round"></line>
            </g>
        </g>
    </g>
</svg>