<?xml version="1.0" encoding="utf-8"?>
<!-- Generator: Adobe Illustrator 15.0.2, SVG Export Plug-In . SVG Version: 6.00 Build 0)  -->
<!DOCTYPE svg PUBLIC "-//W3C//DTD SVG 1.1 Basic//EN" "http://www.w3.org/Graphics/SVG/1.1/DTD/svg11-basic.dtd">
<svg version="1.1" baseProfile="basic"
	 id="svg2" image-rendering="optimizeQuality" shape-rendering="geometricPrecision" text-rendering="geometricPrecision" xmlns:cc="http://web.resource.org/cc/" xmlns:rdf="http://www.w3.org/1999/02/22-rdf-syntax-ns#" xmlns:svg="http://www.w3.org/2000/svg" xmlns:sodipodi="http://sodipodi.sourceforge.net/DTD/sodipodi-0.dtd" xmlns:dc="http://purl.org/dc/elements/1.1/" xmlns:inkscape="http://www.inkscape.org/namespaces/inkscape" sodipodi:modified="true" sodipodi:docbase="/home/fkling/2/v0.1.2reduced/PieceThemes/Merida" sodipodi:docname="wr.svg" inkscape:version="0.45" sodipodi:version="0.32" inkscape:output_extension="org.inkscape.output.svg.inkscape"
	 xmlns="http://www.w3.org/2000/svg" xmlns:xlink="http://www.w3.org/1999/xlink" x="0px" y="0px" width="141.732px"
	 height="141.732px" viewBox="0 0 141.732 141.732" xml:space="preserve">
<g id="Layer_x0020_1">
	<polygon id="polygon6" fill="#1F1A17" points="80.526,26.135 92.478,26.135 92.478,16.512 111.75,16.512 111.75,42.864 
		96.149,54.888 96.149,88.512 108.103,100.464 108.103,114.864 118.854,114.864 118.854,131.663 22.878,131.663 22.878,114.864 
		33.63,114.864 33.63,100.464 45.654,88.512 45.654,54.888 30.054,42.864 30.054,16.512 49.254,16.512 49.254,26.135 61.278,26.135 
		61.278,16.512 80.526,16.512 	"/>
	
		<linearGradient id="path8_1_" gradientUnits="userSpaceOnUse" x1="-133.4897" y1="317.8799" x2="-77.2253" y2="317.8799" gradientTransform="matrix(2.8346 0 0 -2.8346 438.9902 975.1642)">
		<stop  offset="0" style="stop-color:#FFFFFF"/>
		<stop  offset="1" style="stop-color:#FFFFFF;stop-opacity:0"/>
	</linearGradient>
	<path id="path8" fill="url(#path8_1_)" d="M93.751,50.111l8.928-7.248H39.126l9,7.248H93.751z M114.149,119.64H27.654v7.248h86.495
		V119.64z M103.255,105.312H38.55v9.553h64.705V105.312z M91.302,54.888h-40.8v33.624h40.8V54.888z M106.902,38.087v-16.8h-9.624
		v9.624H75.606v-9.624h-9.48v9.624h-21.6v-9.624h-9.624v16.8H106.902z M101.478,100.464l-7.223-7.176H47.622l-7.368,7.176H101.478z"
		/>
</g>
</svg>
