<?xml version="1.0" encoding="utf-8"?>
<!-- Generator: Adobe Illustrator 15.0.2, SVG Export Plug-In . SVG Version: 6.00 Build 0)  -->
<!DOCTYPE svg PUBLIC "-//W3C//DTD SVG 1.1 Basic//EN" "http://www.w3.org/Graphics/SVG/1.1/DTD/svg11-basic.dtd">
<svg version="1.1" baseProfile="basic"
	 id="svg2" image-rendering="optimizeQuality" shape-rendering="geometricPrecision" text-rendering="geometricPrecision" xmlns:cc="http://web.resource.org/cc/" xmlns:rdf="http://www.w3.org/1999/02/22-rdf-syntax-ns#" xmlns:svg="http://www.w3.org/2000/svg" xmlns:sodipodi="http://sodipodi.sourceforge.net/DTD/sodipodi-0.dtd" xmlns:dc="http://purl.org/dc/elements/1.1/" xmlns:inkscape="http://www.inkscape.org/namespaces/inkscape" sodipodi:modified="true" sodipodi:docbase="/home/fkling/2/v0.1.2reduced/PieceThemes/Merida" sodipodi:docname="bn.svg" inkscape:version="0.45" sodipodi:version="0.32" inkscape:output_extension="org.inkscape.output.svg.inkscape"
	 xmlns="http://www.w3.org/2000/svg" xmlns:xlink="http://www.w3.org/1999/xlink" x="0px" y="0px" width="141.732px"
	 height="141.732px" viewBox="0 0 141.732 141.732" xml:space="preserve">
<g id="Layer_x0020_1">
	<path id="path6" fill="#1F1A17" d="M74.206,26.632c7.367,0.48,14.184,2.376,20.471,5.712c6.265,3.312,11.617,7.584,16.033,12.792
		c3.096,3.648,6,8.064,8.735,13.224c2.761,5.136,4.944,10.608,6.576,16.367c1.872,6.721,3.071,13.752,3.552,21.145
		c0.504,7.368,0.744,14.208,0.744,20.496v15.313c0,0-3.648,0-10.943,0c-7.272,0-16.729,0-28.369,0h-47.16
		c-0.432,0-0.624-1.152-0.6-3.433c0.024-2.304,0.168-4.151,0.456-5.567c0.168-1.129,0.624-2.713,1.32-4.776
		c0.72-2.063,1.872-4.56,3.528-7.513c0.744-1.512,2.52-3.695,5.328-6.576c2.832-2.879,6.048-6.239,9.72-10.031
		c2.112-2.16,3.744-4.872,4.944-8.16c1.2-3.264,1.704-6.24,1.512-8.928c-1.728,1.416-3.624,2.568-5.688,3.456
		c-9.936,3.552-17.136,8.712-21.576,15.456c-0.336,0.432-1.392,2.328-3.168,5.712c-0.936,1.776-1.752,2.999-2.4,3.647
		c-0.888,0.889-2.184,1.393-3.864,1.488c-2.616,0.12-4.656-1.128-6.12-3.816c-1.968,0.576-3.72,0.816-5.28,0.721
		c-2.616-0.984-4.512-2.04-5.688-3.168c-2.4-2.4-3.936-4.776-4.68-7.176c-0.72-2.4-1.08-4.969-1.08-7.729
		c0-3.936,2.424-9.145,7.32-15.624c5.712-7.44,8.76-13.128,9.12-17.016c0-1.68,0.167-3.576,0.504-5.688
		c0.288-1.464,0.864-2.856,1.752-4.224c0.624-0.936,1.032-1.584,1.224-1.92c0.216-0.36,0.6-0.888,1.176-1.584
		c0.408-0.576,0.768-1.008,1.056-1.296c0.265-0.312,0.625-0.72,1.057-1.248c0.504-0.6,1.152-1.296,1.968-2.112
		c-2.496-6.84-3.504-13.896-3.024-21.144c9.313,3.312,17.16,8.544,23.472,15.672c1.56-5.304,4.608-9.6,9.144-12.864
		C69.021,18.856,71.997,22.336,74.206,26.632L74.206,26.632z"/>
	
		<linearGradient id="path8_1_" gradientUnits="userSpaceOnUse" x1="-133.6338" y1="316.0742" x2="-77.2456" y2="316.1971" gradientTransform="matrix(2.8346 0 0 -2.8346 438.9902 975.1642)">
		<stop  offset="0" style="stop-color:#FFFFFF"/>
		<stop  offset="1" style="stop-color:#FFFFFF;stop-opacity:0"/>
	</linearGradient>
	<path id="path8" sodipodi:nodetypes="cccccccccccccccsccccccccscccccccccccccccccccccccccccccccccc" fill="url(#path8_1_)" d="
		M44.469,50.416c1.032-0.528,1.536-0.792,1.536-0.792c1.416-0.552,1.848-1.584,1.344-3.096c-0.552-1.392-1.632-1.872-3.24-1.392
		c-5.52,2.016-9.336,5.712-11.448,11.112c-0.335,1.536,0.216,2.592,1.68,3.168c1.464,0.456,2.448-0.048,2.952-1.56
		c0.384-0.792,0.648-1.32,0.84-1.536c0.528,0.408,1.2,0.696,2.04,0.84c2.856,0.456,4.536-0.792,4.992-3.792
		C45.31,52.336,45.069,51.352,44.469,50.416L44.469,50.416z M32.805,97.937c0.168-0.432,0.48-1.057,0.913-1.896
		c0.792-1.968,1.176-3.145,1.176-3.527c-0.072-1.297-0.768-1.969-2.04-1.969c-0.936,0-2.016,1.344-3.288,4.008
		c-0.192,0.385-0.48,0.721-0.84,0.984c-1.272,1.32-1.08,2.424,0.552,3.313l0,0C30.79,99.736,31.941,99.448,32.805,97.937
		L32.805,97.937z M74.277,71.849c3.288-4.321,4.896-9.121,4.849-14.4c-0.192-1.56-1.08-2.328-2.664-2.328
		c-2.16,0-3,0.792-2.545,2.376c0.145,2.592-0.096,4.728-0.768,6.408c-1.08,2.664-2.28,4.656-3.576,5.976
		c-0.72,1.416-0.288,2.448,1.271,3.095l0,0C72.333,73.673,73.485,73.312,74.277,71.849L74.277,71.849z M55.917,37.528
		c-0.216-1.68-0.168-3.504,0.144-5.472c-2.808,0.552-5.448,1.872-7.944,3.936c-1.488,0.792-1.848,1.896-1.056,3.312
		c0.792,1.44,1.896,1.68,3.312,0.696c0.984-0.528,1.896-1.008,2.712-1.44C53.901,38.104,54.837,37.768,55.917,37.528L55.917,37.528z
		 M121.821,126.688c-0.048,0,0-1.272,0.12-3.816c0.372-8.809,0.271-17.633,0.216-26.447c-0.048-6.265-0.888-12.504-2.52-18.744
		c-2.381-9.383-6.021-18.382-11.544-26.353c-7.467-10.9-19.316-17.104-31.992-19.776c0.358,2.171,0.093,4.365,0.216,6.552
		c4.536,1.536,8.832,3.456,12.863,5.76c12.021,7.241,18.182,20.623,20.4,33.816c3.605,17.444,1.283,32.761,2.305,49.008H121.821
		L121.821,126.688z M26.757,85.433c1.344-0.961,1.488-2.064,0.408-3.385c-1.128-1.08-2.352-1.176-3.72-0.287
		c-2.856,1.871-4.392,4.344-4.584,7.392c0.048,1.536,0.984,2.28,2.76,2.185c1.68-0.145,2.496-1.009,2.448-2.617
		C24.453,87.232,25.341,86.128,26.757,85.433z"/>
</g>
</svg>
