<?xml version="1.0" encoding="UTF-8"?>
<!DOCTYPE svg PUBLIC "-//W3C//DTD SVG 1.1//EN" "http://www.w3.org/Graphics/SVG/1.1/DTD/svg11.dtd">
<!-- Creator: CorelDRAW -->
<svg xmlns="http://www.w3.org/2000/svg" xml:space="preserve" width="23mm" height="23mm" shape-rendering="geometricPrecision" text-rendering="geometricPrecision" image-rendering="optimizeQuality" fill-rule="evenodd" clip-rule="evenodd"
viewBox="0 0 23 23">
 <defs>
   <linearGradient id="id0" gradientUnits="userSpaceOnUse" x1="4.4162" y1="12.1366" x2="18.5839" y2="12.1366">
    <stop offset="0" stop-color="#72706F"/>
    <stop offset="1" stop-color="#383431"/>
   </linearGradient>
   <linearGradient id="id1" gradientUnits="userSpaceOnUse" x1="5.2233" y1="12.1366" x2="17.7766" y2="12.1366">
    <stop offset="0" stop-color="#969594"/>
    <stop offset="1" stop-color="#1F1A17"/>
   </linearGradient>
 </defs>
 <g id="Layer_x0020_1">
  <metadata id="CorelCorpID_0Corel-Layer"/>
  <path fill="url(#id0)" stroke="#1F1A17" stroke-width="0.3528" stroke-linecap="round" stroke-linejoin="round" d="M18.5839 21.1248l-14.1677 0c0,-2.542 3.1722,-4.6036 7.0839,-4.6036 3.9116,0 7.0838,2.0616 7.0838,4.6036zm-2.1688 -13.3722c-0.3397,1.2648 -0.5293,2.6769 -0.5293,4.1662 0,1.652 0.2334,3.2083 0.646,4.5747l-0.269 -0.1373 -0.32 -0.1478 -0.3293 -0.1372 -0.3377 -0.1262 -0.3464 -0.1153 -0.3541 -0.104 -0.3621 -0.0929 -0.3693 -0.0812 -0.3762 -0.0694 -0.382 -0.0572 -0.3884 -0.0452 -0.3942 -0.0325 -0.3992 -0.0197 -0.4038 -0.0066 -0.4041 0.0066 -0.3992 0.0197 -0.3943 0.0325 -0.3882 0.0452 -0.3823 0.0572 -0.376 0.0694 -0.3697 0.0812 -0.3617 0.0929 -0.3543 0.1039 -0.3464 0.1154 -0.3381 0.1262 -0.329 0.1372 -0.3199 0.1478 -0.2676 0.1367c0.4126,-1.3661 0.646,-2.9224 0.646,-4.5741 0,-1.4892 -0.1904,-2.9012 -0.5302,-4.166l0.1994 0.1294 0.2871 0.1692 0.2963 0.1578 0.3051 0.1468 0.314 0.1352 0.3218 0.1236 0.3294 0.1115 0.3364 0.0996 0.3437 0.0871 0.35 0.0745 0.356 0.0615 0.3614 0.0484 0.367 0.0349 0.3715 0.0212 0.3759 0.007 0.3757 -0.007 0.3714 -0.0212 0.3668 -0.0349 0.3617 -0.0484 0.3557 -0.0615 0.35 -0.0745 0.3435 -0.0871 0.3368 -0.0996 0.3292 -0.1115 0.3217 -0.1235 0.3139 -0.1352 0.3055 -0.1469 0.2962 -0.1579 0.287 -0.169 0.1999 -0.1297zm1.5057 -4.6042l-2.9144 0 0 0.7978c0,0.5868 -0.48,1.0668 -1.0668,1.0668l0 0c-0.5868,0 -1.0668,-0.48 -1.0668,-1.0668l0 -0.7978 -2.7456 0 0 0.7978c0,0.5868 -0.48,1.0668 -1.0668,1.0668l0 0c-0.5868,0 -1.0668,-0.48 -1.0668,-1.0668l0 -0.7978 -2.9143 0c0,2.6571 2.8752,4.8119 6.4208,4.8119 3.5454,0 6.4207,-2.1548 6.4207,-4.8119z"/>
  <path fill="url(#id1)" stroke="#C2C1C1" stroke-width="0.3528" stroke-linecap="round" stroke-linejoin="round" d="M6.4672 18.7466l0.1965 -0.1475 0.2092 -0.1424 0.2206 -0.1369 0.2318 -0.1305 0.2425 -0.1239 0.2533 -0.117 0.2629 -0.1096 0.2726 -0.1018 0.2815 -0.0938 0.2905 -0.0852 0.2981 -0.0766 0.3056 -0.0672 0.3127 -0.0577 0.3198 -0.0478 0.3256 -0.0379 0.3313 -0.0273 0.3367 -0.0167 0.3417 -0.0055 0.3414 0.0055 0.3366 0.0167 0.3313 0.0273 0.3257 0.0379 0.3196 0.0478 0.3128 0.0577 0.3054 0.0672 0.2984 0.0766 0.2902 0.0852 0.2815 0.0938 0.2725 0.1018 0.2633 0.1097 0.2531 0.1169 0.2426 0.1239 0.2318 0.1305 0.2208 0.1369 0.2089 0.1423 0.1966 0.1475 0.1842 0.1523 0.1714 0.1567 0.158 0.1601 0.1448 0.1637 0.1313 0.1667 0.1177 0.169 0.1035 0.1706 0.0899 0.1726 0.076 0.1738 0.0623 0.1753 0.0049 0.0175 -12.5533 0 0.0048 -0.0175 0.0623 -0.1754 0.0761 -0.1738 0.0897 -0.1724 0.1038 -0.1708 0.1175 -0.1692 0.1312 -0.1664 0.1445 -0.1635 0.1583 -0.1602 0.1715 -0.1568 0.1842 -0.1522zm1.3475 -6.9731l-0.0018 -0.1445 -0.0029 -0.1439 -0.004 -0.1437 -0.0053 -0.1433 -0.0062 -0.1418 -0.0073 -0.142 -0.0084 -0.1417 -0.0097 -0.1411 -0.0106 -0.1404 -0.0119 -0.1398 -0.0128 -0.1389 -0.014 -0.1385 -0.0149 -0.1379 -0.016 -0.1373 -0.0171 -0.1368 -0.0183 -0.1365 -0.0191 -0.1352 -0.0203 -0.1346 -0.0212 -0.1341 -0.0068 -0.0408 0.1369 0.0589 0.348 0.1337 0.3555 0.1204 0.3627 0.1073 0.3702 0.0939 0.3764 0.0801 0.3824 0.066 0.3879 0.052 0.3935 0.0374 0.3981 0.0227 0.4024 0.0075 0.4022 -0.0075 0.398 -0.0227 0.3933 -0.0374 0.3882 -0.052 0.3821 -0.066 0.3765 -0.0802 0.3699 -0.0937 0.363 -0.1074 0.3554 -0.1204 0.3479 -0.1335 0.1373 -0.0592 -0.0068 0.0414 -0.0212 0.1337 -0.0201 0.1349 -0.0192 0.1357 -0.0179 0.1356 -0.0171 0.1364 -0.016 0.1375 -0.015 0.1382 -0.0138 0.1382 -0.013 0.139 -0.0117 0.1404 -0.0106 0.1406 -0.0094 0.1405 -0.0086 0.141 -0.0073 0.1423 -0.0064 0.1425 -0.005 0.1433 -0.004 0.1433 -0.0028 0.1442 -0.0018 0.1447 -0.0004 0.1452 0.0006 0.16 0.0021 0.1602 0.0034 0.1597 0.005 0.1593 0.0063 0.1579 0.0076 0.1579 0.0091 0.1574 0.0104 0.1561 0.0116 0.1555 0.0131 0.1553 0.0144 0.1541 0.0157 0.1534 0.017 0.1529 0.0184 0.1523 0.0196 0.1511 0.0209 0.15 0.022 0.1495 0.0236 0.1492 0.0246 0.1478 0.026 0.1467 0.0269 0.1458 0.0262 0.134 -0.0014 -0.0005 -0.3703 -0.1232 -0.3776 -0.1109 -0.3856 -0.099 -0.3928 -0.0863 -0.3995 -0.0737 -0.4051 -0.0607 -0.4115 -0.0479 -0.4174 -0.0344 -0.4222 -0.0208 -0.4268 -0.007 -0.4271 0.007 -0.4222 0.0208 -0.4175 0.0344 -0.4113 0.0479 -0.4054 0.0607 -0.3993 0.0737 -0.3932 0.0863 -0.3851 0.099 -0.3779 0.1108 -0.3703 0.1233 -0.0005 0.0002 0.026 -0.1336 0.0273 -0.146 0.0258 -0.1473 0.0247 -0.1472 0.0235 -0.1487 0.0224 -0.1502 0.0207 -0.1507 0.0195 -0.1511 0.0181 -0.1516 0.0172 -0.1525 0.0157 -0.1538 0.0145 -0.1541 0.013 -0.1549 0.0118 -0.1555 0.0104 -0.1568 0.009 -0.157 0.0076 -0.1574 0.0065 -0.1584 0.0048 -0.1592 0.0036 -0.1593 0.0021 -0.16 0.0008 -0.1606 -0.0006 -0.1456zm8.3344 -6.2411l-0.1658 0.1581 -0.1767 0.1529 -0.1867 0.1471 -0.1971 0.1406 -0.2072 0.1345 -0.2169 0.1276 -0.2255 0.1204 -0.2344 0.1125 -0.2428 0.1048 -0.2507 0.0961 -0.2581 0.0876 -0.2651 0.0783 -0.272 0.0689 -0.2786 0.0593 -0.284 0.0493 -0.2896 0.0387 -0.2947 0.0281 -0.2996 0.0171 -0.3035 0.0059 -0.3038 -0.0059 -0.2996 -0.0171 -0.2949 -0.0281 -0.2894 -0.0387 -0.2843 -0.0493 -0.2784 -0.0593 -0.272 -0.0689 -0.2651 -0.0783 -0.2583 -0.0876 -0.2506 -0.0961 -0.2427 -0.1047 -0.2343 -0.1126 -0.2257 -0.1204 -0.2167 -0.1276 -0.2072 -0.1344 -0.197 -0.1407 -0.1871 -0.1472 -0.1765 -0.1528 -0.1658 -0.158 -0.1545 -0.1629 -0.1433 -0.1674 -0.1316 -0.1715 -0.1198 -0.1753 -0.1077 -0.1785 -0.0958 -0.1819 -0.0834 -0.1845 -0.0709 -0.187 -0.0583 -0.1899 -0.0204 -0.0852 1.4286 0 0 0.1332 0.0324 0.3197 0.104 0.3333 0.1637 0.3008 0.2161 0.2615 0.2612 0.2156 0.3006 0.1639 0.3333 0.1041 0.3555 0.0361 0.3553 -0.0361 0.3334 -0.1041 0.3005 -0.1639 0.2615 -0.2156 0.2156 -0.2615 0.1639 -0.3005 0.1041 -0.3334 0.0325 -0.3198 0 -0.1333 1.3456 0 0 0.1332 0.0324 0.3197 0.104 0.3333 0.1637 0.3008 0.2161 0.2615 0.2612 0.2156 0.3006 0.1639 0.3333 0.1041 0.3555 0.0361 0.3553 -0.0361 0.3334 -0.1041 0.3005 -0.1639 0.2615 -0.2156 0.2156 -0.2615 0.1639 -0.3005 0.1041 -0.3334 0.0325 -0.3198 0 -0.1333 1.4284 0 -0.0203 0.0851 -0.0585 0.1897 -0.071 0.1874 -0.0834 0.1847 -0.0955 0.1816 -0.1078 0.1784 -0.1199 0.1755 -0.1316 0.1715 -0.1431 0.1673 -0.1546 0.1628z"/>
 </g>
</svg>
