<?xml version="1.0" encoding="utf-8"?>
<!-- Generator: Adobe Illustrator 15.0.2, SVG Export Plug-In . SVG Version: 6.00 Build 0)  -->
<!DOCTYPE svg PUBLIC "-//W3C//DTD SVG 1.1 Basic//EN" "http://www.w3.org/Graphics/SVG/1.1/DTD/svg11-basic.dtd">
<svg version="1.1" baseProfile="basic"
	 id="svg2" image-rendering="optimizeQuality" shape-rendering="geometricPrecision" text-rendering="geometricPrecision" xmlns:cc="http://web.resource.org/cc/" xmlns:rdf="http://www.w3.org/1999/02/22-rdf-syntax-ns#" xmlns:svg="http://www.w3.org/2000/svg" xmlns:sodipodi="http://sodipodi.sourceforge.net/DTD/sodipodi-0.dtd" xmlns:dc="http://purl.org/dc/elements/1.1/" xmlns:inkscape="http://www.inkscape.org/namespaces/inkscape" sodipodi:modified="true" sodipodi:docbase="/home/fkling/2/v0.1.2reduced/PieceThemes/Merida" sodipodi:docname="bq.svg" inkscape:version="0.45" sodipodi:version="0.32" inkscape:output_extension="org.inkscape.output.svg.inkscape"
	 xmlns="http://www.w3.org/2000/svg" xmlns:xlink="http://www.w3.org/1999/xlink" x="0px" y="0px" width="141.732px"
	 height="141.732px" viewBox="0 0 141.732 141.732" xml:space="preserve">
<g id="Layer_x0020_1">
	<path id="path6" fill="#1F1A17" d="M70.722,30.479c-2.664,0-4.944-0.936-6.792-2.808s-2.76-4.152-2.76-6.816
		c0-2.64,0.912-4.896,2.76-6.768s4.128-2.808,6.792-2.808c2.617,0,4.896,0.936,6.792,2.808c1.896,1.872,2.832,4.128,2.832,6.768
		c0,2.664-0.937,4.944-2.832,6.816C75.618,29.543,73.339,30.479,70.722,30.479z"/>
	<path id="path8" fill="#1F1A17" d="M114.042,124.56c-2.304,2.016-7.464,3.695-15.48,5.063c-8.016,1.345-17.256,2.04-27.695,2.04
		c-10.632,0-19.992-0.72-28.056-2.111c-8.064-1.416-13.152-3.168-15.264-5.281l4.44-16.871l-1.968-11.04l-6.192-10.753L17.85,41.879
		l3.432-1.344l19.272,32.472l0.432-38.664l4.776-0.84l14.688,38.88l7.872-41.833h4.872l7.871,41.688L95.61,33.503l4.848,0.84
		l0.432,38.664l19.344-32.543L123.522,42l-5.832,43.536l-6.264,10.752l-1.969,11.185L114.042,124.56z"/>
	<path id="path10" fill="#1F1A17" d="M41.202,33.983c-2.688,0-4.968-0.912-6.84-2.76s-2.808-4.128-2.808-6.792
		c0-2.616,0.936-4.872,2.808-6.744c1.872-1.872,4.152-2.808,6.84-2.808c2.616,0,4.872,0.936,6.744,2.808
		c1.872,1.872,2.808,4.127,2.808,6.744c0,2.664-0.936,4.944-2.808,6.792C46.074,33.071,43.818,33.983,41.202,33.983z"/>
	<path id="path12" fill="#1F1A17" d="M100.242,33.983c-2.664,0-4.92-0.912-6.769-2.76c-1.848-1.848-2.783-4.128-2.783-6.792
		c0-2.616,0.936-4.872,2.783-6.744c1.849-1.872,4.104-2.808,6.769-2.808c2.688,0,4.968,0.936,6.84,2.808
		c1.872,1.872,2.808,4.127,2.808,6.744c0,2.664-0.936,4.944-2.808,6.792S102.931,33.983,100.242,33.983L100.242,33.983z"/>
	<path id="path14" fill="#1F1A17" d="M15.306,41.735c-2.664,0-4.92-0.936-6.768-2.784s-2.784-4.104-2.784-6.792
		c0-2.616,0.936-4.872,2.784-6.768c1.848-1.92,4.104-2.856,6.768-2.856c2.688,0,4.944,0.936,6.84,2.856
		c1.872,1.896,2.808,4.152,2.808,6.768c0,2.688-0.936,4.944-2.808,6.792C20.25,40.799,17.994,41.735,15.306,41.735z"/>
	<path id="path16" fill="#1F1A17" d="M126.259,41.735c-2.664,0-4.945-0.936-6.816-2.784c-1.873-1.848-2.809-4.104-2.809-6.792
		c0-2.616,0.936-4.872,2.809-6.768c1.871-1.92,4.152-2.856,6.816-2.856c2.639,0,4.896,0.936,6.768,2.856
		c1.872,1.896,2.809,4.152,2.809,6.768c0,2.688-0.937,4.944-2.809,6.792S128.897,41.735,126.259,41.735z"/>
	
		<linearGradient id="path18_1_" gradientUnits="userSpaceOnUse" x1="-133.6108" y1="307.6318" x2="-77.0998" y2="307.4958" gradientTransform="matrix(2.8346 0 0 -2.8346 438.9902 975.1642)">
		<stop  offset="0" style="stop-color:#FFFFFF"/>
		<stop  offset="1" style="stop-color:#FFFFFF;stop-opacity:0"/>
	</linearGradient>
	<path id="path18" fill="url(#path18_1_)" d="M105.45,101.279c-8.616-2.376-20.111-3.576-34.44-3.576
		c-14.448,0-26.064,1.224-34.872,3.647l1.056,7.104c8.856-2.304,20.112-3.456,33.816-3.456c13.631,0,24.744,1.128,33.312,3.385
		L105.45,101.279z M110.37,88.703c-3.889-1.416-9.359-2.567-16.416-3.479s-14.832-1.368-23.376-1.368
		c-8.352,0-15.984,0.433-22.92,1.296S35.25,87.144,31.266,88.56l3.528,6.384c3.936-1.151,9.048-1.992,15.336-2.521
		c6.264-0.504,13.128-0.768,20.592-0.768c7.464,0,14.352,0.264,20.664,0.768c6.336,0.528,11.473,1.393,15.408,2.592L110.37,88.703
		L110.37,88.703z M107.274,122.304l-2.088-8.305c-9.145-2.088-20.641-3.144-34.464-3.144c-13.68,0-25.128,1.056-34.32,3.144
		l-2.232,8.377c8.904-2.713,21.096-4.08,36.624-4.08c7.44,0,14.376,0.383,20.736,1.127
		C97.914,120.167,103.17,121.128,107.274,122.304z"/>
</g>
</svg>
