<?xml version="1.0" encoding="UTF-8"?>
<!DOCTYPE svg PUBLIC "-//W3C//DTD SVG 1.1//EN" "http://www.w3.org/Graphics/SVG/1.1/DTD/svg11.dtd">
<!-- Creator: CorelDRAW -->
<svg xmlns="http://www.w3.org/2000/svg" xml:space="preserve" width="23mm" height="23mm" shape-rendering="geometricPrecision" text-rendering="geometricPrecision" image-rendering="optimizeQuality" fill-rule="evenodd" clip-rule="evenodd"
viewBox="0 0 23 23">
 <defs>
   <linearGradient id="id0" gradientUnits="userSpaceOnUse" x1="4.4162" y1="12.2245" x2="18.5839" y2="12.2245">
    <stop offset="0" stop-color="#72706F"/>
    <stop offset="1" stop-color="#383431"/>
   </linearGradient>
   <linearGradient id="id1" gradientUnits="userSpaceOnUse" x1="5.2233" y1="12.225" x2="17.7766" y2="12.225">
    <stop offset="0" stop-color="#969594"/>
    <stop offset="1" stop-color="#1F1A17"/>
   </linearGradient>
 </defs>
 <g id="Layer_x0020_1">
  <metadata id="CorelCorpID_0Corel-Layer"/>
  <path fill="url(#id0)" stroke="#1F1A17" stroke-width="0.3528" stroke-linecap="round" stroke-linejoin="round" d="M18.5839 21.1248l-14.1677 0c0,-2.5421 3.1722,-4.6036 7.0839,-4.6036 3.9116,0 7.0838,2.0615 7.0838,4.6036zm-8.1163 -5.7657l-1.5954 -7.7261c0.7108,0.6107 1.568,1.0925 2.6711,1.0925 1.0486,0 1.8754,-0.4353 2.5652,-1.003l-1.5797 7.6505 -0.312 -0.0257 -0.3992 -0.0197 -0.4038 -0.0066 -0.4041 0.0066 -0.3992 0.0197 -0.1429 0.0118zm1.0757 -12.0349c1.2285,0 2.2248,0.9963 2.2248,2.2248 0,1.2285 -0.9963,2.2248 -2.2248,2.2248 -1.2285,0 -2.2248,-0.9963 -2.2248,-2.2248 0,-1.2285 0.9963,-2.2248 2.2248,-2.2248z"/>
  <path fill="url(#id1)" stroke="#C2C1C1" stroke-width="0.3528" stroke-linecap="round" stroke-linejoin="round" d="M6.4672 18.7465l0.1965 -0.1475 0.2092 -0.1424 0.2206 -0.1369 0.2318 -0.1305 0.2425 -0.1239 0.2533 -0.117 0.2629 -0.1096 0.2726 -0.1018 0.2815 -0.0938 0.2905 -0.0852 0.298 -0.0765 0.3056 -0.0672 0.3128 -0.0577 0.3198 -0.0478 0.3256 -0.0379 0.3313 -0.0273 0.3367 -0.0167 0.3417 -0.0055 0.3414 0.0055 0.3366 0.0167 0.3313 0.0273 0.3257 0.0379 0.3196 0.0478 0.3129 0.0577 0.3054 0.0672 0.2983 0.0765 0.2902 0.0852 0.2815 0.0938 0.2725 0.1018 0.2633 0.1097 0.2531 0.1169 0.2426 0.1239 0.2318 0.1305 0.2208 0.1369 0.2089 0.1423 0.1966 0.1475 0.1842 0.1523 0.1714 0.1567 0.158 0.1601 0.1448 0.1637 0.1313 0.1667 0.1177 0.169 0.1035 0.1706 0.0899 0.1726 0.076 0.1738 0.0623 0.1754 0.0049 0.0175 -12.5533 0 0.0049 -0.0175 0.0622 -0.1755 0.0761 -0.1738 0.0897 -0.1724 0.1038 -0.1708 0.1175 -0.1692 0.1312 -0.1664 0.1445 -0.1635 0.1583 -0.1602 0.1715 -0.1568 0.1842 -0.1522zm5.0759 -9.3207l0.2308 -0.0062 0.2252 -0.0177 0.2197 -0.0288 0.2151 -0.0394 0.2087 -0.0498 0.2027 -0.0588 0.1969 -0.0677 0.0601 -0.0239 -1.1357 5.5006 -0.126 -0.0062 -0.4268 -0.007 -0.3826 0.0062 -1.1423 -5.5319 0.0849 0.0355 0.2053 0.0743 0.2113 0.0646 0.2185 0.0547 0.2246 0.0433 0.2304 0.0319 0.2368 0.0196 0.2424 0.0067zm0.0002 -5.4007l0.1568 0.0078 0.1511 0.0231 0.1453 0.0374 0.1397 0.0511 0.133 0.064 0.1255 0.0763 0.1174 0.0877 0.1086 0.0988 0.0986 0.1084 0.0878 0.1175 0.0763 0.1257 0.0641 0.1329 0.0511 0.1396 0.0375 0.1457 0.0231 0.1512 0.008 0.1567 -0.008 0.1565 -0.023 0.1511 -0.0376 0.1457 -0.0511 0.1396 -0.064 0.1327 -0.0763 0.1257 -0.0881 0.1177 -0.0984 0.1084 -0.1084 0.0984 -0.1177 0.0881 -0.1257 0.0763 -0.1327 0.064 -0.1396 0.0511 -0.1457 0.0376 -0.1511 0.023 -0.1565 0.008 -0.1567 -0.008 -0.1512 -0.0231 -0.1457 -0.0375 -0.1396 -0.0511 -0.1329 -0.0641 -0.1257 -0.0763 -0.1175 -0.0878 -0.1084 -0.0986 -0.0988 -0.1086 -0.0877 -0.1174 -0.0763 -0.1255 -0.064 -0.133 -0.0511 -0.1397 -0.0374 -0.1453 -0.0231 -0.1511 -0.0078 -0.1568 0.0078 -0.157 0.0231 -0.1512 0.0374 -0.1454 0.0511 -0.1396 0.0641 -0.1332 0.0762 -0.1255 0.0876 -0.1172 0.0989 -0.1086 0.1086 -0.0989 0.1172 -0.0876 0.1255 -0.0762 0.1332 -0.0641 0.1396 -0.0511 0.1454 -0.0374 0.1512 -0.0231 0.157 -0.0078z"/>
 </g>
</svg>
