<?xml version="1.0" encoding="utf-8"?>
<!-- Generator: Adobe Illustrator 15.0.2, SVG Export Plug-In . SVG Version: 6.00 Build 0)  -->
<!DOCTYPE svg PUBLIC "-//W3C//DTD SVG 1.1 Basic//EN" "http://www.w3.org/Graphics/SVG/1.1/DTD/svg11-basic.dtd">
<svg version="1.1" baseProfile="basic"
	 id="svg2" image-rendering="optimizeQuality" shape-rendering="geometricPrecision" text-rendering="geometricPrecision" xmlns:cc="http://web.resource.org/cc/" xmlns:rdf="http://www.w3.org/1999/02/22-rdf-syntax-ns#" xmlns:svg="http://www.w3.org/2000/svg" xmlns:sodipodi="http://sodipodi.sourceforge.net/DTD/sodipodi-0.dtd" xmlns:dc="http://purl.org/dc/elements/1.1/" xmlns:inkscape="http://www.inkscape.org/namespaces/inkscape" sodipodi:modified="true" sodipodi:docbase="/home/fkling/2/v0.1.2reduced/PieceThemes/Merida" sodipodi:docname="bk.svg" inkscape:version="0.45" sodipodi:version="0.32" inkscape:output_extension="org.inkscape.output.svg.inkscape"
	 xmlns="http://www.w3.org/2000/svg" xmlns:xlink="http://www.w3.org/1999/xlink" x="0px" y="0px" width="141.732px"
	 height="141.732px" viewBox="0 0 141.732 141.732" xml:space="preserve">
<g id="Layer_x0020_1">
	<path id="path6" fill="#1F1A17" d="M73.194,34.079h-4.992v-9.216h-5.856c-1.584,0-2.376-0.768-2.376-2.328v-0.072
		c0-1.536,0.792-2.304,2.376-2.304h5.856v-5.976c0-1.656,0.84-2.472,2.52-2.472l0,0c1.632,0,2.472,0.816,2.472,2.472v5.976h6.048
		c1.536,0,2.304,0.768,2.304,2.304v0.072c0,1.56-0.768,2.328-2.304,2.328l-6,0.072L73.194,34.079z"/>
	<path id="path8" fill="#1F1A17" d="M31.266,106.991l-2.304-13.152c-0.048,0-0.12-0.096-0.216-0.287
		c-0.24-0.336-0.912-0.769-2.016-1.297c-1.08-0.551-2.376-1.463-3.816-2.783c-2.064-1.729-3.672-3.145-4.824-4.225
		c-1.152-1.056-2.184-2.231-3.12-3.504c-2.856-3.936-4.464-8.688-4.776-14.28c-0.48-5.376,1.704-10.752,6.528-16.104
		c4.872-5.328,11.472-7.848,19.752-7.512c3.096,0.192,6.744,0.937,10.896,2.256c1.368,0.552,2.76,1.104,4.2,1.632
		c1.416,0.552,2.832,1.104,4.248,1.656c0.744,0.384,1.416,0.768,1.968,1.128c-0.24-0.984-0.36-1.968-0.36-2.952
		c0-3.648,1.296-6.768,3.912-9.36c2.592-2.568,5.736-3.888,9.384-3.936c3.648,0,6.768,1.32,9.36,3.912
		c2.567,2.592,3.864,5.712,3.864,9.313c0,0.744-0.096,1.728-0.288,2.952c0.647-0.408,1.296-0.768,1.896-1.056
		c2.16-0.936,4.992-2.041,8.521-3.289c4.032-1.368,7.655-2.136,10.896-2.328c8.28-0.384,14.856,2.136,19.68,7.512
		c4.729,5.352,6.938,10.728,6.601,16.104c-0.36,5.592-1.991,10.344-4.848,14.279c-0.937,1.272-1.992,2.448-3.168,3.553
		c-1.152,1.104-2.736,2.496-4.704,4.176c-1.536,1.32-2.855,2.256-3.936,2.783c-1.08,0.529-1.705,0.984-1.896,1.297
		c-0.048,0.096-0.096,0.168-0.145,0.216c-0.047,0.048-0.072,0.097-0.072,0.144l-2.256,13.225l4.656,17.352
		c-2.352,2.112-7.607,3.84-15.744,5.208c-8.16,1.368-17.592,2.04-28.271,2.04c-10.872,0-20.448-0.72-28.68-2.136
		c-8.256-1.44-13.44-3.239-15.552-5.376L31.266,106.991z"/>
	
		<linearGradient id="path10_1_" gradientUnits="userSpaceOnUse" x1="-133.6973" y1="315.6406" x2="-77.0634" y2="315.3949" gradientTransform="matrix(2.8346 0 0 -2.8346 438.9902 975.1642)">
		<stop  offset="0" style="stop-color:#FFFFFF"/>
		<stop  offset="1" style="stop-color:#FFFFFF;stop-opacity:0"/>
	</linearGradient>
	<path id="path10" fill="url(#path10_1_)" d="M70.722,58.607c-0.096-0.456-0.216-0.864-0.36-1.2
		c-0.264-0.936-0.504-1.608-0.696-2.04c-0.144-0.313-0.336-0.72-0.552-1.224c-0.24-0.48-0.48-1.008-0.72-1.584
		c-0.144-0.336-0.312-0.768-0.528-1.296c-0.192-0.552-0.384-1.056-0.528-1.512c-0.12-0.432-0.192-0.864-0.192-1.344
		c0-2.472,1.176-3.72,3.576-3.72c2.496,0,3.72,1.224,3.72,3.648c0,0.624-0.096,1.056-0.264,1.344
		c-0.673,1.776-1.009,2.736-1.057,2.88c-0.72,1.416-1.152,2.328-1.344,2.736c-0.336,0.768-0.552,1.44-0.624,2.04
		c-0.144,0.288-0.24,0.528-0.288,0.744C70.818,58.295,70.77,58.463,70.722,58.607z M62.85,82.872
		c-5.856,0.096-11.208,0.383-16.08,0.911c-4.848,0.505-8.592,1.248-11.28,2.185c-1.392-1.752-3.024-3.48-4.872-5.256
		c-1.872-1.752-3.48-3.408-4.896-4.945c-2.352-2.398-3.504-5.015-3.504-7.871c0-3.528,0.576-6.096,1.752-7.728
		c1.248-1.896,3.216-3.288,5.832-4.2c2.616-0.912,5.28-1.368,7.944-1.368c3.384,0,6.6,0.744,9.696,2.256
		c3.048,1.584,5.064,2.856,6.048,3.792c3.192,3.24,5.688,6.745,7.464,10.536c0.6,1.416,1.056,3.384,1.368,5.88
		C62.634,79.583,62.802,81.503,62.85,82.872z M70.722,70.631c0.336-1.32,0.6-2.232,0.839-2.736c0.48-1.824,1.008-3.384,1.633-4.656
		c0.264-0.792,0.672-1.704,1.225-2.76c0.527-1.056,1.104-2.28,1.727-3.624c0.361-0.792,0.769-1.776,1.177-2.928
		c0.432-1.152,0.864-2.28,1.272-3.408c0.383-0.936,0.576-1.944,0.576-3.024c0-2.304-0.841-4.248-2.473-5.856
		c-1.632-1.632-3.624-2.448-5.976-2.448c-5.568,0-8.376,2.808-8.376,8.376c0,1.08,0.192,2.088,0.576,3.024
		c1.032,3.048,1.824,5.16,2.376,6.336c0.625,1.344,1.176,2.568,1.705,3.624c0.504,1.056,0.959,1.968,1.32,2.76
		c0.624,1.561,1.128,3.096,1.56,4.656C69.978,68.231,70.242,69.143,70.722,70.631z M68.202,88.271c0-1.872-0.048-4.464-0.144-7.753
		c-0.096-3.312-0.456-6.071-1.056-8.279c-1.92-6.264-4.824-11.328-8.736-15.168c-2.016-1.968-5.088-3.816-9.264-5.496
		c-4.776-1.872-9.313-2.808-13.584-2.808c-7.392,0-12.888,2.64-16.44,7.944c-2.016,2.808-3.024,6.336-3.024,10.536
		c0,4.608,1.128,8.375,3.36,11.328c1.176,1.68,3.432,3.768,6.768,6.264c3.312,2.473,6.144,4.776,8.424,6.889
		c4.08-0.889,8.688-1.656,13.824-2.328C53.466,88.751,60.09,88.367,68.202,88.271z M107.274,121.536l-2.088-8.305
		c-9.145-2.088-20.641-3.145-34.464-3.145c-13.68,0-25.128,1.057-34.32,3.145l-2.232,8.376c8.904-2.712,21.096-4.08,36.624-4.08
		c7.44,0,14.376,0.384,20.736,1.128C97.914,119.399,103.17,120.359,107.274,121.536L107.274,121.536z M105.45,100.511
		c-8.616-2.375-20.111-3.576-34.44-3.576c-14.448,0-26.064,1.225-34.872,3.648l1.056,7.104c8.856-2.304,20.112-3.456,33.816-3.456
		c13.631,0,24.744,1.128,33.312,3.384L105.45,100.511z M73.242,88.343c8.063,0.145,14.688,0.553,19.848,1.201
		c5.136,0.647,9.792,1.439,13.921,2.328c2.567-2.545,5.424-4.945,8.567-7.249s5.353-4.271,6.624-5.903
		c2.232-3.049,3.359-6.84,3.359-11.4c0-4.152-1.008-7.656-3.023-10.464c-3.6-5.304-9.12-7.944-16.512-7.944
		c-4.32,0-8.809,0.936-13.512,2.808c-4.272,1.68-7.345,3.504-9.289,5.472c-3.983,3.864-6.887,8.928-8.711,15.192
		c-0.696,2.16-1.08,4.896-1.152,8.231C73.29,83.952,73.242,86.52,73.242,88.343z M78.378,82.872c0-1.369,0.168-3.289,0.456-5.809
		c0.312-2.496,0.792-4.465,1.44-5.88c1.752-3.792,4.224-7.296,7.464-10.536c0.937-0.936,2.952-2.208,6.048-3.792
		c3.048-1.512,6.313-2.256,9.768-2.256c2.641,0,5.232,0.456,7.849,1.368c2.592,0.912,4.56,2.304,5.856,4.2
		c1.176,1.584,1.775,4.152,1.775,7.728c0,2.808-1.152,5.424-3.456,7.871c-1.487,1.537-3.12,3.097-4.849,4.681
		c-1.728,1.56-3.407,3.408-4.991,5.521c-2.712-0.937-6.505-1.68-11.353-2.185C89.538,83.255,84.21,82.968,78.378,82.872z"/>
</g>
</svg>
