<?xml version="1.0" encoding="UTF-8"?>
<!DOCTYPE svg PUBLIC "-//W3C//DTD SVG 1.1//EN" "http://www.w3.org/Graphics/SVG/1.1/DTD/svg11.dtd">
<!-- Creator: CorelDRAW -->
<svg xmlns="http://www.w3.org/2000/svg" xml:space="preserve" width="23mm" height="23mm" shape-rendering="geometricPrecision" text-rendering="geometricPrecision" image-rendering="optimizeQuality" fill-rule="evenodd" clip-rule="evenodd"
viewBox="0 0 23 23">
 <defs>
   <linearGradient id="id0" gradientUnits="userSpaceOnUse" x1="4.2803" y1="10.902" x2="18.5839" y2="10.902">
    <stop offset="0" stop-color="white"/>
    <stop offset="1" stop-color="#AAA9A9"/>
   </linearGradient>
   <linearGradient id="id1" gradientUnits="userSpaceOnUse" x1="5.2233" y1="10.9024" x2="17.7766" y2="10.9024">
    <stop offset="0" stop-color="white"/>
    <stop offset="1" stop-color="#AAA9A9"/>
   </linearGradient>
 </defs>
 <g id="Layer_x0020_1">
  <metadata id="CorelCorpID_0Corel-Layer"/>
  <path fill="url(#id0)" stroke="#1F1A17" stroke-width="0.3528" stroke-linecap="round" stroke-linejoin="round" d="M18.5839 21.1248l-14.1677 0c0,-2.5421 3.1722,-4.6036 7.0839,-4.6036 3.9116,0 7.0838,2.0615 7.0838,4.6036zm-12.4396 -4.4512c-1.1695,-2.1903 -1.864,-3.6789 -0.7855,-6.2753 1.1664,-2.808 4.9402,-6.4368 6.0642,-6.4368 1.124,0 4.8978,3.6288 6.0642,6.4368 1.0675,2.57 0.3978,4.0547 -0.75,6.2088l-0.164 -0.0924 -0.3104 -0.1585 -0.32 -0.1478 -0.3293 -0.1372 -0.3377 -0.1262 -0.3464 -0.1153 -0.3541 -0.104 -0.3621 -0.0929 -0.3693 -0.0812 -0.3762 -0.0694 -0.382 -0.0572 -0.3884 -0.0452 -0.3942 -0.0325 -0.3992 -0.0197 -0.4038 -0.0066 -0.4041 0.0066 -0.3992 0.0197 -0.3943 0.0325 -0.3882 0.0452 -0.3823 0.0572 -0.376 0.0694 -0.3697 0.0812 -0.3617 0.0929 -0.3543 0.1039 -0.3464 0.1154 -0.3381 0.1262 -0.329 0.1372 -0.3199 0.1478 -0.3102 0.1585 -0.2824 0.1589zm5.295 -15.9945c0.7357,0 1.3322,0.5965 1.3322,1.3322 0,0.7357 -0.5965,1.3322 -1.3322,1.3322 -0.7357,0 -1.3322,-0.5965 -1.3322,-1.3322 0,-0.7357 0.5965,-1.3322 1.3322,-1.3322z"/>
  <path fill="url(#id1)" stroke="#838281" stroke-width="0.3528" stroke-linecap="round" stroke-linejoin="round" d="M6.4672 18.7465l0.1965 -0.1475 0.2092 -0.1424 0.2206 -0.1369 0.2318 -0.1305 0.2425 -0.1239 0.2533 -0.117 0.2629 -0.1096 0.2726 -0.1018 0.2815 -0.0938 0.2905 -0.0852 0.298 -0.0765 0.3056 -0.0672 0.3128 -0.0577 0.3198 -0.0478 0.3256 -0.0379 0.3313 -0.0273 0.3367 -0.0167 0.3417 -0.0055 0.3414 0.0055 0.3366 0.0167 0.3313 0.0273 0.3257 0.0379 0.3196 0.0478 0.3129 0.0577 0.3054 0.0672 0.2983 0.0765 0.2902 0.0852 0.2815 0.0938 0.2725 0.1018 0.2633 0.1097 0.2531 0.1169 0.2426 0.1239 0.2318 0.1305 0.2208 0.1369 0.2089 0.1423 0.1966 0.1475 0.1842 0.1523 0.1714 0.1567 0.158 0.1601 0.1448 0.1637 0.1313 0.1667 0.1177 0.169 0.1035 0.1706 0.0899 0.1726 0.076 0.1738 0.0623 0.1754 0.0049 0.0175 -12.5533 0 0.0049 -0.0175 0.0622 -0.1755 0.0761 -0.1738 0.0897 -0.1724 0.1038 -0.1708 0.1175 -0.1692 0.1312 -0.1664 0.1445 -0.1635 0.1583 -0.1602 0.1715 -0.1568 0.1842 -0.1522zm-0.8848 -6.6702l0.0339 -0.1823 0.042 -0.1882 0.0508 -0.1942 0.0596 -0.2008 0.069 -0.2073 0.0787 -0.2145 0.088 -0.2198 0.1065 -0.2426 0.1199 -0.2465 0.1336 -0.2523 0.1467 -0.257 0.1584 -0.2606 0.1693 -0.2625 0.179 -0.2638 0.1883 -0.2639 0.1959 -0.2636 0.2027 -0.2613 0.2084 -0.2587 0.2134 -0.2549 0.2172 -0.2507 0.2198 -0.2449 0.2214 -0.2385 0.2224 -0.2312 0.2218 -0.2233 0.2202 -0.2138 0.2176 -0.2038 0.2143 -0.193 0.2091 -0.1811 0.2029 -0.1681 0.1954 -0.1542 0.187 -0.1395 0.1762 -0.1236 0.1638 -0.1065 0.1485 -0.0883 0.1309 -0.069 0.1087 -0.0491 0.0798 -0.0286 0.0394 -0.0095 0.0394 0.0095 0.0796 0.0286 0.1089 0.0492 0.1308 0.0689 0.1486 0.0883 0.1636 0.1065 0.1763 0.1236 0.1866 0.1394 0.1956 0.1543 0.2029 0.1682 0.2094 0.1811 0.2139 0.1928 0.2177 0.2039 0.2204 0.214 0.2219 0.2232 0.2222 0.2311 0.2215 0.2385 0.2197 0.2449 0.2172 0.2506 0.2132 0.2549 0.2087 0.2589 0.2027 0.2614 0.196 0.2633 0.1879 0.2639 0.1792 0.2639 0.1694 0.2627 0.1584 0.2604 0.1466 0.257 0.1339 0.2525 0.1199 0.2465 0.1066 0.2423 0.0868 0.2174 0.0781 0.2126 0.0684 0.2054 0.0594 0.1989 0.0504 0.1925 0.0422 0.1868 0.034 0.1811 0.0264 0.1759 0.0188 0.1712 0.0118 0.1674 0.005 0.1642 -0.0014 0.1611 -0.0079 0.1588 -0.0138 0.1575 -0.02 0.1563 -0.0256 0.1557 -0.0315 0.1549 -0.0374 0.1564 -0.0431 0.1574 -0.0484 0.1582 -0.0542 0.1599 -0.0595 0.1626 -0.0649 0.1647 -0.0697 0.1671 -0.0751 0.1697 -0.08 0.1735 -0.0849 0.1771 -0.089 0.1807 -0.0774 0.1525 -0.2149 -0.0993 -0.3535 -0.1473 -0.3618 -0.1352 -0.3703 -0.1232 -0.3776 -0.1109 -0.3856 -0.099 -0.3928 -0.0863 -0.3995 -0.0737 -0.4051 -0.0607 -0.4115 -0.0479 -0.4174 -0.0344 -0.4222 -0.0208 -0.4268 -0.007 -0.4271 0.007 -0.4222 0.0208 -0.4175 0.0344 -0.4113 0.0479 -0.4054 0.0607 -0.3993 0.0737 -0.3932 0.0863 -0.3851 0.099 -0.3779 0.1108 -0.3703 0.1233 -0.3622 0.1352 -0.3534 0.1474 -0.3393 0.1567 -0.0804 -0.1577 -0.0914 -0.1834 -0.0866 -0.1796 -0.0822 -0.1763 -0.0771 -0.1726 -0.0721 -0.1699 -0.0667 -0.1666 -0.0612 -0.1642 -0.0557 -0.1622 -0.0503 -0.1606 -0.0445 -0.1587 -0.0386 -0.1577 -0.0328 -0.1573 -0.0272 -0.1575 -0.0209 -0.1575 -0.015 -0.1586 -0.0086 -0.1602 -0.0023 -0.1628 0.0044 -0.1653 0.0112 -0.1684 0.0187 -0.1729 0.0258 -0.1778zm5.8569 -10.6963l0.0656 0.0033 0.0627 0.0095 0.0598 0.0153 0.0573 0.0211 0.0549 0.0264 0.0521 0.0317 0.0489 0.0365 0.045 0.0409 0.041 0.0451 0.0366 0.0489 0.0314 0.0518 0.0265 0.0549 0.021 0.0575 0.0155 0.0602 0.0096 0.0627 0.0034 0.0655 -0.0034 0.0651 -0.0095 0.0627 -0.0156 0.0603 -0.0209 0.0573 -0.0264 0.0547 -0.0317 0.0521 -0.0369 0.0492 -0.0406 0.0449 -0.0449 0.0406 -0.0492 0.0369 -0.0521 0.0317 -0.0547 0.0264 -0.0573 0.0209 -0.0603 0.0156 -0.0627 0.0095 -0.0651 0.0034 -0.0655 -0.0034 -0.0627 -0.0096 -0.0602 -0.0155 -0.0575 -0.021 -0.0549 -0.0265 -0.0518 -0.0314 -0.0489 -0.0366 -0.0451 -0.041 -0.0409 -0.045 -0.0365 -0.0489 -0.0317 -0.0521 -0.0264 -0.0549 -0.0211 -0.0573 -0.0153 -0.0598 -0.0095 -0.0627 -0.0033 -0.0656 0.0033 -0.066 0.0095 -0.0627 0.0153 -0.0597 0.0211 -0.0575 0.0265 -0.0551 0.0315 -0.0518 0.0363 -0.0485 0.0412 -0.0453 0.0453 -0.0412 0.0485 -0.0363 0.0518 -0.0315 0.0551 -0.0265 0.0575 -0.0211 0.0597 -0.0153 0.0627 -0.0095 0.066 -0.0033z"/>
  <polygon fill="#838281" stroke="white" stroke-width="0.3528" stroke-linecap="round" stroke-linejoin="round" points="10.7738,7.3995 12.3338,7.3995 12.3338,9.4665 14.4008,9.4665 14.4008,11.0265 12.3338,11.0265 12.3338,13.0935 10.7738,13.0935 10.7738,11.0265 8.7068,11.0265 8.7068,9.4665 10.7738,9.4665 "/>
 </g>
</svg>
