<?xml version="1.0" encoding="utf-8"?>
<!-- Generator: Adobe Illustrator 15.0.2, SVG Export Plug-In . SVG Version: 6.00 Build 0)  -->
<!DOCTYPE svg PUBLIC "-//W3C//DTD SVG 1.1 Basic//EN" "http://www.w3.org/Graphics/SVG/1.1/DTD/svg11-basic.dtd">
<svg version="1.1" baseProfile="basic"
	 id="svg2" image-rendering="optimizeQuality" shape-rendering="geometricPrecision" text-rendering="geometricPrecision" xmlns:cc="http://web.resource.org/cc/" xmlns:rdf="http://www.w3.org/1999/02/22-rdf-syntax-ns#" xmlns:svg="http://www.w3.org/2000/svg" xmlns:sodipodi="http://sodipodi.sourceforge.net/DTD/sodipodi-0.dtd" xmlns:dc="http://purl.org/dc/elements/1.1/" xmlns:inkscape="http://www.inkscape.org/namespaces/inkscape" sodipodi:modified="true" sodipodi:docbase="/home/fkling/2/v0.1.2reduced/PieceThemes/Merida" sodipodi:docname="wk.svg" inkscape:version="0.45" sodipodi:version="0.32" inkscape:output_extension="org.inkscape.output.svg.inkscape"
	 xmlns="http://www.w3.org/2000/svg" xmlns:xlink="http://www.w3.org/1999/xlink" x="0px" y="0px" width="141.732px"
	 height="141.732px" viewBox="0 0 141.732 141.732" xml:space="preserve">
<g id="Layer_x0020_1">
	<path id="path6" fill="#1F1A17" d="M73.194,34.079h-4.992v-9.216h-5.856c-1.584,0-2.376-0.768-2.376-2.328v-0.072
		c0-1.536,0.792-2.304,2.376-2.304h5.856v-5.976c0-1.656,0.84-2.472,2.52-2.472l0,0c1.632,0,2.472,0.816,2.472,2.472v5.976h6.048
		c1.536,0,2.304,0.768,2.304,2.304v0.072c0,1.56-0.768,2.328-2.304,2.328l-6,0.072L73.194,34.079z"/>
	<path id="path8" fill="#1F1A17" d="M31.266,106.991l-2.304-13.152c-0.048,0-0.12-0.096-0.216-0.287
		c-0.24-0.336-0.912-0.769-2.016-1.297c-1.08-0.551-2.376-1.463-3.816-2.783c-2.064-1.729-3.672-3.145-4.824-4.225
		c-1.152-1.056-2.184-2.231-3.12-3.504c-2.856-3.936-4.464-8.688-4.776-14.28c-0.48-5.376,1.704-10.752,6.528-16.104
		c4.872-5.328,11.472-7.848,19.752-7.512c3.096,0.192,6.744,0.937,10.896,2.256c1.368,0.552,2.76,1.104,4.2,1.632
		c1.416,0.552,2.832,1.104,4.248,1.656c0.744,0.384,1.416,0.768,1.968,1.128c-0.24-0.984-0.36-1.968-0.36-2.952
		c0-3.648,1.296-6.768,3.912-9.36c2.592-2.568,5.736-3.888,9.384-3.936c3.648,0,6.768,1.32,9.36,3.912
		c2.567,2.592,3.864,5.712,3.864,9.313c0,0.744-0.096,1.728-0.288,2.952c0.647-0.408,1.296-0.768,1.896-1.056
		c2.16-0.936,4.992-2.041,8.521-3.289c4.032-1.368,7.655-2.136,10.896-2.328c8.28-0.384,14.856,2.136,19.68,7.512
		c4.729,5.352,6.938,10.728,6.601,16.104c-0.36,5.592-1.991,10.344-4.848,14.279c-0.937,1.272-1.992,2.448-3.168,3.553
		c-1.152,1.104-2.736,2.496-4.704,4.176c-1.536,1.32-2.855,2.256-3.936,2.783c-1.08,0.529-1.705,0.984-1.896,1.297
		c-0.048,0.096-0.096,0.168-0.145,0.216c-0.047,0.048-0.072,0.097-0.072,0.144l-2.256,13.225l4.656,17.352
		c-2.352,2.112-7.607,3.84-15.744,5.208c-8.16,1.368-17.592,2.04-28.271,2.04c-10.872,0-20.448-0.72-28.68-2.136
		c-8.256-1.44-13.44-3.239-15.552-5.376L31.266,106.991z"/>
	
		<linearGradient id="path10_1_" gradientUnits="userSpaceOnUse" x1="-133.4902" y1="314.7207" x2="-77.2242" y2="314.7207" gradientTransform="matrix(2.8346 0 0 -2.8346 438.9902 975.1642)">
		<stop  offset="0" style="stop-color:#FFFFFF"/>
		<stop  offset="1" style="stop-color:#FFFFFF;stop-opacity:0"/>
	</linearGradient>
	<path id="path10" fill="url(#path10_1_)" d="M73.122,83.712c8.064,0.096,15.432,0.576,22.128,1.439
		c6.72,0.863,11.976,1.969,15.769,3.264c1.775-1.392,3.72-2.951,5.832-4.68c2.111-1.704,3.863-3.456,5.279-5.232
		c2.232-2.855,3.36-6.623,3.36-11.328c0-4.2-1.009-7.728-3.024-10.536c-3.6-5.256-9.096-7.872-16.439-7.872
		c-4.416,0-8.928,0.912-13.584,2.736c-4.08,1.656-7.176,3.48-9.264,5.496c-3.937,3.936-6.865,9-8.736,15.167
		c-0.648,2.209-1.032,4.225-1.152,6.024S73.122,81.839,73.122,83.712z M35.562,102.695c8.904-2.256,20.712-3.384,35.448-3.384
		c14.424,0,26.088,1.08,34.944,3.24l1.752-10.344c-9.432-2.473-21.744-3.721-36.984-3.721c-15.336,0-27.624,1.271-36.912,3.792
		L35.562,102.695z M107.274,115.2l-2.088-8.064c-9.289-2.064-20.784-3.096-34.464-3.096c-13.632,0-25.104,1.031-34.392,3.096
		l-2.232,8.136c8.952-2.616,21.168-3.937,36.696-3.937C86.226,111.335,98.37,112.632,107.274,115.2z M109.122,121.823
		c-9.048-3.648-21.768-5.496-38.112-5.496c-16.968,0-29.808,1.872-38.544,5.641c8.256,3.264,21.024,4.92,38.328,4.92
		c8.256,0,15.768-0.456,22.561-1.369C100.17,124.607,105.401,123.359,109.122,121.823z M68.25,83.712
		c-0.024-1.824-0.096-3.648-0.192-5.449c-0.096-1.799-0.456-3.815-1.056-6.023c-1.92-6.264-4.824-11.328-8.736-15.168
		c-2.016-1.968-5.088-3.816-9.264-5.496c-4.776-1.872-9.313-2.808-13.584-2.808c-7.392,0-12.888,2.64-16.44,7.944
		c-2.016,2.808-3.024,6.336-3.024,10.536c0,4.608,1.128,8.375,3.36,11.328c1.368,1.729,3.096,3.48,5.208,5.208
		c2.112,1.728,4.08,3.312,5.904,4.704C38.634,85.536,51.234,83.952,68.25,83.712z M70.722,70.631c0.336-1.32,0.6-2.232,0.839-2.736
		c0.48-1.824,1.008-3.384,1.633-4.656c0.264-0.792,0.672-1.704,1.225-2.76c0.527-1.056,1.104-2.28,1.728-3.624
		c0.36-0.792,0.768-1.776,1.176-2.928c0.432-1.152,0.864-2.28,1.272-3.408c0.383-0.936,0.576-1.944,0.576-3.024
		c0-2.304-0.841-4.248-2.473-5.856c-1.632-1.632-3.624-2.448-5.976-2.448c-5.568,0-8.376,2.808-8.376,8.376
		c0,1.08,0.192,2.088,0.576,3.024c1.032,3.048,1.824,5.16,2.376,6.336c0.625,1.344,1.176,2.568,1.705,3.624
		c0.504,1.056,0.959,1.968,1.32,2.76c0.624,1.561,1.128,3.096,1.56,4.656C69.978,68.231,70.242,69.143,70.722,70.631z"/>
</g>
</svg>
