<?xml version="1.0" encoding="utf-8"?>
<!-- Generator: Adobe Illustrator 15.0.2, SVG Export Plug-In . SVG Version: 6.00 Build 0)  -->
<!DOCTYPE svg PUBLIC "-//W3C//DTD SVG 1.1 Basic//EN" "http://www.w3.org/Graphics/SVG/1.1/DTD/svg11-basic.dtd">
<svg version="1.1" baseProfile="basic"
	 id="svg2" image-rendering="optimizeQuality" shape-rendering="geometricPrecision" text-rendering="geometricPrecision" xmlns:cc="http://web.resource.org/cc/" xmlns:rdf="http://www.w3.org/1999/02/22-rdf-syntax-ns#" xmlns:svg="http://www.w3.org/2000/svg" xmlns:sodipodi="http://sodipodi.sourceforge.net/DTD/sodipodi-0.dtd" xmlns:dc="http://purl.org/dc/elements/1.1/" xmlns:inkscape="http://www.inkscape.org/namespaces/inkscape" sodipodi:modified="true" sodipodi:docbase="/home/fkling/2/v0.1.2reduced/PieceThemes/Merida" sodipodi:docname="bb.svg" inkscape:version="0.45" sodipodi:version="0.32" inkscape:output_extension="org.inkscape.output.svg.inkscape"
	 xmlns="http://www.w3.org/2000/svg" xmlns:xlink="http://www.w3.org/1999/xlink" x="0px" y="0px" width="141.732px"
	 height="141.732px" viewBox="0 0 141.732 141.732" xml:space="preserve">
<path id="path6" fill="#1F1A17" d="M70.866,119.515c-0.648,2.664-1.464,4.512-2.4,5.545c-0.936,1.031-2.16,2.111-3.72,3.239
	c-1.68,1.176-3.672,2.16-5.976,2.976c-2.304,0.816-4.848,1.032-7.656,0.601l-19.752-2.736c-0.816-0.097-1.512-0.097-2.16,0
	c-0.624,0.097-1.224,0.144-1.8,0.144c-0.984,0-2.232,0.217-3.744,0.673c-1.536,0.432-2.712,1.079-3.552,1.92L13.29,120.69
	c0.84-0.936,1.584-1.584,2.232-1.967c0.671-0.361,1.44-0.77,2.328-1.177c2.712-1.272,5.616-2.04,8.712-2.328
	c1.32-0.096,2.616-0.12,3.864-0.071c1.272,0.047,2.592,0,3.96-0.145c2.52,0.432,5.064,0.816,7.608,1.152
	c2.568,0.359,5.136,0.719,7.704,1.104c2.808,0,4.704-0.288,5.688-0.84c0.528-0.288,1.344-0.816,2.472-1.561
	c1.128-0.744,2.256-1.848,3.384-3.312c-2.496-0.265-5.016-0.744-7.608-1.44c-2.568-0.672-4.848-1.392-6.816-2.136l7.32-18.144
	c-3.672-2.112-6.216-3.793-7.68-5.088c-1.44-1.297-2.592-2.785-3.432-4.465c-1.224-2.16-2.016-4.248-2.353-6.264
	c-0.36-2.016-0.504-3.816-0.456-5.424c0.048-2.808,0.696-5.904,1.992-9.312c1.296-3.384,3.72-6.432,7.272-9.096
	c2.952-2.256,5.856-4.584,8.664-6.96c2.808-2.4,5.592-5.184,8.352-8.376c-3.456-1.776-5.184-4.608-5.184-8.496
	c0-2.641,0.912-4.873,2.76-6.768c1.848-1.872,4.128-2.808,6.792-2.808c2.616,0,4.872,0.936,6.744,2.808
	c1.871,1.896,2.808,4.127,2.808,6.768c0,3.839-1.728,6.672-5.185,8.496c2.713,3.192,5.473,5.976,8.257,8.376
	c2.784,2.376,5.712,4.704,8.76,6.96c3.504,2.664,5.904,5.712,7.152,9.096c1.272,3.408,1.968,6.504,2.04,9.312
	c0,1.608-0.145,3.408-0.48,5.424s-1.08,4.104-2.256,6.264c-0.936,1.68-2.111,3.168-3.552,4.465c-1.416,1.295-3.937,2.976-7.56,5.088
	l7.319,18.144c-2.063,0.744-4.392,1.464-6.96,2.136c-2.592,0.696-5.064,1.176-7.464,1.44c1.079,1.464,2.185,2.567,3.312,3.312
	c1.129,0.744,1.969,1.272,2.545,1.561c0.983,0.552,2.879,0.84,5.688,0.84c2.52-0.385,5.064-0.744,7.632-1.104
	c2.544-0.336,5.112-0.721,7.704-1.152c1.248,0.145,2.52,0.191,3.816,0.145c1.295-0.049,2.615-0.024,3.984,0.071
	c2.999,0.288,5.903,1.056,8.711,2.328c0.84,0.407,1.608,0.815,2.28,1.177c0.696,0.383,1.44,1.031,2.28,1.967l-6.889,11.185
	c-0.84-0.841-2.016-1.488-3.552-1.92c-1.512-0.456-2.735-0.673-3.672-0.673c-0.624,0-1.248-0.047-1.872-0.144s-1.344-0.097-2.136,0
	l-19.704,2.736c-2.809,0.432-5.424,0.239-7.824-0.552c-2.424-0.793-4.416-1.849-5.951-3.168c-1.537-1.272-2.785-2.353-3.697-3.265
	C72.234,123.979,71.466,122.179,70.866,119.515L70.866,119.515z"/>
<linearGradient id="path8_1_" gradientUnits="userSpaceOnUse" x1="-133.7271" y1="313.8008" x2="-77.1543" y2="313.4323" gradientTransform="matrix(2.8346 0 0 -2.8346 438.9902 975.1642)">
	<stop  offset="0" style="stop-color:#FFFFFF"/>
	<stop  offset="1" style="stop-color:#FFFFFF;stop-opacity:0"/>
</linearGradient>
<path id="path8" fill="url(#path8_1_)" d="M68.274,67.195v5.976c0,1.729,0.864,2.592,2.592,2.592l0,0
	c1.729,0,2.592-0.863,2.592-2.592v-6.048h6.336c1.633,0,2.473-0.84,2.473-2.543l0,0c0-1.68-0.84-2.52-2.473-2.52h-6.336v-6.336
	c0-1.729-0.863-2.592-2.592-2.592l0,0c-1.728,0-2.592,0.864-2.592,2.592v6.336h-6.192c-1.656,0-2.472,0.84-2.472,2.52l0,0
	c0,1.704,0.816,2.543,2.472,2.543L68.274,67.195z M89.562,106.147l-2.951-7.177c-4.775-1.032-10.032-1.536-15.744-1.536
	c-5.664,0-10.872,0.504-15.6,1.536l-2.952,7.104c5.808-1.465,12-2.184,18.552-2.184C77.347,103.892,83.562,104.635,89.562,106.147z
	 M83.658,91.651l-2.04-4.92v-1.896c-3.553-0.504-7.152-0.768-10.752-0.768c-3.504,0-7.08,0.264-10.68,0.768l-0.072,1.896
	l-1.896,4.92c3.984-0.697,8.184-1.057,12.648-1.057C75.378,90.595,79.626,90.954,83.658,91.651L83.658,91.651z M81.21,118.243
	c-1.872-1.416-3.768-3.648-5.64-6.696h-2.231c0,2.304,0.527,4.536,1.607,6.696H81.21z M66.714,118.243
	c1.08-2.305,1.632-4.537,1.632-6.696H66.09c-1.824,3-3.72,5.231-5.711,6.696H66.714z"/>
</svg>
