<?xml version="1.0" encoding="UTF-8" standalone="no"?>
<!-- Creator: CorelDRAW -->

<svg
   xmlns:dc="http://purl.org/dc/elements/1.1/"
   xmlns:cc="http://creativecommons.org/ns#"
   xmlns:rdf="http://www.w3.org/1999/02/22-rdf-syntax-ns#"
   xmlns:svg="http://www.w3.org/2000/svg"
   xmlns="http://www.w3.org/2000/svg"
   xmlns:sodipodi="http://sodipodi.sourceforge.net/DTD/sodipodi-0.dtd"
   xmlns:inkscape="http://www.inkscape.org/namespaces/inkscape"
   xml:space="preserve"
   width="63.9mm"
   height="63.9mm"
   shape-rendering="geometricPrecision"
   text-rendering="geometricPrecision"
   image-rendering="optimizeQuality"
   fill-rule="evenodd"
   clip-rule="evenodd"
   viewBox="0 0 63.9 63.9"
   id="svg3058"
   version="1.1"
   inkscape:version="0.48.4 r9939"
   sodipodi:docname="bq.svg"><metadata
   id="metadata3129"><rdf:RDF><cc:Work
       rdf:about=""><dc:format>image/svg+xml</dc:format><dc:type
         rdf:resource="http://purl.org/dc/dcmitype/StillImage" /></cc:Work></rdf:RDF></metadata><sodipodi:namedview
   pagecolor="#ffffff"
   bordercolor="#666666"
   borderopacity="1"
   objecttolerance="10"
   gridtolerance="10"
   guidetolerance="10"
   inkscape:pageopacity="0"
   inkscape:pageshadow="2"
   inkscape:window-width="1072"
   inkscape:window-height="787"
   id="namedview3127"
   showgrid="false"
   inkscape:zoom="1.0423231"
   inkscape:cx="113.20866"
   inkscape:cy="113.20866"
   inkscape:window-x="0"
   inkscape:window-y="0"
   inkscape:window-maximized="0"
   inkscape:current-layer="svg3058" />
 <defs
   id="defs3060">
   <linearGradient
   id="id0"
   gradientUnits="userSpaceOnUse"
   x1="24.0577"
   y1="52.6348"
   x2="39.842"
   y2="52.6348">
    <stop
   offset="0"
   stop-color="#466C79"
   id="stop3063" />
    <stop
   offset="1"
   stop-color="#C2CFD3"
   id="stop3065" />
   </linearGradient>
   <linearGradient
   id="id1"
   gradientUnits="userSpaceOnUse"
   x1="24.1194"
   y1="51.5081"
   x2="39.674"
   y2="51.5081">
    <stop
   offset="0"
   stop-color="#CDD7DB"
   id="stop3068" />
    <stop
   offset="1"
   stop-color="white"
   id="stop3070" />
   </linearGradient>
   <linearGradient
   id="id2"
   gradientUnits="userSpaceOnUse"
   x1="21.7718"
   y1="34.3085"
   x2="42.1278"
   y2="34.3085">
    <stop
   offset="0"
   stop-color="#466C79"
   id="stop3073" />
    <stop
   offset="1"
   stop-color="#C2CFD3"
   id="stop3075" />
   </linearGradient>
   <linearGradient
   id="id3"
   gradientUnits="userSpaceOnUse"
   x1="54.0975"
   y1="20.9058"
   x2="57.0779"
   y2="20.9058">
    <stop
   offset="0"
   stop-color="#466C79"
   id="stop3078" />
    <stop
   offset="1"
   stop-color="#C2CFD3"
   id="stop3080" />
   </linearGradient>
   <linearGradient
   id="id4"
   gradientUnits="userSpaceOnUse"
   x1="42.4808"
   y1="17.837"
   x2="45.4612"
   y2="17.837">
    <stop
   offset="0"
   stop-color="#466C79"
   id="stop3083" />
    <stop
   offset="1"
   stop-color="#C2CFD3"
   id="stop3085" />
   </linearGradient>
   <linearGradient
   id="id5"
   gradientUnits="userSpaceOnUse"
   x1="30.4594"
   y1="16.6652"
   x2="33.4398"
   y2="16.6652">
    <stop
   offset="0"
   stop-color="#466C79"
   id="stop3088" />
    <stop
   offset="1"
   stop-color="#C2CFD3"
   id="stop3090" />
   </linearGradient>
   <linearGradient
   id="id6"
   gradientUnits="userSpaceOnUse"
   x1="18.4382"
   y1="17.8369"
   x2="21.4186"
   y2="17.8369">
    <stop
   offset="0"
   stop-color="#466C79"
   id="stop3093" />
    <stop
   offset="1"
   stop-color="#C2CFD3"
   id="stop3095" />
   </linearGradient>
   <linearGradient
   id="id7"
   gradientUnits="userSpaceOnUse"
   x1="6.8215"
   y1="20.9058"
   x2="9.8019"
   y2="20.9058">
    <stop
   offset="0"
   stop-color="#466C79"
   id="stop3098" />
    <stop
   offset="1"
   stop-color="#C2CFD3"
   id="stop3100" />
   </linearGradient>
   <linearGradient
   id="id8"
   gradientUnits="userSpaceOnUse"
   x1="30.4596"
   y1="52.6348"
   x2="33.44"
   y2="52.6348">
    <stop
   offset="0"
   stop-color="#466C79"
   id="stop3103" />
    <stop
   offset="1"
   stop-color="#C2CFD3"
   id="stop3105" />
   </linearGradient>
 </defs>
 <g
   id="Layer_x0020_1">
  <metadata
   id="CorelCorpID_0Corel-Layer" />
  <path
   d="M50.3307 56.3409c0.4099,1.8099 -8.2311,3.3361 -18.3809,3.3361 -10.1498,0 -18.7908,-1.5261 -18.3809,-3.3361l1.7506 -7.7299c0.3709,-1.6376 7.4473,-3.0184 16.6303,-3.0184 9.1831,0 16.2595,1.3809 16.6304,3.0184l1.7505 7.7299z"
   id="path3109"
   stroke-width="1.4111"
   stroke="#1F1A17"
   fill="url(#id0)" />
  <path
   d="M31.8967 54.6748c-1.3489,0 -18.7551,-0.1467 -19.4432,-3.1078 0.2412,-1.0655 0.4812,-2.1254 0.7221,-3.1895l18.7211 -0.036 18.7212 0.036c0.2409,1.0641 0.4808,2.124 0.7221,3.1895 -0.6882,2.9611 -18.0943,3.1078 -19.4433,3.1078z"
   id="path3111"
   stroke-width="1.4111"
   stroke="#1F1A17"
   fill="url(#id1)" />
  <path
   d="M14.7539 48.0742l-8.2491 -26.5652 3.6137 -1.2065 10.6099 21.7539 -2.6935 -23.9132 3.787 -0.6125 6.3304 23.113 1.8745 -23.9785 3.8457 -0.0001 1.8747 23.9786 6.3299 -23.113 3.7877 0.6126 -2.6934 23.9125 10.6092 -21.7533 3.6142 1.2065 -8.2277 26.5652c0.8482,3.7652 -35.2143,3.8776 -34.4132,0z"
   id="path3113"
   stroke-width="1.4111"
   stroke="#1F1A17"
   fill="url(#id2)" />
  <circle
   cx="55.5877"
   cy="20.9058"
   r="3.72543"
   id="circle3115"
   stroke-width="1.4111"
   stroke="#1F1A17"
   fill="url(#id3)"
   d="m 59.31313,20.9058 c 0,2.057498 -1.667932,3.72543 -3.72543,3.72543 -2.057498,0 -3.72543,-1.667932 -3.72543,-3.72543 0,-2.057498 1.667932,-3.72543 3.72543,-3.72543 2.057498,0 3.72543,1.667932 3.72543,3.72543 z" />
  <circle
   cx="43.971"
   cy="17.837"
   r="3.72543"
   id="circle3117"
   stroke-width="1.4111"
   stroke="#1F1A17"
   fill="url(#id4)"
   d="m 47.696431,17.837 c 0,2.057498 -1.667932,3.72543 -3.72543,3.72543 -2.057499,0 -3.72543,-1.667932 -3.72543,-3.72543 0,-2.057498 1.667931,-3.72543 3.72543,-3.72543 2.057498,0 3.72543,1.667932 3.72543,3.72543 z" />
  <circle
   cx="31.9496"
   cy="16.6652"
   r="3.72543"
   id="circle3119"
   stroke-width="1.4111"
   stroke="#1F1A17"
   fill="url(#id5)"
   d="m 35.67503,16.665199 c 0,2.057498 -1.667932,3.72543 -3.72543,3.72543 -2.057498,0 -3.72543,-1.667932 -3.72543,-3.72543 0,-2.057498 1.667932,-3.72543 3.72543,-3.72543 2.057498,0 3.72543,1.667932 3.72543,3.72543 z" />
  <circle
   cx="19.9284"
   cy="17.8369"
   r="3.72543"
   id="circle3121"
   stroke-width="1.4111"
   stroke="#1F1A17"
   fill="url(#id6)"
   d="m 23.65383,17.836901 c 0,2.057498 -1.667932,3.72543 -3.72543,3.72543 -2.057498,0 -3.72543,-1.667932 -3.72543,-3.72543 0,-2.057498 1.667932,-3.72543 3.72543,-3.72543 2.057498,0 3.72543,1.667932 3.72543,3.72543 z" />
  <circle
   cx="8.31169"
   cy="20.9058"
   r="3.72543"
   id="circle3123"
   stroke-width="1.4111"
   stroke="#1F1A17"
   fill="url(#id7)"
   d="m 12.03712,20.9058 c 0,2.057498 -1.667931,3.72543 -3.7254297,3.72543 -2.0574982,0 -3.72543,-1.667932 -3.72543,-3.72543 0,-2.057498 1.6679318,-3.72543 3.72543,-3.72543 2.0574987,0 3.7254297,1.667932 3.7254297,3.72543 z" />
  <circle
   cx="31.9498"
   cy="52.6348"
   r="3.72543"
   id="circle3125"
   stroke-width="1.4111"
   stroke="#1F1A17"
   fill="url(#id8)"
   d="m 35.675231,52.6348 c 0,2.057498 -1.667932,3.72543 -3.725431,3.72543 -2.057498,0 -3.72543,-1.667932 -3.72543,-3.72543 0,-2.057498 1.667932,-3.72543 3.72543,-3.72543 2.057499,0 3.725431,1.667932 3.725431,3.72543 z" />
 </g>
</svg>