<?xml version="1.0" encoding="UTF-8"?>
<!DOCTYPE svg PUBLIC "-//W3C//DTD SVG 1.1//EN" "http://www.w3.org/Graphics/SVG/1.1/DTD/svg11.dtd">
<!-- Creator: CorelDRAW -->
<svg xmlns="http://www.w3.org/2000/svg" xml:space="preserve" width="23mm" height="23mm" shape-rendering="geometricPrecision" text-rendering="geometricPrecision" image-rendering="optimizeQuality" fill-rule="evenodd" clip-rule="evenodd"
viewBox="0 0 23 23">
 <defs>
   <linearGradient id="id0" gradientUnits="userSpaceOnUse" x1="0.9787" y1="12.2245" x2="22.2803" y2="12.2245">
    <stop offset="0" stop-color="#72706F"/>
    <stop offset="1" stop-color="#383431"/>
   </linearGradient>
   <linearGradient id="id1" gradientUnits="userSpaceOnUse" x1="1.885" y1="12.2249" x2="21.3736" y2="12.2249">
    <stop offset="0" stop-color="#969594"/>
    <stop offset="1" stop-color="#1F1A17"/>
   </linearGradient>
 </defs>
 <g id="Layer_x0020_1">
  <metadata id="CorelCorpID_0Corel-Layer"/>
  <path fill="url(#id0)" stroke="#1F1A17" stroke-width="0.3528" stroke-linecap="round" stroke-linejoin="round" d="M11.6296 3.3242c1.2284,0 2.2247,0.9963 2.2247,2.2247 0,1.2286 -0.9963,2.2249 -2.2247,2.2249 -1.2286,0 -2.2249,-0.9963 -2.2249,-2.2249 0,-1.2284 0.9963,-2.2247 2.2249,-2.2247zm6.8357 14.3616l-0.2593 0 -0.2423 -0.2213 -0.2551 -0.211 -0.2671 -0.2004 -0.2785 -0.1898 -0.2898 -0.1796 -0.3001 -0.169 -0.3104 -0.1585 -0.32 -0.1478 -0.3293 -0.1372 -0.3377 -0.1262 -0.3464 -0.1153 -0.3541 -0.104 -0.3621 -0.0929 -0.3693 -0.0812 -0.038 -0.007 1.9062 -9.2322c2.3235,-1.5293 6.0689,1.0094 6.341,4.4062 0.2273,2.8382 -1.4294,4.5853 -3.5877,6.9672zm-7.9115 -2.3267l-1.5954 -7.7261c0.7108,0.6107 1.568,1.0925 2.6711,1.0925 1.0486,0 1.8754,-0.4353 2.5652,-1.003l-1.5797 7.6505 -0.312 -0.0257 -0.3992 -0.0197 -0.4038 -0.0066 -0.4041 0.0066 -0.3992 0.0197 -0.1429 0.0118zm-5.7601 2.3267c-2.1583,-2.3819 -3.815,-4.129 -3.5877,-6.9672 0.2682,-3.3481 3.9112,-5.8623 6.2406,-4.4691l1.9129 9.2645 -0.2036 0.0376 -0.3697 0.0812 -0.3617 0.0929 -0.3543 0.1039 -0.3464 0.1154 -0.3381 0.1262 -0.329 0.1372 -0.3199 0.1478 -0.3102 0.1585 -0.3005 0.1691 -0.2894 0.1796 -0.2784 0.1896 -0.2672 0.2005 -0.2553 0.211 -0.2421 0.2213zm13.7901 3.439l-14.1677 0c0,-2.5421 3.1722,-4.6036 7.0839,-4.6036 3.9116,0 7.0838,2.0615 7.0838,4.6036z"/>
  <path fill="url(#id1)" stroke="#C2C1C1" stroke-width="0.3528" stroke-linecap="round" stroke-linejoin="round" d="M11.6296 4.0251l0.1567 0.0078 0.1511 0.0231 0.1453 0.0374 0.1397 0.0511 0.133 0.064 0.1255 0.0763 0.1174 0.0877 0.1086 0.0988 0.0986 0.1084 0.0878 0.1175 0.0763 0.1257 0.0641 0.1329 0.0511 0.1396 0.0375 0.1458 0.0231 0.151 0.008 0.1567 -0.008 0.1565 -0.0231 0.1511 -0.0376 0.1458 -0.051 0.1396 -0.064 0.1327 -0.0763 0.1257 -0.0881 0.1177 -0.0984 0.1084 -0.1084 0.0984 -0.1177 0.0881 -0.1257 0.0763 -0.1327 0.064 -0.1396 0.0511 -0.1457 0.0376 -0.1511 0.023 -0.1564 0.008 -0.1568 -0.008 -0.1512 -0.0231 -0.1457 -0.0375 -0.1396 -0.0511 -0.1329 -0.0641 -0.1257 -0.0763 -0.1175 -0.0878 -0.1084 -0.0986 -0.0988 -0.1086 -0.0877 -0.1174 -0.0763 -0.1255 -0.064 -0.133 -0.0511 -0.1396 -0.0374 -0.1455 -0.0231 -0.1511 -0.0078 -0.1568 0.0078 -0.157 0.0231 -0.151 0.0374 -0.1455 0.0511 -0.1396 0.0641 -0.1332 0.0762 -0.1255 0.0876 -0.1172 0.0989 -0.1086 0.1086 -0.0989 0.1172 -0.0876 0.1255 -0.0762 0.1332 -0.0641 0.1396 -0.0511 0.1454 -0.0374 0.1512 -0.0231 0.1571 -0.0078zm3.5089 11.1365l-0.3776 -0.1109 -0.1314 -0.0337 1.7036 -8.2508 0.0997 -0.0471 0.1749 -0.0637 0.1808 -0.0474 0.1865 -0.032 0.1923 -0.0162 0.1975 -0.0008 0.2026 0.0151 0.2066 0.0305 0.21 0.0463 0.2122 0.0616 0.2136 0.0773 0.2135 0.092 0.2128 0.107 0.2108 0.1211 0.2078 0.135 0.2032 0.148 0.198 0.1607 0.1917 0.1729 0.1845 0.1843 0.1761 0.195 0.1669 0.2051 0.1567 0.2145 0.1458 0.2235 0.1338 0.2312 0.1213 0.2388 0.1079 0.2456 0.0938 0.2518 0.0789 0.2572 0.0635 0.2626 0.0474 0.2671 0.0311 0.2756 0.0138 0.2304 0.0045 0.2281 -0.0049 0.2219 -0.0138 0.216 -0.0227 0.2104 -0.0311 0.2063 -0.0395 0.2021 -0.0473 0.1983 -0.0555 0.1951 -0.0634 0.1932 -0.0713 0.1911 -0.0789 0.1896 -0.0866 0.1883 -0.0943 0.188 -0.1017 0.1875 -0.1089 0.1873 -0.1165 0.1873 -0.1236 0.1882 -0.1308 0.1889 -0.1374 0.1902 -0.144 0.191 -0.1505 0.1928 -0.1568 0.1946 -0.1624 0.1962 -0.1685 0.1985 -0.1739 0.2014 -0.1792 0.204 -0.1838 0.207 -0.1888 0.21 -0.1931 0.214 -0.0489 0.054 -0.1535 -0.127 -0.2931 -0.2199 -0.3042 -0.2073 -0.3152 -0.1953 -0.3254 -0.1832 -0.3354 -0.1713 -0.3445 -0.1592 -0.3536 -0.1473 -0.3618 -0.1352 -0.3703 -0.1232zm-3.5092 -5.7358l0.2308 -0.0062 0.2252 -0.0177 0.2197 -0.0288 0.2151 -0.0394 0.2087 -0.0498 0.2027 -0.0588 0.1969 -0.0677 0.0601 -0.0239 -1.1357 5.5006 -0.126 -0.0062 -0.4268 -0.007 -0.3826 0.0062 -1.1423 -5.5319 0.0849 0.0355 0.2053 0.0743 0.2113 0.0646 0.2185 0.0547 0.2246 0.0433 0.2304 0.0319 0.2368 0.0196 0.2424 0.0067zm-8.6844 4.9621l-0.1236 -0.188 -0.1162 -0.1874 -0.1093 -0.1876 -0.1017 -0.1874 -0.0942 -0.1878 -0.0866 -0.1884 -0.079 -0.1897 -0.0712 -0.191 -0.0634 -0.1929 -0.0553 -0.1953 -0.0477 -0.1987 -0.0393 -0.2017 -0.0311 -0.2061 -0.0225 -0.2107 -0.014 -0.216 -0.0048 -0.2216 0.0046 -0.228 0.014 -0.2309 0.0303 -0.272 0.0464 -0.2631 0.062 -0.2589 0.0771 -0.254 0.0914 -0.2485 0.1053 -0.2423 0.1184 -0.236 0.1308 -0.2289 0.1423 -0.2213 0.153 -0.2127 0.1629 -0.2035 0.1723 -0.1938 0.1803 -0.1837 0.1876 -0.1724 0.1939 -0.1608 0.1997 -0.1489 0.2039 -0.1363 0.2069 -0.1228 0.209 -0.109 0.2108 -0.0949 0.2105 -0.0805 0.2096 -0.0654 0.2078 -0.0506 0.205 -0.0353 0.2013 -0.0202 0.1965 -0.0049 0.1914 0.0102 0.1862 0.0254 0.1804 0.0406 0.1752 0.056 0.0779 0.033 1.7037 8.2518 -0.2945 0.0757 -0.3779 0.1108 -0.3703 0.1233 -0.3622 0.1352 -0.3534 0.1474 -0.3445 0.1592 -0.335 0.1712 -0.3259 0.1833 -0.3147 0.1954 -0.304 0.207 -0.2932 0.22 -0.0054 0.0045 -0.1314 -0.1455 -0.1886 -0.2101 -0.184 -0.207 -0.1791 -0.2039 -0.1739 -0.2013 -0.1685 -0.1986 -0.1627 -0.1964 -0.1566 -0.1944 -0.1506 -0.1928 -0.1439 -0.1911 -0.1376 -0.1901 -0.1306 -0.1889zm3.5222 4.3586l0.1965 -0.1475 0.2092 -0.1424 0.2206 -0.1369 0.2318 -0.1305 0.2425 -0.1239 0.2533 -0.117 0.2629 -0.1096 0.2726 -0.1018 0.2815 -0.0938 0.2905 -0.0852 0.298 -0.0765 0.3056 -0.0672 0.3128 -0.0577 0.3198 -0.0478 0.3256 -0.0379 0.3313 -0.0273 0.3367 -0.0167 0.3417 -0.0055 0.3414 0.0055 0.3366 0.0167 0.3313 0.0273 0.3257 0.0379 0.3196 0.0478 0.3129 0.0577 0.3054 0.0672 0.2983 0.0765 0.2902 0.0852 0.2815 0.0938 0.2725 0.1018 0.2633 0.1097 0.2531 0.1169 0.2426 0.1239 0.2318 0.1305 0.2208 0.1369 0.2089 0.1423 0.1966 0.1475 0.1842 0.1523 0.1714 0.1567 0.158 0.1601 0.1448 0.1637 0.1313 0.1667 0.1177 0.169 0.1035 0.1706 0.0899 0.1726 0.076 0.1738 0.0623 0.1754 0.0049 0.0175 -12.5533 0 0.0049 -0.0175 0.0622 -0.1755 0.0761 -0.1738 0.0897 -0.1724 0.1038 -0.1708 0.1175 -0.1692 0.1312 -0.1664 0.1445 -0.1635 0.1583 -0.1602 0.1715 -0.1568 0.1842 -0.1522z"/>
 </g>
</svg>
