<?xml version="1.0" encoding="UTF-8"?>
<svg width="100px" height="100px" viewBox="0 0 100 100" version="1.1" xmlns="http://www.w3.org/2000/svg" xmlns:xlink="http://www.w3.org/1999/xlink">
    <title>bn</title>
    <g id="页面-1" stroke="none" stroke-width="1" fill="none" fill-rule="evenodd">
        <g id="bn" transform="translate(0.0381, 0.0381)">
            <g id="_57170288" transform="translate(12.479, 14.5803)">
                <path d="M22.4774,74.7684 C22.4774,73.3486 22.7141,71.4558 23.4237,69.0896 C23.8972,66.724 24.6068,64.5946 25.3171,63.4115 C26.2635,61.9916 28.8658,58.9157 33.3615,54.1833 C37.8572,49.2147 40.2234,45.6654 40.4595,43.5359 C40.6963,40.6968 40.2234,38.8041 39.2764,37.621 L39.2764,37.621 C37.8572,39.5137 36.4373,40.6968 35.0175,41.4064 C30.0489,43.7727 26.2635,45.6654 23.8972,47.0853 C21.2942,48.5051 19.4015,50.1611 18.2184,51.8177 C17.0353,55.6032 16.0889,57.9694 14.9058,58.679 C12.5403,58.679 10.6469,57.9694 9.2277,56.5495 L9.2277,56.5495 C8.0446,57.023 6.8614,57.023 5.9151,56.5495 C4.2584,56.0767 3.3121,55.6032 2.8392,54.8936 C2.6025,54.6568 1.8929,53.2369 0.7098,51.1075 C-0.2366,48.978 -0.2366,46.8485 0.7098,44.4829 L9.9373,25.3177 L9.9373,22.0051 L17.0353,10.8842 C16.3257,9.2282 15.8522,7.5716 15.3793,6.1524 C14.9058,4.0229 14.6697,2.1295 14.6697,0.2368 C17.2721,1.8934 19.6383,4.0229 21.531,6.1524 C22.9509,7.3355 24.134,8.5179 25.0804,9.9378 L28.3929,8.7547 C28.629,8.0451 28.629,7.0987 29.1025,6.1524 C29.5761,4.259 30.7585,2.1295 32.1784,0 C33.5983,1.4199 35.0175,3.0759 35.7277,4.7325 C35.7277,5.2054 35.9645,5.6789 36.2006,6.1524 C36.9108,7.3355 37.3837,8.5179 37.8572,9.9378 C39.7499,8.5179 42.1162,8.2819 44.4824,8.5179 C46.8479,8.9915 49.4509,9.9378 51.8172,11.3577 C54.1827,12.7769 56.7857,15.1431 59.6248,18.6925 C62.4645,22.0051 65.0669,25.7905 67.6699,30.2862 C70.2722,35.965 72.1656,41.8799 72.8752,48.2684 L74.7679,74.7684 L22.4774,74.7684 Z" id="_57488024" fill="#0A0B0C"></path>
                <g id="编组" transform="translate(2.0003, 3.2973)">
                    <path d="M70.7624579,71.4711 L68.8827579,45.1532 C68.2075579,39.119 66.4061579,33.4158 63.8908579,27.9085 C61.6050579,23.9682 59.0743579,20.1596 56.1060579,16.6969 L56.0838579,16.671 L56.0626579,16.6445 C54.0637579,14.1456 51.5554579,11.4359 48.7878579,9.7754 C46.7838579,8.5729 44.4789579,7.6724 42.1861579,7.2013 C40.4337579,7.0371 38.5145579,7.147 37.0570579,8.2403 L34.8373579,9.9055 L33.9595579,7.2732 C33.5646579,6.0889 33.1295579,4.9574 32.4854579,3.8845 L32.4452579,3.8175 L32.4104579,3.7476 C32.1131579,3.1513 31.8576579,2.5895 31.7647579,1.9516 C31.4429579,1.2901 30.9858579,0.6276 30.4802579,0 C29.8614579,1.0923 29.3148579,2.2509 29.0423579,3.3404 L28.9890579,3.5536 L28.8907579,3.7501 C28.5665579,4.3979 28.5318579,5.3626 28.2902579,6.0888 L27.9827579,7.0132 L22.2820579,9.0493 L21.4158579,7.7497 C20.5527579,6.4548 19.4409579,5.3837 18.2503579,4.3916 L18.1352579,4.2957 L18.0357579,4.1838 C17.1276579,3.162 16.1412579,2.1773 15.0942579,1.2613 C15.1599579,1.6154 15.2319579,1.9691 15.3095579,2.3227 C15.8080579,3.8272 16.2471579,5.338 16.8732579,6.7992 L17.2898579,7.7714 L9.93695792,19.2917 L9.93695792,22.4768 L0.542357916,41.9891 C-0.122842084,43.682 -0.222442084,45.2357 0.503757916,46.9218 C0.931257916,47.6928 1.34915792,48.4685 1.76965792,49.2434 C1.94035792,49.5581 2.14175792,49.9676 2.34465792,50.2737 L2.39335792,50.3224 L2.50315792,50.4872 C2.71605792,50.8067 4.11955792,51.2308 4.46365792,51.329 L4.64295792,51.3802 L4.80975792,51.4636 C5.31845792,51.7182 5.98035792,51.597 6.48425792,51.3954 L7.70915792,50.9051 L8.64195792,51.8383 C9.62025792,52.8172 10.8407579,53.2436 12.1651579,53.3524 C12.9699579,52.2049 14.0487579,48.7567 14.3091579,47.9238 L14.4045579,47.6184 L14.5904579,47.358 C16.1843579,45.1263 18.5144579,43.3597 20.9027579,42.0521 C22.4173579,41.1452 24.0020579,40.3195 25.5753579,39.5203 C27.7458579,38.4178 29.9410579,37.3589 32.1389579,36.3121 C33.5645579,35.595 34.7292579,34.3864 35.6759579,33.1239 L37.2244579,31.0587 L38.8374579,33.0739 C40.4588579,35.0996 40.6595579,37.9186 40.4522579,40.4048 L40.4499579,40.4319 L40.4469579,40.459 C40.0361579,44.1644 35.2538579,49.5647 32.8441579,52.2279 L32.8278579,52.2459 L32.8111579,52.2635 C31.0132579,54.1561 29.2286579,56.0767 27.5203579,58.051 C26.6791579,59.0232 25.7278579,60.1116 25.0084579,61.1824 C24.2330579,62.499 23.6802579,64.7071 23.3844579,66.1848 L23.3660579,66.2769 L23.3390579,66.3668 C22.8538579,67.9847 22.4770579,69.7741 22.4770579,71.4711 L70.7624579,71.4711 L70.7624579,71.4711 Z" id="_57487784" fill="#151314"></path>
                    <path d="M68.7573579,71.4711 L66.8907579,45.3362 C66.2394579,39.5612 64.5121579,34.1014 62.1119579,28.8277 C59.9007579,25.024 57.4544579,21.3429 54.5875579,17.9985 L54.5432579,17.9469 L54.5007579,17.8938 C52.6635579,15.5968 50.3051579,13.018 47.7587579,11.4903 C45.9795579,10.4227 43.9276579,9.6144 41.8909579,9.1828 C40.7065579,9.0806 39.2344579,9.1071 38.2572579,9.8402 L33.8179579,13.1706 L32.0622579,7.9059 C31.7155579,6.8661 31.3364579,5.8562 30.7707579,4.9138 L30.6902579,4.7798 L30.6532579,4.7056 C30.4929579,5.1192 30.3489579,6.2363 30.1879579,6.7202 L29.5728579,8.569 L21.4839579,11.458 L19.7516579,8.859 C19.6200579,8.6615 19.4810579,8.4699 19.3357579,8.2834 L11.9369579,19.8755 L11.9369579,22.9332 L2.37805792,42.7868 C1.93965792,43.928 1.84075792,44.9143 2.30775792,46.0524 C2.82855792,47.0075 3.36245792,48.11 3.92525792,49.026 L3.94785792,49.0485 L3.95035792,49.0523 C4.26875792,49.1958 4.74835792,49.3304 5.01245792,49.4058 L5.37115792,49.5081 L5.55175792,49.5985 C5.61785792,49.5845 5.69505792,49.557 5.74105792,49.5386 L8.19095792,48.5581 L10.0564579,50.4245 C10.3646579,50.7328 10.7155579,50.948 11.0934579,51.095 C11.6254579,49.8396 12.1776579,48.0393 12.4001579,47.3272 L12.5910579,46.7164 L12.9629579,46.1957 C14.7286579,43.7233 17.2614579,41.7706 19.9078579,40.3167 C23.4840579,38.1777 27.4947579,36.3084 31.2578579,34.5165 C32.3823579,33.9451 33.3306579,32.9178 34.0757579,31.9241 L37.1728579,27.7937 L40.3988579,31.8241 C42.3654579,34.281 42.6982579,37.5387 42.4453579,40.5711 L42.4407579,40.6253 L42.4347579,40.6794 C41.9572579,44.9867 37.1317579,50.4702 34.3272579,53.5698 L34.2946579,53.6058 L34.2611579,53.641 C32.4846579,55.511 30.7207579,57.4089 29.0327579,59.3596 C28.2615579,60.251 27.3709579,61.2629 26.7035579,62.2459 C26.0760579,63.3442 25.5862579,65.375 25.3455579,66.5774 L25.3087579,66.7615 L25.2547579,66.9413 C24.8275579,68.366 24.4770579,69.9753 24.4770579,71.4711 L68.7573579,71.4711 L68.7573579,71.4711 Z" id="_57487544" fill="#201C1C"></path>
                    <path d="M66.7522579,71.4711 L64.8987579,45.52 C64.2715579,40.0039 62.6181579,34.7869 60.3326579,29.7466 C58.1963579,26.0794 55.8344579,22.526 53.0691579,19.3002 L53.0027579,19.2227 L52.9389579,19.143 C51.2653579,17.0507 49.0520579,14.5986 46.7297579,13.2053 C45.1774579,12.2738 43.3820579,11.5589 41.6034579,11.1668 C40.9512579,11.1202 39.9004579,11.1077 39.4574579,11.44 L32.7984579,16.4356 L30.7438579,10.2745 L20.6859579,13.8668 L19.3877579,11.9192 L13.9369579,20.4594 L13.9369579,23.3896 L4.21535792,43.581 C3.99655792,44.1635 3.91315792,44.6271 4.12505792,45.2074 C4.51475792,45.9259 4.90125792,46.6884 5.30445792,47.409 C5.38075792,47.4314 5.45485792,47.4523 5.52295792,47.4716 L8.67285792,46.211 L10.1834579,47.7224 C10.3048579,47.3361 10.4100579,46.9903 10.4912579,46.7306 L10.7775579,45.8144 L11.3353579,45.0333 C13.2720579,42.3216 16.0098579,40.1809 18.9124579,38.5816 C22.5288579,36.4216 26.5682579,34.5342 30.3719579,32.7232 C31.1884579,32.3007 31.9388579,31.4402 32.4756579,30.7242 L37.1211579,24.5288 L41.9602579,30.5743 C44.2680579,33.4574 44.7362579,37.1656 44.4383579,40.7373 L44.4316579,40.8186 L44.4226579,40.8998 C43.8810579,45.7846 38.9945579,51.3923 35.8102579,54.9116 L35.7613579,54.9656 L35.7111579,55.0185 C33.9560579,56.866 32.2128579,58.741 30.5451579,60.6683 C29.8470579,61.4751 29.0215579,62.4065 28.4063579,63.299 C27.9243579,64.1905 27.4936579,66.0358 27.3066579,66.9699 L27.2513579,67.2461 L27.1704579,67.5158 C26.8017579,68.7454 26.4770579,70.1784 26.4770579,71.4711 L66.7522579,71.4711 L66.7522579,71.4711 Z" id="_41228632" fill="#2A2626"></path>
                    <path d="M64.7471579,71.4711 L62.9068579,45.7048 C62.3037579,40.4473 60.7243579,35.4723 58.5530579,30.6651 C56.4918579,27.1346 54.2142579,23.709 51.5506579,20.6019 L51.4621579,20.4986 L51.3771579,20.3923 C49.8699579,18.508 47.7954579,16.177 45.7007579,14.9203 C44.3741579,14.1242 42.8346579,13.5032 41.3121579,13.1514 C41.0349579,13.1351 40.7088579,13.1291 40.4892579,13.1662 L31.7789579,19.7007 L29.4928579,12.8451 L19.8878579,16.2756 L19.4240579,15.5797 L15.9369579,21.0433 L15.9369579,23.846 L6.06445792,44.3509 C6.04685792,44.4021 6.03035792,44.4548 6.01815792,44.5036 C6.10855792,44.6717 6.19865792,44.8411 6.28875792,45.0109 L9.15465792,43.8639 L9.48025792,44.1897 L9.70785792,43.871 C11.8147579,40.9208 14.7593579,38.591 17.9166579,36.8469 C21.5701579,34.6676 25.6352579,32.7632 29.4767579,30.9343 C29.9693579,30.6677 30.5624579,29.942 30.8755579,29.5244 L37.0695579,21.2638 L43.5216579,29.3245 C46.1642579,32.6259 46.7735579,36.8017 46.4314579,40.9035 L46.4224579,41.012 L46.4104579,41.1202 C45.8069579,46.5632 40.8444579,52.3288 37.2932579,56.2535 L37.2280579,56.3255 L37.1611579,56.3959 C35.1003579,58.5653 31.8994579,61.7715 30.1479579,64.295 C29.7581579,65.109 29.4342579,66.5307 29.2677579,67.3624 L29.1940579,67.7306 L29.0861579,68.0903 C28.7768579,69.1219 28.4770579,70.3843 28.4770579,71.4711 L64.7471579,71.4711 L64.7471579,71.4711 Z" id="_57150984" fill="#35302F"></path>
                    <path d="M62.7420579,71.4711 L60.9150579,45.8906 C60.3361579,40.8913 58.8306579,36.1575 56.7731579,31.5832 C54.7870579,28.1893 52.5938579,24.8917 50.0322579,21.9035 L49.9215579,21.7744 L49.8153579,21.6416 C48.4777579,19.9694 46.5343579,17.7528 44.6717579,16.6352 C43.6081579,15.997 42.3754579,15.4845 41.1505579,15.1704 L37.1538579,18.1686 L45.0830579,28.0747 C48.0578579,31.7911 48.8105579,36.4419 48.4245579,41.0698 L48.4132579,41.2053 L48.3982579,41.3406 C47.7346579,47.3261 42.6832579,53.2774 38.7762579,57.5954 L38.6948579,57.6854 L38.6112579,57.7734 C36.6580579,59.8295 33.6239579,62.8654 31.9044579,65.2756 C31.6058579,65.9938 31.3691579,67.054 31.2288579,67.755 L31.1367579,68.2152 L31.0019579,68.6648 C30.7532579,69.4939 30.4770579,70.5948 30.4770579,71.4711 L62.7420579,71.4711 L62.7420579,71.4711 Z M36.5520579,18.6202 L30.7595579,22.9657 L28.2417579,15.4156 L20.0293579,18.3488 L17.9369579,21.6271 L17.9369579,24.3024 L10.3896579,39.9779 C12.3035579,38.0428 14.5496579,36.4251 16.9203579,35.1123 C20.5881579,32.9274 24.6515579,31.016 28.5095579,29.1797 C28.7604579,28.9922 29.1048579,28.552 29.2753579,28.3246 L36.5520579,18.6202 L36.5520579,18.6202 Z" id="_56883984" fill="#3F3B3A"></path>
                    <path d="M60.7369579,71.4711 L58.9233579,46.0775 C58.3687579,41.336 56.9371579,36.8426 54.9927579,32.5009 C53.0820579,29.2436 50.9732579,26.0743 48.5138579,23.2052 L48.3809579,23.0503 L48.2534579,22.8909 C47.0899579,21.4363 45.2671579,19.3248 43.6426579,18.3502 C43.0014579,17.9654 42.2807579,17.6322 41.5430579,17.3762 L40.0049579,18.53 L46.6444579,26.8248 C49.9487579,30.9529 50.8471579,36.0858 50.4176579,41.236 L50.4040579,41.3987 L50.3860579,41.561 C49.6637579,48.0761 44.5129579,54.2362 40.2593579,58.9373 L40.1615579,59.0453 L40.0612579,59.1509 C38.1616579,61.1505 35.4077579,63.9128 33.6776579,66.2463 C33.4658579,66.8403 33.3008579,67.5937 33.1899579,68.1475 L33.0794579,68.6998 L32.9176579,69.2393 C32.7320579,69.858 32.4770579,70.8141 32.4770579,71.4711 L60.7369579,71.4711 L60.7369579,71.4711 Z M29.3107579,24.9435 L26.9906579,17.9862 L21.3468579,20.0019 L19.9369579,22.211 L19.9369579,24.7588 L15.7366579,33.4826 C15.7989579,33.4475 15.8613579,33.4127 15.9238579,33.378 C19.5497579,31.2205 23.5451579,29.3271 27.3657579,27.5091 C27.4776579,27.3869 27.5904579,27.2378 27.6752579,27.1248 L29.3107579,24.9435 L29.3107579,24.9435 Z" id="_56990496" fill="#494543"></path>
                    <path d="M58.7318579,71.4711 L56.9316579,46.2656 C56.4016579,41.7814 55.0437579,37.5276 53.2120579,33.418 C52.2878579,31.8465 51.3157579,30.2953 50.2772579,28.7912 C52.2317579,32.6445 52.7772579,37.0081 52.4107579,41.4023 L52.3948579,41.592 L52.3738579,41.7813 C51.5940579,48.8152 46.3348579,55.2035 41.7423579,60.2791 L41.6282579,60.4052 L41.5112579,60.5284 C39.6881579,62.4475 37.1871579,64.964 35.4739579,67.1945 C35.3386579,67.6394 35.2315579,68.138 35.1510579,68.54 L35.0220579,69.1844 L34.8333579,69.8138 C34.6973579,70.267 34.4972579,70.9846 34.4775579,71.4711 L58.7318579,71.4711 L58.7318579,71.4711 Z M27.0819579,24.5821 L25.7396579,20.5568 L22.6643579,21.6551 L21.9369579,22.7948 L21.9369579,25.2152 L20.2340579,28.752 C22.1806579,27.7646 24.1562579,26.8217 26.0944579,25.8992 L27.0819579,24.5821 L27.0819579,24.5821 Z" id="_41210056" fill="#534F4E"></path>
                    <path d="M56.7267579,71.4711 L54.9400579,46.455 C54.7869579,45.1741 54.5623579,43.9126 54.2757579,42.6686 C53.2078579,49.9364 48.0046579,56.339 43.2253579,61.621 L43.0950579,61.7651 L42.9612579,61.9059 C41.2314579,63.7267 38.9643579,66.0158 37.2927579,68.123 C37.2215579,68.4003 37.1619579,68.6838 37.1121579,68.9326 L36.9647579,69.669 L36.7490579,70.3883 C36.6563579,70.6974 36.5334579,71.1231 36.4871579,71.4711 L56.7267579,71.4711 L56.7267579,71.4711 Z M24.8532579,24.2207 L24.4885579,23.1273 L23.9818579,23.3083 L23.9369579,23.3787 L23.9369579,24.7123 C24.2217579,24.5762 24.5060579,24.4405 24.7897579,24.3054 L24.8532579,24.2207 L24.8532579,24.2207 Z" id="_41542656" fill="#5C5857"></path>
                    <path d="M54.7216579,71.4711 L53.2942579,51.4848 C51.0190579,55.7018 47.8206579,59.5232 44.7083579,62.9629 L44.5617579,63.1249 L44.4112579,63.2834 C42.7880579,64.992 40.7413579,67.0661 39.1336579,69.0334 C39.1120579,69.1336 39.0919579,69.2317 39.0732579,69.3251 L38.9074579,70.1536 L38.6647579,70.9628 C38.6189579,71.1156 38.5657579,71.2952 38.5242579,71.4711 L54.7216579,71.4711 L54.7216579,71.4711 Z" id="_56889920" fill="#64615F"></path>
                    <path d="M52.7166579,71.4711 L51.7282579,57.6325 C50.0020579,59.9832 48.0937579,62.2023 46.1914579,64.3048 L46.0285579,64.4848 L45.8612579,64.6609 C44.3539579,66.2476 42.5153579,68.1175 40.9912579,69.9331 L40.8501579,70.6381 L40.6003579,71.4711 L52.7166579,71.4711 Z" id="_57152128" fill="#6D6A69"></path>
                    <path d="M50.7115579,71.4711 L50.0986579,62.8901 C49.3012579,63.828 48.4890579,64.7463 47.6744579,65.6466 L47.4952579,65.8447 L47.3112579,66.0383 C45.9223579,67.5004 44.2759579,69.1809 42.8491579,70.8413 L42.7927579,71.1227 L42.6882579,71.4711 L50.7115579,71.4711 L50.7115579,71.4711 Z" id="_56981216" fill="#747271"></path>
                    <path d="M48.7064579,71.4711 L48.4408579,67.7524 C47.3323579,68.9145 46.0999579,70.1886 44.9597579,71.4711 L48.7064579,71.4711 Z" id="_58412816" fill="#7C7A79"></path>
                </g>
                <path d="M0.0297,49.8669 L4.0231,45.9135 L6.8508,48.7426 L2.0256,53.5194 L0.0297,49.8669 L0.0297,49.8669 Z M15.0593,24.0058 C16.0803,23.1705 18.9777,20.738 19.3966,19.4798 L20.0285,17.5823 L23.8236,18.846 L23.1918,20.7436 C22.4185,23.0659 19.4449,25.586 17.5921,27.1018 L16.0441,28.3682 L13.5113,25.2722 L15.0593,24.0058 Z M6.6671,56.8161 L11.2372,49.7617 L14.5956,51.9345 L10.6584,58.0198 L9.373,56.6909 L6.6671,56.8161 Z" id="_57488504" fill="#605D5C"></path>
                <path d="M14.6697,0.2368 C14.6697,2.1295 14.9058,4.0229 15.3793,6.1524 C15.8522,7.5716 16.3257,9.2282 17.0353,10.8842 L9.9373,22.0051 L9.9373,25.3177 L0.7098,44.4829 C-0.2366,46.8485 -0.2366,48.978 0.7098,51.1075 C1.8929,53.2369 2.6025,54.6568 2.8392,54.8936 C3.3121,55.6032 4.2584,56.0767 5.9151,56.5495 C6.8614,57.023 8.0446,57.023 9.2277,56.5495 L11.83,52.5273 L9.2277,56.5495 C10.6469,57.9694 12.5403,58.679 14.9058,58.679 C16.0889,57.9694 17.0353,55.6032 18.2184,51.8177 C19.4015,50.1611 21.2942,48.5051 23.8972,47.0853 C26.2635,45.6654 30.0489,43.7727 35.0175,41.4064 C36.4373,40.6968 37.8572,39.5137 39.2764,37.621 C40.2234,36.4379 40.933,34.7819 41.1698,32.8885 C41.6426,30.7591 41.6426,28.6303 41.1698,26.5001 C41.6426,28.6303 41.6426,30.7591 41.1698,32.8885 C40.933,34.7819 40.2234,36.4379 39.2764,37.621 C40.2234,38.8041 40.6963,40.6968 40.4595,43.5359 C40.2234,45.6654 37.8572,49.2147 33.3615,54.1833 C28.8658,58.9157 26.2635,61.9916 25.3171,63.4115 C24.6068,64.5946 23.8972,66.724 23.4237,69.0896 C22.7141,71.4558 22.4774,73.3486 22.4774,74.7684 L74.7679,74.7684 L72.8752,48.2684 C72.1656,41.8799 70.2722,35.965 67.6699,30.2862 C65.0669,25.7905 62.4645,22.0051 59.6248,18.6925 C56.7857,15.1431 54.1827,12.7769 51.8172,11.3577 C49.4509,9.9378 46.8479,8.9915 44.4824,8.5179 C42.1162,8.2819 39.7499,8.5179 37.8572,9.9378 C37.3837,8.5179 36.9108,7.3355 36.2006,6.1524 C35.9645,5.6789 35.7277,5.2054 35.7277,4.7325 C35.0175,3.0759 33.5983,1.4199 32.1784,1.42108547e-14 C30.7585,2.1295 29.5761,4.259 29.1025,6.1524 C28.629,7.0987 28.629,8.0451 28.3929,8.7547 L25.0804,9.9378 C24.134,8.5179 22.9509,7.3355 21.531,6.1524 C19.6383,4.0229 17.2721,1.8934 14.6697,0.2368 L14.6697,0.2368 Z M16.3257,25.5538 C18.9287,23.4243 20.8214,21.5316 21.2942,20.1117 C20.8214,21.5316 18.9287,23.4243 16.3257,25.5538 L16.3257,25.5538 Z M2.3657,50.3978 L4.0224,48.7419 L2.3657,50.3978 Z" id="_41545344" stroke="#0A0B0C" stroke-width="1.4111"></path>
            </g>
            <rect id="矩形" stroke="#FFFFFF" stroke-width="0.0762" x="0" y="0" width="99.726" height="99.726"></rect>
        </g>
    </g>
</svg>