<?xml version="1.0" encoding="UTF-8"?>
<svg width="100px" height="100px" viewBox="0 0 100 100" version="1.1" xmlns="http://www.w3.org/2000/svg" xmlns:xlink="http://www.w3.org/1999/xlink">
    <title>bp</title>
    <g id="页面-1" stroke="none" stroke-width="1" fill="none" fill-rule="evenodd">
        <g id="bp" transform="translate(0.0381, 0.0381)">
            <rect id="矩形" stroke="#FFFFFF" stroke-width="0.0762" x="0" y="0" width="99.726" height="99.726"></rect>
            <path d="M75.6956,87.07 L75.6956,88.3837 C74.5581,88.7691 73.0387,89.0175 71.1369,89.1126 C69.7177,89.3487 62.6197,89.3487 50.5524,89.3487 C38.2484,89.3487 31.3871,89.3487 29.7305,89.1126 C27.9515,89.0189 26.5066,88.7766 25.4092,88.4011 L25.4092,87.07 C25.4092,78.3154 25.4716,70.7438 30.9136,64.3554 C34.463,60.3332 38.4852,57.7302 42.9809,56.311 L41.561,55.6007 L40.8514,55.364 L38.9587,53.9448 C35.6461,51.3418 34.2262,48.5027 34.2262,44.9534 L34.463,42.5871 C34.9358,40.2216 36.3557,38.0921 38.9587,36.1987 C41.3249,34.306 44.164,33.1229 47.4766,32.65 L50.3157,32.4133 L54.3379,32.8868 C56.9408,33.3596 59.5432,34.5427 61.6726,36.1987 C64.7485,38.5649 66.4051,41.6408 66.4051,44.9534 C66.4051,48.5027 64.7485,51.3418 61.6726,53.9448 C60.963,54.4176 59.7799,55.1279 58.36,55.8375 C58.1689,55.933 57.9736,56.0241 57.7739,56.1111 C57.8925,56.1758 58.0097,56.242 58.124,56.311 C62.6197,57.7302 66.4051,60.3332 69.9544,64.3554 C75.3958,70.7438 75.6956,78.3154 75.6956,87.07 L75.6956,87.07 Z M56.7937,18.6252 C55.0333,17.0908 53.0213,16.324 50.5059,16.324 C48.2421,16.324 45.9784,17.0908 44.2174,18.6252 C42.7087,20.1595 41.7027,21.949 41.7027,24.2502 C41.7027,26.2956 42.7087,28.3417 44.2174,29.8753 C46.0961,31.3075 48.1053,32.1765 50.5059,32.1765 C52.0152,32.1765 53.2722,31.9207 54.5299,31.4097 C55.285,30.898 56.0393,30.387 56.7937,29.8753 C58.5547,28.3417 59.3091,26.2956 59.3091,24.2502 C59.3091,21.949 58.5547,20.1595 56.7937,18.6252 L56.7937,18.6252 Z" id="形状" fill="#0A0B0C"></path>
            <g id="_57019280" transform="translate(27.4087, 18.324)">
                <path d="M41.0341835,47.3414 C37.9810835,43.8849 34.5329835,41.2894 30.1131835,39.8941 L29.8856835,39.8224 L29.6817835,39.6992 C29.5915835,39.6449 29.4997835,39.5931 29.4075835,39.5427 L25.8197835,37.5858 L29.5666835,35.9534 C29.7319835,35.8814 29.8956835,35.8051 30.0571835,35.7247 C31.0727835,35.2169 32.1076835,34.6463 33.0592835,34.0198 C35.3727835,32.0402 36.9964835,29.7709 36.9963835,26.6294 C36.9963835,23.657 35.3352835,21.2223 33.0444835,19.46 L33.0359835,19.4535 C31.1966835,18.0229 28.9240835,16.9688 26.6310835,16.5414 L22.8726835,16.0991 L20.2939835,16.3141 C17.5352835,16.716 14.9865835,17.687 12.7992835,19.4363 L12.7634835,19.4651 L12.7263835,19.4921 C10.9654835,20.7731 9.49928345,22.391 9.03408345,24.5656 L8.81778345,26.7249 C8.84588345,29.9155 10.2801835,32.0749 12.7683835,34.0347 L14.3830835,35.2455 L14.9198835,35.4245 L20.8834835,38.4076 L16.1743835,39.8941 C11.7368835,41.2949 8.08738345,43.8652 5.01628345,47.3414 C-0.162016546,53.4317 0.000483453771,61.1871 0.000583453771,68.746 L0.000583453771,70.5539 C0.697083454,70.6649 1.47118345,70.7438 2.32178345,70.7886 C3.97838345,71.0247 10.8396835,71.0247 23.1436835,71.0247 C35.2109835,71.0247 42.3089835,71.0247 43.7281835,70.7886 C44.6761835,70.7412 45.5287835,70.6554 46.2868835,70.5339 L46.2868835,68.7461 C46.2868835,61.1243 46.2304835,53.4527 41.0341835,47.3414 L41.0341835,47.3414 Z M18.1796835,1.7599 C17.0354835,2.94 16.2939835,4.2355 16.2939835,5.9263 C16.2939835,7.4509 17.1039835,8.9581 18.1377835,10.049 C19.6316835,11.1627 21.1978835,11.8524 23.0971835,11.8526 C24.1946835,11.8523 25.1725835,11.6906 26.1821835,11.3061 C26.8396835,10.8606 27.4974835,10.4148 28.1548835,9.9688 C29.3219835,8.9117 29.9003835,7.5008 29.9003835,5.9262 C29.9003835,4.1925 29.3856835,2.9546 28.0710835,1.8091 C26.6069835,0.5329 25.0314835,0 23.0970835,0 C21.3090835,0 19.5449835,0.5959 18.1796835,1.7599 Z" id="_55542328" fill="#131213"></path>
                <path d="M39.5226835,48.6511 C36.7169835,45.4781 33.5732835,43.0839 29.5112835,41.8016 L29.0561835,41.658 L28.6480835,41.4113 C28.5829835,41.372 28.5162835,41.335 28.4496835,41.2986 L24.7545835,39.2829 L16.7763835,41.8014 C12.6929835,43.0904 9.35488345,45.4555 6.52778345,48.6515 C1.76218345,54.2693 2.00038345,61.7949 2.00028345,68.746 L2.00028345,70.7695 C2.10638345,70.7763 2.21318345,70.7829 2.32178345,70.7886 C3.97838345,71.0247 10.8396835,71.0247 23.1436835,71.0247 C35.2109835,71.0247 42.3089835,71.0247 43.7281835,70.7886 C43.9183835,70.7791 44.1042835,70.7676 44.2867896,70.7551 L44.2867896,68.746 C44.2867896,61.7141 44.3198835,54.3061 39.5226835,48.6511 L39.5226835,48.6511 Z M22.3616835,36.9108 L28.7674835,34.1201 C28.9009835,34.0619 29.0329835,34.0005 29.1631835,33.9354 C30.0702835,33.4819 30.9984835,32.9737 31.8546835,32.4178 C33.6542835,30.8588 34.9963835,29.1081 34.9963835,26.6294 C34.9963835,24.2974 33.6097835,22.4182 31.8249835,21.0449 L31.8083835,21.0323 C30.2377835,19.811 28.2855835,18.8961 26.3279835,18.5195 L22.8386835,18.109 L20.5228835,18.3019 C18.1413835,18.6575 15.9403835,19.4851 14.0485835,20.9981 L13.9767835,21.0556 L13.9029835,21.1096 C12.5916835,22.0633 11.3947835,23.2704 11.0121835,24.8856 L10.8193835,26.8101 C10.8720835,29.3091 12.0257835,30.8997 13.9874835,32.4491 L15.3234835,33.4508 L15.6875835,33.5722 L22.3616835,36.9108 Z M19.5465835,3.2236 C18.8117835,3.9969 18.2938835,4.8152 18.2941833,5.9262 C18.2940835,6.8627 18.8505835,7.8476 19.4782835,8.552 C20.5733835,9.3428 21.7037835,9.8524 23.0972835,9.85250008 C23.8763835,9.8526 24.5579835,9.7545 25.2655835,9.5115 C25.8113835,9.1413 26.3575835,8.7714 26.9031835,8.401 C27.5875835,7.7363 27.9001835,6.893 27.9004835,5.9261 C27.9002835,4.7737 27.6315835,4.0788 26.7570835,3.3169 C25.6586835,2.3593 24.5473835,2 23.0970835,1.9998 C21.8161835,2 20.5401835,2.4077 19.5465835,3.2236 Z" id="_57679832" fill="#1E1B1B"></path>
                <path d="M38.0102835,49.9601 C35.4531835,47.0715 32.6122835,44.8778 28.9090835,43.7087 L28.2268835,43.4933 L27.6144835,43.1234 C27.5741835,43.0993 27.5328835,43.0768 27.4916835,43.0543 L24.5444835,41.4465 L17.3784835,43.7087 C13.6492835,44.8856 10.6222835,47.0458 8.03968345,49.9603 C3.68688345,55.1082 4.00018345,62.392 4.00048345,68.746 L4.00048345,70.9059 C7.02228345,71.0247 13.3629835,71.0247 23.1436835,71.0247 C32.8942835,71.0247 39.3993835,71.0247 42.2871562,70.8999 L42.2871562,68.7461 C42.2871562,62.3193 42.4020835,55.1519 38.0102835,49.9601 L38.0102835,49.9601 Z M22.4201835,34.7038 L27.9687835,32.2865 C28.0703835,32.2425 28.1701835,32.1957 28.2691835,32.1464 C29.0686835,31.7467 29.8903835,31.3 30.6515835,30.8137 C31.9349835,29.6883 32.9962835,28.4235 32.9962835,26.6296 C32.9962835,24.9518 31.8731835,23.6056 30.6054835,22.6304 L30.5804835,22.6111 C29.2775835,21.5978 27.6434835,20.8223 26.0180835,20.4972 L22.8045835,20.1187 L20.7557835,20.2894 C18.7506835,20.5965 16.8945835,21.283 15.2977835,22.5602 L15.1903835,22.646 L15.0793835,22.7267 C14.2293835,23.345 13.2868835,24.1821 12.9868835,25.2373 L12.8222835,26.8789 C12.8957835,28.6785 13.7716835,29.7278 15.2074835,30.8641 L16.2640835,31.656 L16.4553835,31.7199 L22.4201835,34.7038 L22.4201835,34.7038 Z M20.8999835,4.7027 C20.5792835,5.0484 20.2939835,5.4393 20.2941833,5.9263 C20.2939835,6.262 20.5802835,6.7321 20.8478835,7.0708 C21.5271835,7.5339 22.2332835,7.8524 23.0972835,7.85230068 C23.5678835,7.8525 23.9707835,7.8089 24.3849835,7.6921 C24.7910835,7.4171 25.1967835,7.1421 25.6025835,6.8667 C25.8244835,6.6031 25.9003835,6.2998 25.9003835,5.9262 C25.9003835,5.3553 25.8671835,5.194 25.4430835,4.8246 C24.7129835,4.1882 24.0612835,3.9999 23.0971835,3.99999996 C22.3173835,3.99999996 21.5228835,4.2265 20.8999835,4.7027 L20.8999835,4.7027 Z" id="_57023440" fill="#272423"></path>
                <path d="M36.4976835,51.2687 C34.1899835,48.6657 31.6496835,46.6712 28.3070835,45.6159 L27.3973835,45.3287 L26.5847835,44.838 C26.5802835,44.8355 26.5761835,44.833 26.5720835,44.8307 C26.5620835,44.8252 26.5494835,44.8183 26.5336835,44.81 L24.3343835,43.6101 L17.9804835,45.6159 C14.6069835,46.6809 11.8897835,48.6362 9.55258345,51.269 C5.63398345,55.923 6.00048345,63.0322 6.00038345,68.7459 L6.00038345,70.9598 C9.46578345,71.0244 15.1576835,71.0247 23.1436835,71.0247 C31.0680835,71.0247 36.8492835,71.0247 40.2868835,70.9576 L40.2868835,68.7459 C40.2869835,62.9129 40.4816835,55.9963 36.4976835,51.2687 L36.4976835,51.2687 Z M22.4786835,32.4967 L27.1699835,30.4529 C27.2391835,30.4228 27.3076835,30.391 27.3751835,30.3576 C28.0704835,30.0098 28.7878835,29.6229 29.4567835,29.2032 C30.2277835,28.521 30.9960835,27.6896 30.9964835,26.6294 C30.9964835,25.6426 30.1054835,24.769 29.3859835,24.2156 L29.3526835,24.1898 C28.3151835,23.3829 26.9966835,22.7464 25.6999835,22.4733 L22.7702835,22.1287 L20.9928835,22.2768 C19.3635835,22.5344 17.8484835,23.081 16.5471835,24.1219 L16.4040835,24.2363 L16.2558835,24.344 C15.9098835,24.596 15.1765835,25.1684 14.9539835,25.665 L14.8287835,26.9161 C14.9172835,28.0008 15.5202835,28.5624 16.4252835,29.2772 L17.2043835,29.8614 L17.2229835,29.8677 L22.4786835,32.4967 L22.4786835,32.4967 Z" id="_56410072" fill="#342F2E"></path>
                <path d="M34.9837835,52.5759 C32.9272835,50.2603 30.6845835,48.4637 27.7047835,47.5232 L26.5678835,47.1642 L25.5811835,46.5686 C25.5794835,46.5675 25.5776835,46.5667 25.5761835,46.5657 L24.1240835,45.7736 L18.5826835,47.5231 C15.5651835,48.4756 13.1574835,50.2259 11.0664835,52.5764 C7.59768345,56.7201 8.00048345,63.7001 8.00068345,68.746 L8.00068345,70.988 C11.5054835,71.0247 16.5401835,71.0247 23.1436835,71.0247 C29.6935835,71.0247 34.7784835,71.0247 38.2868835,70.9867 L38.2868835,68.7458 C38.2867835,63.5532 38.5390835,56.816 34.9837835,52.5759 L34.9837835,52.5759 Z M22.5367835,30.2897 L26.3712835,28.6193 C26.4081835,28.6032 26.4447835,28.5863 26.4809835,28.5684 C27.0552835,28.2815 27.6501835,27.9637 28.2114835,27.6218 C28.5255835,27.3262 28.8874835,26.9505 28.9933835,26.7129 C28.9948835,26.6985 28.9958835,26.6831 28.9960835,26.6679 C28.8766835,26.3948 28.3710835,25.9581 28.1664835,25.8007 L28.1250835,25.7686 C27.3494835,25.1656 26.3432835,24.6683 25.3698835,24.4483 L22.7360835,24.1381 L21.2350835,24.2636 C19.9812835,24.4696 18.8014835,24.8798 17.7964835,25.6839 L17.6174835,25.8267 L17.4321835,25.9617 C17.2940835,26.0621 17.0631835,26.2372 16.8900835,26.4027 L16.8395835,26.9087 C16.9980835,27.15 17.4199835,27.5105 17.6586835,27.702 L18.2475835,28.144 L22.5367835,30.2897 L22.5367835,30.2897 Z" id="_56981816" fill="#3E3A38"></path>
                <path d="M33.4682835,53.8815 C31.6657835,51.8558 29.7164835,50.2554 27.1027835,49.4304 L25.7384835,48.9997 L24.5847835,48.3033 L23.9141835,47.9371 L19.1845835,49.4303 C16.5250835,50.2698 14.4257835,51.8157 12.5816835,53.882 C9.58298345,57.496 10.0003835,64.402 10.0003835,68.7461 L10.0003835,71.0041 C13.3325835,71.0247 17.7060835,71.0247 23.1436835,71.0247 C28.5399835,71.0247 32.9414835,71.0247 36.2868835,71.0034 L36.2868835,68.746 C36.2869835,64.2232 36.5775835,57.617 33.4682835,53.8815 L33.4682835,53.8815 Z M22.5954835,28.0828 L25.5723835,26.7857 C25.5776835,26.7836 25.5829835,26.7813 25.5867835,26.7794 C25.6495835,26.7481 25.7124835,26.7164 25.7755835,26.6841 C25.5263835,26.5744 25.2708835,26.4839 25.0212835,26.421 L22.7018835,26.1482 L21.4835835,26.2496 C20.9303835,26.3448 20.3875835,26.491 19.8855835,26.7268 L22.5954835,28.0828 Z" id="_56013640" fill="#494543"></path>
                <path d="M31.9506835,55.1845 C30.4054835,53.4523 28.7431835,52.0453 26.5007835,51.3377 L24.9089835,50.8351 L23.6965835,50.1033 L19.7867835,51.3375 C17.4873835,52.0637 15.6941835,53.4048 14.0995835,55.1849 C11.5967835,58.2436 12.0003835,65.143 12.0007835,68.7461 L12.0007835,71.0135 C15.0232835,71.0244 18.7336835,71.0247 23.1436835,71.0247 C27.5246835,71.0247 31.2497835,71.0244 34.2868835,71.0131 L34.2868835,68.7459 C34.2869835,64.9288 34.5929835,58.3937 31.9506835,55.1845 L31.9506835,55.1845 Z" id="_57019808" fill="#534F4E"></path>
                <path d="M30.4294835,56.4838 C29.1463835,55.0495 27.7623835,53.8331 25.8985835,53.2447 L24.0793835,52.6706 L23.4369835,52.2826 L20.3889835,53.2448 C18.4529835,53.8558 16.9642835,54.9925 15.6215835,56.4839 C13.6488835,58.9538 14.0002835,65.9245 14.0005835,68.7459 L14.0005835,71.0192 C16.6161835,71.0247 19.6616835,71.0247 23.1436835,71.0247 C26.6065835,71.0247 29.6590835,71.0245 32.2867835,71.0189 L32.2867835,68.7461 C32.2870835,65.6748 32.5759835,59.1378 30.4294835,56.4838 L30.4294835,56.4838 Z" id="_57122672" fill="#5D5958"></path>
                <path d="M28.9029835,57.7769 C27.8889835,56.6473 26.7691835,55.6169 25.2966835,55.152 L23.2500835,54.5059 L23.1770835,54.4618 L20.9905835,55.1519 C19.4248835,55.6464 18.2363835,56.578 17.1494835,57.7758 C15.7547835,59.6117 16.0003835,66.7369 16.0004835,68.7458 L16.0004835,71.0222 C18.1349835,71.0245 20.5144835,71.0247 23.1436835,71.0247 C25.7611835,71.0247 28.1441835,71.0245 30.2868835,71.0221 L30.2868835,68.746 C30.2867835,66.4575 30.5137835,59.8349 28.9029835,57.7769 L28.9029835,57.7769 Z" id="_57646272" fill="#676462"></path>
                <path d="M27.3675835,59.0606 C26.6309835,58.2425 25.7543835,57.3939 24.6946835,57.0593 L23.1438835,56.5697 L21.5928835,57.0594 C20.4072835,57.4335 19.5124835,58.1583 18.6885835,59.0563 C17.9305835,60.2056 18.0004835,67.5617 18.0002835,68.746 L18.0002835,71.0237 C19.5945835,71.0245 21.3079835,71.0247 23.1436835,71.0247 C24.9735835,71.0247 26.6880835,71.0245 28.2869835,71.0237 L28.2869835,68.7461 C28.2868835,67.2488 28.3955835,60.4724 27.3675835,59.0606 L27.3675835,59.0606 Z" id="_57023368" fill="#716E6D"></path>
                <path d="M25.7528835,60.2565 C25.2925835,59.7558 24.6687835,59.1485 24.0924835,58.9667 L23.1436835,58.667 L22.1949835,58.9669 C21.4850835,59.1907 20.9176835,59.6314 20.4075835,60.1491 C19.8936835,62.0157 20.0003835,67.0549 20.0006835,68.746 L20.0006835,71.0243 L23.1436835,71.0247 L26.2865835,71.0243 L26.2865835,68.746 C26.2868835,67.1477 26.3445835,61.8875 25.7528835,60.2565 L25.7528835,60.2565 Z" id="_55509760" fill="#797776"></path>
                <path d="M23.9508835,61.2714 C23.7852835,61.1092 23.6173835,60.9605 23.4776835,60.8695 L23.1434835,60.7642 L22.7970835,60.8737 C22.6034835,60.935 22.4149835,61.0477 22.2381835,61.1847 C21.8914835,63.2302 22.0005835,67.0926 22.0002835,68.7461 L22.0002835,71.0247 L23.1436835,71.0247 L24.2868835,71.0247 L24.2868835,68.746 C24.2867835,67.153 24.3627835,63.1503 23.9508835,61.2714 L23.9508835,61.2714 Z" id="_56884824" fill="#838281"></path>
            </g>
            <path d="M75.6956,87.07 L75.6956,88.3837 C74.5581,88.7691 73.0387,89.0175 71.1369,89.1126 C69.7177,89.3487 62.6197,89.3487 50.5524,89.3487 C38.2484,89.3487 31.3871,89.3487 29.7305,89.1126 C27.9515,89.0189 26.5066,88.7766 25.4092,88.4011 L25.4092,87.07 C25.4092,78.3154 25.4716,70.7438 30.9136,64.3554 C34.463,60.3332 38.4852,57.7302 42.9809,56.311 L41.561,55.6007 L40.8514,55.364 L38.9587,53.9448 C35.6461,51.3418 34.2262,48.5027 34.2262,44.9534 L34.463,42.5871 C34.9358,40.2216 36.3557,38.0921 38.9587,36.1987 C41.3249,34.306 44.164,33.1229 47.4766,32.65 L50.3157,32.4133 L54.3379,32.8868 C56.9408,33.3596 59.5432,34.5427 61.6726,36.1987 C64.7485,38.5649 66.4051,41.6408 66.4051,44.9534 C66.4051,48.5027 64.7485,51.3418 61.6726,53.9448 C60.963,54.4176 59.7799,55.1279 58.36,55.8375 C58.1689,55.933 57.9736,56.0241 57.7739,56.1111 C57.8925,56.1758 58.0097,56.242 58.124,56.311 C62.6197,57.7302 66.4051,60.3332 69.9544,64.3554 C75.3958,70.7438 75.6956,78.3154 75.6956,87.07 L75.6956,87.07 Z M56.7937,18.6252 C55.0333,17.0908 53.0213,16.324 50.5059,16.324 C48.2421,16.324 45.9784,17.0908 44.2174,18.6252 C42.7087,20.1595 41.7027,21.949 41.7027,24.2502 C41.7027,26.2956 42.7087,28.3417 44.2174,29.8753 C46.0961,31.3075 48.1053,32.1765 50.5059,32.1765 C52.0152,32.1765 53.2722,31.9207 54.5299,31.4097 C55.285,30.898 56.0393,30.387 56.7937,29.8753 C58.5547,28.3417 59.3091,26.2956 59.3091,24.2502 C59.3091,21.949 58.5547,20.1595 56.7937,18.6252 L56.7937,18.6252 Z" id="形状" stroke="#0A0B0C" stroke-width="1.4"></path>
        </g>
    </g>
</svg>