<?xml version="1.0" encoding="UTF-8"?>
<svg width="100px" height="100px" viewBox="0 0 100 100" version="1.1" xmlns="http://www.w3.org/2000/svg" xmlns:xlink="http://www.w3.org/1999/xlink">
    <title>bq</title>
    <g id="页面-1" stroke="none" stroke-width="1" fill="none" fill-rule="evenodd">
        <g id="bq" transform="translate(0.0381, 0.0381)">
            <rect id="矩形" stroke="#FFFFFF" stroke-width="0.0762" x="0" y="0" width="99.726" height="99.726"></rect>
            <g id="_56989288" transform="translate(7.2399, 11.0451)">
                <path d="M19.4692,60.8373 C20.4155,62.0204 20.4155,63.4403 19.4692,64.8601 L16.7474,70.5309 C16.6341,70.767 16.5677,70.8287 16.7635,70.5832 C17.6281,69.488 20.1627,68.5933 23.9649,67.6992 C29.1702,66.7529 35.5586,66.2793 42.8934,66.2793 C50.2282,66.2793 56.3798,66.7529 61.5851,67.6992 C64.5349,68.3196 66.6704,69.0433 67.991,69.8019 C69.5121,70.6758 69.7187,71.6879 68.6134,69.3914 L66.3176,64.6234 C65.608,62.9668 65.608,61.3108 66.3176,59.6542 L69.1567,56.1055 C51.4113,51.373 33.6659,51.373 15.9198,56.1055 L19.4692,60.8373 Z" id="_57646808" stroke="#1F1A17" stroke-width="1.4111"></path>
                <path d="M9.7681,15.6455 C9.7681,14.2256 9.2953,13.2792 8.3483,12.3329 C7.6387,11.3865 6.4555,10.913 5.2724,10.913 C3.8532,10.913 2.9062,11.3865 1.7237,12.3329 C1.0135,13.2792 0.5406,14.2256 0.5406,15.6455 C0.5406,16.8286 1.0135,18.0117 1.7237,18.7213 C2.9062,19.6676 3.8532,20.1412 5.2724,20.1412 C5.7459,20.1412 6.2188,20.1412 6.4555,20.1412 L12.3711,51.1363 C12.6072,52.7929 13.7903,54.4489 15.9198,56.1055 C33.6659,51.373 51.4113,51.373 69.1567,56.1055 C71.0494,54.6856 71.9964,53.0296 72.4693,51.1363 C74.362,40.4889 76.4915,30.0783 78.3849,19.4309 C79.0945,19.6676 79.5673,19.9044 80.2776,19.9044 C81.6968,19.9044 82.8799,19.4309 83.8262,18.4845 C84.7733,17.5382 85.2461,16.3551 85.2461,14.9352 C85.2461,13.7527 84.7733,12.5696 83.8262,11.6233 C82.8799,10.6762 81.6968,10.2034 80.2776,10.2034 C79.0945,10.2034 77.9113,10.6762 76.965,11.6233 C76.0186,12.5696 75.5451,13.7527 75.5451,14.9352 C75.5451,16.3551 76.0186,17.5382 76.965,18.4845 C77.4378,18.958 77.9113,19.1941 78.3849,19.4309 L65.608,43.8015 L63.9514,46.1677 L62.7683,42.8551 L61.5851,12.8064 C61.8219,13.0425 62.0587,13.0425 62.5315,13.0425 C63.7146,13.0425 64.8977,12.5696 65.608,11.6233 C66.5544,10.6762 67.0272,9.7299 67.0272,8.3107 C67.0272,7.1276 66.5544,5.9444 65.608,4.9981 C64.8977,4.2878 63.7146,3.815 62.5315,3.815 C61.1123,3.815 60.1659,4.2878 59.2196,4.9981 C58.2725,5.9444 57.7997,7.1276 57.7997,8.3107 C57.7997,9.7299 58.2725,10.6762 59.2196,11.6233 C59.9292,12.3329 60.6388,12.8064 61.5851,12.8064 L52.5944,40.9624 L49.9914,44.5117 L48.3354,41.4359 L42.8934,10.4401 C44.0765,10.4401 45.2596,9.9666 46.206,9.0203 C47.1523,8.0739 47.6252,6.8908 47.6252,5.7077 C47.6252,4.2878 47.1523,3.1054 46.206,2.159 C45.2596,1.4487 44.0765,0.9759 42.8934,0.9759 C41.4735,0.9759 40.2904,1.4487 39.344,2.159 C38.3977,3.1054 38.1609,4.2878 38.1609,5.7077 C38.1609,6.8908 38.3977,8.0739 39.344,9.0203 C40.2904,9.9666 41.4735,10.4401 42.8934,10.4401 L37.2146,40.9624 L35.7953,44.7485 L33.4291,41.672 L23.7281,13.2792 C24.6745,13.2792 25.3841,12.8064 26.0943,12.0961 C27.0407,11.1497 27.5135,9.9666 27.5135,8.7835 C27.5135,7.3643 27.0407,6.1812 26.0943,5.2348 C25.148,4.5246 23.9649,4.0517 22.7817,4.0517 C21.3619,4.0517 20.1788,4.5246 19.2324,5.2348 C18.286,6.1812 18.0493,7.3643 18.0493,8.7835 C18.0493,9.9666 18.286,11.1497 19.2324,12.0961 C20.1788,13.0425 21.3619,13.516 22.7817,13.516 C23.0185,13.516 23.4913,13.516 23.7281,13.2792 L23.7281,43.0919 L22.545,47.5876 L6.4555,20.1412 C7.1651,19.9044 7.6387,19.4309 8.3483,18.7213 C9.2953,18.0117 9.7681,16.8286 9.7681,15.6455 L9.7681,15.6455 Z" id="_57233576" stroke="#0A0B0C" stroke-width="1.4111"></path>
                <circle id="_57351368" fill="#0A0B0C" cx="42.8423" cy="5.0585" r="5.0585"></circle>
                <g id="编组" transform="translate(39.7838, 2)">
                    <circle id="_57175760" fill="#342F2E" cx="3.0585" cy="3.0585" r="3.0585"></circle>
                    <circle id="_57367320" fill="#72706F" cx="3.0585" cy="3.0585" r="1.0585"></circle>
                </g>
                <circle id="_57702960" fill="#0A0B0C" cx="62.3908" cy="7.3525" r="5.0585"></circle>
                <g id="编组" transform="translate(59.3323, 4.294)">
                    <circle id="_57701064" fill="#342F2E" cx="3.0585" cy="3.0585" r="3.0585"></circle>
                    <circle id="_57355712" fill="#72706F" cx="3.0585" cy="3.0585" r="1.0585"></circle>
                </g>
                <circle id="_57465848" fill="#0A0B0C" cx="79.8749" cy="14.5646" r="5.0585"></circle>
                <g id="编组" transform="translate(76.8164, 11.5061)">
                    <circle id="_57707656" fill="#342F2E" cx="3.0585" cy="3.0585" r="3.0585"></circle>
                    <circle id="_57706056" fill="#72706F" cx="3.0585" cy="3.0585" r="1.0585"></circle>
                </g>
                <circle id="_57470736" fill="#0A0B0C" cx="23.27" cy="8.411" r="5.0585"></circle>
                <g id="编组" transform="translate(20.2115, 5.3525)">
                    <circle id="_57469256" fill="#342F2E" cx="3.0585" cy="3.0585" r="3.0585"></circle>
                    <circle id="_57468400" fill="#72706F" cx="3.0585" cy="3.0585" r="1.0585"></circle>
                </g>
                <circle id="_58523176" fill="#0A0B0C" cx="5.0585" cy="15.3132" r="5.0585"></circle>
                <g id="编组" transform="translate(2, 12.2547)">
                    <circle id="_57366912" fill="#342F2E" cx="3.0585" cy="3.0585" r="3.0585"></circle>
                    <circle id="_57362344" fill="#72706F" cx="3.0585" cy="3.0585" r="1.0585"></circle>
                </g>
                <g id="编组" transform="translate(6.4587, 10.4364)">
                    <path d="M62.501,60.0566 L62.6461,60.2008 C62.6009,60.1527 62.5525,60.1046 62.501,60.0566 Z M62.931,61.3707 C62.8278,62.7526 60.2263,63.9119 55.1264,65.0711 C49.9211,66.0175 43.7695,58.7271 36.4347,58.7271 C29.0999,58.7271 22.7115,66.0175 17.5062,65.0711 C12.711,63.9812 10.1246,62.891 9.7467,61.616 L9.7467,61.3707 C9.7194,61.3707 9.7069,61.3663 9.701,61.3568 C9.6994,61.3329 9.6979,61.3091 9.6979,61.285 C9.6979,60.6122 10.4863,59.5733 11.5685,57.5451 C11.96,56.8115 12.6877,55.0963 13.0105,54.4237 C13.9568,53.0039 13.9568,51.584 13.0105,50.4009 L9.4611,45.6691 C7.8372,44.4058 6.7641,43.1432 6.2411,41.8801 L3.9792,30.5709 L0,9.7213 L0.0055,9.7197 L16.0863,37.1512 L17.2694,32.6555 L17.2694,2.8428 L17.4777,2.812 L17.5302,2.8365 C17.4767,2.8397 17.422,2.8411 17.3664,2.8411 L26.9704,31.2356 L29.3366,34.3121 L30.7559,30.526 L36.4347,0.0037 L36.6164,0 C36.5559,0.0025 36.4952,0.0037 36.4347,0.0037 L41.8767,30.9995 L43.5327,34.0753 L46.1357,30.526 L55.1264,2.37 L55.1264,2.37 L56.3096,32.4187 L57.4927,35.7313 L59.1493,33.3651 L71.9262,8.9945 L71.8649,9.338 L65.4276,42.3073 L65.4275,42.3073 C65.1477,42.9453 64.7886,43.5523 64.3279,44.1282 C63.8827,44.6696 63.3459,45.183 62.698,45.6691 L62.6309,45.753 L62.6285,45.7548 L59.7894,49.3035 C59.0798,50.9601 59.0798,52.6161 59.7894,54.2727 L62.0852,59.0407 C62.3694,59.6313 62.5666,60.0027 62.6773,60.2142 C62.6281,60.1691 62.5689,60.1153 62.4991,60.0548 L62.501,60.0566 C62.5527,60.1047 62.6009,60.1526 62.6461,60.2008 L62.6536,60.2089 L62.6613,60.217 L62.6686,60.2251 L62.6761,60.2332 L62.7029,60.2633 C62.8686,60.5824 62.7777,60.4423 62.4296,60.1405 L62.4315,60.1423 C62.4832,60.1904 62.5314,60.2383 62.5766,60.2865 L62.5841,60.2946 L62.5918,60.3027 L62.5991,60.3108 L62.6066,60.3189 L62.6358,60.3516 L62.6429,60.3597 L62.6501,60.3678 L62.6516,60.3696 L62.6709,60.3921 L62.6779,60.4005 L62.6845,60.4086 L62.6912,60.4167 L62.6978,60.4248 L62.7045,60.4329 L62.7168,60.4483 L62.7175,60.4491 L62.7238,60.4572 L62.7359,60.473 L62.7365,60.4737 L62.7428,60.4818 L62.7432,60.4824 L62.7547,60.4974 L62.7849,60.5388 L62.7907,60.5469 L62.793,60.5501 L62.7963,60.555 L62.7963,60.5551 L62.8281,60.6022 L62.8292,60.6039 L62.8304,60.6056 L62.8315,60.6073 C62.843,60.6251 62.8543,60.6429 62.8649,60.6607 L62.8652,60.6611 C62.8652,60.8979 62.8652,61.134 62.8652,61.3707 L62.931,61.3707 L62.931,61.3707 Z M17.2694,2.8428 C17.1803,2.9319 17.058,2.9875 16.9273,3.0222 L17.2694,2.8428 Z M62.4315,60.1423 L62.5766,60.2865 C62.5314,60.2384 62.483,60.1903 62.4315,60.1423 Z" id="_57155360" fill="#0A0B0C"></path>
                    <g transform="translate(3.2169, 2.4737)">
                        <path d="M56.264,57.7437 L56.2219,57.7019 L56.298,57.6228 L56.2914,57.6162 L56.7676,57.1214 L54.6301,52.6821 L54.6116,52.6389 C53.6724,50.4462 53.6724,48.1826 54.6116,45.9899 L54.7258,45.7235 L57.9151,41.737 L57.9173,41.7353 L57.9843,41.6516 L58.2009,41.4891 C58.6611,41.1438 59.0874,40.7547 59.4542,40.3107 C59.7349,39.9581 59.9711,39.58 60.1657,39.1757 L65.2552,13.1092 L55.9324,30.8914 L54.2758,33.2576 L53.0927,29.945 L51.9136,0 L51.8722,0.0131 L42.9188,28.0523 L40.3158,31.6016 L38.6598,28.5258 L34.1132,2.6301 C33.506,2.6204 32.895,2.601 32.2798,2.5717 L27.539,28.0523 L26.1197,31.8384 L23.7535,28.7619 L14.1495,0.3674 C14.447,0.3674 14.7117,0.3211 14.9567,0.2352 L14.0525,0.3691 L14.0525,30.1818 L12.8694,34.6775 L0,12.7242 L2.8559,27.6881 L5.0702,38.7591 C5.5779,39.828 6.6543,40.8118 7.554,41.5117 L7.7793,41.687 L11.4823,46.6235 C13.0233,48.574 12.9583,50.9455 11.6593,52.9937 C11.1776,54.0133 10.7636,55.0825 10.2336,56.0756 C9.8539,56.7873 9.4501,57.4792 9.0492,58.1784 C8.9478,58.3552 8.774,58.6391 8.663,58.8738 L8.663,59.8954 L8.1901,60.4816 C8.1592,60.5198 8.1323,60.5698 8.1083,60.6295 C9.3997,61.3108 11.4597,61.9543 14.2893,62.5974 C19.4946,63.5438 25.883,56.2534 33.2178,56.2534 C40.5526,56.2534 46.7042,63.5438 51.9095,62.5974 C54.3507,62.0425 56.2188,61.4873 57.5151,60.908 L57.5151,58.997 L56.2308,57.7803 L56.264,57.7437 L56.264,57.7437 Z M14.0525,0.3691 C13.9634,0.4582 13.8411,0.5138 13.7104,0.5485 L14.0525,0.3691 Z" id="_58569248" fill="#100F11"></path>
                        <path d="M53.326,57.8204 L53.2402,57.7351 L53.3163,57.656 L53.3097,57.6494 L54.2117,56.7121 L52.6949,53.562 L52.658,53.4758 C51.4898,50.7486 51.4898,47.8802 52.658,45.153 L52.8858,44.6212 L56.424,40.1986 L56.4261,40.197 L56.493,40.1134 L56.9254,39.789 C57.2453,39.549 57.5467,39.2796 57.8033,38.9719 C57.9289,38.8126 58.0399,38.646 58.1378,38.4712 L61.8047,19.6907 L55.9324,30.8914 L54.2758,33.2576 L53.0927,29.945 L52.0002,2.1992 C51.6964,2.2924 51.392,2.3829 51.0873,2.4712 L42.9188,28.0523 L40.3158,31.6016 L38.6598,28.5258 L34.4874,4.7614 C33.6283,4.7534 32.7616,4.7261 31.8874,4.6803 L27.539,28.0523 L26.1197,31.8384 L23.7535,28.7619 L14.6337,1.7988 C14.4399,1.7504 14.2462,1.7018 14.0525,1.6528 L14.0525,30.1818 L12.8694,34.6775 L3.2082,18.1969 L4.9418,27.2804 L7.0941,38.0417 C7.4921,38.7037 8.3314,39.4237 8.859,39.8342 L9.3089,40.1841 L13.1676,45.3284 C15.2242,47.9499 15.2322,51.2356 13.5268,54.0154 C12.7724,55.6154 13.3068,54.8311 12.1087,57.0762 C11.7293,57.7873 11.1816,58.6242 10.7883,59.3766 L10.7883,60.6458 L10.1271,61.4655 C11.2536,61.8478 12.6408,62.2227 14.2893,62.5974 C19.4946,63.5438 25.883,56.2534 33.2178,56.2534 C40.5526,56.2534 46.7042,63.5438 51.9095,62.5974 C53.2398,62.295 54.3995,61.9924 55.3898,61.6861 L55.3898,59.9112 L53.2599,57.8934 L53.326,57.8204 L53.326,57.8204 Z" id="_58567568" fill="#151314"></path>
                        <path d="M50.3948,57.8928 L50.2694,57.7681 L50.3455,57.689 L50.3389,57.6824 L51.6651,56.3044 L50.7667,54.4386 L50.7114,54.3096 C49.3152,51.0499 49.3152,47.5789 50.7114,44.3192 L51.0525,43.523 L54.9384,38.6658 L54.9404,38.6644 L55.0071,38.5809 L55.6545,38.0952 C55.8256,37.9668 55.9956,37.8224 56.1384,37.6607 L58.3667,26.2482 L55.9324,30.8914 L54.2758,33.2576 L53.0927,29.945 L52.0862,4.3842 C51.4981,4.5589 50.9089,4.7254 50.3173,4.8825 L42.9188,28.0523 L40.3158,31.6016 L38.6598,28.5258 L34.8596,6.881 C33.7504,6.8777 32.6298,6.8443 31.4968,6.7799 L27.539,28.0523 L26.1197,31.8384 L23.7535,28.7619 L15.4364,4.1721 C14.9748,4.0604 14.5136,3.9468 14.0525,3.8313 L14.0525,30.1818 L12.8694,34.6775 L6.4047,23.6496 L7.0201,26.8743 L9.0818,37.1825 C9.3849,37.5365 9.9,37.9611 10.1593,38.1628 L10.8328,38.6867 L14.8486,44.0403 C17.413,47.3248 17.4941,51.5104 15.3963,55.0162 C14.7233,56.4576 15.1845,55.8104 13.977,58.0731 C13.6493,58.6871 13.2582,59.3171 12.9059,59.9397 L12.9059,61.3934 L12.3222,62.117 C12.9306,62.2775 13.5859,62.4375 14.2893,62.5974 C19.4946,63.5438 25.883,56.2534 33.2178,56.2534 C40.5526,56.2534 46.7042,63.5438 51.9095,62.5974 C52.3856,62.4892 52.8397,62.3808 53.2722,62.2724 L53.2722,60.822 L50.2998,58.0061 L50.3737,57.9245 L50.3696,57.9206 L50.3948,57.8928 L50.3948,57.8928 Z" id="_58481080" fill="#1D1A1A"></path>
                        <path d="M47.4783,57.969 L47.3093,57.801 L47.3855,57.7219 L47.3788,57.7153 L49.1278,55.8982 L48.8456,55.3121 L48.772,55.1403 C47.1485,51.3502 47.1485,47.2786 48.772,43.4885 L49.226,42.4287 L53.4582,37.1386 L53.46,37.1373 L53.5267,37.054 L54.2068,36.5437 L55.0699,32.1234 L54.2758,33.2576 L53.0927,29.945 L52.1718,6.5574 C51.3053,6.8073 50.4351,7.039 49.5608,7.2517 L42.9188,28.0523 L40.3158,31.6016 L38.6598,28.5258 L35.2301,8.9914 C33.8728,8.9954 32.4992,8.9557 31.1078,8.8708 L27.539,28.0523 L26.1197,31.8384 L23.7535,28.7619 L16.2325,6.5258 C15.505,6.3559 14.7784,6.1806 14.0525,6.0007 L14.0525,30.1818 L12.8694,34.6775 L9.6258,29.1443 L11.0263,36.1467 C11.1771,36.2794 11.3363,36.4053 11.4548,36.4975 L12.3511,37.1948 L16.5246,42.7586 C19.5911,46.6996 19.7454,51.7739 17.2652,56.001 C16.6602,57.3103 17.0539,56.7887 15.8384,59.0664 C15.5796,59.5515 15.2947,60.033 15.0158,60.514 L15.0158,62.1383 L14.6082,62.6436 C19.7548,63.2493 26.0319,56.2534 33.2178,56.2534 C40.2048,56.2534 46.1178,62.8686 51.1623,62.6779 L51.1623,61.7296 L47.3504,58.1183 L47.4243,58.0368 L47.4203,58.033 L47.4783,57.969 L47.4783,57.969 Z" id="_58482992" fill="#242020"></path>
                        <path d="M44.5725,58.0449 L44.3601,57.8338 L44.4362,57.7547 L44.4296,57.7481 L46.6313,55.4605 C44.9925,51.2851 45.0619,46.8108 46.8396,42.6607 L47.406,41.3385 L51.9834,35.617 L51.9851,35.6157 L52.0516,35.5325 L52.2985,35.3473 L53.2612,30.4168 L53.0927,29.945 L52.2569,8.7184 C51.1166,9.0378 49.9702,9.3266 48.8162,9.5835 L42.9188,28.0523 L40.3158,31.6016 L38.6598,28.5258 L35.5989,11.0919 C33.9949,11.1055 32.3697,11.0599 30.7204,10.953 L27.539,28.0523 L26.1197,31.8384 L23.7535,28.7619 L17.0219,8.8596 C16.0304,8.6371 15.0406,8.4036 14.0525,8.1614 L14.0525,30.1818 L12.8733,34.6625 L12.9385,34.9883 L13.864,35.7083 L18.1955,41.4828 C21.7577,46.0731 21.9868,52.0239 19.1356,56.9666 C18.565,58.2152 18.9135,57.7693 17.6931,60.056 C17.5085,60.4019 17.3141,60.7435 17.118,61.0837 L17.118,62.4231 C21.7507,61.2232 27.1614,56.2534 33.2178,56.2534 C39.1097,56.2534 44.2377,60.9566 48.7255,62.3168 L44.4118,58.2302 L44.4857,58.1486 L44.4818,58.1449 L44.5725,58.0449 L44.5725,58.0449 Z" id="_58524960" fill="#2C2827"></path>
                        <path d="M41.6771,58.1206 L41.4215,57.8665 L41.4976,57.7874 L41.491,57.7808 L44.227,54.9381 C42.8718,50.6236 43.1009,46.0693 44.9142,41.836 L45.5926,40.2521 L50.3734,34.2764 L52.7783,21.9598 L52.3415,10.868 C50.9319,11.2521 49.513,11.5905 48.0824,11.8816 L42.9188,28.0523 L40.3158,31.6016 L38.6598,28.5258 L35.966,13.1829 C34.1168,13.2082 32.2411,13.1572 30.3345,13.0268 L27.539,28.0523 L26.1197,31.8384 L23.7535,28.7619 L17.8043,11.1729 C16.5502,10.9035 15.3,10.6151 14.0525,10.3127 L14.0525,29.878 L14.8396,33.8134 L15.3714,34.2272 L19.8611,40.2125 C23.913,45.445 24.2185,52.2607 21.0071,57.9134 C20.4381,59.1707 20.764,58.7506 19.5411,61.0421 C19.4339,61.243 19.324,61.4422 19.2126,61.6403 L19.2126,61.6768 C23.3567,59.8685 28.0524,56.2534 33.2178,56.2534 C36.5532,56.2534 39.6437,57.7608 42.5121,59.3158 L41.4838,58.3416 L41.5577,58.2601 L41.5539,58.2565 L41.6771,58.1206 L41.6771,58.1206 Z" id="_58524032" fill="#353130"></path>
                        <path d="M38.8469,57.5184 L41.8942,54.3521 C40.7869,49.9274 41.154,45.3138 42.9957,41.0142 L43.7858,39.1697 L48.4233,33.3731 L52.3985,13.0137 C50.7327,13.4548 49.0536,13.834 47.3584,14.149 L42.9188,28.0523 L40.3158,31.6016 L38.6598,28.5258 L36.3316,15.2651 C34.2388,15.3038 32.1134,15.2471 29.9503,15.0919 L27.539,28.0523 L26.1197,31.8384 L23.7535,28.7619 L18.5798,13.4658 C17.0649,13.1555 15.5563,12.8156 14.0525,12.4552 L14.0525,18.9474 L15.2581,25.2644 L16.7339,32.6428 L16.8734,32.7514 L21.5212,38.9475 C26.0592,44.8181 26.4412,52.4917 22.8747,58.8505 C22.5759,59.5159 22.5177,59.7242 22.3521,60.1047 C25.6825,58.316 29.3162,56.2534 33.2178,56.2534 C35.1771,56.2534 37.0519,56.7739 38.8469,57.5184 L38.8469,57.5184 Z" id="_57170288" fill="#3E3A39"></path>
                        <path d="M36.6886,56.7621 L39.6215,53.7147 C38.7326,49.2035 39.2201,44.5471 41.0841,40.1954 L41.9855,38.0912 L46.4802,32.473 L49.7372,15.792 C48.7117,16.0137 47.6804,16.2127 46.6433,16.3883 L42.9188,28.0523 L40.3158,31.6016 L38.6598,28.5258 L36.6955,17.3377 C34.3601,17.3917 31.9865,17.3304 29.5675,17.1493 L27.539,28.0523 L26.1197,31.8384 L23.7535,28.7619 L19.3483,15.7377 C18.0259,15.4806 16.7093,15.1997 15.3974,14.9012 L17.2991,24.8655 L18.6594,31.6668 L23.1759,37.6878 C27.8981,43.8057 28.5841,51.7104 25.3901,58.5042 C27.8585,57.2753 30.4717,56.2534 33.2178,56.2534 C34.4056,56.2534 35.5619,56.4457 36.6886,56.7621 L36.6886,56.7621 Z" id="_57171768" fill="#484443"></path>
                        <path d="M34.2559,56.3015 L37.4,53.0347 C36.7051,48.4573 37.2982,43.7713 39.1794,39.3795 L40.1916,37.0165 L44.5441,31.5762 L47.1148,18.4101 C46.7229,18.4772 46.3301,18.541 45.9366,18.6016 L42.9188,28.0523 L40.3158,31.6016 L38.6598,28.5258 L37.0579,19.4016 C34.4813,19.4723 31.8603,19.4065 29.1863,19.1983 L27.539,28.0523 L26.1197,31.8384 L23.7535,28.7619 L20.1097,17.9889 C19.411,17.8605 18.714,17.7251 18.0189,17.5838 L19.3328,24.4681 L20.5991,30.7994 L24.825,36.433 C29.5405,42.55 30.6063,50.3101 28.1283,57.29 C29.7688,56.6699 31.4661,56.2534 33.2178,56.2534 C33.5666,56.2534 33.9125,56.2702 34.2559,56.3015 L34.2559,56.3015 Z" id="_58485552" fill="#524F4D"></path>
                        <path d="M31.2787,56.4173 L35.223,52.3191 C34.7014,47.6925 35.3875,42.9879 37.2814,38.5665 L38.404,35.9457 L42.6148,30.6825 L43.4581,26.3633 L42.9188,28.0523 L40.3158,31.6016 L38.6598,28.5258 L37.4187,21.457 C34.6019,21.5458 31.7348,21.4757 28.8065,21.2397 L27.539,28.0523 L26.1197,31.8384 L23.7535,28.7619 L20.8643,20.2198 L20.6158,20.1764 L21.3593,24.072 L22.5319,29.9352 L26.4686,35.1832 C31.2945,41.4503 32.6217,49.3137 30.5299,56.5611 C30.7783,56.5061 31.0279,56.4585 31.2787,56.4173 L31.2787,56.4173 Z" id="_58484216" fill="#5C5857"></path>
                        <path d="M37.778,23.5036 C34.7224,23.6115 31.6098,23.5374 28.4283,23.2726 L27.539,28.0523 L26.2569,31.4724 L28.1066,33.9383 C28.5868,34.5625 29.0351,35.2014 29.4515,35.8532 L29.5736,35.8532 L29.5736,36.0462 C31.4661,39.0657 32.6799,42.3551 33.2201,45.7297 C33.5587,43.0224 34.2821,40.3433 35.3902,37.7564 L36.6229,34.8786 L39.8849,30.8013 L38.6598,28.5258 L37.778,23.5036 L37.778,23.5036 Z" id="_57471424" fill="#666361"></path>
                        <path d="M38.1359,25.542 C34.8423,25.6705 31.4853,25.593 28.0513,25.2986 L27.539,28.0523 L27.1109,29.1942 L29.7392,32.6981 C30.0187,33.0618 30.2883,33.4303 30.5478,33.8031 L31.6237,33.8031 L31.6237,35.4685 C32.1427,36.3365 32.6107,37.2243 33.0278,38.1282 C33.1789,37.7333 33.3381,37.3402 33.5057,36.9492 L34.848,33.8154 L38.7768,28.9046 L38.7999,28.7861 L38.6598,28.5258 L38.1359,25.542 L38.1359,25.542 Z" id="_57363408" fill="#6E6B6A"></path>
                        <path d="M36.9455,27.6234 C34.1106,27.689 31.2298,27.6061 28.2954,27.3688 L31.3661,31.4625 C31.4421,31.5614 31.5173,31.6606 31.5919,31.7601 L33.6667,31.7601 L33.6667,32.0218 L36.868,28.0204 L36.9455,27.6234 L36.9455,27.6234 Z" id="_57174624" fill="#797776"></path>
                        <path d="M32.9537,29.6543 C32.818,29.6509 32.6821,29.6472 32.5462,29.6431 L32.6072,29.7244 L32.8976,29.7244 L32.9537,29.6543 Z" id="_57173208" fill="#838281"></path>
                    </g>
                </g>
                <path d="M16.5753,71.2472 C16.3385,71.484 16.1018,71.7208 16.1018,72.1936 C16.1018,73.6135 18.7047,74.7966 23.9101,75.9797 C29.1154,76.9261 35.5038,77.6357 42.8386,77.6357 C50.1734,77.6357 56.325,76.9261 61.5303,75.9797 C66.7356,74.7966 69.3386,73.6135 69.3386,72.1936 C69.3386,71.9569 69.3386,71.7208 69.3386,71.484 C68.629,70.3009 66.026,69.1178 61.5303,68.1714 C56.325,67.2251 50.1734,66.7515 42.8386,66.7515 C35.5038,66.7515 29.1154,67.2251 23.9101,68.1714 C19.8879,69.1178 17.2849,70.0641 16.5753,71.2472 Z" id="_57401288" stroke="#0A0B0C" stroke-width="1.4111" fill="#4D4948"></path>
                <path d="M19.4692,60.8373 C20.4155,62.0204 20.4155,63.4403 19.4692,64.8601 L16.7474,70.5309 C16.6341,70.767 16.5677,70.8287 16.7635,70.5832 C17.6281,69.488 20.1627,68.5933 23.9649,67.6992 C29.1702,66.7529 35.5586,66.2793 42.8934,66.2793 C50.2282,66.2793 56.3798,66.7529 61.5851,67.6992 C64.5349,68.3196 66.6704,69.0433 67.991,69.8019 C69.5121,70.6758 69.7187,71.6879 68.6134,69.3914 L66.3176,64.6234 C65.608,62.9668 65.608,61.3108 66.3176,59.6542 L69.1567,56.1055 C51.4113,51.373 33.6659,51.373 15.9198,56.1055 L19.4692,60.8373 Z" id="_56887200" stroke="#0A0B0C" stroke-width="1.4111"></path>
                <path d="M9.7681,15.6455 C9.7681,14.2256 9.2953,13.2792 8.3483,12.3329 C7.6387,11.3865 6.4555,10.913 5.2724,10.913 C3.8532,10.913 2.9062,11.3865 1.7237,12.3329 C1.0135,13.2792 0.5406,14.2256 0.5406,15.6455 C0.5406,16.8286 1.0135,18.0117 1.7237,18.7213 C2.9062,19.6676 3.8532,20.1412 5.2724,20.1412 C5.7459,20.1412 6.2188,20.1412 6.4555,20.1412 L12.3711,51.1363 C12.6072,52.7929 13.7903,54.4489 15.9198,56.1055 C33.6659,51.373 51.4113,51.373 69.1567,56.1055 C71.0494,54.6856 71.9964,53.0296 72.4693,51.1363 C74.362,40.4889 76.4915,30.0783 78.3849,19.4309 C79.0945,19.6676 79.5673,19.9044 80.2776,19.9044 C81.6968,19.9044 82.8799,19.4309 83.8262,18.4845 C84.7733,17.5382 85.2461,16.3551 85.2461,14.9352 C85.2461,13.7527 84.7733,12.5696 83.8262,11.6233 C82.8799,10.6762 81.6968,10.2034 80.2776,10.2034 C79.0945,10.2034 77.9113,10.6762 76.965,11.6233 C76.0186,12.5696 75.5451,13.7527 75.5451,14.9352 C75.5451,16.3551 76.0186,17.5382 76.965,18.4845 C77.4378,18.958 77.9113,19.1941 78.3849,19.4309 L65.608,43.8015 L63.9514,46.1677 L62.7683,42.8551 L61.5851,12.8064 C61.8219,13.0425 62.0587,13.0425 62.5315,13.0425 C63.7146,13.0425 64.8977,12.5696 65.608,11.6233 C66.5544,10.6762 67.0272,9.7299 67.0272,8.3107 C67.0272,7.1276 66.5544,5.9444 65.608,4.9981 C64.8977,4.2878 63.7146,3.815 62.5315,3.815 C61.1123,3.815 60.1659,4.2878 59.2196,4.9981 C58.2725,5.9444 57.7997,7.1276 57.7997,8.3107 C57.7997,9.7299 58.2725,10.6762 59.2196,11.6233 C59.9292,12.3329 60.6388,12.8064 61.5851,12.8064 L52.5944,40.9624 L49.9914,44.5117 L48.3354,41.4359 L42.8934,10.4401 C44.0765,10.4401 45.2596,9.9666 46.206,9.0203 C47.1523,8.0739 47.6252,6.8908 47.6252,5.7077 C47.6252,4.2878 47.1523,3.1054 46.206,2.159 C45.2596,1.4487 44.0765,0.9759 42.8934,0.9759 C41.4735,0.9759 40.2904,1.4487 39.344,2.159 C38.3977,3.1054 38.1609,4.2878 38.1609,5.7077 C38.1609,6.8908 38.3977,8.0739 39.344,9.0203 C40.2904,9.9666 41.4735,10.4401 42.8934,10.4401 L37.2146,40.9624 L35.7953,44.7485 L33.4291,41.672 L23.7281,13.2792 C24.6745,13.2792 25.3841,12.8064 26.0943,12.0961 C27.0407,11.1497 27.5135,9.9666 27.5135,8.7835 C27.5135,7.3643 27.0407,6.1812 26.0943,5.2348 C25.148,4.5246 23.9649,4.0517 22.7817,4.0517 C21.3619,4.0517 20.1788,4.5246 19.2324,5.2348 C18.286,6.1812 18.0493,7.3643 18.0493,8.7835 C18.0493,9.9666 18.286,11.1497 19.2324,12.0961 C20.1788,13.0425 21.3619,13.516 22.7817,13.516 C23.0185,13.516 23.4913,13.516 23.7281,13.2792 L23.7281,43.0919 L22.545,47.5876 L6.4555,20.1412 C7.1651,19.9044 7.6387,19.4309 8.3483,18.7213 C9.2953,18.0117 9.7681,16.8286 9.7681,15.6455 L9.7681,15.6455 Z" id="_57884584" stroke="#0A0B0C" stroke-width="1.4111"></path>
            </g>
        </g>
    </g>
</svg>