<?xml version="1.0" encoding="UTF-8"?>
<svg width="100px" height="100px" viewBox="0 0 100 100" version="1.1" xmlns="http://www.w3.org/2000/svg" xmlns:xlink="http://www.w3.org/1999/xlink">
    <title>wr</title>
    <g id="页面-1" stroke="none" stroke-width="1" fill="none" fill-rule="evenodd">
        <g id="wr" transform="translate(0.0381, 0.0381)">
            <rect id="矩形" stroke="#FFFFFF" stroke-width="0.0762" x="0" y="0" width="99.726" height="99.726"></rect>
            <path d="M23.6496,82.7242 L15.842,82.7242 L15.842,89.3487 L82.5653,89.3487 L82.5653,82.7242 L74.9938,82.7242 L72.9996,82.7242 L74.9938,82.0139 L74.9951,81.9673 L74.9952,81.9627 L74.9952,81.9597 L74.9954,81.9548 L74.9955,81.9537 L74.9955,81.9507 L74.9955,81.9477 L74.9957,81.9425 L74.9958,81.9417 L74.9958,81.9387 L74.996,81.9302 L74.9961,81.9297 L74.9961,81.9267 L74.9962,81.9237 L74.9963,81.9191 L74.9965,81.9144 L74.9965,81.9114 L74.9967,81.9066 L74.9968,81.9054 L74.9968,81.9024 L74.9968,81.8994 L74.997,81.8942 L74.9971,81.8934 L74.9971,81.8904 L74.9971,81.8874 L74.9973,81.8819 L74.9974,81.8814 L74.9974,81.8784 L74.9977,81.8694 L74.9977,81.8692 L74.9977,81.8662 L74.998,81.8572 L74.998,81.8542 L74.999,81.8211 L74.999,81.8209 L74.999,81.819 C75.0218,80.9466 75.0012,80.1029 74.9378,79.2881 L74.9371,79.2784 C74.9293,79.1785 74.9207,79.0791 74.9116,78.98 L74.9114,78.9773 C74.9023,78.8795 74.8927,78.7824 74.8825,78.6855 L74.8805,78.6668 C74.8597,78.4722 74.8365,78.2789 74.8107,78.0876 L74.8085,78.0715 C74.7826,77.8813 74.7543,77.6929 74.7235,77.5061 L74.7194,77.4814 C74.6885,77.2959 74.6553,77.112 74.6196,76.93 L74.6144,76.9042 C74.5979,76.8205 74.5808,76.7372 74.5632,76.6542 L74.5545,76.6139 C74.5373,76.5337 74.5197,76.4538 74.5015,76.3742 L74.4922,76.3337 C74.4518,76.1583 74.409,75.9847 74.3639,75.8126 L74.3573,75.788 C74.3355,75.7059 74.3133,75.6241 74.2906,75.5426 L74.283,75.5155 C74.2599,75.4334 74.2362,75.3517 74.2121,75.2704 L74.2055,75.2481 C74.1806,75.165 74.1554,75.0825 74.1294,75.0002 L74.1249,74.9861 C74.0995,74.9055 74.0735,74.8253 74.0469,74.7455 L74.0332,74.705 C74.0072,74.6275 73.9807,74.5505 73.9536,74.4737 L73.9497,74.4628 C73.9202,74.3794 73.8902,74.2962 73.8594,74.2136 L73.8563,74.2054 C73.8258,74.1234 73.7946,74.0419 73.7629,73.9608 L73.7559,73.943 C73.7261,73.8669 73.6958,73.7911 73.6649,73.7157 L73.6467,73.6719 C73.6169,73.5999 73.5867,73.5282 73.5559,73.4569 L73.548,73.4388 C73.5156,73.3638 73.4828,73.2892 73.4493,73.215 L73.432,73.177 C73.3998,73.1061 73.3672,73.0355 73.334,72.9653 L73.3229,72.9421 C73.289,72.8705 73.2546,72.7992 73.2196,72.7284 L73.1972,72.6836 C73.164,72.6169 73.1303,72.5504 73.0962,72.4843 L73.0809,72.455 C73.0453,72.3864 73.0092,72.318 72.9726,72.2501 L72.9512,72.2108 C72.9151,72.1441 72.8785,72.0777 72.8414,72.0117 L72.8274,71.987 C72.7894,71.9198 72.7511,71.8528 72.7122,71.7862 L72.6824,71.7359 C72.646,71.6743 72.6093,71.613 72.5721,71.552 L72.5542,71.523 C72.5148,71.4586 72.475,71.3945 72.4346,71.3307 L72.4046,71.284 C72.3649,71.2219 72.325,71.16 72.2845,71.0986 L72.2765,71.0866 C72.2316,71.0187 72.1863,70.9509 72.1402,70.8837 L72.1095,70.8395 C72.0692,70.7812 72.0285,70.7231 71.9874,70.6653 L71.9599,70.6271 C71.9179,70.5686 71.8758,70.5102 71.833,70.4522 L71.795,70.4014 C71.7542,70.3466 71.7131,70.2919 71.6715,70.2376 L71.6393,70.1961 C71.5966,70.1407 71.5537,70.0855 71.5102,70.0307 L71.4618,69.9707 C71.4216,69.9207 71.3812,69.8707 71.3404,69.8211 L71.2975,69.7698 C71.2561,69.7199 71.2145,69.6701 71.1724,69.6208 L71.1071,69.5454 C71.0701,69.5027 71.0332,69.4601 70.9958,69.4177 L70.9346,69.3493 C70.8962,69.3064 70.8579,69.2634 70.819,69.2209 C70.7886,69.1877 70.7576,69.1548 70.7268,69.1219 L70.6377,69.0265 C70.6067,68.9938 70.5752,68.9615 70.5439,68.9291 C70.512,68.8961 70.4803,68.8629 70.4481,68.8301 L70.3598,68.7415 C70.3254,68.707 70.2912,68.6725 70.2565,68.6383 L70.1726,68.5569 C70.1358,68.5211 70.099,68.4851 70.0617,68.4496 L69.9794,68.3727 C69.9391,68.3349 69.8988,68.2971 69.858,68.2596 L69.811,68.217 C69.7599,68.1704 69.7088,68.1238 69.6569,68.0778 L69.5896,68.0189 C69.5437,67.9785 69.4979,67.9382 69.4514,67.8983 C69.4201,67.8714 69.3883,67.8449 69.3568,67.8182 C69.3196,67.7867 69.2826,67.7549 69.245,67.7237 C69.2065,67.6917 69.1674,67.6602 69.1285,67.6285 C69.0948,67.601 69.0614,67.5734 69.0275,67.5462 L68.9492,67.4842 C68.9023,67.4469 68.8554,67.4096 68.8079,67.3727 L68.7405,67.3211 C68.6896,67.282 68.6387,67.2428 68.5872,67.2041 L68.5839,67.2016 C68.5124,67.1479 68.4402,67.0944 68.3675,67.0415 L68.3669,67.0411 C68.3031,66.9946 68.2386,66.9488 68.1739,66.9031 L68.1368,66.8766 L68.1303,66.872 C68.0549,66.819 67.979,66.7664 67.9024,66.7143 L67.898,66.7113 C67.8206,66.6587 67.7427,66.6065 67.6641,66.5548 L67.6619,66.5533 C67.5826,66.5011 67.5027,66.4493 67.4222,66.398 L67.4222,36.1118 L67.4222,35.8757 L76.8865,29.4873 L76.8865,14.581 L65.7663,14.581 L65.7663,21.2055 L54.6454,21.2055 L54.6454,14.581 L43.5251,14.581 L43.5251,21.2055 L33.1139,21.2055 L33.1139,14.581 L21.7569,14.581 L21.7569,29.2506 L31.4579,36.1118 L31.4579,66.298 L31.4579,66.398 C26.0158,69.7106 23.4135,75.1526 23.6496,82.7242 L23.6496,82.7242 Z" id="路径" fill="#AAA9A9"></path>
            <g id="_59395768" transform="translate(17.9746, 14.5622)">
                <path d="M-3.55271368e-15,70.29455 L-3.55271368e-15,74.78645 L62.4581,74.78645 L62.4581,70.29455 L54.8866,70.29455 L54.8866,67.41535 L54.8879,67.37905 C54.8899,67.32015 54.891,67.26135 54.8925,67.20265 C55.0416,61.51015 53.1932,56.74715 48.3026,53.63495 L47.315,53.00645 L47.315,20.17995 L56.7793,13.79155 L56.7793,0.01875 L47.7917,0.01875 L47.7917,6.64325 L36.6708,6.64325 L36.6708,0.01875 L25.5505,0.01875 L25.5505,6.64325 L15.1393,6.64325 L15.1393,0.01875 L5.9149,0.01875 L5.9149,13.58455 L15.6159,20.44575 L15.6159,53.03425 L14.5921,53.65735 C9.3091,56.87315 7.6199,62.10855 7.8065,68.09545 L7.8751,70.29455 L-3.55271368e-15,70.29455 Z" id="_57897464" fill="#BDBDBC"></path>
                <path d="M2.1236,72.41815 L2.1236,74.78645 L60.3345,74.78645 L60.3345,72.41815 L52.763,72.41815 L52.763,67.37915 L52.7655,67.30675 C52.7673,67.25325 52.7683,67.19995 52.7697,67.14695 C52.8993,62.19725 51.4239,58.13835 47.1625,55.42645 L45.1914,54.17215 L45.1914,19.05135 L54.6557,12.66295 L54.6557,0.01875 L47.7917,0.01875 L47.7917,6.64325 L36.6708,6.64325 L36.6708,0.01875 L25.5505,0.01875 L25.5505,6.64325 L15.1393,6.64325 L15.1393,0.01875 L8.0385,0.01875 L8.0385,12.48545 L17.7395,19.34665 L17.7395,54.22765 L15.6963,55.47135 C11.0864,58.27745 9.7669,62.82645 9.9291,68.02925 L10.066,72.41815 L2.1236,72.41815 Z" id="_59394816" fill="#C7C7C6"></path>
                <path d="M4.2382,74.53275 L4.2382,74.78645 L58.2199,74.78645 L58.2199,74.53275 L50.6484,74.53275 L50.6484,67.34315 L50.6521,67.23485 C50.6537,67.18665 50.6545,67.13885 50.6558,67.09145 C50.7658,62.89065 49.6529,59.51785 46.0272,57.21055 L43.0768,55.33295 L43.0768,17.92735 L52.5411,11.53895 L52.5411,0.01875 L47.7917,0.01875 L47.7917,6.64325 L36.6708,6.64325 L36.6708,0.01875 L25.5505,0.01875 L25.5505,6.64325 L15.1393,6.64325 L15.1393,0.01875 L10.1531,0.01875 L10.1531,11.39095 L19.8541,18.25215 L19.8541,55.41605 L16.7958,57.27765 C12.8557,59.67605 11.9048,63.53875 12.0427,67.96335 L12.2476,74.53275 L4.2382,74.53275 L4.2382,74.53275 Z" id="_57955136" fill="#D0CFCF"></path>
                <path d="M48.5426,74.78645 L48.5426,67.30735 L48.5474,67.16425 C48.5488,67.12065 48.5496,67.07865 48.5507,67.03625 C48.6408,63.59505 47.8758,60.88305 44.8966,58.98705 L40.971,56.48885 L40.971,16.80815 L50.4353,10.41975 L50.4353,0.01875 L47.7917,0.01875 L47.7917,6.64325 L36.6708,6.64325 L36.6708,0.01875 L25.5505,0.01875 L25.5505,6.64325 L15.1393,6.64325 L15.1393,0.01875 L12.2589,0.01875 L12.2589,10.30105 L21.9599,17.16225 L21.9599,56.59955 L17.8907,59.07645 C14.6391,61.05575 14.0344,64.27105 14.1475,67.89775 L14.3623,74.78645 L48.5426,74.78645 L48.5426,74.78645 Z" id="_41552208" fill="#D5D4D4"></path>
                <path d="M46.4455,74.78645 L46.4455,67.27165 L46.4514,67.09895 C46.4525,67.05905 46.4534,67.01975 46.4544,66.98115 C46.5244,64.30855 46.0924,62.23375 43.7707,60.75625 L38.8739,57.64005 L38.8739,15.69365 L48.3382,9.30525 L48.3382,0.01875 L47.7917,0.01875 L47.7917,6.64325 L36.6708,6.64325 L36.6708,0.01875 L25.5505,0.01875 L25.5505,6.64325 L15.1393,6.64325 L15.1393,0.01875 L14.356,0.01875 L14.356,9.21575 L24.057,16.07695 L24.057,57.77805 L18.9811,60.86775 C16.4415,62.41355 16.1562,65.03065 16.2435,67.83235 L16.4604,74.78645 L46.4455,74.78645 L46.4455,74.78645 Z" id="_57897344" fill="#DBDBDB"></path>
                <path d="M44.3572,74.78645 L44.3572,67.23615 L44.364,67.03525 C44.3667,66.93965 44.3626,67.08255 44.3668,66.92635 C44.4161,65.04295 44.29,63.56205 42.6495,62.51805 L36.7856,58.78635 L36.7856,14.58365 L46.2499,8.19525 L46.2499,6.64325 L36.6708,6.64325 L36.6708,0.01875 L25.5505,0.01875 L25.5505,6.64325 L16.4443,6.64325 L16.4443,8.13485 L26.1453,14.99605 L26.1453,58.95165 L20.0669,62.65155 C18.2768,63.74125 18.2708,65.84055 18.3308,67.76735 L18.5497,74.78645 L44.3572,74.78645 L44.3572,74.78645 Z" id="_58082520" fill="#E2E1E1"></path>
                <path d="M42.2775,74.78645 L42.2775,67.20075 L42.2853,66.97315 C42.2873,66.89795 42.2842,67.00745 42.2878,66.87175 C42.3147,65.84485 42.4406,64.85025 41.533,64.27265 L34.7059,59.92805 L34.7059,13.47835 L44.1702,7.08995 L44.1702,6.64325 L36.6708,6.64325 L36.6708,0.01875 L25.5505,0.01875 L25.5505,6.64325 L18.524,6.64325 L18.524,7.05845 L28.225,13.91965 L28.225,60.12045 L21.1482,64.42805 C20.2178,64.99435 20.3804,66.76745 20.4095,67.70245 L20.6304,74.78645 L42.2775,74.78645 Z" id="_59394888" fill="#E6E5E5"></path>
                <path d="M40.2064,74.78645 L40.2064,67.16545 L40.215,66.91285 C40.2158,66.88035 40.2166,66.84855 40.2174,66.81745 C40.2235,66.58525 40.2255,66.19855 40.1913,65.87375 L32.6348,61.06495 L32.6348,12.37755 L41.1301,6.64325 L36.6708,6.64325 L36.6708,0.01875 L25.5505,0.01875 L25.5505,6.64325 L21.5236,6.64325 L30.2961,12.84775 L30.2961,61.28435 L22.5463,66.00175 C22.465,66.53095 22.4678,67.25675 22.4796,67.63795 L22.7025,74.78645 L40.2064,74.78645 L40.2064,74.78645 Z" id="_58082832" fill="#E8E8E7"></path>
                <path d="M38.1437,74.78645 L38.1437,67.13035 L38.1476,67.01805 L31.6435,62.87895 L24.5343,67.20635 C24.5349,67.34185 24.538,67.46835 24.5413,67.57365 L24.7662,74.78645 L38.1437,74.78645 L38.1437,74.78645 Z M31.1254,10.90785 L37.4432,6.64325 L36.6708,6.64325 L36.6708,0.01875 L25.5505,0.01875 L25.5505,6.64325 L25.0958,6.64325 L31.1254,10.90785 Z" id="_59394672" fill="#EFEEEE"></path>
                <path d="M36.0895,74.78645 L36.0895,68.14325 L31.6193,65.29855 L26.6204,68.34135 L26.8214,74.78645 L36.0895,74.78645 L36.0895,74.78645 Z M31.1526,8.41105 L36.6708,4.68625 L36.6708,0.01875 L25.5505,0.01875 L25.5505,4.44885 L31.1526,8.41105 L31.1526,8.41105 Z" id="_59394720" fill="#EFEEEE"></path>
                <path d="M34.0437,74.78645 L34.0437,69.26635 L31.5953,67.70825 L28.7025,69.46905 L28.8683,74.78645 L34.0437,74.78645 L34.0437,74.78645 Z M31.1798,5.92435 L35.9364,2.71375 L35.9364,0.01875 L26.7578,0.01875 L26.7578,2.79685 L31.1798,5.92435 Z" id="_57897888" fill="#F2F2F2"></path>
                <path d="M32.0061,74.78645 L32.0061,70.38485 L31.5714,70.10815 L30.7761,70.59225 L30.9069,74.78645 L32.0061,74.78645 L32.0061,74.78645 Z M31.2068,3.44785 L33.8988,1.63075 L33.8988,0.01875 L28.7954,0.01875 L28.7954,1.74235 L31.2068,3.44785 Z" id="_58080944" fill="#F5F5F5"></path>
                <polygon id="_57897392" fill="#F9F9F9" points="31.2338 0.98125 31.8694 0.55215 31.8694 0.01875 30.8248 0.01875 30.8248 0.69195"></polygon>
            </g>
            <g id="_55544352" transform="translate(16.3148, 14.3449)" stroke="#1F1A17" stroke-width="1.4111">
                <polygon id="_57897912" stroke-linecap="round" stroke-linejoin="round" points="7.8076 68.1432 -3.55271368e-15 68.1432 -3.55271368e-15 74.7677 66.7233 74.7677 66.7233 68.1432 59.1518 68.1432"></polygon>
                <path d="M59.1518,67.4329 C59.3885,60.3349 56.7855,55.1296 51.5802,51.817" id="_57897320" stroke-linecap="round" stroke-linejoin="round"></path>
                <polyline id="_58080840" stroke-linecap="round" stroke-linejoin="round" points="51.5802 51.817 51.5802 21.5308 51.5802 21.2947"></polyline>
                <polyline id="_58080768" stroke-linecap="round" stroke-linejoin="round" points="51.5802 21.2947 61.0445 14.9063 61.0445 -3.55271368e-15 49.9243 -3.55271368e-15 49.9243 6.6245 38.8034 6.6245 38.8034 -3.55271368e-15 27.6831 -3.55271368e-15 27.6831 6.6245 17.2719 6.6245 17.2719 -3.55271368e-15 5.9149 -3.55271368e-15 5.9149 14.6696 15.6159 21.5308"></polyline>
                <polygon id="_59395792" points="51.5802 21.2947 51.1074 21.5308 51.5802 21.5308"></polygon>
                <polyline id="_58082472" stroke-linecap="round" stroke-linejoin="round" points="15.6159 21.5308 51.1074 21.5308 51.5802 21.2947"></polyline>
                <path d="M15.6159,51.817 C10.1738,55.1296 7.5715,60.5716 7.8076,68.1432" id="_58083032" stroke-linecap="round" stroke-linejoin="round"></path>
                <line x1="15.6159" y1="51.817" x2="51.5802" y2="51.817" id="_58081720" stroke-linecap="round" stroke-linejoin="round"></line>
                <line x1="15.6159" y1="21.5308" x2="15.6159" y2="51.817" id="_57897416" stroke-linecap="round" stroke-linejoin="round"></line>
            </g>
        </g>
    </g>
</svg>